<svg xmlns="http://www.w3.org/2000/svg" xmlns:xlink="http://www.w3.org/1999/xlink" version="1.2" width="180.00mm" height="45.55mm" viewBox="0.0000 -0.0000 113.8110 28.8031">
<text transform="translate(103.4163, 1.6313)" font-family="serif" font-size="2.2000" text-anchor="start" fill="currentColor">
<tspan>
BWV 568</tspan>
</text>
<line transform="translate(9.4843, 7.4692)" stroke-linejoin="round" stroke-linecap="round" stroke-width="0.1073" stroke="currentColor" x1="0.0537" y1="-0.0000" x2="104.2731" y2="-0.0000"/>
<line transform="translate(9.4843, 6.4692)" stroke-linejoin="round" stroke-linecap="round" stroke-width="0.1073" stroke="currentColor" x1="0.0537" y1="-0.0000" x2="104.2731" y2="-0.0000"/>
<line transform="translate(9.4843, 5.4692)" stroke-linejoin="round" stroke-linecap="round" stroke-width="0.1073" stroke="currentColor" x1="0.0537" y1="-0.0000" x2="104.2731" y2="-0.0000"/>
<line transform="translate(9.4843, 4.4692)" stroke-linejoin="round" stroke-linecap="round" stroke-width="0.1073" stroke="currentColor" x1="0.0537" y1="-0.0000" x2="104.2731" y2="-0.0000"/>
<line transform="translate(9.4843, 3.4692)" stroke-linejoin="round" stroke-linecap="round" stroke-width="0.1073" stroke="currentColor" x1="0.0537" y1="-0.0000" x2="104.2731" y2="-0.0000"/>
<rect transform="translate(65.9266, 25.2312)" x="0.0000" y="-2.0000" width="0.2039" height="4.0000" ry="0.0000" fill="currentColor"/>
<rect transform="translate(113.6072, 5.4692)" x="0.0000" y="-2.0000" width="0.2039" height="4.0537" ry="0.0000" fill="currentColor"/>
<rect transform="translate(113.6072, 14.5628)" x="0.0000" y="-2.0537" width="0.2039" height="4.0537" ry="0.0000" fill="currentColor"/>
<rect transform="translate(65.9266, 1.6932)" x="0.0000" y="5.8297" width="0.2039" height="5.0399" ry="0.0000" fill="currentColor"/>
<rect transform="translate(113.6072, 1.6932)" x="0.0000" y="5.8297" width="0.2039" height="5.0399" ry="0.0000" fill="currentColor"/>
<rect transform="translate(113.6072, 25.2312)" x="0.0000" y="-2.0000" width="0.2039" height="4.0000" ry="0.0000" fill="currentColor"/>
<rect transform="translate(65.9266, 14.5628)" x="0.0000" y="-2.0537" width="0.2039" height="4.0537" ry="0.0000" fill="currentColor"/>
<rect transform="translate(65.9266, 5.4692)" x="0.0000" y="-2.0000" width="0.2039" height="4.0537" ry="0.0000" fill="currentColor"/>
<line transform="translate(9.4843, 27.2312)" stroke-linejoin="round" stroke-linecap="round" stroke-width="0.1073" stroke="currentColor" x1="0.0537" y1="-0.0000" x2="104.2731" y2="-0.0000"/>
<line transform="translate(9.4843, 26.2312)" stroke-linejoin="round" stroke-linecap="round" stroke-width="0.1073" stroke="currentColor" x1="0.0537" y1="-0.0000" x2="104.2731" y2="-0.0000"/>
<line transform="translate(9.4843, 25.2312)" stroke-linejoin="round" stroke-linecap="round" stroke-width="0.1073" stroke="currentColor" x1="0.0537" y1="-0.0000" x2="104.2731" y2="-0.0000"/>
<line transform="translate(9.4843, 24.2312)" stroke-linejoin="round" stroke-linecap="round" stroke-width="0.1073" stroke="currentColor" x1="0.0537" y1="-0.0000" x2="104.2731" y2="-0.0000"/>
<line transform="translate(9.4843, 23.2312)" stroke-linejoin="round" stroke-linecap="round" stroke-width="0.1073" stroke="currentColor" x1="0.0537" y1="-0.0000" x2="104.2731" y2="-0.0000"/>
<line transform="translate(9.4843, 16.5628)" stroke-linejoin="round" stroke-linecap="round" stroke-width="0.1073" stroke="currentColor" x1="0.0537" y1="-0.0000" x2="104.2731" y2="-0.0000"/>
<line transform="translate(9.4843, 15.5628)" stroke-linejoin="round" stroke-linecap="round" stroke-width="0.1073" stroke="currentColor" x1="0.0537" y1="-0.0000" x2="104.2731" y2="-0.0000"/>
<line transform="translate(9.4843, 14.5628)" stroke-linejoin="round" stroke-linecap="round" stroke-width="0.1073" stroke="currentColor" x1="0.0537" y1="-0.0000" x2="104.2731" y2="-0.0000"/>
<line transform="translate(9.4843, 13.5628)" stroke-linejoin="round" stroke-linecap="round" stroke-width="0.1073" stroke="currentColor" x1="0.0537" y1="-0.0000" x2="104.2731" y2="-0.0000"/>
<line transform="translate(9.4843, 12.5628)" stroke-linejoin="round" stroke-linecap="round" stroke-width="0.1073" stroke="currentColor" x1="0.0537" y1="-0.0000" x2="104.2731" y2="-0.0000"/>
<rect transform="translate(0.0000, 8.4692)" x="110.2454" y="-0.1037" width="1.9542" height="0.2073" ry="0.1037" fill="currentColor"/>
<rect transform="translate(0.0000, 9.4692)" x="110.2454" y="-0.1037" width="1.9542" height="0.2073" ry="0.1037" fill="currentColor"/>
<rect transform="translate(0.0000, 8.4692)" x="107.3918" y="-0.1037" width="1.9542" height="0.2073" ry="0.1037" fill="currentColor"/>
<rect transform="translate(0.0000, 8.4692)" x="104.5382" y="-0.1037" width="1.9542" height="0.2073" ry="0.1037" fill="currentColor"/>
<rect transform="translate(0.0000, 8.4692)" x="101.4346" y="-0.1037" width="1.9542" height="0.2073" ry="0.1037" fill="currentColor"/>
<rect transform="translate(0.0000, 9.4692)" x="101.4346" y="-0.1037" width="1.9542" height="0.2073" ry="0.1037" fill="currentColor"/>
<rect transform="translate(0.0000, 8.4692)" x="98.5810" y="-0.1037" width="1.9542" height="0.2073" ry="0.1037" fill="currentColor"/>
<rect transform="translate(0.0000, 8.4692)" x="95.7274" y="-0.1037" width="1.9542" height="0.2073" ry="0.1037" fill="currentColor"/>
<rect transform="translate(0.0000, 8.4692)" x="89.7702" y="-0.1037" width="1.9542" height="0.2073" ry="0.1037" fill="currentColor"/>
<rect transform="translate(0.0000, 8.4692)" x="86.9166" y="-0.1037" width="1.9542" height="0.2073" ry="0.1037" fill="currentColor"/>
<rect transform="translate(0.0000, 9.4692)" x="86.9166" y="-0.1037" width="1.9542" height="0.2073" ry="0.1037" fill="currentColor"/>
<rect transform="translate(0.0000, 8.4692)" x="84.0630" y="-0.1037" width="1.9542" height="0.2073" ry="0.1037" fill="currentColor"/>
<rect transform="translate(0.0000, 8.4692)" x="81.2094" y="-0.1037" width="1.9542" height="0.2073" ry="0.1037" fill="currentColor"/>
<path transform="translate(72.9743, 6.9692) scale(0.0040, -0.0040)" d="M215 137c57 0 111 -29 111 -92c0 -71 -54 -120 -101 -148c-35 -21 -74 -34 -114 -34c-57 0 -111 29 -111 92c0 71 54 120 101 148c35 21 74 34 114 34z" fill="currentColor"/>
<rect transform="translate(79.9146, 5.4692)" x="-0.0697" y="-0.4960" width="0.1395" height="2.8166" ry="0.0444" fill="currentColor"/>
<rect transform="translate(74.2074, 5.4692)" x="-0.0697" y="-1.4068" width="0.1395" height="2.7275" ry="0.0444" fill="currentColor"/>
<path transform="translate(78.6815, 7.9692) scale(0.0040, -0.0040)" d="M215 137c57 0 111 -29 111 -92c0 -71 -54 -120 -101 -148c-35 -21 -74 -34 -114 -34c-57 0 -111 29 -111 92c0 71 54 120 101 148c35 21 74 34 114 34z" fill="currentColor"/>
<rect transform="translate(77.0610, 5.4692)" x="-0.0697" y="-1.0097" width="0.1395" height="2.8303" ry="0.0444" fill="currentColor"/>
<path transform="translate(75.8279, 7.4692) scale(0.0040, -0.0040)" d="M215 137c57 0 111 -29 111 -92c0 -71 -54 -120 -101 -148c-35 -21 -74 -34 -114 -34c-57 0 -111 29 -111 92c0 71 54 120 101 148c35 21 74 34 114 34z" fill="currentColor"/>
<path transform="translate(87.2423, 9.4692) scale(0.0040, -0.0040)" d="M215 137c57 0 111 -29 111 -92c0 -71 -54 -120 -101 -148c-35 -21 -74 -34 -114 -34c-57 0 -111 29 -111 92c0 71 54 120 101 148c35 21 74 34 114 34z" fill="currentColor"/>
<rect transform="translate(85.6218, 5.4692)" x="-0.0697" y="-0.1680" width="0.1395" height="3.4886" ry="0.0444" fill="currentColor"/>
<path transform="translate(84.3887, 8.9692) scale(0.0040, -0.0040)" d="M215 137c57 0 111 -29 111 -92c0 -71 -54 -120 -101 -148c-35 -21 -74 -34 -114 -34c-57 0 -111 29 -111 92c0 71 54 120 101 148c35 21 74 34 114 34z" fill="currentColor"/>
<rect transform="translate(88.4754, 5.4692)" x="-0.0697" y="-0.0040" width="0.1395" height="3.8246" ry="0.0444" fill="currentColor"/>
<rect transform="translate(82.7682, 5.4692)" x="-0.0697" y="-0.3320" width="0.1395" height="3.1526" ry="0.0444" fill="currentColor"/>
<path transform="translate(81.5351, 8.4692) scale(0.0040, -0.0040)" d="M215 137c57 0 111 -29 111 -92c0 -71 -54 -120 -101 -148c-35 -21 -74 -34 -114 -34c-57 0 -111 29 -111 92c0 71 54 120 101 148c35 21 74 34 114 34z" fill="currentColor"/>
<path transform="translate(67.2671, 27.2312) scale(0.0040, -0.0040)" d="M211 111c-49 0 -68 -43 -68 -88c0 -75 57 -134 132 -134c49 0 68 43 68 88c0 75 -57 134 -132 134zM486 0c0 -43 -33 -76 -71 -97c-52 -29 -112 -40 -172 -40s-120 11 -172 40c-38 21 -71 54 -71 97s33 76 71 97c52 29 112 40 172 40s120 -11 172 -40
c38 -21 71 -54 71 -97z" fill="currentColor"/>
<path transform="translate(67.4066, 8.7998) scale(0.0040, -0.0040)" d="M0 205c90 51 209 131 209 232c0 24 -4 47 -13 69c-79 -88 -196 -159 -196 -281v-20zM267 662c0 -44 -16 -81 -39 -115c16 -35 25 -72 25 -110c0 -180 -253 -257 -253 -437h-18v500h18v-70c96 49 222 128 222 232c0 21 -4 42 -13 61c-3 17 10 28 24 28c30 0 34 -63 34 -89
z" fill="currentColor"/>
<rect transform="translate(67.3369, 5.4692)" x="-0.0697" y="0.1794" width="0.1395" height="3.1956" ry="0.0444" fill="currentColor"/>
<path transform="translate(19.7262, 25.2312)" stroke-width="0.0858" stroke-linejoin="round" stroke-linecap="round" stroke="currentColor" fill="currentColor" d="M1.1728 2.7500C2.9404 3.7886 46.5462 3.7886 48.3137 2.7500L48.3137 2.7500C46.5462 3.6598 2.9404 3.6598 1.1728 2.7500z"/>
<rect transform="translate(71.3538, 5.4692)" x="-0.0697" y="-1.8039" width="0.1395" height="2.6246" ry="0.0444" fill="currentColor"/>
<path transform="translate(70.1207, 6.4692) scale(0.0040, -0.0040)" d="M215 137c57 0 111 -29 111 -92c0 -71 -54 -120 -101 -148c-35 -21 -74 -34 -114 -34c-57 0 -111 29 -111 92c0 71 54 120 101 148c35 21 74 34 114 34z" fill="currentColor"/>
<rect transform="translate(111.8042, 5.4692)" x="-0.0697" y="0.0000" width="0.1395" height="3.8206" ry="0.0444" fill="currentColor"/>
<path transform="translate(110.5711, 9.4692) scale(0.0040, -0.0040)" d="M215 137c57 0 111 -29 111 -92c0 -71 -54 -120 -101 -148c-35 -21 -74 -34 -114 -34c-57 0 -111 29 -111 92c0 71 54 120 101 148c35 21 74 34 114 34z" fill="currentColor"/>
<rect transform="translate(108.9506, 5.4692)" x="-0.0697" y="0.0000" width="0.1395" height="3.3206" ry="0.0444" fill="currentColor"/>
<path transform="translate(107.7175, 8.9692) scale(0.0040, -0.0040)" d="M215 137c57 0 111 -29 111 -92c0 -71 -54 -120 -101 -148c-35 -21 -74 -34 -114 -34c-57 0 -111 29 -111 92c0 71 54 120 101 148c35 21 74 34 114 34z" fill="currentColor"/>
<polygon transform="translate(22.4770, 5.6556)" stroke-linejoin="round" stroke-linecap="round" stroke-width="0.0889" fill="currentColor" stroke="currentColor" points="5.8023 0.6181 5.8023 1.0092 0.0444 0.1956 0.0444 -0.1956"/>
<polygon transform="translate(22.4770, 6.4692)" stroke-linejoin="round" stroke-linecap="round" stroke-width="0.0889" fill="currentColor" stroke="currentColor" points="5.8023 0.6181 5.8023 1.0092 0.0444 0.1956 0.0444 -0.1956"/>
<polygon transform="translate(31.0378, 7.6556)" stroke-linejoin="round" stroke-linecap="round" stroke-width="0.0889" fill="currentColor" stroke="currentColor" points="8.6559 0.6181 8.6559 1.0092 0.0444 0.1956 0.0444 -0.1956"/>
<polygon transform="translate(31.0378, 8.4692)" stroke-linejoin="round" stroke-linecap="round" stroke-width="0.0889" fill="currentColor" stroke="currentColor" points="8.6559 0.6181 8.6559 1.0092 0.0444 0.1956 0.0444 -0.1956"/>
<polygon transform="translate(42.4522, 7.6556)" stroke-linejoin="round" stroke-linecap="round" stroke-width="0.0889" fill="currentColor" stroke="currentColor" points="8.9059 -0.1956 8.9059 0.1956 0.0444 0.1956 0.0444 -0.1956"/>
<polygon transform="translate(42.4522, 8.4692)" stroke-linejoin="round" stroke-linecap="round" stroke-width="0.0889" fill="currentColor" stroke="currentColor" points="8.9059 -0.1956 8.9059 0.1956 0.0444 0.1956 0.0444 -0.1956"/>
<polygon transform="translate(55.2598, 2.4692)" stroke-linejoin="round" stroke-linecap="round" stroke-width="0.0889" fill="currentColor" stroke="currentColor" points="8.9059 -0.1956 8.9059 0.1956 0.0444 0.1956 0.0444 -0.1956"/>
<polygon transform="translate(55.2598, 3.2829)" stroke-linejoin="round" stroke-linecap="round" stroke-width="0.0889" fill="currentColor" stroke="currentColor" points="8.9059 -0.1956 8.9059 0.1956 0.0444 0.1956 0.0444 -0.1956"/>
<polygon transform="translate(71.2840, 3.6556)" stroke-linejoin="round" stroke-linecap="round" stroke-width="0.0889" fill="currentColor" stroke="currentColor" points="5.8023 0.6181 5.8023 1.0092 0.0444 0.1956 0.0444 -0.1956"/>
<polygon transform="translate(71.2840, 4.4692)" stroke-linejoin="round" stroke-linecap="round" stroke-width="0.0889" fill="currentColor" stroke="currentColor" points="5.8023 0.6181 5.8023 1.0092 0.0444 0.1956 0.0444 -0.1956"/>
<polygon transform="translate(79.8448, 4.9692)" stroke-linejoin="round" stroke-linecap="round" stroke-width="0.0889" fill="currentColor" stroke="currentColor" points="8.6559 0.3044 8.6559 0.6956 0.0444 0.1956 0.0444 -0.1956"/>
<polygon transform="translate(79.8448, 5.7829)" stroke-linejoin="round" stroke-linecap="round" stroke-width="0.0889" fill="currentColor" stroke="currentColor" points="8.6559 0.3044 8.6559 0.6956 0.0444 0.1956 0.0444 -0.1956"/>
<polygon transform="translate(91.2592, 5.4692)" stroke-linejoin="round" stroke-linecap="round" stroke-width="0.0889" fill="currentColor" stroke="currentColor" points="8.9059 -0.1956 8.9059 0.1956 0.0444 0.1956 0.0444 -0.1956"/>
<polygon transform="translate(91.2592, 6.2829)" stroke-linejoin="round" stroke-linecap="round" stroke-width="0.0889" fill="currentColor" stroke="currentColor" points="8.9059 -0.1956 8.9059 0.1956 0.0444 0.1956 0.0444 -0.1956"/>
<polygon transform="translate(102.9237, 5.4692)" stroke-linejoin="round" stroke-linecap="round" stroke-width="0.0889" fill="currentColor" stroke="currentColor" points="8.9059 -0.1956 8.9059 0.1956 0.0444 0.1956 0.0444 -0.1956"/>
<polygon transform="translate(102.9237, 6.2829)" stroke-linejoin="round" stroke-linecap="round" stroke-width="0.0889" fill="currentColor" stroke="currentColor" points="8.9059 -0.1956 8.9059 0.1956 0.0444 0.1956 0.0444 -0.1956"/>
<rect transform="translate(94.4326, 5.4692)" x="-0.0697" y="0.0000" width="0.1395" height="2.3206" ry="0.0444" fill="currentColor"/>
<rect transform="translate(97.2862, 5.4692)" x="-0.0697" y="0.0000" width="0.1395" height="2.8206" ry="0.0444" fill="currentColor"/>
<path transform="translate(96.0531, 8.4692) scale(0.0040, -0.0040)" d="M215 137c57 0 111 -29 111 -92c0 -71 -54 -120 -101 -148c-35 -21 -74 -34 -114 -34c-57 0 -111 29 -111 92c0 71 54 120 101 148c35 21 74 34 114 34z" fill="currentColor"/>
<path transform="translate(93.1995, 7.9692) scale(0.0040, -0.0040)" d="M215 137c57 0 111 -29 111 -92c0 -71 -54 -120 -101 -148c-35 -21 -74 -34 -114 -34c-57 0 -111 29 -111 92c0 71 54 120 101 148c35 21 74 34 114 34z" fill="currentColor"/>
<rect transform="translate(91.3290, 5.4692)" x="-0.0697" y="0.0000" width="0.1395" height="3.3206" ry="0.0444" fill="currentColor"/>
<path transform="translate(90.0959, 8.9692) scale(0.0040, -0.0040)" d="M215 137c57 0 111 -29 111 -92c0 -71 -54 -120 -101 -148c-35 -21 -74 -34 -114 -34c-57 0 -111 29 -111 92c0 71 54 120 101 148c35 21 74 34 114 34z" fill="currentColor"/>
<rect transform="translate(106.0970, 5.4692)" x="-0.0697" y="0.0000" width="0.1395" height="2.8206" ry="0.0444" fill="currentColor"/>
<path transform="translate(104.8639, 8.4692) scale(0.0040, -0.0040)" d="M215 137c57 0 111 -29 111 -92c0 -71 -54 -120 -101 -148c-35 -21 -74 -34 -114 -34c-57 0 -111 29 -111 92c0 71 54 120 101 148c35 21 74 34 114 34z" fill="currentColor"/>
<rect transform="translate(102.9934, 5.4692)" x="-0.0697" y="0.0000" width="0.1395" height="3.8206" ry="0.0444" fill="currentColor"/>
<path transform="translate(101.7603, 9.4692) scale(0.0040, -0.0040)" d="M215 137c57 0 111 -29 111 -92c0 -71 -54 -120 -101 -148c-35 -21 -74 -34 -114 -34c-57 0 -111 29 -111 92c0 71 54 120 101 148c35 21 74 34 114 34z" fill="currentColor"/>
<rect transform="translate(100.1398, 5.4692)" x="-0.0697" y="0.0000" width="0.1395" height="3.3206" ry="0.0444" fill="currentColor"/>
<path transform="translate(98.9067, 8.9692) scale(0.0040, -0.0040)" d="M215 137c57 0 111 -29 111 -92c0 -71 -54 -120 -101 -148c-35 -21 -74 -34 -114 -34c-57 0 -111 29 -111 92c0 71 54 120 101 148c35 21 74 34 114 34z" fill="currentColor"/>
<path transform="translate(28.1842, 3.9692) scale(0.0040, -0.0040)" d="M215 137c57 0 111 -29 111 -92c0 -71 -54 -120 -101 -148c-35 -21 -74 -34 -114 -34c-57 0 -111 29 -111 92c0 71 54 120 101 148c35 21 74 34 114 34z" fill="currentColor"/>
<rect transform="translate(25.4004, 5.4692)" x="-0.0697" y="-1.8206" width="0.1395" height="3.2275" ry="0.0444" fill="currentColor"/>
<path transform="translate(25.3306, 3.4692) scale(0.0040, -0.0040)" d="M215 137c57 0 111 -29 111 -92c0 -71 -54 -120 -101 -148c-35 -21 -74 -34 -114 -34c-57 0 -111 29 -111 92c0 71 54 120 101 148c35 21 74 34 114 34z" fill="currentColor"/>
<rect transform="translate(28.2540, 5.4692)" x="-0.0697" y="-1.3206" width="0.1395" height="3.1246" ry="0.0444" fill="currentColor"/>
<rect transform="translate(22.5468, 5.4692)" x="-0.0697" y="-2.3206" width="0.1395" height="3.3303" ry="0.0444" fill="currentColor"/>
<path transform="translate(22.4770, 2.9692) scale(0.0040, -0.0040)" d="M215 137c57 0 111 -29 111 -92c0 -71 -54 -120 -101 -148c-35 -21 -74 -34 -114 -34c-57 0 -111 29 -111 92c0 71 54 120 101 148c35 21 74 34 114 34z" fill="currentColor"/>
<rect transform="translate(36.8148, 5.4692)" x="-0.0697" y="0.1794" width="0.1395" height="3.3609" ry="0.0444" fill="currentColor"/>
<path transform="translate(36.7450, 5.4692) scale(0.0040, -0.0040)" d="M215 137c57 0 111 -29 111 -92c0 -71 -54 -120 -101 -148c-35 -21 -74 -34 -114 -34c-57 0 -111 29 -111 92c0 71 54 120 101 148c35 21 74 34 114 34z" fill="currentColor"/>
<path transform="translate(67.2671, 13.5628) scale(0.0040, -0.0040)" d="M364 -156h-353c-6 0 -11 5 -11 11v134c0 6 5 11 11 11h353c6 0 11 -5 11 -11v-134c0 -6 -5 -11 -11 -11z" fill="currentColor"/>
<rect transform="translate(33.9612, 5.4692)" x="-0.0697" y="-0.3206" width="0.1395" height="3.5940" ry="0.0444" fill="currentColor"/>
<path transform="translate(33.8914, 4.9692) scale(0.0040, -0.0040)" d="M215 137c57 0 111 -29 111 -92c0 -71 -54 -120 -101 -148c-35 -21 -74 -34 -114 -34c-57 0 -111 29 -111 92c0 71 54 120 101 148c35 21 74 34 114 34z" fill="currentColor"/>
<rect transform="translate(31.1076, 5.4692)" x="-0.0697" y="-0.8206" width="0.1395" height="3.8272" ry="0.0444" fill="currentColor"/>
<path transform="translate(31.0378, 4.4692) scale(0.0040, -0.0040)" d="M215 137c57 0 111 -29 111 -92c0 -71 -54 -120 -101 -148c-35 -21 -74 -34 -114 -34c-57 0 -111 29 -111 92c0 71 54 120 101 148c35 21 74 34 114 34z" fill="currentColor"/>
<path transform="translate(13.7843, 13.5628) scale(0.0040, -0.0040)" d="M217 -311c0 -11 -8 -19 -19 -19s-20 8 -20 19v142l-81 -30v-156c0 -11 -9 -20 -20 -20s-19 9 -19 20v142l-28 -11c-3 -1 -5 -1 -8 -1c-12 0 -22 10 -22 23v57c0 9 6 18 15 21l43 16v157l-28 -10c-3 -1 -5 -1 -8 -1c-12 0 -22 9 -22 22v57c0 9 6 18 15 21l43 16v157
c0 11 8 19 19 19s20 -8 20 -19v-142l81 30v156c0 11 9 20 20 20s19 -9 19 -20v-142l28 11c3 1 5 1 8 1c12 0 22 -10 22 -23v-57c0 -9 -6 -18 -15 -21l-43 -16v-157l28 10c3 1 5 1 8 1c12 0 22 -9 22 -22v-57c0 -9 -6 -18 -15 -21l-43 -16v-157zM97 64v-158l81 30v158z" fill="currentColor"/>
<path transform="translate(10.2843, 13.5628) scale(0.0040, -0.0040)" d="M558 -125c0 28 22 51 50 51s51 -23 51 -51s-23 -51 -51 -51s-50 23 -50 51zM558 125c0 28 22 51 50 51s51 -23 51 -51s-23 -51 -51 -51s-50 23 -50 51zM231 264c172 0 294 -88 294 -251c0 -263 -262 -416 -515 -523c-3 -3 -7 -4 -10 -4c-7 0 -14 7 -14 14c0 3 1 7 4 10
c201 118 410 265 410 492c0 119 -61 234 -169 234c-72 0 -124 -53 -148 -123c10 4 19 6 29 6c55 0 100 -45 100 -100c0 -58 -44 -106 -100 -106c-60 0 -112 47 -112 106c0 133 101 245 231 245z" fill="currentColor"/>
<path transform="translate(19.7262, 13.5628) scale(0.0040, -0.0040)" d="M364 -156h-353c-6 0 -11 5 -11 11v134c0 6 5 11 11 11h353c6 0 11 -5 11 -11v-134c0 -6 -5 -11 -11 -11z" fill="currentColor"/>
<path transform="translate(16.0343, 5.4692) scale(0.0040, -0.0040)" d="M358 29c-49 0 -74 41 -74 73c0 38 27 76 71 76c4 0 7 0 11 -1c-27 36 -69 59 -116 59c-106 0 -113 -74 -113 -188c0 -15 1 -31 1 -48s-1 -33 -1 -48c0 -114 7 -188 113 -188c79 0 136 70 155 150c2 7 7 10 13 10c7 0 14 -5 14 -13c0 -95 -105 -175 -182 -175
c-68 0 -137 20 -184 70c-49 51 -66 123 -66 194s17 143 66 194c47 50 116 70 184 70c86 0 158 -66 173 -152c1 -4 1 -9 1 -13c0 -39 -30 -70 -66 -70z" fill="currentColor"/>
<path transform="translate(13.7843, 3.4692) scale(0.0040, -0.0040)" d="M217 -311c0 -11 -8 -19 -19 -19s-20 8 -20 19v142l-81 -30v-156c0 -11 -9 -20 -20 -20s-19 9 -19 20v142l-28 -11c-3 -1 -5 -1 -8 -1c-12 0 -22 10 -22 23v57c0 9 6 18 15 21l43 16v157l-28 -10c-3 -1 -5 -1 -8 -1c-12 0 -22 9 -22 22v57c0 9 6 18 15 21l43 16v157
c0 11 8 19 19 19s20 -8 20 -19v-142l81 30v156c0 11 9 20 20 20s19 -9 19 -20v-142l28 11c3 1 5 1 8 1c12 0 22 -10 22 -23v-57c0 -9 -6 -18 -15 -21l-43 -16v-157l28 10c3 1 5 1 8 1c12 0 22 -9 22 -22v-57c0 -9 -6 -18 -15 -21l-43 -16v-157zM97 64v-158l81 30v158z" fill="currentColor"/>
<path transform="translate(10.2843, 6.4692) scale(0.0040, -0.0040)" d="M378 263c4 0 7 1 11 1c156 0 257 -129 257 -262c0 -76 -34 -154 -108 -210c-22 -17 -46 -29 -72 -37c3 -34 4 -68 4 -102c0 -20 0 -40 -1 -60c-7 -121 -90 -228 -209 -228c-108 0 -196 87 -196 196c0 58 53 104 112 104c54 0 95 -48 95 -104c0 -52 -43 -95 -95 -95
c-10 0 -20 2 -29 6c26 -38 68 -63 116 -63c95 0 156 91 162 190c1 19 2 37 2 56c0 30 -2 60 -4 90c-29 -5 -58 -8 -88 -8c-188 0 -333 173 -333 375c0 177 130 307 246 442c-20 62 -38 125 -46 190c-6 52 -7 104 -7 157c0 115 55 223 148 290c3 2 7 3 11 3s8 -1 11 -4
c71 -83 134 -244 134 -357c0 -143 -85 -255 -178 -364c21 -68 40 -137 57 -206zM462 -202c67 24 111 94 111 162c0 89 -65 178 -170 190c24 -115 46 -230 59 -352zM75 26c0 -134 129 -245 263 -245c28 0 55 2 81 6c-14 126 -36 244 -61 363c-79 -8 -124 -61 -124 -119
c0 -43 25 -89 80 -121c5 -5 7 -11 7 -16c0 -12 -10 -23 -22 -23c-3 0 -6 1 -9 2c-81 43 -118 116 -118 186c0 89 58 175 161 198c-14 58 -29 116 -46 173c-106 -122 -212 -244 -212 -404zM406 1042c-99 -47 -162 -148 -162 -257c0 -73 20 -132 38 -191
c79 97 144 199 144 324c0 53 -4 76 -20 124z" fill="currentColor"/>
<path transform="translate(19.7262, 5.4692) scale(0.0040, -0.0040)" d="M64 -500l100 326c-33 -12 -67 -22 -103 -22c-46 0 -87 33 -87 79c0 40 33 72 73 72c25 0 48 -14 56 -38c10 -27 5 -59 34 -59c16 0 53 51 58 67l46 151c-33 -12 -67 -22 -102 -22c-46 0 -87 33 -87 79c0 40 33 72 73 72c25 0 48 -14 56 -38c10 -27 5 -59 34 -59
c14 0 48 45 54 59c6 13 26 13 31 0l-177 -667c-9 -7 -19 -11 -30 -11s-20 4 -29 11z" fill="currentColor"/>
<path transform="translate(67.2671, 25.2312)" stroke-width="0.0858" stroke-linejoin="round" stroke-linecap="round" stroke="currentColor" fill="currentColor" d="M2.1456 2.5000C3.8986 3.5367 44.3871 3.5367 46.1400 2.5000L46.1400 2.5000C44.3871 3.4080 3.8986 3.4080 2.1456 2.5000z"/>
<path transform="translate(16.0343, 14.5628) scale(0.0040, -0.0040)" d="M358 29c-49 0 -74 41 -74 73c0 38 27 76 71 76c4 0 7 0 11 -1c-27 36 -69 59 -116 59c-106 0 -113 -74 -113 -188c0 -15 1 -31 1 -48s-1 -33 -1 -48c0 -114 7 -188 113 -188c79 0 136 70 155 150c2 7 7 10 13 10c7 0 14 -5 14 -13c0 -95 -105 -175 -182 -175
c-68 0 -137 20 -184 70c-49 51 -66 123 -66 194s17 143 66 194c47 50 116 70 184 70c86 0 158 -66 173 -152c1 -4 1 -9 1 -13c0 -39 -30 -70 -66 -70z" fill="currentColor"/>
<rect transform="translate(9.4126, 15.3502)" x="0.0000" y="-11.9346" width="0.1717" height="23.8693" ry="0.0537" fill="currentColor"/>
<path transform="translate(9.1126, 10.0160) scale(0.0040, -0.0040)" d="M-15 -501c0 -264 -105 -522 -105 -771c0 -135 33 -264 132 -363c3 -3 3 -6 3 -9c0 -9 -6 -18 -15 -18c-3 0 -9 3 -12 6c-132 135 -177 312 -177 501c0 270 108 534 108 789c0 135 -30 258 -129 357c-3 3 -3 6 -3 9s0 6 3 9c99 99 129 222 129 357
c0 255 -108 519 -108 789c0 189 45 366 177 501c3 3 9 6 12 6c9 0 15 -9 15 -18c0 -3 0 -6 -3 -9c-99 -99 -132 -228 -132 -363c0 -249 105 -507 105 -771c0 -186 -45 -366 -174 -501c129 -135 174 -315 174 -501z" fill="currentColor"/>
<path transform="translate(16.0343, 25.2312) scale(0.0040, -0.0040)" d="M358 29c-49 0 -74 41 -74 73c0 38 27 76 71 76c4 0 7 0 11 -1c-27 36 -69 59 -116 59c-106 0 -113 -74 -113 -188c0 -15 1 -31 1 -48s-1 -33 -1 -48c0 -114 7 -188 113 -188c79 0 136 70 155 150c2 7 7 10 13 10c7 0 14 -5 14 -13c0 -95 -105 -175 -182 -175
c-68 0 -137 20 -184 70c-49 51 -66 123 -66 194s17 143 66 194c47 50 116 70 184 70c86 0 158 -66 173 -152c1 -4 1 -9 1 -13c0 -39 -30 -70 -66 -70z" fill="currentColor"/>
<path transform="translate(13.7843, 24.2312) scale(0.0040, -0.0040)" d="M217 -311c0 -11 -8 -19 -19 -19s-20 8 -20 19v142l-81 -30v-156c0 -11 -9 -20 -20 -20s-19 9 -19 20v142l-28 -11c-3 -1 -5 -1 -8 -1c-12 0 -22 10 -22 23v57c0 9 6 18 15 21l43 16v157l-28 -10c-3 -1 -5 -1 -8 -1c-12 0 -22 9 -22 22v57c0 9 6 18 15 21l43 16v157
c0 11 8 19 19 19s20 -8 20 -19v-142l81 30v156c0 11 9 20 20 20s19 -9 19 -20v-142l28 11c3 1 5 1 8 1c12 0 22 -10 22 -23v-57c0 -9 -6 -18 -15 -21l-43 -16v-157l28 10c3 1 5 1 8 1c12 0 22 -9 22 -22v-57c0 -9 -6 -18 -15 -21l-43 -16v-157zM97 64v-158l81 30v158z" fill="currentColor"/>
<path transform="translate(10.2843, 24.2312) scale(0.0040, -0.0040)" d="M558 -125c0 28 22 51 50 51s51 -23 51 -51s-23 -51 -51 -51s-50 23 -50 51zM558 125c0 28 22 51 50 51s51 -23 51 -51s-23 -51 -51 -51s-50 23 -50 51zM231 264c172 0 294 -88 294 -251c0 -263 -262 -416 -515 -523c-3 -3 -7 -4 -10 -4c-7 0 -14 7 -14 14c0 3 1 7 4 10
c201 118 410 265 410 492c0 119 -61 234 -169 234c-72 0 -124 -53 -148 -123c10 4 19 6 29 6c55 0 100 -45 100 -100c0 -58 -44 -106 -100 -106c-60 0 -112 47 -112 106c0 133 101 245 231 245z" fill="currentColor"/>
<path transform="translate(19.7262, 27.2312) scale(0.0040, -0.0040)" d="M211 111c-49 0 -68 -43 -68 -88c0 -75 57 -134 132 -134c49 0 68 43 68 88c0 75 -57 134 -132 134zM486 0c0 -43 -33 -76 -71 -97c-52 -29 -112 -40 -172 -40s-120 11 -172 40c-38 21 -71 54 -71 97s33 76 71 97c52 29 112 40 172 40s120 -11 172 -40
c38 -21 71 -54 71 -97z" fill="currentColor"/>
<rect transform="translate(55.3295, 5.4692)" x="-0.0697" y="-3.0000" width="0.1395" height="3.3206" ry="0.0444" fill="currentColor"/>
<path transform="translate(54.0965, 5.9692) scale(0.0040, -0.0040)" d="M215 137c57 0 111 -29 111 -92c0 -71 -54 -120 -101 -148c-35 -21 -74 -34 -114 -34c-57 0 -111 29 -111 92c0 71 54 120 101 148c35 21 74 34 114 34z" fill="currentColor"/>
<path transform="translate(57.2001, 4.9692) scale(0.0040, -0.0040)" d="M215 137c57 0 111 -29 111 -92c0 -71 -54 -120 -101 -148c-35 -21 -74 -34 -114 -34c-57 0 -111 29 -111 92c0 71 54 120 101 148c35 21 74 34 114 34z" fill="currentColor"/>
<rect transform="translate(51.3328, 5.4692)" x="-0.0697" y="0.1794" width="0.1395" height="2.8206" ry="0.0444" fill="currentColor"/>
<path transform="translate(51.2630, 5.4692) scale(0.0040, -0.0040)" d="M215 137c57 0 111 -29 111 -92c0 -71 -54 -120 -101 -148c-35 -21 -74 -34 -114 -34c-57 0 -111 29 -111 92c0 71 54 120 101 148c35 21 74 34 114 34z" fill="currentColor"/>
<rect transform="translate(48.4792, 5.4692)" x="-0.0697" y="-0.3206" width="0.1395" height="3.3206" ry="0.0444" fill="currentColor"/>
<path transform="translate(48.4094, 4.9692) scale(0.0040, -0.0040)" d="M215 137c57 0 111 -29 111 -92c0 -71 -54 -120 -101 -148c-35 -21 -74 -34 -114 -34c-57 0 -111 29 -111 92c0 71 54 120 101 148c35 21 74 34 114 34z" fill="currentColor"/>
<path transform="translate(67.2671, 5.4692) scale(0.0040, -0.0040)" d="M215 137c57 0 111 -29 111 -92c0 -71 -54 -120 -101 -148c-35 -21 -74 -34 -114 -34c-57 0 -111 29 -111 92c0 71 54 120 101 148c35 21 74 34 114 34z" fill="currentColor"/>
<rect transform="translate(64.1403, 5.4692)" x="-0.0697" y="-3.0000" width="0.1395" height="3.3206" ry="0.0444" fill="currentColor"/>
<path transform="translate(62.9073, 5.9692) scale(0.0040, -0.0040)" d="M215 137c57 0 111 -29 111 -92c0 -71 -54 -120 -101 -148c-35 -21 -74 -34 -114 -34c-57 0 -111 29 -111 92c0 71 54 120 101 148c35 21 74 34 114 34z" fill="currentColor"/>
<rect transform="translate(61.2867, 5.4692)" x="-0.0697" y="-3.0000" width="0.1395" height="2.8206" ry="0.0444" fill="currentColor"/>
<path transform="translate(60.0537, 5.4692) scale(0.0040, -0.0040)" d="M215 137c57 0 111 -29 111 -92c0 -71 -54 -120 -101 -148c-35 -21 -74 -34 -114 -34c-57 0 -111 29 -111 92c0 71 54 120 101 148c35 21 74 34 114 34z" fill="currentColor"/>
<rect transform="translate(58.4331, 5.4692)" x="-0.0697" y="-3.0000" width="0.1395" height="2.3206" ry="0.0444" fill="currentColor"/>
<rect transform="translate(39.6684, 5.4692)" x="-0.0697" y="0.6794" width="0.1395" height="3.1278" ry="0.0444" fill="currentColor"/>
<rect transform="translate(42.5220, 5.4692)" x="-0.0697" y="0.1794" width="0.1395" height="2.8206" ry="0.0444" fill="currentColor"/>
<path transform="translate(39.5986, 5.9692) scale(0.0040, -0.0040)" d="M215 137c57 0 111 -29 111 -92c0 -71 -54 -120 -101 -148c-35 -21 -74 -34 -114 -34c-57 0 -111 29 -111 92c0 71 54 120 101 148c35 21 74 34 114 34z" fill="currentColor"/>
<path transform="translate(42.4522, 5.4692) scale(0.0040, -0.0040)" d="M215 137c57 0 111 -29 111 -92c0 -71 -54 -120 -101 -148c-35 -21 -74 -34 -114 -34c-57 0 -111 29 -111 92c0 71 54 120 101 148c35 21 74 34 114 34z" fill="currentColor"/>
<path transform="translate(45.5558, 4.4692) scale(0.0040, -0.0040)" d="M215 137c57 0 111 -29 111 -92c0 -71 -54 -120 -101 -148c-35 -21 -74 -34 -114 -34c-57 0 -111 29 -111 92c0 71 54 120 101 148c35 21 74 34 114 34z" fill="currentColor"/>
<rect transform="translate(45.6256, 5.4692)" x="-0.0697" y="-0.8206" width="0.1395" height="3.8206" ry="0.0444" fill="currentColor"/>
</svg>
