<svg xmlns="http://www.w3.org/2000/svg" xmlns:xlink="http://www.w3.org/1999/xlink" version="1.2" width="180.00mm" height="22.30mm" viewBox="0.0000 -0.0000 107.8210 13.3559">
<text transform="translate(0.0000, 1.6533)" font-family="Century Schoolbook L" font-size="2.2001" text-anchor="start" fill="currentColor">
<tspan>
5. Chaconne</tspan>
</text>
<text transform="translate(97.0029, 1.6533)" font-family="Century Schoolbook L" font-size="2.2001" text-anchor="start" fill="currentColor">
<tspan>
BWV 1004</tspan>
</text>
<rect transform="translate(63.0706, 6.3559)" x="0.0000" y="-2.0000" width="0.1966" height="4.0000" ry="0.0000" fill="currentColor"/>
<rect transform="translate(29.0918, 6.3559)" x="0.0000" y="-2.0000" width="0.1966" height="4.0000" ry="0.0000" fill="currentColor"/>
<rect transform="translate(107.6244, 6.3559)" x="0.0000" y="-2.0000" width="0.1966" height="4.0000" ry="0.0000" fill="currentColor"/>
<rect transform="translate(85.9787, 6.3559)" x="0.0000" y="-2.0000" width="0.1966" height="4.0000" ry="0.0000" fill="currentColor"/>
<rect transform="translate(46.1920, 6.3559)" x="0.0000" y="-2.0000" width="0.1966" height="4.0000" ry="0.0000" fill="currentColor"/>
<rect transform="translate(0.0000, 9.3559)" x="35.8976" y="-0.1017" width="1.9125" height="0.2035" ry="0.1017" fill="currentColor"/>
<rect transform="translate(0.0000, 9.3559)" x="52.6037" y="-0.1017" width="2.0850" height="0.2035" ry="0.1017" fill="currentColor"/>
<rect transform="translate(0.0000, 9.3559)" x="63.8909" y="-0.1017" width="1.9743" height="0.2035" ry="0.1017" fill="currentColor"/>
<rect transform="translate(0.0000, 10.3559)" x="63.8909" y="-0.1017" width="1.9743" height="0.2035" ry="0.1017" fill="currentColor"/>
<rect transform="translate(0.0000, 9.3559)" x="69.4482" y="-0.1017" width="1.9743" height="0.2035" ry="0.1017" fill="currentColor"/>
<rect transform="translate(0.0000, 10.3559)" x="69.4482" y="-0.1017" width="1.9743" height="0.2035" ry="0.1017" fill="currentColor"/>
<rect transform="translate(0.0000, 9.3559)" x="74.9401" y="-0.1017" width="1.8202" height="0.2035" ry="0.1017" fill="currentColor"/>
<line transform="translate(8.9851, 8.3559)" stroke-linejoin="round" stroke-linecap="round" stroke-width="0.1035" stroke="currentColor" x1="0.0517" y1="-0.0000" x2="98.7842" y2="-0.0000"/>
<line transform="translate(8.9851, 7.3559)" stroke-linejoin="round" stroke-linecap="round" stroke-width="0.1035" stroke="currentColor" x1="0.0517" y1="-0.0000" x2="98.7842" y2="-0.0000"/>
<line transform="translate(8.9851, 6.3559)" stroke-linejoin="round" stroke-linecap="round" stroke-width="0.1035" stroke="currentColor" x1="0.0517" y1="-0.0000" x2="98.7842" y2="-0.0000"/>
<line transform="translate(8.9851, 5.3559)" stroke-linejoin="round" stroke-linecap="round" stroke-width="0.1035" stroke="currentColor" x1="0.0517" y1="-0.0000" x2="98.7842" y2="-0.0000"/>
<line transform="translate(8.9851, 4.3559)" stroke-linejoin="round" stroke-linecap="round" stroke-width="0.1035" stroke="currentColor" x1="0.0517" y1="-0.0000" x2="98.7842" y2="-0.0000"/>
<rect transform="translate(75.1823, 6.3559)" x="-0.0672" y="3.1878" width="0.1345" height="2.3122" ry="0.0421" fill="currentColor"/>
<rect transform="translate(69.8444, 6.3559)" x="-0.0672" y="4.1878" width="0.1345" height="2.3122" ry="0.0421" fill="currentColor"/>
<rect transform="translate(76.3640, 6.3559)" x="-0.0672" y="-1.9984" width="0.1345" height="2.8106" ry="0.0421" fill="currentColor"/>
<path transform="translate(75.1151, 9.3559) scale(0.0040, -0.0040)" d="M220 138c56 0 109 -29 109 -91c0 -72 -56 -121 -103 -149c-36 -21 -76 -36 -117 -36c-56 0 -109 29 -109 91c0 72 56 121 103 149c36 21 76 36 117 36z" fill="currentColor"/>
<path transform="translate(75.1151, 7.3559) scale(0.0040, -0.0040)" d="M220 138c56 0 109 -29 109 -91c0 -72 -56 -121 -103 -149c-36 -21 -76 -36 -117 -36c-56 0 -109 29 -109 91c0 72 56 121 103 149c36 21 76 36 117 36z" fill="currentColor"/>
<rect transform="translate(84.3343, 6.3559)" x="-0.0672" y="-1.8133" width="0.1345" height="3.1255" ry="0.0421" fill="currentColor"/>
<path transform="translate(83.0854, 7.8559) scale(0.0040, -0.0040)" d="M220 138c56 0 109 -29 109 -91c0 -72 -56 -121 -103 -149c-36 -21 -76 -36 -117 -36c-56 0 -109 29 -109 91c0 72 56 121 103 149c36 21 76 36 117 36z" fill="currentColor"/>
<rect transform="translate(81.6775, 6.3559)" x="-0.0672" y="-1.8750" width="0.1345" height="3.6872" ry="0.0421" fill="currentColor"/>
<path transform="translate(80.4286, 8.3559) scale(0.0040, -0.0040)" d="M220 138c56 0 109 -29 109 -91c0 -72 -56 -121 -103 -149c-36 -21 -76 -36 -117 -36c-56 0 -109 29 -109 91c0 72 56 121 103 149c36 21 76 36 117 36z" fill="currentColor"/>
<rect transform="translate(79.0208, 6.3559)" x="-0.0672" y="-1.9367" width="0.1345" height="3.2489" ry="0.0421" fill="currentColor"/>
<path transform="translate(77.7718, 7.8559) scale(0.0040, -0.0040)" d="M220 138c56 0 109 -29 109 -91c0 -72 -56 -121 -103 -149c-36 -21 -76 -36 -117 -36c-56 0 -109 29 -109 91c0 72 56 121 103 149c36 21 76 36 117 36z" fill="currentColor"/>
<path transform="translate(73.6651, 9.3559) scale(0.0040, -0.0040)" d="M216 -312c0 -10 -8 -19 -18 -19s-19 9 -19 19v145l-83 -31v-158c0 -10 -9 -19 -19 -19s-18 9 -18 19v145l-32 -12c-2 -1 -5 -1 -7 -1c-11 0 -20 9 -20 20v60c0 8 5 16 13 19l46 16v160l-32 -11c-2 -1 -5 -1 -7 -1c-11 0 -20 9 -20 20v60c0 8 5 15 13 18l46 17v158
c0 10 8 19 18 19s19 -9 19 -19v-145l83 31v158c0 10 9 19 19 19s18 -9 18 -19v-145l32 12c2 1 5 1 7 1c11 0 20 -9 20 -20v-60c0 -8 -5 -16 -13 -19l-46 -16v-160l32 11c2 1 5 1 7 1c11 0 20 -9 20 -20v-60c0 -8 -5 -15 -13 -18l-46 -17v-158zM96 65v-160l83 30v160z" fill="currentColor"/>
<rect transform="translate(64.2872, 6.3559)" x="-0.0672" y="4.6878" width="0.1345" height="2.3122" ry="0.0421" fill="currentColor"/>
<rect transform="translate(66.1270, 6.3559)" x="-0.0672" y="-2.5000" width="0.1345" height="3.3122" ry="0.0421" fill="currentColor"/>
<rect transform="translate(65.4689, 6.3559)" x="-0.0672" y="-3.3333" width="0.1345" height="3.1455" ry="0.0421" fill="currentColor"/>
<path transform="translate(64.2199, 10.8559) scale(0.0040, -0.0040)" d="M220 138c56 0 109 -29 109 -91c0 -72 -56 -121 -103 -149c-36 -21 -76 -36 -117 -36c-56 0 -109 29 -109 91c0 72 56 121 103 149c36 21 76 36 117 36z" fill="currentColor"/>
<path transform="translate(64.8780, 7.3559) scale(0.0040, -0.0040)" d="M220 138c56 0 109 -29 109 -91c0 -72 -56 -121 -103 -149c-36 -21 -76 -36 -117 -36c-56 0 -109 29 -109 91c0 72 56 121 103 149c36 21 76 36 117 36z" fill="currentColor"/>
<path transform="translate(64.2199, 6.3559) scale(0.0040, -0.0040)" d="M220 138c56 0 109 -29 109 -91c0 -72 -56 -121 -103 -149c-36 -21 -76 -36 -117 -36c-56 0 -109 29 -109 91c0 72 56 121 103 149c36 21 76 36 117 36z" fill="currentColor"/>
<path transform="translate(60.3895, 2.6480) scale(0.0040, -0.0040)" d="M0 0c0 -198 209 -335 209 -533c0 -71 -16 -141 -42 -207c-5 -8 -12 -12 -19 -12c-13 0 -26 11 -23 27c26 61 42 126 42 192c0 104 -95 208 -167 283h-16v250h16z" fill="currentColor"/>
<rect transform="translate(60.3223, 6.3559)" x="-0.0672" y="-3.7500" width="0.1345" height="3.0622" ry="0.0421" fill="currentColor"/>
<rect transform="translate(71.6842, 6.3559)" x="-0.0672" y="-2.0000" width="0.1345" height="3.3122" ry="0.0421" fill="currentColor"/>
<rect transform="translate(71.0261, 6.3559)" x="-0.0672" y="-3.0000" width="0.1345" height="3.3122" ry="0.0421" fill="currentColor"/>
<path transform="translate(69.7772, 10.3559) scale(0.0040, -0.0040)" d="M220 138c56 0 109 -29 109 -91c0 -72 -56 -121 -103 -149c-36 -21 -76 -36 -117 -36c-56 0 -109 29 -109 91c0 72 56 121 103 149c36 21 76 36 117 36z" fill="currentColor"/>
<path transform="translate(70.4353, 7.8559) scale(0.0040, -0.0040)" d="M220 138c56 0 109 -29 109 -91c0 -72 -56 -121 -103 -149c-36 -21 -76 -36 -117 -36c-56 0 -109 29 -109 91c0 72 56 121 103 149c36 21 76 36 117 36z" fill="currentColor"/>
<path transform="translate(69.7772, 6.8559) scale(0.0040, -0.0040)" d="M220 138c56 0 109 -29 109 -91c0 -72 -56 -121 -103 -149c-36 -21 -76 -36 -117 -36c-56 0 -109 29 -109 91c0 72 56 121 103 149c36 21 76 36 117 36z" fill="currentColor"/>
<path transform="translate(103.6271, 6.8559) scale(0.0040, -0.0040)" d="M220 138c56 0 109 -29 109 -91c0 -72 -56 -121 -103 -149c-36 -21 -76 -36 -117 -36c-56 0 -109 29 -109 91c0 72 56 121 103 149c36 21 76 36 117 36z" fill="currentColor"/>
<rect transform="translate(97.5722, 6.3559)" x="-0.0672" y="2.7614" width="0.1345" height="2.2386" ry="0.0421" fill="currentColor"/>
<rect transform="translate(99.5227, 6.3559)" x="-0.0672" y="-2.0000" width="0.1345" height="3.2386" ry="0.0421" fill="currentColor"/>
<rect transform="translate(98.7539, 6.3559)" x="-0.0672" y="-3.0000" width="0.1345" height="3.3122" ry="0.0421" fill="currentColor"/>
<path transform="translate(100.0400, 6.8559) scale(0.0040, -0.0040)" d="M0 0c0 31 25 56 56 56s56 -25 56 -56s-25 -56 -56 -56s-56 25 -56 56z" fill="currentColor"/>
<path transform="translate(97.5050, 8.8559) scale(0.0040, -0.0040)" d="M315 65c0 24 -21 41 -42 41c-4 0 -8 0 -12 -1c-31 -9 -77 -40 -114 -64s-84 -53 -104 -78c-7 -8 -11 -18 -11 -28c0 -24 21 -41 42 -41c4 0 8 0 12 1c31 9 78 40 115 64s84 53 104 78c7 8 10 18 10 28zM264 137c47 0 83 -21 83 -72c0 -19 -4 -37 -10 -56
c-12 -38 -32 -74 -65 -96c-54 -36 -113 -51 -188 -51c-47 0 -84 22 -84 73c0 19 5 37 11 56c12 38 31 74 64 96c54 36 114 50 189 50z" fill="currentColor"/>
<path transform="translate(98.2000, 7.8559) scale(0.0040, -0.0040)" d="M315 65c0 24 -21 41 -42 41c-4 0 -8 0 -12 -1c-31 -9 -77 -40 -114 -64s-84 -53 -104 -78c-7 -8 -11 -18 -11 -28c0 -24 21 -41 42 -41c4 0 8 0 12 1c31 9 78 40 115 64s84 53 104 78c7 8 10 18 10 28zM264 137c47 0 83 -21 83 -72c0 -19 -4 -37 -10 -56
c-12 -38 -32 -74 -65 -96c-54 -36 -113 -51 -188 -51c-47 0 -84 22 -84 73c0 19 5 37 11 56c12 38 31 74 64 96c54 36 114 50 189 50z" fill="currentColor"/>
<path transform="translate(97.5050, 6.8559) scale(0.0040, -0.0040)" d="M220 138c56 0 109 -29 109 -91c0 -72 -56 -121 -103 -149c-36 -21 -76 -36 -117 -36c-56 0 -109 29 -109 91c0 72 56 121 103 149c36 21 76 36 117 36z" fill="currentColor"/>
<polygon transform="translate(76.2968, 4.3559)" stroke-linejoin="round" stroke-linecap="round" stroke-width="0.0842" fill="currentColor" stroke="currentColor" points="8.0626 -0.0096 8.0626 0.3862 0.0421 0.1979 0.0421 -0.1979"/>
<polygon transform="translate(76.2968, 5.1676)" stroke-linejoin="round" stroke-linecap="round" stroke-width="0.0842" fill="currentColor" stroke="currentColor" points="8.0626 -0.0096 8.0626 0.3862 0.0421 0.1979 0.0421 -0.1979"/>
<path transform="translate(75.1151, 6.3559)" stroke-width="0.0828" stroke-linejoin="round" stroke-linecap="round" stroke="currentColor" fill="currentColor" d="M1.25911858837738 -2.7384378488005C2.85510979627128 -4.03999119760343 7.69554201599972 -3.92754958638355 9.22937502431529 -2.55329147450777C7.69265882236011 -3.80343269373617 2.85222660263167 -3.91587430495605 1.25911858837738 -2.7384378488005z"/>
<polygon transform="translate(88.3097, 4.5441)" stroke-linejoin="round" stroke-linecap="round" stroke-width="0.0842" fill="currentColor" stroke="currentColor" points="7.5626 0.6138 7.5626 1.0096 0.0421 0.1979 0.0421 -0.1979"/>
<polygon transform="translate(88.3097, 5.3559)" stroke-linejoin="round" stroke-linecap="round" stroke-width="0.0842" fill="currentColor" stroke="currentColor" points="7.5626 0.6138 7.5626 1.0096 0.0421 0.1979 0.0421 -0.1979"/>
<path transform="translate(87.1280, 6.3559)" stroke-width="0.0828" stroke-linejoin="round" stroke-linecap="round" stroke="currentColor" fill="currentColor" d="M1.29549486406023 -2.54455127643321C2.01161447997712 -3.09862418151674 3.11921233730023 -2.98039947422334 3.70224700937287 -2.28765517824552C3.1060354106671 -2.8569503573755 1.99843755334398 -2.97517506466891 1.29549486406023 -2.54455127643321z"/>
<path transform="translate(92.1915, 6.3559)" stroke-width="0.0828" stroke-linejoin="round" stroke-linecap="round" stroke="currentColor" fill="currentColor" d="M1.3220649878096 -2.15407414506275C2.07595268591165 -2.66669502633779 3.18534349527985 -2.479136539031 3.72881713312223 -1.74717804687507C3.16464777365337 -2.35672329239337 2.05525696428516 -2.54428177970016 1.3220649878096 -2.15407414506275z"/>
<path transform="translate(104.9433, 3.3980) scale(0.0040, -0.0040)" d="M0 0c0 -198 209 -335 209 -533c0 -71 -16 -141 -42 -207c-5 -8 -12 -12 -19 -12c-13 0 -26 11 -23 27c26 61 42 126 42 192c0 104 -95 208 -167 283h-16v250h16z" fill="currentColor"/>
<rect transform="translate(104.8760, 6.3559)" x="-0.0672" y="-3.0000" width="0.1345" height="3.3122" ry="0.0421" fill="currentColor"/>
<path transform="translate(87.2625, 11.8138) scale(0.0040, -0.0040)" d="M0 0h-16v250h16c98 58 227 148 227 259c0 57 -16 112 -41 163c-3 16 10 27 23 27c7 0 15 -3 20 -11c25 -56 40 -117 40 -179c0 -204 -269 -305 -269 -509z" fill="currentColor"/>
<rect transform="translate(87.1952, 6.3559)" x="-0.0672" y="2.6878" width="0.1345" height="2.8122" ry="0.0421" fill="currentColor"/>
<rect transform="translate(88.3769, 6.3559)" x="-0.0672" y="-1.8046" width="0.1345" height="2.6167" ry="0.0421" fill="currentColor"/>
<path transform="translate(87.1280, 8.8559) scale(0.0040, -0.0040)" d="M220 138c56 0 109 -29 109 -91c0 -72 -56 -121 -103 -149c-36 -21 -76 -36 -117 -36c-56 0 -109 29 -109 91c0 72 56 121 103 149c36 21 76 36 117 36z" fill="currentColor"/>
<path transform="translate(87.1280, 7.3559) scale(0.0040, -0.0040)" d="M220 138c56 0 109 -29 109 -91c0 -72 -56 -121 -103 -149c-36 -21 -76 -36 -117 -36c-56 0 -109 29 -109 91c0 72 56 121 103 149c36 21 76 36 117 36z" fill="currentColor"/>
<rect transform="translate(95.8472, 6.3559)" x="-0.0672" y="-1.0072" width="0.1345" height="3.3194" ry="0.0421" fill="currentColor"/>
<path transform="translate(94.5982, 8.8559) scale(0.0040, -0.0040)" d="M220 138c56 0 109 -29 109 -91c0 -72 -56 -121 -103 -149c-36 -21 -76 -36 -117 -36c-56 0 -109 29 -109 91c0 72 56 121 103 149c36 21 76 36 117 36z" fill="currentColor"/>
<rect transform="translate(93.4404, 6.3559)" x="-0.0672" y="-1.2641" width="0.1345" height="2.5763" ry="0.0421" fill="currentColor"/>
<path transform="translate(92.1915, 7.8559) scale(0.0040, -0.0040)" d="M220 138c56 0 109 -29 109 -91c0 -72 -56 -121 -103 -149c-36 -21 -76 -36 -117 -36c-56 0 -109 29 -109 91c0 72 56 121 103 149c36 21 76 36 117 36z" fill="currentColor"/>
<rect transform="translate(90.7837, 6.3559)" x="-0.0672" y="-1.5477" width="0.1345" height="3.3598" ry="0.0421" fill="currentColor"/>
<path transform="translate(89.5347, 8.3559) scale(0.0040, -0.0040)" d="M220 138c56 0 109 -29 109 -91c0 -72 -56 -121 -103 -149c-36 -21 -76 -36 -117 -36c-56 0 -109 29 -109 91c0 72 56 121 103 149c36 21 76 36 117 36z" fill="currentColor"/>
<rect transform="translate(30.3084, 6.3559)" x="-0.0672" y="2.6878" width="0.1345" height="2.3122" ry="0.0421" fill="currentColor"/>
<rect transform="translate(32.8062, 6.3559)" x="-0.0672" y="-2.5000" width="0.1345" height="3.3122" ry="0.0421" fill="currentColor"/>
<rect transform="translate(32.1481, 6.3559)" x="-0.0672" y="-3.3333" width="0.1345" height="3.1455" ry="0.0421" fill="currentColor"/>
<rect transform="translate(31.4900, 6.3559)" x="-0.0672" y="-4.3333" width="0.1345" height="2.6455" ry="0.0421" fill="currentColor"/>
<path transform="translate(30.2411, 8.8559) scale(0.0040, -0.0040)" d="M220 138c56 0 109 -29 109 -91c0 -72 -56 -121 -103 -149c-36 -21 -76 -36 -117 -36c-56 0 -109 29 -109 91c0 72 56 121 103 149c36 21 76 36 117 36z" fill="currentColor"/>
<path transform="translate(31.5573, 7.3559) scale(0.0040, -0.0040)" d="M220 138c56 0 109 -29 109 -91c0 -72 -56 -121 -103 -149c-36 -21 -76 -36 -117 -36c-56 0 -109 29 -109 91c0 72 56 121 103 149c36 21 76 36 117 36z" fill="currentColor"/>
<rect transform="translate(38.0903, 6.3559)" x="-0.0672" y="-3.0000" width="0.1345" height="3.2386" ry="0.0421" fill="currentColor"/>
<rect transform="translate(37.3215, 6.3559)" x="-0.0672" y="-4.3333" width="0.1345" height="2.6455" ry="0.0421" fill="currentColor"/>
<path transform="translate(39.9975, 4.8559) scale(0.0040, -0.0040)" d="M0 0c0 31 25 56 56 56s56 -25 56 -56s-25 -56 -56 -56s-56 25 -56 56z" fill="currentColor"/>
<path transform="translate(36.0726, 9.3559) scale(0.0040, -0.0040)" d="M315 65c0 24 -21 41 -42 41c-4 0 -8 0 -12 -1c-31 -9 -77 -40 -114 -64s-84 -53 -104 -78c-7 -8 -11 -18 -11 -28c0 -24 21 -41 42 -41c4 0 8 0 12 1c31 9 78 40 115 64s84 53 104 78c7 8 10 18 10 28zM264 137c47 0 83 -21 83 -72c0 -19 -4 -37 -10 -56
c-12 -38 -32 -74 -65 -96c-54 -36 -113 -51 -188 -51c-47 0 -84 22 -84 73c0 19 5 37 11 56c12 38 31 74 64 96c54 36 114 50 189 50z" fill="currentColor"/>
<path transform="translate(38.1576, 7.3559) scale(0.0040, -0.0040)" d="M315 65c0 24 -21 41 -42 41c-4 0 -8 0 -12 -1c-31 -9 -77 -40 -114 -64s-84 -53 -104 -78c-7 -8 -11 -18 -11 -28c0 -24 21 -41 42 -41c4 0 8 0 12 1c31 9 78 40 115 64s84 53 104 78c7 8 10 18 10 28zM264 137c47 0 83 -21 83 -72c0 -19 -4 -37 -10 -56
c-12 -38 -32 -74 -65 -96c-54 -36 -113 -51 -188 -51c-47 0 -84 22 -84 73c0 19 5 37 11 56c12 38 31 74 64 96c54 36 114 50 189 50z" fill="currentColor"/>
<path transform="translate(36.7676, 6.8559) scale(0.0040, -0.0040)" d="M315 65c0 24 -21 41 -42 41c-4 0 -8 0 -12 -1c-31 -9 -77 -40 -114 -64s-84 -53 -104 -78c-7 -8 -11 -18 -11 -28c0 -24 21 -41 42 -41c4 0 8 0 12 1c31 9 78 40 115 64s84 53 104 78c7 8 10 18 10 28zM264 137c47 0 83 -21 83 -72c0 -19 -4 -37 -10 -56
c-12 -38 -32 -74 -65 -96c-54 -36 -113 -51 -188 -51c-47 0 -84 22 -84 73c0 19 5 37 11 56c12 38 31 74 64 96c54 36 114 50 189 50z" fill="currentColor"/>
<path transform="translate(36.0726, 4.8559) scale(0.0040, -0.0040)" d="M220 138c56 0 109 -29 109 -91c0 -72 -56 -121 -103 -149c-36 -21 -76 -36 -117 -36c-56 0 -109 29 -109 91c0 72 56 121 103 149c36 21 76 36 117 36z" fill="currentColor"/>
<rect transform="translate(20.9901, 6.3559)" x="-0.0672" y="-2.0000" width="0.1345" height="3.2386" ry="0.0421" fill="currentColor"/>
<rect transform="translate(20.2213, 6.3559)" x="-0.0672" y="-3.0000" width="0.1345" height="3.3122" ry="0.0421" fill="currentColor"/>
<path transform="translate(21.5074, 6.8559) scale(0.0040, -0.0040)" d="M0 0c0 31 25 56 56 56s56 -25 56 -56s-25 -56 -56 -56s-56 25 -56 56z" fill="currentColor"/>
<path transform="translate(15.3551, 8.3685) scale(0.0040, -0.0040)" d="M204 307c22 14 44 29 60 50c11 15 19 33 27 50c2 4 5 6 9 6c6 0 13 -5 13 -14v-245h72c10 0 15 -7 15 -14s-5 -15 -15 -15h-72v-8c0 -48 27 -94 72 -94c8 0 12 -5 12 -11s-4 -12 -12 -12c-44 0 -87 13 -131 13s-87 -13 -131 -13c-8 0 -12 6 -12 12s4 11 12 11
c45 0 73 46 73 94v8h-167c-23 0 -31 14 -31 23c0 3 1 5 2 6c80 93 138 207 138 330c0 9 6 16 13 16h3c23 -7 47 -13 71 -13s48 6 71 13c2 1 3 1 5 1c11 0 18 -10 12 -17l-284 -330h167v131c0 8 1 17 8 22z" fill="currentColor"/>
<path transform="translate(15.4989, 6.3559) scale(0.0040, -0.0040)" d="M150 477c-29 0 -59 -8 -59 -33c0 -22 36 -25 36 -47c0 -32 -26 -58 -58 -58s-57 26 -57 58c0 65 67 103 138 103c91 0 169 -33 169 -114c0 -43 -4 -82 -42 -100c-9 -4 -14 -12 -14 -21s5 -18 14 -22c41 -19 56 -57 56 -103c0 -92 -79 -140 -179 -140
c-79 0 -154 42 -154 113c0 36 30 66 66 66s65 -30 65 -66c0 -25 -40 -28 -40 -53c0 -27 32 -37 63 -37c49 0 63 61 63 117v16c0 54 -2 94 -50 94h-80c-10 0 -14 8 -14 15s4 14 14 14h80c49 0 50 43 50 99v8c0 54 -18 91 -67 91z" fill="currentColor"/>
<path transform="translate(13.4051, 6.3559) scale(0.0040, -0.0040)" d="M27 41l-1 -66v-11c0 -22 1 -44 4 -66c45 38 93 80 93 139c0 33 -14 67 -43 67c-31 0 -52 -30 -53 -63zM-15 -138l-12 595c8 5 18 8 27 8s19 -3 27 -8l-7 -345c25 21 58 34 91 34c52 0 89 -48 89 -102c0 -80 -86 -117 -147 -169c-15 -13 -24 -38 -45 -38
c-13 0 -23 11 -23 25z" fill="currentColor"/>
<path transform="translate(9.7851, 7.3559) scale(0.0040, -0.0040)" d="M376 262c4 0 9 1 13 1c155 0 256 -128 256 -261c0 -76 -33 -154 -107 -210c-22 -17 -47 -28 -73 -36c3 -35 5 -70 5 -105c0 -19 -1 -39 -2 -58c-7 -120 -90 -228 -208 -228c-108 0 -195 88 -195 197c0 58 53 103 112 103c54 0 95 -47 95 -103c0 -52 -43 -95 -95 -95
c-11 0 -21 2 -31 6c26 -39 68 -65 117 -65c96 0 157 92 163 191c1 18 2 37 2 55c0 31 -1 61 -4 92c-29 -5 -58 -8 -89 -8c-188 0 -333 172 -333 374c0 177 131 306 248 441c-19 62 -37 125 -45 190c-6 52 -7 104 -7 156c0 115 55 224 149 292c3 2 7 3 10 3c4 0 7 0 10 -3
c71 -84 133 -245 133 -358c0 -143 -86 -255 -180 -364c21 -68 39 -138 56 -207zM461 -203c68 24 113 95 113 164c0 90 -66 179 -173 190c24 -116 46 -231 60 -354zM74 28c0 -135 129 -247 264 -247c28 0 55 2 82 6c-14 127 -37 245 -63 364c-79 -8 -124 -61 -124 -119
c0 -44 25 -91 81 -123c5 -5 7 -10 7 -15c0 -11 -10 -22 -22 -22c-3 0 -6 1 -9 2c-80 43 -117 115 -117 185c0 88 58 174 160 197c-14 58 -29 117 -46 175c-107 -121 -213 -243 -213 -403zM408 1045c-99 -48 -162 -149 -162 -259c0 -74 18 -133 36 -194
c80 97 146 198 146 324c0 55 -4 79 -20 129z" fill="currentColor"/>
<path transform="translate(18.9724, 8.8559) scale(0.0040, -0.0040)" d="M315 65c0 24 -21 41 -42 41c-4 0 -8 0 -12 -1c-31 -9 -77 -40 -114 -64s-84 -53 -104 -78c-7 -8 -11 -18 -11 -28c0 -24 21 -41 42 -41c4 0 8 0 12 1c31 9 78 40 115 64s84 53 104 78c7 8 10 18 10 28zM264 137c47 0 83 -21 83 -72c0 -19 -4 -37 -10 -56
c-12 -38 -32 -74 -65 -96c-54 -36 -113 -51 -188 -51c-47 0 -84 22 -84 73c0 19 5 37 11 56c12 38 31 74 64 96c54 36 114 50 189 50z" fill="currentColor"/>
<path transform="translate(19.6674, 7.8559) scale(0.0040, -0.0040)" d="M315 65c0 24 -21 41 -42 41c-4 0 -8 0 -12 -1c-31 -9 -77 -40 -114 -64s-84 -53 -104 -78c-7 -8 -11 -18 -11 -28c0 -24 21 -41 42 -41c4 0 8 0 12 1c31 9 78 40 115 64s84 53 104 78c7 8 10 18 10 28zM264 137c47 0 83 -21 83 -72c0 -19 -4 -37 -10 -56
c-12 -38 -32 -74 -65 -96c-54 -36 -113 -51 -188 -51c-47 0 -84 22 -84 73c0 19 5 37 11 56c12 38 31 74 64 96c54 36 114 50 189 50z" fill="currentColor"/>
<path transform="translate(18.9724, 6.8559) scale(0.0040, -0.0040)" d="M220 138c56 0 109 -29 109 -91c0 -72 -56 -121 -103 -149c-36 -21 -76 -36 -117 -36c-56 0 -109 29 -109 91c0 72 56 121 103 149c36 21 76 36 117 36z" fill="currentColor"/>
<text transform="translate(0.5985, 7.1645)" font-family="Century Schoolbook L" font-size="2.2001" text-anchor="start" fill="currentColor">
<tspan>
Violine</tspan>
</text>
<path transform="translate(30.8992, 6.3559) scale(0.0040, -0.0040)" d="M220 138c56 0 109 -29 109 -91c0 -72 -56 -121 -103 -149c-36 -21 -76 -36 -117 -36c-56 0 -109 29 -109 91c0 72 56 121 103 149c36 21 76 36 117 36z" fill="currentColor"/>
<path transform="translate(30.2411, 4.8559) scale(0.0040, -0.0040)" d="M220 138c56 0 109 -29 109 -91c0 -72 -56 -121 -103 -149c-36 -21 -76 -36 -117 -36c-56 0 -109 29 -109 91c0 72 56 121 103 149c36 21 76 36 117 36z" fill="currentColor"/>
<path transform="translate(26.4107, 3.3980) scale(0.0040, -0.0040)" d="M0 0c0 -198 209 -335 209 -533c0 -71 -16 -141 -42 -207c-5 -8 -12 -12 -19 -12c-13 0 -26 11 -23 27c26 61 42 126 42 192c0 104 -95 208 -167 283h-16v250h16z" fill="currentColor"/>
<rect transform="translate(26.3434, 6.3559)" x="-0.0672" y="-3.0000" width="0.1345" height="3.3122" ry="0.0421" fill="currentColor"/>
<path transform="translate(25.0945, 6.8559) scale(0.0040, -0.0040)" d="M220 138c56 0 109 -29 109 -91c0 -72 -56 -121 -103 -149c-36 -21 -76 -36 -117 -36c-56 0 -109 29 -109 91c0 72 56 121 103 149c36 21 76 36 117 36z" fill="currentColor"/>
<rect transform="translate(19.0397, 6.3559)" x="-0.0672" y="2.7614" width="0.1345" height="2.2386" ry="0.0421" fill="currentColor"/>
<rect transform="translate(47.4085, 6.3559)" x="-0.0672" y="2.6878" width="0.1345" height="2.3122" ry="0.0421" fill="currentColor"/>
<rect transform="translate(49.9064, 6.3559)" x="-0.0672" y="-2.0000" width="0.1345" height="3.3122" ry="0.0421" fill="currentColor"/>
<rect transform="translate(49.2483, 6.3559)" x="-0.0672" y="-3.0000" width="0.1345" height="3.3122" ry="0.0421" fill="currentColor"/>
<path transform="translate(59.0733, 5.8559) scale(0.0040, -0.0040)" d="M220 138c56 0 109 -29 109 -91c0 -72 -56 -121 -103 -149c-36 -21 -76 -36 -117 -36c-56 0 -109 29 -109 91c0 72 56 121 103 149c36 21 76 36 117 36z" fill="currentColor"/>
<rect transform="translate(53.0185, 6.3559)" x="-0.0672" y="3.7614" width="0.1345" height="2.2386" ry="0.0421" fill="currentColor"/>
<rect transform="translate(54.9690, 6.3559)" x="-0.0672" y="-2.0000" width="0.1345" height="3.2386" ry="0.0421" fill="currentColor"/>
<rect transform="translate(54.2002, 6.3559)" x="-0.0672" y="-4.0000" width="0.1345" height="2.8122" ry="0.0421" fill="currentColor"/>
<path transform="translate(55.4862, 4.8559) scale(0.0040, -0.0040)" d="M0 0c0 31 25 56 56 56s56 -25 56 -56s-25 -56 -56 -56s-56 25 -56 56z" fill="currentColor"/>
<path transform="translate(52.9512, 9.8559) scale(0.0040, -0.0040)" d="M315 65c0 24 -21 41 -42 41c-4 0 -8 0 -12 -1c-31 -9 -77 -40 -114 -64s-84 -53 -104 -78c-7 -8 -11 -18 -11 -28c0 -24 21 -41 42 -41c4 0 8 0 12 1c31 9 78 40 115 64s84 53 104 78c7 8 10 18 10 28zM264 137c47 0 83 -21 83 -72c0 -19 -4 -37 -10 -56
c-12 -38 -32 -74 -65 -96c-54 -36 -113 -51 -188 -51c-47 0 -84 22 -84 73c0 19 5 37 11 56c12 38 31 74 64 96c54 36 114 50 189 50z" fill="currentColor"/>
<path transform="translate(53.6462, 7.8559) scale(0.0040, -0.0040)" d="M315 65c0 24 -21 41 -42 41c-4 0 -8 0 -12 -1c-31 -9 -77 -40 -114 -64s-84 -53 -104 -78c-7 -8 -11 -18 -11 -28c0 -24 21 -41 42 -41c4 0 8 0 12 1c31 9 78 40 115 64s84 53 104 78c7 8 10 18 10 28zM264 137c47 0 83 -21 83 -72c0 -19 -4 -37 -10 -56
c-12 -38 -32 -74 -65 -96c-54 -36 -113 -51 -188 -51c-47 0 -84 22 -84 73c0 19 5 37 11 56c12 38 31 74 64 96c54 36 114 50 189 50z" fill="currentColor"/>
<path transform="translate(52.9512, 5.3559) scale(0.0040, -0.0040)" d="M220 138c56 0 109 -29 109 -91c0 -72 -56 -121 -103 -149c-36 -21 -76 -36 -117 -36c-56 0 -109 29 -109 91c0 72 56 121 103 149c36 21 76 36 117 36z" fill="currentColor"/>
<path transform="translate(43.5108, 1.8980) scale(0.0040, -0.0040)" d="M0 0c0 -198 209 -335 209 -533c0 -71 -16 -141 -42 -207c-5 -8 -12 -12 -19 -12c-13 0 -26 11 -23 27c26 61 42 126 42 192c0 104 -95 208 -167 283h-16v250h16z" fill="currentColor"/>
<rect transform="translate(43.4436, 6.3559)" x="-0.0672" y="-4.5000" width="0.1345" height="2.8122" ry="0.0421" fill="currentColor"/>
<path transform="translate(42.1947, 4.8559) scale(0.0040, -0.0040)" d="M220 138c56 0 109 -29 109 -91c0 -72 -56 -121 -103 -149c-36 -21 -76 -36 -117 -36c-56 0 -109 29 -109 91c0 72 56 121 103 149c36 21 76 36 117 36z" fill="currentColor"/>
<path transform="translate(34.6226, 9.3559) scale(0.0040, -0.0040)" d="M216 -312c0 -10 -8 -19 -18 -19s-19 9 -19 19v145l-83 -31v-158c0 -10 -9 -19 -19 -19s-18 9 -18 19v145l-32 -12c-2 -1 -5 -1 -7 -1c-11 0 -20 9 -20 20v60c0 8 5 16 13 19l46 16v160l-32 -11c-2 -1 -5 -1 -7 -1c-11 0 -20 9 -20 20v60c0 8 5 15 13 18l46 17v158
c0 10 8 19 18 19s19 -9 19 -19v-145l83 31v158c0 10 9 19 19 19s18 -9 18 -19v-145l32 12c2 1 5 1 7 1c11 0 20 -9 20 -20v-60c0 -8 -5 -16 -13 -19l-46 -16v-160l32 11c2 1 5 1 7 1c11 0 20 -9 20 -20v-60c0 -8 -5 -15 -13 -18l-46 -17v-158zM96 65v-160l83 30v160z" fill="currentColor"/>
<rect transform="translate(36.1398, 6.3559)" x="-0.0672" y="3.2614" width="0.1345" height="2.2386" ry="0.0421" fill="currentColor"/>
<rect transform="translate(39.4803, 6.3559)" x="-0.0672" y="-2.5000" width="0.1345" height="3.2386" ry="0.0421" fill="currentColor"/>
<rect transform="translate(48.5902, 6.3559)" x="-0.0672" y="-4.6667" width="0.1345" height="2.4789" ry="0.0421" fill="currentColor"/>
<path transform="translate(47.3413, 8.8559) scale(0.0040, -0.0040)" d="M220 138c56 0 109 -29 109 -91c0 -72 -56 -121 -103 -149c-36 -21 -76 -36 -117 -36c-56 0 -109 29 -109 91c0 72 56 121 103 149c36 21 76 36 117 36z" fill="currentColor"/>
<path transform="translate(48.6575, 7.8559) scale(0.0040, -0.0040)" d="M220 138c56 0 109 -29 109 -91c0 -72 -56 -121 -103 -149c-36 -21 -76 -36 -117 -36c-56 0 -109 29 -109 91c0 72 56 121 103 149c36 21 76 36 117 36z" fill="currentColor"/>
<path transform="translate(47.9994, 6.8559) scale(0.0040, -0.0040)" d="M220 138c56 0 109 -29 109 -91c0 -72 -56 -121 -103 -149c-36 -21 -76 -36 -117 -36c-56 0 -109 29 -109 91c0 72 56 121 103 149c36 21 76 36 117 36z" fill="currentColor"/>
<path transform="translate(47.3413, 4.3559) scale(0.0040, -0.0040)" d="M220 138c56 0 109 -29 109 -91c0 -72 -56 -121 -103 -149c-36 -21 -76 -36 -117 -36c-56 0 -109 29 -109 91c0 72 56 121 103 149c36 21 76 36 117 36z" fill="currentColor"/>
</svg>
