<svg xmlns="http://www.w3.org/2000/svg" xmlns:xlink="http://www.w3.org/1999/xlink" version="1.2" width="190.00mm" height="49.47mm" viewBox="0.0000 -0.0000 120.1339 31.2789">
<text transform="translate(10.0000, 2.0486)" font-family="LilyPond Serif" font-weight="bold" font-size="2.7718" text-anchor="start" fill="currentColor">
<tspan>
Contrapunctus XI</tspan>
</text>
<text transform="translate(109.3977, 2.0486)" font-family="LilyPond Serif" font-size="2.2000" text-anchor="start" fill="currentColor">
<tspan>
BWV 1080</tspan>
</text>
<rect transform="translate(54.8371, 21.3441)" x="0.0000" y="-2.0537" width="0.2039" height="4.1073" ry="0.0000" fill="currentColor"/>
<rect transform="translate(41.3434, 13.5079)" x="0.0000" y="-2.0537" width="0.2039" height="4.1073" ry="0.0000" fill="currentColor"/>
<rect transform="translate(69.6464, 2.6177)" x="0.0000" y="20.7801" width="0.2039" height="3.7825" ry="0.0000" fill="currentColor"/>
<rect transform="translate(69.6464, 2.6177)" x="0.0000" y="12.9439" width="0.2039" height="3.7825" ry="0.0000" fill="currentColor"/>
<rect transform="translate(69.6464, 2.6177)" x="0.0000" y="5.1077" width="0.2039" height="3.7825" ry="0.0000" fill="currentColor"/>
<rect transform="translate(69.6464, 29.1802)" x="0.0000" y="-2.0537" width="0.2039" height="4.0537" ry="0.0000" fill="currentColor"/>
<rect transform="translate(54.8371, 5.6717)" x="0.0000" y="-2.0000" width="0.2039" height="4.0537" ry="0.0000" fill="currentColor"/>
<rect transform="translate(69.6464, 21.3441)" x="0.0000" y="-2.0537" width="0.2039" height="4.1073" ry="0.0000" fill="currentColor"/>
<rect transform="translate(41.3434, 5.6717)" x="0.0000" y="-2.0000" width="0.2039" height="4.0537" ry="0.0000" fill="currentColor"/>
<rect transform="translate(69.6464, 13.5079)" x="0.0000" y="-2.0537" width="0.2039" height="4.1073" ry="0.0000" fill="currentColor"/>
<rect transform="translate(85.1823, 5.6717)" x="0.0000" y="-2.0000" width="0.2039" height="4.0537" ry="0.0000" fill="currentColor"/>
<rect transform="translate(119.9300, 2.6177)" x="0.0000" y="20.7801" width="0.2039" height="3.7825" ry="0.0000" fill="currentColor"/>
<rect transform="translate(119.9300, 2.6177)" x="0.0000" y="12.9439" width="0.2039" height="3.7825" ry="0.0000" fill="currentColor"/>
<rect transform="translate(119.9300, 2.6177)" x="0.0000" y="5.1077" width="0.2039" height="3.7825" ry="0.0000" fill="currentColor"/>
<rect transform="translate(54.8371, 13.5079)" x="0.0000" y="-2.0537" width="0.2039" height="4.1073" ry="0.0000" fill="currentColor"/>
<rect transform="translate(119.9300, 29.1802)" x="0.0000" y="-2.0537" width="0.2039" height="4.0537" ry="0.0000" fill="currentColor"/>
<rect transform="translate(69.6464, 5.6717)" x="0.0000" y="-2.0000" width="0.2039" height="4.0537" ry="0.0000" fill="currentColor"/>
<rect transform="translate(119.9300, 21.3441)" x="0.0000" y="-2.0537" width="0.2039" height="4.1073" ry="0.0000" fill="currentColor"/>
<rect transform="translate(85.1823, 13.5079)" x="0.0000" y="-2.0537" width="0.2039" height="4.1073" ry="0.0000" fill="currentColor"/>
<rect transform="translate(119.9300, 13.5079)" x="0.0000" y="-2.0537" width="0.2039" height="4.1073" ry="0.0000" fill="currentColor"/>
<rect transform="translate(119.9300, 5.6717)" x="0.0000" y="-2.0000" width="0.2039" height="4.0537" ry="0.0000" fill="currentColor"/>
<rect transform="translate(85.1823, 21.3441)" x="0.0000" y="-2.0537" width="0.2039" height="4.1073" ry="0.0000" fill="currentColor"/>
<rect transform="translate(54.8371, 29.1802)" x="0.0000" y="-2.0537" width="0.2039" height="4.0537" ry="0.0000" fill="currentColor"/>
<rect transform="translate(85.1823, 29.1802)" x="0.0000" y="-2.0537" width="0.2039" height="4.0537" ry="0.0000" fill="currentColor"/>
<rect transform="translate(54.8371, 2.6177)" x="0.0000" y="20.7801" width="0.2039" height="3.7825" ry="0.0000" fill="currentColor"/>
<rect transform="translate(54.8371, 2.6177)" x="0.0000" y="12.9439" width="0.2039" height="3.7825" ry="0.0000" fill="currentColor"/>
<rect transform="translate(54.8371, 2.6177)" x="0.0000" y="5.1077" width="0.2039" height="3.7825" ry="0.0000" fill="currentColor"/>
<rect transform="translate(85.1823, 2.6177)" x="0.0000" y="20.7801" width="0.2039" height="3.7825" ry="0.0000" fill="currentColor"/>
<rect transform="translate(85.1823, 2.6177)" x="0.0000" y="12.9439" width="0.2039" height="3.7825" ry="0.0000" fill="currentColor"/>
<rect transform="translate(85.1823, 2.6177)" x="0.0000" y="5.1077" width="0.2039" height="3.7825" ry="0.0000" fill="currentColor"/>
<rect transform="translate(27.8139, 5.6717)" x="0.0000" y="-2.0000" width="0.2039" height="4.0537" ry="0.0000" fill="currentColor"/>
<rect transform="translate(27.8139, 13.5079)" x="0.0000" y="-2.0537" width="0.2039" height="4.1073" ry="0.0000" fill="currentColor"/>
<rect transform="translate(27.8139, 2.6177)" x="0.0000" y="20.7801" width="0.2039" height="3.7825" ry="0.0000" fill="currentColor"/>
<rect transform="translate(27.8139, 2.6177)" x="0.0000" y="12.9439" width="0.2039" height="3.7825" ry="0.0000" fill="currentColor"/>
<rect transform="translate(27.8139, 2.6177)" x="0.0000" y="5.1077" width="0.2039" height="3.7825" ry="0.0000" fill="currentColor"/>
<rect transform="translate(27.8139, 21.3441)" x="0.0000" y="-2.0537" width="0.2039" height="4.1073" ry="0.0000" fill="currentColor"/>
<rect transform="translate(27.8139, 29.1802)" x="0.0000" y="-2.0537" width="0.2039" height="4.0537" ry="0.0000" fill="currentColor"/>
<rect transform="translate(99.7261, 29.1802)" x="0.0000" y="-2.0537" width="0.2039" height="4.0537" ry="0.0000" fill="currentColor"/>
<line transform="translate(5.0583, 15.5079)" stroke-linejoin="round" stroke-linecap="round" stroke-width="0.1073" stroke="currentColor" x1="0.0537" y1="-0.0000" x2="115.0219" y2="-0.0000"/>
<line transform="translate(5.0583, 14.5079)" stroke-linejoin="round" stroke-linecap="round" stroke-width="0.1073" stroke="currentColor" x1="0.0537" y1="-0.0000" x2="115.0219" y2="-0.0000"/>
<line transform="translate(5.0583, 13.5079)" stroke-linejoin="round" stroke-linecap="round" stroke-width="0.1073" stroke="currentColor" x1="0.0537" y1="-0.0000" x2="115.0219" y2="-0.0000"/>
<line transform="translate(5.0583, 12.5079)" stroke-linejoin="round" stroke-linecap="round" stroke-width="0.1073" stroke="currentColor" x1="0.0537" y1="-0.0000" x2="115.0219" y2="-0.0000"/>
<line transform="translate(5.0583, 11.5079)" stroke-linejoin="round" stroke-linecap="round" stroke-width="0.1073" stroke="currentColor" x1="0.0537" y1="-0.0000" x2="115.0219" y2="-0.0000"/>
<rect transform="translate(41.3434, 2.6177)" x="0.0000" y="20.7801" width="0.2039" height="3.7825" ry="0.0000" fill="currentColor"/>
<rect transform="translate(41.3434, 2.6177)" x="0.0000" y="12.9439" width="0.2039" height="3.7825" ry="0.0000" fill="currentColor"/>
<rect transform="translate(41.3434, 2.6177)" x="0.0000" y="5.1077" width="0.2039" height="3.7825" ry="0.0000" fill="currentColor"/>
<rect transform="translate(99.7261, 21.3441)" x="0.0000" y="-2.0537" width="0.2039" height="4.1073" ry="0.0000" fill="currentColor"/>
<rect transform="translate(99.7261, 13.5079)" x="0.0000" y="-2.0537" width="0.2039" height="4.1073" ry="0.0000" fill="currentColor"/>
<rect transform="translate(41.3434, 29.1802)" x="0.0000" y="-2.0537" width="0.2039" height="4.0537" ry="0.0000" fill="currentColor"/>
<rect transform="translate(99.7261, 2.6177)" x="0.0000" y="20.7801" width="0.2039" height="3.7825" ry="0.0000" fill="currentColor"/>
<rect transform="translate(99.7261, 2.6177)" x="0.0000" y="12.9439" width="0.2039" height="3.7825" ry="0.0000" fill="currentColor"/>
<rect transform="translate(99.7261, 2.6177)" x="0.0000" y="5.1077" width="0.2039" height="3.7825" ry="0.0000" fill="currentColor"/>
<line transform="translate(5.0583, 31.1802)" stroke-linejoin="round" stroke-linecap="round" stroke-width="0.1073" stroke="currentColor" x1="0.0537" y1="-0.0000" x2="115.0219" y2="-0.0000"/>
<line transform="translate(5.0583, 30.1802)" stroke-linejoin="round" stroke-linecap="round" stroke-width="0.1073" stroke="currentColor" x1="0.0537" y1="-0.0000" x2="115.0219" y2="-0.0000"/>
<line transform="translate(5.0583, 29.1802)" stroke-linejoin="round" stroke-linecap="round" stroke-width="0.1073" stroke="currentColor" x1="0.0537" y1="-0.0000" x2="115.0219" y2="-0.0000"/>
<line transform="translate(5.0583, 28.1802)" stroke-linejoin="round" stroke-linecap="round" stroke-width="0.1073" stroke="currentColor" x1="0.0537" y1="-0.0000" x2="115.0219" y2="-0.0000"/>
<line transform="translate(5.0583, 27.1802)" stroke-linejoin="round" stroke-linecap="round" stroke-width="0.1073" stroke="currentColor" x1="0.0537" y1="-0.0000" x2="115.0219" y2="-0.0000"/>
<line transform="translate(5.0583, 7.6717)" stroke-linejoin="round" stroke-linecap="round" stroke-width="0.1073" stroke="currentColor" x1="0.0537" y1="-0.0000" x2="115.0219" y2="-0.0000"/>
<line transform="translate(5.0583, 6.6717)" stroke-linejoin="round" stroke-linecap="round" stroke-width="0.1073" stroke="currentColor" x1="0.0537" y1="-0.0000" x2="115.0219" y2="-0.0000"/>
<line transform="translate(5.0583, 5.6717)" stroke-linejoin="round" stroke-linecap="round" stroke-width="0.1073" stroke="currentColor" x1="0.0537" y1="-0.0000" x2="115.0219" y2="-0.0000"/>
<line transform="translate(5.0583, 4.6717)" stroke-linejoin="round" stroke-linecap="round" stroke-width="0.1073" stroke="currentColor" x1="0.0537" y1="-0.0000" x2="115.0219" y2="-0.0000"/>
<line transform="translate(5.0583, 3.6717)" stroke-linejoin="round" stroke-linecap="round" stroke-width="0.1073" stroke="currentColor" x1="0.0537" y1="-0.0000" x2="115.0219" y2="-0.0000"/>
<line transform="translate(5.0583, 23.3441)" stroke-linejoin="round" stroke-linecap="round" stroke-width="0.1073" stroke="currentColor" x1="0.0537" y1="-0.0000" x2="115.0219" y2="-0.0000"/>
<line transform="translate(5.0583, 22.3441)" stroke-linejoin="round" stroke-linecap="round" stroke-width="0.1073" stroke="currentColor" x1="0.0537" y1="-0.0000" x2="115.0219" y2="-0.0000"/>
<line transform="translate(5.0583, 21.3441)" stroke-linejoin="round" stroke-linecap="round" stroke-width="0.1073" stroke="currentColor" x1="0.0537" y1="-0.0000" x2="115.0219" y2="-0.0000"/>
<line transform="translate(5.0583, 20.3441)" stroke-linejoin="round" stroke-linecap="round" stroke-width="0.1073" stroke="currentColor" x1="0.0537" y1="-0.0000" x2="115.0219" y2="-0.0000"/>
<line transform="translate(5.0583, 19.3441)" stroke-linejoin="round" stroke-linecap="round" stroke-width="0.1073" stroke="currentColor" x1="0.0537" y1="-0.0000" x2="115.0219" y2="-0.0000"/>
<rect transform="translate(41.3434, 21.3441)" x="0.0000" y="-2.0537" width="0.2039" height="4.1073" ry="0.0000" fill="currentColor"/>
<rect transform="translate(99.7261, 5.6717)" x="0.0000" y="-2.0000" width="0.2039" height="4.0537" ry="0.0000" fill="currentColor"/>
<rect transform="translate(92.6573, 13.5079)" x="-0.0697" y="-0.3189" width="0.1395" height="2.4999" ry="0.0444" fill="currentColor"/>
<path transform="translate(91.5415, 4.6717) scale(0.0040, -0.0040)" d="M-8 375c8 5 17 7 26 7s18 -2 26 -7l-3 -187l104 21h4c10 0 18 -8 18 -18l7 -566c-8 -5 -16 -7 -25 -7s-18 2 -26 7l2 187l-103 -21h-4c-10 0 -18 8 -18 18zM130 111l-90 -18l-3 -204l90 18z" fill="currentColor"/>
<rect transform="translate(92.6573, 5.6717)" x="-0.0697" y="-0.8189" width="0.1395" height="3.3189" ry="0.0444" fill="currentColor"/>
<path transform="translate(92.5875, 13.0079) scale(0.0040, -0.0040)" d="M217 139c57 0 112 -31 112 -94c0 -72 -55 -121 -102 -149c-35 -21 -74 -35 -115 -35c-57 0 -112 31 -112 94c0 72 55 121 102 149c35 21 74 35 115 35z" fill="currentColor"/>
<path transform="translate(92.5875, 4.6717) scale(0.0040, -0.0040)" d="M217 139c57 0 112 -31 112 -94c0 -72 -55 -121 -102 -149c-35 -21 -74 -35 -115 -35c-57 0 -112 31 -112 94c0 72 55 121 102 149c35 21 74 35 115 35z" fill="currentColor"/>
<path transform="translate(100.5181, 12.0079) scale(0.0028, -0.0028)" d="M207 142c64 0 121 -35 121 -104c0 -71 -51 -120 -98 -148c-33 -20 -71 -32 -109 -32c-64 0 -121 35 -121 104c0 71 51 120 98 148c33 20 71 32 109 32z" fill="currentColor"/>
<rect transform="translate(97.2321, 13.5079)" x="-0.0697" y="-1.3189" width="0.1395" height="3.3189" ry="0.0444" fill="currentColor"/>
<rect transform="translate(101.3749, 13.5079)" x="-0.0697" y="-3.9000" width="0.1395" height="2.2923" ry="0.0444" fill="currentColor"/>
<path transform="translate(94.8750, 12.5079) scale(0.0040, -0.0040)" d="M217 139c57 0 112 -31 112 -94c0 -72 -55 -121 -102 -149c-35 -21 -74 -35 -115 -35c-57 0 -112 31 -112 94c0 72 55 121 102 149c35 21 74 35 115 35z" fill="currentColor"/>
<rect transform="translate(97.2321, 5.6717)" x="-0.0697" y="-0.3189" width="0.1395" height="3.3189" ry="0.0444" fill="currentColor"/>
<path transform="translate(101.4446, 9.6523) scale(0.0028, -0.0028)" d="M0 0c0 -196 210 -333 210 -529c0 -71 -16 -139 -42 -205c-6 -10 -16 -15 -25 -15c-15 0 -29 12 -29 29v5c27 59 44 122 44 186c0 101 -90 204 -158 279h-23v250h23z" fill="currentColor"/>
<path transform="translate(97.1624, 12.0079) scale(0.0040, -0.0040)" d="M217 139c57 0 112 -31 112 -94c0 -72 -55 -121 -102 -149c-35 -21 -74 -35 -115 -35c-57 0 -112 31 -112 94c0 72 55 121 102 149c35 21 74 35 115 35z" fill="currentColor"/>
<path transform="translate(97.1624, 5.1717) scale(0.0040, -0.0040)" d="M217 139c57 0 112 -31 112 -94c0 -72 -55 -121 -102 -149c-35 -21 -74 -35 -115 -35c-57 0 -112 31 -112 94c0 72 55 121 102 149c35 21 74 35 115 35z" fill="currentColor"/>
<rect transform="translate(94.9447, 13.5079)" x="-0.0697" y="-0.8189" width="0.1395" height="2.8242" ry="0.0444" fill="currentColor"/>
<path transform="translate(86.2877, 12.5079) scale(0.0040, -0.0040)" d="M217 139c57 0 112 -31 112 -94c0 -72 -55 -121 -102 -149c-35 -21 -74 -35 -115 -35c-57 0 -112 31 -112 94c0 72 55 121 102 149c35 21 74 35 115 35z" fill="currentColor"/>
<path transform="translate(86.2877, 5.6717) scale(0.0040, -0.0040)" d="M-24 -117c0 29 13 42 43 42c31 0 74 -11 113 -27l-129 154c-7 9 -11 18 -11 26c0 34 51 66 88 100c24 22 37 52 37 82c0 25 -9 49 -26 69l-33 40c-3 4 -4 7 -4 11c0 9 9 17 18 17c4 0 8 -2 12 -6l150 -179c7 -9 11 -18 11 -26c0 -34 -51 -65 -88 -99
c-24 -22 -37 -53 -37 -83c0 -25 8 -49 25 -69l82 -97c3 -4 4 -7 4 -11c0 -9 -8 -17 -17 -17c-4 0 -9 2 -13 6c-17 20 -60 36 -93 36c-41 0 -54 -25 -54 -66c0 -34 10 -73 27 -93c5 -6 0 -14 -6 -14c-2 0 -4 1 -6 3c-45 53 -93 147 -93 201z" fill="currentColor"/>
<rect transform="translate(82.1961, 13.5079)" x="-0.0697" y="-0.3189" width="0.1395" height="3.3189" ry="0.0444" fill="currentColor"/>
<rect transform="translate(82.1961, 5.6717)" x="-0.0697" y="-1.8189" width="0.1395" height="3.3189" ry="0.0444" fill="currentColor"/>
<path transform="translate(82.1264, 13.0079) scale(0.0040, -0.0040)" d="M217 139c57 0 112 -31 112 -94c0 -72 -55 -121 -102 -149c-35 -21 -74 -35 -115 -35c-57 0 -112 31 -112 94c0 72 55 121 102 149c35 21 74 35 115 35z" fill="currentColor"/>
<path transform="translate(82.1264, 3.6717) scale(0.0040, -0.0040)" d="M217 139c57 0 112 -31 112 -94c0 -72 -55 -121 -102 -149c-35 -21 -74 -35 -115 -35c-57 0 -112 31 -112 94c0 72 55 121 102 149c35 21 74 35 115 35z" fill="currentColor"/>
<rect transform="translate(78.9369, 13.5079)" x="-0.0697" y="0.1811" width="0.1395" height="3.1522" ry="0.0444" fill="currentColor"/>
<rect transform="translate(78.9369, 5.6717)" x="-0.0697" y="-2.3189" width="0.1395" height="3.3189" ry="0.0444" fill="currentColor"/>
<path transform="translate(78.8672, 13.5079) scale(0.0040, -0.0040)" d="M217 139c57 0 112 -31 112 -94c0 -72 -55 -121 -102 -149c-35 -21 -74 -35 -115 -35c-57 0 -112 31 -112 94c0 72 55 121 102 149c35 21 74 35 115 35z" fill="currentColor"/>
<path transform="translate(78.8672, 3.1717) scale(0.0040, -0.0040)" d="M217 139c57 0 112 -31 112 -94c0 -72 -55 -121 -102 -149c-35 -21 -74 -35 -115 -35c-57 0 -112 31 -112 94c0 72 55 121 102 149c35 21 74 35 115 35z" fill="currentColor"/>
<path transform="translate(75.5197, 14.0079) scale(0.0040, -0.0040)" d="M-8 375c8 5 17 7 26 7s18 -2 26 -7l-3 -187l104 21h4c10 0 18 -8 18 -18l7 -566c-8 -5 -16 -7 -25 -7s-18 2 -26 7l2 187l-103 -21h-4c-10 0 -18 8 -18 18zM130 111l-90 -18l-3 -204l90 18z" fill="currentColor"/>
<path transform="translate(33.9306, 4.6717) scale(0.0040, -0.0040)" d="M364 -156h-353c-6 0 -11 5 -11 11v134c0 6 5 11 11 11h353c6 0 11 -5 11 -11v-134c0 -6 -5 -11 -11 -11z" fill="currentColor"/>
<rect transform="translate(89.3168, 5.6717)" x="-0.0697" y="-1.3189" width="0.1395" height="3.3189" ry="0.0444" fill="currentColor"/>
<path transform="translate(89.2471, 14.5079) scale(0.0040, -0.0040)" d="M217 139c57 0 112 -31 112 -94c0 -72 -55 -121 -102 -149c-35 -21 -74 -35 -115 -35c-57 0 -112 31 -112 94c0 72 55 121 102 149c35 21 74 35 115 35z" fill="currentColor"/>
<path transform="translate(89.2471, 4.1717) scale(0.0040, -0.0040)" d="M217 139c57 0 112 -31 112 -94c0 -72 -55 -121 -102 -149c-35 -21 -74 -35 -115 -35c-57 0 -112 31 -112 94c0 72 55 121 102 149c35 21 74 35 115 35z" fill="currentColor"/>
<rect transform="translate(90.4930, 13.5079)" x="-0.0697" y="-2.5000" width="0.1395" height="3.3189" ry="0.0444" fill="currentColor"/>
<rect transform="translate(86.3575, 13.5079)" x="-0.0697" y="-0.8189" width="0.1395" height="3.3189" ry="0.0444" fill="currentColor"/>
<polygon transform="translate(110.3687, 10.6942)" stroke-linejoin="round" stroke-linecap="round" stroke-width="0.0889" fill="currentColor" stroke="currentColor" points="8.3041 0.8044 8.3041 1.1956 0.0444 0.1956 0.0444 -0.1956"/>
<path transform="translate(115.9517, 15.0079) scale(0.0040, -0.0040)" d="M217 -311c0 -11 -8 -19 -19 -19s-20 8 -20 19v142l-81 -30v-156c0 -11 -9 -20 -20 -20s-19 9 -19 20v142l-28 -11c-3 -1 -5 -1 -8 -1c-12 0 -22 10 -22 23v57c0 9 6 18 15 21l43 16v157l-28 -10c-3 -1 -5 -1 -8 -1c-12 0 -22 9 -22 22v57c0 9 6 18 15 21l43 16v157
c0 11 8 19 19 19s20 -8 20 -19v-142l81 30v156c0 11 9 20 20 20s19 -9 19 -20v-142l28 11c3 1 5 1 8 1c12 0 22 -10 22 -23v-57c0 -9 -6 -18 -15 -21l-43 -16v-157l28 10c3 1 5 1 8 1c12 0 22 -9 22 -22v-57c0 -9 -6 -18 -15 -21l-43 -16v-157zM97 64v-158l81 30v158z" fill="currentColor"/>
<rect transform="translate(118.6476, 13.5079)" x="-0.0697" y="-1.8220" width="0.1395" height="3.1409" ry="0.0444" fill="currentColor"/>
<path transform="translate(117.4017, 15.0079) scale(0.0040, -0.0040)" d="M217 139c57 0 112 -31 112 -94c0 -72 -55 -121 -102 -149c-35 -21 -74 -35 -115 -35c-57 0 -112 31 -112 94c0 72 55 121 102 149c35 21 74 35 115 35z" fill="currentColor"/>
<path transform="translate(19.7219, 4.6717) scale(0.0040, -0.0040)" d="M364 -156h-353c-6 0 -11 5 -11 11v134c0 6 5 11 11 11h353c6 0 11 -5 11 -11v-134c0 -6 -5 -11 -11 -11z" fill="currentColor"/>
<path transform="translate(33.9306, 20.3441) scale(0.0040, -0.0040)" d="M364 -156h-353c-6 0 -11 5 -11 11v134c0 6 5 11 11 11h353c6 0 11 -5 11 -11v-134c0 -6 -5 -11 -11 -11z" fill="currentColor"/>
<path transform="translate(33.9306, 28.1802) scale(0.0040, -0.0040)" d="M364 -156h-353c-6 0 -11 5 -11 11v134c0 6 5 11 11 11h353c6 0 11 -5 11 -11v-134c0 -6 -5 -11 -11 -11z" fill="currentColor"/>
<path transform="translate(47.4422, 4.6717) scale(0.0040, -0.0040)" d="M364 -156h-353c-6 0 -11 5 -11 11v134c0 6 5 11 11 11h353c6 0 11 -5 11 -11v-134c0 -6 -5 -11 -11 -11z" fill="currentColor"/>
<path transform="translate(47.4422, 20.3441) scale(0.0040, -0.0040)" d="M364 -156h-353c-6 0 -11 5 -11 11v134c0 6 5 11 11 11h353c6 0 11 -5 11 -11v-134c0 -6 -5 -11 -11 -11z" fill="currentColor"/>
<path transform="translate(47.4422, 28.1802) scale(0.0040, -0.0040)" d="M364 -156h-353c-6 0 -11 5 -11 11v134c0 6 5 11 11 11h353c6 0 11 -5 11 -11v-134c0 -6 -5 -11 -11 -11z" fill="currentColor"/>
<path transform="translate(61.5937, 4.6717) scale(0.0040, -0.0040)" d="M364 -156h-353c-6 0 -11 5 -11 11v134c0 6 5 11 11 11h353c6 0 11 -5 11 -11v-134c0 -6 -5 -11 -11 -11z" fill="currentColor"/>
<path transform="translate(61.5937, 20.3441) scale(0.0040, -0.0040)" d="M364 -156h-353c-6 0 -11 5 -11 11v134c0 6 5 11 11 11h353c6 0 11 -5 11 -11v-134c0 -6 -5 -11 -11 -11z" fill="currentColor"/>
<rect transform="translate(115.4819, 13.5079)" x="-0.0697" y="-2.2012" width="0.1395" height="3.0201" ry="0.0444" fill="currentColor"/>
<path transform="translate(61.5937, 28.1802) scale(0.0040, -0.0040)" d="M364 -156h-353c-6 0 -11 5 -11 11v134c0 6 5 11 11 11h353c6 0 11 -5 11 -11v-134c0 -6 -5 -11 -11 -11z" fill="currentColor"/>
<polygon transform="translate(58.7584, 14.6942)" stroke-linejoin="round" stroke-linecap="round" stroke-width="0.0889" fill="currentColor" stroke="currentColor" points="2.3825 -0.3819 2.3825 0.0092 0.0444 0.1956 0.0444 -0.1956"/>
<path transform="translate(76.7663, 20.3441) scale(0.0040, -0.0040)" d="M364 -156h-353c-6 0 -11 5 -11 11v134c0 6 5 11 11 11h353c6 0 11 -5 11 -11v-134c0 -6 -5 -11 -11 -11z" fill="currentColor"/>
<path transform="translate(76.7663, 28.1802) scale(0.0040, -0.0040)" d="M364 -156h-353c-6 0 -11 5 -11 11v134c0 6 5 11 11 11h353c6 0 11 -5 11 -11v-134c0 -6 -5 -11 -11 -11z" fill="currentColor"/>
<polygon transform="translate(74.9802, 10.3215)" stroke-linejoin="round" stroke-linecap="round" stroke-width="0.0889" fill="currentColor" stroke="currentColor" points="2.8511 0.1771 2.8511 0.5683 0.0444 0.1956 0.0444 -0.1956"/>
<path transform="translate(91.8061, 20.3441) scale(0.0040, -0.0040)" d="M364 -156h-353c-6 0 -11 5 -11 11v134c0 6 5 11 11 11h353c6 0 11 -5 11 -11v-134c0 -6 -5 -11 -11 -11z" fill="currentColor"/>
<path transform="translate(91.8061, 28.1802) scale(0.0040, -0.0040)" d="M364 -156h-353c-6 0 -11 5 -11 11v134c0 6 5 11 11 11h353c6 0 11 -5 11 -11v-134c0 -6 -5 -11 -11 -11z" fill="currentColor"/>
<polygon transform="translate(92.5875, 15.6942)" stroke-linejoin="round" stroke-linecap="round" stroke-width="0.0889" fill="currentColor" stroke="currentColor" points="2.3825 -0.3819 2.3825 0.0092 0.0444 0.1956 0.0444 -0.1956"/>
<path transform="translate(100.5181, 13.5079)" stroke-width="0.0858" stroke-linejoin="round" stroke-linecap="round" stroke="currentColor" fill="currentColor" d="M0.4197 -0.0974C0.9171 0.5464 1.8592 0.6817 2.5178 0.2040L2.5178 0.2040C1.8775 0.5543 0.9355 0.4189 0.4197 -0.0974z"/>
<rect transform="translate(106.9749, 13.5079)" x="-0.0697" y="-0.3189" width="0.1395" height="3.3189" ry="0.0444" fill="currentColor"/>
<path transform="translate(106.9052, 13.0079) scale(0.0040, -0.0040)" d="M217 139c57 0 112 -31 112 -94c0 -72 -55 -121 -102 -149c-35 -21 -74 -35 -115 -35c-57 0 -112 31 -112 94c0 72 55 121 102 149c35 21 74 35 115 35z" fill="currentColor"/>
<path transform="translate(103.8834, 5.6717) scale(0.0040, -0.0040)" d="M217 -311c0 -11 -8 -19 -19 -19s-20 8 -20 19v142l-81 -30v-156c0 -11 -9 -20 -20 -20s-19 9 -19 20v142l-28 -11c-3 -1 -5 -1 -8 -1c-12 0 -22 10 -22 23v57c0 9 6 18 15 21l43 16v157l-28 -10c-3 -1 -5 -1 -8 -1c-12 0 -22 9 -22 22v57c0 9 6 18 15 21l43 16v157
c0 11 8 19 19 19s20 -8 20 -19v-142l81 30v156c0 11 9 20 20 20s19 -9 19 -20v-142l28 11c3 1 5 1 8 1c12 0 22 -10 22 -23v-57c0 -9 -6 -18 -15 -21l-43 -16v-157l28 10c3 1 5 1 8 1c12 0 22 -9 22 -22v-57c0 -9 -6 -18 -15 -21l-43 -16v-157zM97 64v-158l81 30v158z" fill="currentColor"/>
<rect transform="translate(105.4032, 5.6717)" x="-0.0697" y="0.1811" width="0.1395" height="3.1522" ry="0.0444" fill="currentColor"/>
<path transform="translate(105.3334, 5.6717) scale(0.0040, -0.0040)" d="M217 139c57 0 112 -31 112 -94c0 -72 -55 -121 -102 -149c-35 -21 -74 -35 -115 -35c-57 0 -112 31 -112 94c0 72 55 121 102 149c35 21 74 35 115 35z" fill="currentColor"/>
<rect transform="translate(102.5096, 13.5079)" x="-0.0697" y="-0.8189" width="0.1395" height="3.3189" ry="0.0444" fill="currentColor"/>
<path transform="translate(104.2015, 12.0079) scale(0.0040, -0.0040)" d="M0 0c0 31 25 56 56 56s55 -25 55 -56s-24 -56 -55 -56s-56 25 -56 56z" fill="currentColor"/>
<path transform="translate(102.4399, 12.5079) scale(0.0040, -0.0040)" d="M217 139c57 0 112 -31 112 -94c0 -72 -55 -121 -102 -149c-35 -21 -74 -35 -115 -35c-57 0 -112 31 -112 94c0 72 55 121 102 149c35 21 74 35 115 35z" fill="currentColor"/>
<path transform="translate(102.4399, 5.6717) scale(0.0040, -0.0040)" d="M-24 -117c0 29 13 42 43 42c31 0 74 -11 113 -27l-129 154c-7 9 -11 18 -11 26c0 34 51 66 88 100c24 22 37 52 37 82c0 25 -9 49 -26 69l-33 40c-3 4 -4 7 -4 11c0 9 9 17 18 17c4 0 8 -2 12 -6l150 -179c7 -9 11 -18 11 -26c0 -34 -51 -65 -88 -99
c-24 -22 -37 -53 -37 -83c0 -25 8 -49 25 -69l82 -97c3 -4 4 -7 4 -11c0 -9 -8 -17 -17 -17c-4 0 -9 2 -13 6c-17 20 -60 36 -93 36c-41 0 -54 -25 -54 -66c0 -34 10 -73 27 -93c5 -6 0 -14 -6 -14c-2 0 -4 1 -6 3c-45 53 -93 147 -93 201z" fill="currentColor"/>
<path transform="translate(111.9486, 14.0079) scale(0.0040, -0.0040)" d="M217 139c57 0 112 -31 112 -94c0 -72 -55 -121 -102 -149c-35 -21 -74 -35 -115 -35c-57 0 -112 31 -112 94c0 72 55 121 102 149c35 21 74 35 115 35z" fill="currentColor"/>
<path transform="translate(113.1900, 4.6717) scale(0.0040, -0.0040)" d="M-8 375c8 5 17 7 26 7s18 -2 26 -7l-3 -187l104 21h4c10 0 18 -8 18 -18l7 -566c-8 -5 -16 -7 -25 -7s-18 2 -26 7l2 187l-103 -21h-4c-10 0 -18 8 -18 18zM130 111l-90 -18l-3 -204l90 18z" fill="currentColor"/>
<rect transform="translate(114.3058, 5.6717)" x="-0.0697" y="-0.8189" width="0.1395" height="3.3189" ry="0.0444" fill="currentColor"/>
<path transform="translate(114.2360, 14.5079) scale(0.0040, -0.0040)" d="M217 139c57 0 112 -31 112 -94c0 -72 -55 -121 -102 -149c-35 -21 -74 -35 -115 -35c-57 0 -112 31 -112 94c0 72 55 121 102 149c35 21 74 35 115 35z" fill="currentColor"/>
<path transform="translate(114.2360, 4.6717) scale(0.0040, -0.0040)" d="M217 139c57 0 112 -31 112 -94c0 -72 -55 -121 -102 -149c-35 -21 -74 -35 -115 -35c-57 0 -112 31 -112 94c0 72 55 121 102 149c35 21 74 35 115 35z" fill="currentColor"/>
<path transform="translate(110.9082, 14.0079) scale(0.0040, -0.0040)" d="M-8 375c8 5 17 7 26 7s18 -2 26 -7l-3 -187l104 21h4c10 0 18 -8 18 -18l7 -566c-8 -5 -16 -7 -25 -7s-18 2 -26 7l2 187l-103 -21h-4c-10 0 -18 8 -18 18zM130 111l-90 -18l-3 -204l90 18z" fill="currentColor"/>
<rect transform="translate(113.1945, 13.5079)" x="-0.0697" y="-2.4752" width="0.1395" height="2.7940" ry="0.0444" fill="currentColor"/>
<rect transform="translate(110.4385, 13.5079)" x="-0.0697" y="-2.8053" width="0.1395" height="2.6242" ry="0.0444" fill="currentColor"/>
<rect transform="translate(109.2623, 5.6717)" x="-0.0697" y="-0.3189" width="0.1395" height="3.3189" ry="0.0444" fill="currentColor"/>
<path transform="translate(109.1926, 13.5079) scale(0.0040, -0.0040)" d="M217 139c57 0 112 -31 112 -94c0 -72 -55 -121 -102 -149c-35 -21 -74 -35 -115 -35c-57 0 -112 31 -112 94c0 72 55 121 102 149c35 21 74 35 115 35z" fill="currentColor"/>
<path transform="translate(109.1926, 5.1717) scale(0.0040, -0.0040)" d="M217 139c57 0 112 -31 112 -94c0 -72 -55 -121 -102 -149c-35 -21 -74 -35 -115 -35c-57 0 -112 31 -112 94c0 72 55 121 102 149c35 21 74 35 115 35z" fill="currentColor"/>
<path transform="translate(107.0447, 16.4634) scale(0.0040, -0.0040)" d="M0 0h-18v250h18c97 59 225 148 225 259c0 57 -16 111 -41 162c-3 17 11 29 25 29c8 0 15 -4 20 -12c25 -56 40 -117 40 -179c0 -204 -269 -305 -269 -509z" fill="currentColor"/>
<rect transform="translate(38.3234, 13.5079)" x="-0.0697" y="-0.3189" width="0.1395" height="3.3189" ry="0.0444" fill="currentColor"/>
<path transform="translate(38.2536, 13.0079) scale(0.0040, -0.0040)" d="M217 139c57 0 112 -31 112 -94c0 -72 -55 -121 -102 -149c-35 -21 -74 -35 -115 -35c-57 0 -112 31 -112 94c0 72 55 121 102 149c35 21 74 35 115 35z" fill="currentColor"/>
<rect transform="translate(35.0642, 13.5079)" x="-0.0697" y="-0.8189" width="0.1395" height="3.3189" ry="0.0444" fill="currentColor"/>
<path transform="translate(34.9945, 12.5079) scale(0.0040, -0.0040)" d="M217 139c57 0 112 -31 112 -94c0 -72 -55 -121 -102 -149c-35 -21 -74 -35 -115 -35c-57 0 -112 31 -112 94c0 72 55 121 102 149c35 21 74 35 115 35z" fill="currentColor"/>
<rect transform="translate(31.8050, 13.5079)" x="-0.0697" y="-1.3189" width="0.1395" height="3.3189" ry="0.0444" fill="currentColor"/>
<path transform="translate(31.7353, 12.0079) scale(0.0040, -0.0040)" d="M217 139c57 0 112 -31 112 -94c0 -72 -55 -121 -102 -149c-35 -21 -74 -35 -115 -35c-57 0 -112 31 -112 94c0 72 55 121 102 149c35 21 74 35 115 35z" fill="currentColor"/>
<rect transform="translate(45.3344, 13.5079)" x="-0.0697" y="0.1811" width="0.1395" height="3.1522" ry="0.0444" fill="currentColor"/>
<path transform="translate(45.2647, 13.5079) scale(0.0040, -0.0040)" d="M217 139c57 0 112 -31 112 -94c0 -72 -55 -121 -102 -149c-35 -21 -74 -35 -115 -35c-57 0 -112 31 -112 94c0 72 55 121 102 149c35 21 74 35 115 35z" fill="currentColor"/>
<rect transform="translate(77.8060, 13.5079)" x="-0.0697" y="-2.8226" width="0.1395" height="3.1415" ry="0.0444" fill="currentColor"/>
<path transform="translate(42.3712, 13.5079) scale(0.0040, -0.0040)" d="M-24 -117c0 29 13 42 43 42c31 0 74 -11 113 -27l-129 154c-7 9 -11 18 -11 26c0 34 51 66 88 100c24 22 37 52 37 82c0 25 -9 49 -26 69l-33 40c-3 4 -4 7 -4 11c0 9 9 17 18 17c4 0 8 -2 12 -6l150 -179c7 -9 11 -18 11 -26c0 -34 -51 -65 -88 -99
c-24 -22 -37 -53 -37 -83c0 -25 8 -49 25 -69l82 -97c3 -4 4 -7 4 -11c0 -9 -8 -17 -17 -17c-4 0 -9 2 -13 6c-17 20 -60 36 -93 36c-41 0 -54 -25 -54 -66c0 -34 10 -73 27 -93c5 -6 0 -14 -6 -14c-2 0 -4 1 -6 3c-45 53 -93 147 -93 201z" fill="currentColor"/>
<path transform="translate(9.4879, 4.6717) scale(0.0040, -0.0040)" d="M29 39l-2 -64v-11c0 -22 2 -43 5 -65c44 38 91 80 91 138c0 33 -13 66 -42 66c-31 0 -51 -31 -52 -64zM-16 -139l-12 593c9 5 18 8 28 8s19 -3 28 -8l-7 -343c25 23 58 36 92 36c51 0 87 -49 87 -103c0 -79 -84 -117 -144 -169c-16 -14 -25 -41 -47 -41
c-14 0 -25 13 -25 27z" fill="currentColor"/>
<path transform="translate(11.4379, 29.1802) scale(0.0040, -0.0040)" d="M358 29c-49 0 -74 41 -74 73c0 38 27 76 71 76c4 0 7 0 11 -1c-27 36 -69 59 -116 59h-14v-472h14c79 0 136 70 155 150c2 7 7 10 13 10c7 0 14 -5 14 -13c0 -95 -105 -175 -182 -175c-5 0 -9 1 -14 1v-76c0 -6 -5 -11 -11 -11h-17c-6 0 -12 5 -12 11v80
c-49 8 -95 28 -130 65c-49 51 -66 123 -66 194s17 143 66 194c35 37 81 57 130 65v80c0 6 6 11 12 11h17c6 0 11 -5 11 -11v-76c5 0 9 1 14 1c86 0 158 -66 173 -152c1 -4 1 -9 1 -13c0 -39 -30 -70 -66 -70zM196 -227v454c-55 -23 -59 -89 -59 -179c0 -15 1 -31 1 -48
s-1 -33 -1 -48c0 -90 4 -156 59 -179z" fill="currentColor"/>
<path transform="translate(9.4879, 30.1802) scale(0.0040, -0.0040)" d="M29 39l-2 -64v-11c0 -22 2 -43 5 -65c44 38 91 80 91 138c0 33 -13 66 -42 66c-31 0 -51 -31 -52 -64zM-16 -139l-12 593c9 5 18 8 28 8s19 -3 28 -8l-7 -343c25 23 58 36 92 36c51 0 87 -49 87 -103c0 -79 -84 -117 -144 -169c-16 -14 -25 -41 -47 -41
c-14 0 -25 13 -25 27z" fill="currentColor"/>
<path transform="translate(5.8583, 28.1802) scale(0.0040, -0.0040)" d="M558 -125c0 28 22 51 50 51s51 -23 51 -51s-23 -51 -51 -51s-50 23 -50 51zM558 125c0 28 22 51 50 51s51 -23 51 -51s-23 -51 -51 -51s-50 23 -50 51zM231 264c172 0 294 -88 294 -251c0 -263 -262 -416 -515 -523c-3 -3 -7 -4 -10 -4c-7 0 -14 7 -14 14c0 3 1 7 4 10
c201 118 410 265 410 492c0 119 -61 234 -169 234c-72 0 -124 -53 -148 -123c10 4 19 6 29 6c55 0 100 -45 100 -100c0 -58 -44 -106 -100 -106c-60 0 -112 47 -112 106c0 133 101 245 231 245z" fill="currentColor"/>
<path transform="translate(11.4379, 21.3441) scale(0.0040, -0.0040)" d="M358 29c-49 0 -74 41 -74 73c0 38 27 76 71 76c4 0 7 0 11 -1c-27 36 -69 59 -116 59h-14v-472h14c79 0 136 70 155 150c2 7 7 10 13 10c7 0 14 -5 14 -13c0 -95 -105 -175 -182 -175c-5 0 -9 1 -14 1v-76c0 -6 -5 -11 -11 -11h-17c-6 0 -12 5 -12 11v80
c-49 8 -95 28 -130 65c-49 51 -66 123 -66 194s17 143 66 194c35 37 81 57 130 65v80c0 6 6 11 12 11h17c6 0 11 -5 11 -11v-76c5 0 9 1 14 1c86 0 158 -66 173 -152c1 -4 1 -9 1 -13c0 -39 -30 -70 -66 -70zM196 -227v454c-55 -23 -59 -89 -59 -179c0 -15 1 -31 1 -48
s-1 -33 -1 -48c0 -90 4 -156 59 -179z" fill="currentColor"/>
<path transform="translate(9.4879, 20.8441) scale(0.0040, -0.0040)" d="M29 39l-2 -64v-11c0 -22 2 -43 5 -65c44 38 91 80 91 138c0 33 -13 66 -42 66c-31 0 -51 -31 -52 -64zM-16 -139l-12 593c9 5 18 8 28 8s19 -3 28 -8l-7 -343c25 23 58 36 92 36c51 0 87 -49 87 -103c0 -79 -84 -117 -144 -169c-16 -14 -25 -41 -47 -41
c-14 0 -25 13 -25 27z" fill="currentColor"/>
<path transform="translate(5.8583, 20.3441) scale(0.0040, -0.0040)" d="M322 0c0 -32 6 -73 44 -73c29 0 56 32 87 32c123 0 229 -90 229 -209c0 -168 -91 -250 -262 -250c-82 0 -152 62 -152 142c0 42 34 76 76 76s76 -34 76 -76c0 -39 -48 -37 -48 -76c0 -23 23 -37 48 -37c115 0 138 89 138 221c0 106 -13 181 -105 181
c-71 0 -116 -71 -116 -148c0 -10 -8 -15 -15 -15s-14 5 -14 15c0 75 -30 146 -83 198v-470c0 -6 -5 -11 -11 -11h-21c-6 0 -11 5 -11 11v978c0 6 5 11 11 11h21c6 0 11 -5 11 -11v-470c53 52 83 123 83 198c0 10 7 15 14 15s15 -5 15 -15c0 -77 45 -148 116 -148
c92 0 105 75 105 181c0 132 -23 221 -138 221c-25 0 -48 -14 -48 -37c0 -39 48 -37 48 -76c0 -42 -34 -76 -76 -76s-76 34 -76 76c0 80 70 142 152 142c171 0 262 -82 262 -250c0 -119 -106 -209 -229 -209c-31 0 -58 32 -87 32c-38 0 -44 -41 -44 -73zM128 -500h-117
c-6 0 -11 5 -11 11v978c0 6 5 11 11 11h117c6 0 11 -5 11 -11v-978c0 -6 -5 -11 -11 -11z" fill="currentColor"/>
<path transform="translate(11.4379, 13.5079) scale(0.0040, -0.0040)" d="M358 29c-49 0 -74 41 -74 73c0 38 27 76 71 76c4 0 7 0 11 -1c-27 36 -69 59 -116 59h-14v-472h14c79 0 136 70 155 150c2 7 7 10 13 10c7 0 14 -5 14 -13c0 -95 -105 -175 -182 -175c-5 0 -9 1 -14 1v-76c0 -6 -5 -11 -11 -11h-17c-6 0 -12 5 -12 11v80
c-49 8 -95 28 -130 65c-49 51 -66 123 -66 194s17 143 66 194c35 37 81 57 130 65v80c0 6 6 11 12 11h17c6 0 11 -5 11 -11v-76c5 0 9 1 14 1c86 0 158 -66 173 -152c1 -4 1 -9 1 -13c0 -39 -30 -70 -66 -70zM196 -227v454c-55 -23 -59 -89 -59 -179c0 -15 1 -31 1 -48
s-1 -33 -1 -48c0 -90 4 -156 59 -179z" fill="currentColor"/>
<path transform="translate(9.4879, 14.0079) scale(0.0040, -0.0040)" d="M29 39l-2 -64v-11c0 -22 2 -43 5 -65c44 38 91 80 91 138c0 33 -13 66 -42 66c-31 0 -51 -31 -52 -64zM-16 -139l-12 593c9 5 18 8 28 8s19 -3 28 -8l-7 -343c25 23 58 36 92 36c51 0 87 -49 87 -103c0 -79 -84 -117 -144 -169c-16 -14 -25 -41 -47 -41
c-14 0 -25 13 -25 27z" fill="currentColor"/>
<path transform="translate(5.8583, 13.5079) scale(0.0040, -0.0040)" d="M322 0c0 -32 6 -73 44 -73c29 0 56 32 87 32c123 0 229 -90 229 -209c0 -168 -91 -250 -262 -250c-82 0 -152 62 -152 142c0 42 34 76 76 76s76 -34 76 -76c0 -39 -48 -37 -48 -76c0 -23 23 -37 48 -37c115 0 138 89 138 221c0 106 -13 181 -105 181
c-71 0 -116 -71 -116 -148c0 -10 -8 -15 -15 -15s-14 5 -14 15c0 75 -30 146 -83 198v-470c0 -6 -5 -11 -11 -11h-21c-6 0 -11 5 -11 11v978c0 6 5 11 11 11h21c6 0 11 -5 11 -11v-470c53 52 83 123 83 198c0 10 7 15 14 15s15 -5 15 -15c0 -77 45 -148 116 -148
c92 0 105 75 105 181c0 132 -23 221 -138 221c-25 0 -48 -14 -48 -37c0 -39 48 -37 48 -76c0 -42 -34 -76 -76 -76s-76 34 -76 76c0 80 70 142 152 142c171 0 262 -82 262 -250c0 -119 -106 -209 -229 -209c-31 0 -58 32 -87 32c-38 0 -44 -41 -44 -73zM128 -500h-117
c-6 0 -11 5 -11 11v978c0 6 5 11 11 11h117c6 0 11 -5 11 -11v-978c0 -6 -5 -11 -11 -11z" fill="currentColor"/>
<path transform="translate(15.1299, 13.5079) scale(0.0040, -0.0040)" d="M-24 -117c0 29 13 42 43 42c31 0 74 -11 113 -27l-129 154c-7 9 -11 18 -11 26c0 34 51 66 88 100c24 22 37 52 37 82c0 25 -9 49 -26 69l-33 40c-3 4 -4 7 -4 11c0 9 9 17 18 17c4 0 8 -2 12 -6l150 -179c7 -9 11 -18 11 -26c0 -34 -51 -65 -88 -99
c-24 -22 -37 -53 -37 -83c0 -25 8 -49 25 -69l82 -97c3 -4 4 -7 4 -11c0 -9 -8 -17 -17 -17c-4 0 -9 2 -13 6c-17 20 -60 36 -93 36c-41 0 -54 -25 -54 -66c0 -34 10 -73 27 -93c5 -6 0 -14 -6 -14c-2 0 -4 1 -6 3c-45 53 -93 147 -93 201z" fill="currentColor"/>
<path transform="translate(11.4379, 5.6717) scale(0.0040, -0.0040)" d="M358 29c-49 0 -74 41 -74 73c0 38 27 76 71 76c4 0 7 0 11 -1c-27 36 -69 59 -116 59h-14v-472h14c79 0 136 70 155 150c2 7 7 10 13 10c7 0 14 -5 14 -13c0 -95 -105 -175 -182 -175c-5 0 -9 1 -14 1v-76c0 -6 -5 -11 -11 -11h-17c-6 0 -12 5 -12 11v80
c-49 8 -95 28 -130 65c-49 51 -66 123 -66 194s17 143 66 194c35 37 81 57 130 65v80c0 6 6 11 12 11h17c6 0 11 -5 11 -11v-76c5 0 9 1 14 1c86 0 158 -66 173 -152c1 -4 1 -9 1 -13c0 -39 -30 -70 -66 -70zM196 -227v454c-55 -23 -59 -89 -59 -179c0 -15 1 -31 1 -48
s-1 -33 -1 -48c0 -90 4 -156 59 -179z" fill="currentColor"/>
<path transform="translate(5.8583, 7.6717) scale(0.0040, -0.0040)" d="M322 0c0 -32 6 -73 44 -73c29 0 56 32 87 32c123 0 229 -90 229 -209c0 -168 -91 -250 -262 -250c-82 0 -152 62 -152 142c0 42 34 76 76 76s76 -34 76 -76c0 -39 -48 -37 -48 -76c0 -23 23 -37 48 -37c115 0 138 89 138 221c0 106 -13 181 -105 181
c-71 0 -116 -71 -116 -148c0 -10 -8 -15 -15 -15s-14 5 -14 15c0 75 -30 146 -83 198v-470c0 -6 -5 -11 -11 -11h-21c-6 0 -11 5 -11 11v978c0 6 5 11 11 11h21c6 0 11 -5 11 -11v-470c53 52 83 123 83 198c0 10 7 15 14 15s15 -5 15 -15c0 -77 45 -148 116 -148
c92 0 105 75 105 181c0 132 -23 221 -138 221c-25 0 -48 -14 -48 -37c0 -39 48 -37 48 -76c0 -42 -34 -76 -76 -76s-76 34 -76 76c0 80 70 142 152 142c171 0 262 -82 262 -250c0 -119 -106 -209 -229 -209c-31 0 -58 32 -87 32c-38 0 -44 -41 -44 -73zM128 -500h-117
c-6 0 -11 5 -11 11v978c0 6 5 11 11 11h117c6 0 11 -5 11 -11v-978c0 -6 -5 -11 -11 -11z" fill="currentColor"/>
<path transform="translate(109.1800, 28.1802) scale(0.0040, -0.0040)" d="M364 -156h-353c-6 0 -11 5 -11 11v134c0 6 5 11 11 11h353c6 0 11 -5 11 -11v-134c0 -6 -5 -11 -11 -11z" fill="currentColor"/>
<path transform="translate(109.1800, 20.3441) scale(0.0040, -0.0040)" d="M364 -156h-353c-6 0 -11 5 -11 11v134c0 6 5 11 11 11h353c6 0 11 -5 11 -11v-134c0 -6 -5 -11 -11 -11z" fill="currentColor"/>
<rect transform="translate(4.9866, 17.4260)" x="0.0000" y="-13.8079" width="0.1717" height="27.6159" ry="0.0537" fill="currentColor"/>
<path transform="translate(3.7366, 3.3930) scale(0.0040, -0.0040)" d="M448 332c10 0 17 -8 17 -17c0 -3 -1 -6 -3 -9c-96 -144 -210 -362 -381 -362h-81v85c0 15 12 27 27 27h54c157 0 265 136 353 268c3 5 9 8 14 8z" fill="currentColor"/>
<path transform="translate(3.7366, 31.4589) scale(0.0040, -0.0040)" d="M465 -315c0 -9 -7 -17 -17 -17c-5 0 -11 3 -14 8c-88 132 -196 268 -353 268h-54c-15 0 -27 12 -27 27v85h81c171 0 285 -218 381 -362c2 -3 3 -6 3 -9z" fill="currentColor"/>
<rect transform="translate(3.7366, 17.4260)" x="0.0000" y="-13.8529" width="0.4500" height="27.7059" ry="0.0000" fill="currentColor"/>
<path transform="translate(19.7219, 28.1802) scale(0.0040, -0.0040)" d="M364 -156h-353c-6 0 -11 5 -11 11v134c0 6 5 11 11 11h353c6 0 11 -5 11 -11v-134c0 -6 -5 -11 -11 -11z" fill="currentColor"/>
<path transform="translate(19.7219, 20.3441) scale(0.0040, -0.0040)" d="M364 -156h-353c-6 0 -11 5 -11 11v134c0 6 5 11 11 11h353c6 0 11 -5 11 -11v-134c0 -6 -5 -11 -11 -11z" fill="currentColor"/>
<path transform="translate(21.5326, 11.0079) scale(0.0040, -0.0040)" d="M217 139c57 0 112 -31 112 -94c0 -72 -55 -121 -102 -149c-35 -21 -74 -35 -115 -35c-57 0 -112 31 -112 94c0 72 55 121 102 149c35 21 74 35 115 35z" fill="currentColor"/>
<path transform="translate(28.8417, 13.5079) scale(0.0040, -0.0040)" d="M-24 -117c0 29 13 42 43 42c31 0 74 -11 113 -27l-129 154c-7 9 -11 18 -11 26c0 34 51 66 88 100c24 22 37 52 37 82c0 25 -9 49 -26 69l-33 40c-3 4 -4 7 -4 11c0 9 9 17 18 17c4 0 8 -2 12 -6l150 -179c7 -9 11 -18 11 -26c0 -34 -51 -65 -88 -99
c-24 -22 -37 -53 -37 -83c0 -25 8 -49 25 -69l82 -97c3 -4 4 -7 4 -11c0 -9 -8 -17 -17 -17c-4 0 -9 2 -13 6c-17 20 -60 36 -93 36c-41 0 -54 -25 -54 -66c0 -34 10 -73 27 -93c5 -6 0 -14 -6 -14c-2 0 -4 1 -6 3c-45 53 -93 147 -93 201z" fill="currentColor"/>
<rect transform="translate(24.8615, 13.5079)" x="-0.0697" y="-1.8189" width="0.1395" height="3.3189" ry="0.0444" fill="currentColor"/>
<path transform="translate(24.7918, 11.5079) scale(0.0040, -0.0040)" d="M217 139c57 0 112 -31 112 -94c0 -72 -55 -121 -102 -149c-35 -21 -74 -35 -115 -35c-57 0 -112 31 -112 94c0 72 55 121 102 149c35 21 74 35 115 35z" fill="currentColor"/>
<rect transform="translate(21.6024, 13.5079)" x="-0.0697" y="-2.3189" width="0.1395" height="3.3189" ry="0.0444" fill="currentColor"/>
<rect transform="translate(18.0932, 13.5079)" x="-0.0697" y="-0.3189" width="0.1395" height="3.3189" ry="0.0444" fill="currentColor"/>
<path transform="translate(18.0234, 13.0079) scale(0.0040, -0.0040)" d="M217 139c57 0 112 -31 112 -94c0 -72 -55 -121 -102 -149c-35 -21 -74 -35 -115 -35c-57 0 -112 31 -112 94c0 72 55 121 102 149c35 21 74 35 115 35z" fill="currentColor"/>
<rect transform="translate(70.8073, 13.5079)" x="-0.0697" y="-0.3189" width="0.1395" height="3.3189" ry="0.0444" fill="currentColor"/>
<path transform="translate(70.7375, 13.0079) scale(0.0040, -0.0040)" d="M217 139c57 0 112 -31 112 -94c0 -72 -55 -121 -102 -149c-35 -21 -74 -35 -115 -35c-57 0 -112 31 -112 94c0 72 55 121 102 149c35 21 74 35 115 35z" fill="currentColor"/>
<path transform="translate(70.7375, 5.6717) scale(0.0040, -0.0040)" d="M-24 -117c0 29 13 42 43 42c31 0 74 -11 113 -27l-129 154c-7 9 -11 18 -11 26c0 34 51 66 88 100c24 22 37 52 37 82c0 25 -9 49 -26 69l-33 40c-3 4 -4 7 -4 11c0 9 9 17 18 17c4 0 8 -2 12 -6l150 -179c7 -9 11 -18 11 -26c0 -34 -51 -65 -88 -99
c-24 -22 -37 -53 -37 -83c0 -25 8 -49 25 -69l82 -97c3 -4 4 -7 4 -11c0 -9 -8 -17 -17 -17c-4 0 -9 2 -13 6c-17 20 -60 36 -93 36c-41 0 -54 -25 -54 -66c0 -34 10 -73 27 -93c5 -6 0 -14 -6 -14c-2 0 -4 1 -6 3c-45 53 -93 147 -93 201z" fill="currentColor"/>
<rect transform="translate(66.6622, 13.5079)" x="-0.0697" y="-0.8189" width="0.1395" height="3.3189" ry="0.0444" fill="currentColor"/>
<path transform="translate(66.5924, 12.5079) scale(0.0040, -0.0040)" d="M217 139c57 0 112 -31 112 -94c0 -72 -55 -121 -102 -149c-35 -21 -74 -35 -115 -35c-57 0 -112 31 -112 94c0 72 55 121 102 149c35 21 74 35 115 35z" fill="currentColor"/>
<rect transform="translate(63.4030, 13.5079)" x="-0.0697" y="-1.3189" width="0.1395" height="3.3189" ry="0.0444" fill="currentColor"/>
<path transform="translate(63.3332, 12.0079) scale(0.0040, -0.0040)" d="M217 139c57 0 112 -31 112 -94c0 -72 -55 -121 -102 -149c-35 -21 -74 -35 -115 -35c-57 0 -112 31 -112 94c0 72 55 121 102 149c35 21 74 35 115 35z" fill="currentColor"/>
<rect transform="translate(61.1156, 13.5079)" x="-0.0697" y="-1.8189" width="0.1395" height="2.8242" ry="0.0444" fill="currentColor"/>
<path transform="translate(61.0458, 11.5079) scale(0.0040, -0.0040)" d="M217 139c57 0 112 -31 112 -94c0 -72 -55 -121 -102 -149c-35 -21 -74 -35 -115 -35c-57 0 -112 31 -112 94c0 72 55 121 102 149c35 21 74 35 115 35z" fill="currentColor"/>
<path transform="translate(76.5601, 14.0079) scale(0.0040, -0.0040)" d="M217 139c57 0 112 -31 112 -94c0 -72 -55 -121 -102 -149c-35 -21 -74 -35 -115 -35c-57 0 -112 31 -112 94c0 72 55 121 102 149c35 21 74 35 115 35z" fill="currentColor"/>
<path transform="translate(72.7637, 13.5079) scale(0.0040, -0.0040)" d="M-8 375c8 5 17 7 26 7s18 -2 26 -7l-3 -187l104 21h4c10 0 18 -8 18 -18l7 -566c-8 -5 -16 -7 -25 -7s-18 2 -26 7l2 187l-103 -21h-4c-10 0 -18 8 -18 18zM130 111l-90 -18l-3 -204l90 18z" fill="currentColor"/>
<rect transform="translate(75.0500, 13.5079)" x="-0.0697" y="-3.1774" width="0.1395" height="2.9962" ry="0.0444" fill="currentColor"/>
<rect transform="translate(73.8738, 5.6717)" x="-0.0697" y="-0.3189" width="0.1395" height="3.3189" ry="0.0444" fill="currentColor"/>
<path transform="translate(73.8041, 13.5079) scale(0.0040, -0.0040)" d="M217 139c57 0 112 -31 112 -94c0 -72 -55 -121 -102 -149c-35 -21 -74 -35 -115 -35c-57 0 -112 31 -112 94c0 72 55 121 102 149c35 21 74 35 115 35z" fill="currentColor"/>
<path transform="translate(73.8041, 5.1717) scale(0.0040, -0.0040)" d="M217 139c57 0 112 -31 112 -94c0 -72 -55 -121 -102 -149c-35 -21 -74 -35 -115 -35c-57 0 -112 31 -112 94c0 72 55 121 102 149c35 21 74 35 115 35z" fill="currentColor"/>
<path transform="translate(55.8649, 13.5079) scale(0.0040, -0.0040)" d="M-24 -117c0 29 13 42 43 42c31 0 74 -11 113 -27l-129 154c-7 9 -11 18 -11 26c0 34 51 66 88 100c24 22 37 52 37 82c0 25 -9 49 -26 69l-33 40c-3 4 -4 7 -4 11c0 9 9 17 18 17c4 0 8 -2 12 -6l150 -179c7 -9 11 -18 11 -26c0 -34 -51 -65 -88 -99
c-24 -22 -37 -53 -37 -83c0 -25 8 -49 25 -69l82 -97c3 -4 4 -7 4 -11c0 -9 -8 -17 -17 -17c-4 0 -9 2 -13 6c-17 20 -60 36 -93 36c-41 0 -54 -25 -54 -66c0 -34 10 -73 27 -93c5 -6 0 -14 -6 -14c-2 0 -4 1 -6 3c-45 53 -93 147 -93 201z" fill="currentColor"/>
<rect transform="translate(51.8528, 13.5079)" x="-0.0697" y="-0.8189" width="0.1395" height="3.3189" ry="0.0444" fill="currentColor"/>
<path transform="translate(51.7831, 12.5079) scale(0.0040, -0.0040)" d="M217 139c57 0 112 -31 112 -94c0 -72 -55 -121 -102 -149c-35 -21 -74 -35 -115 -35c-57 0 -112 31 -112 94c0 72 55 121 102 149c35 21 74 35 115 35z" fill="currentColor"/>
<rect transform="translate(48.5936, 13.5079)" x="-0.0697" y="-0.3189" width="0.1395" height="3.3189" ry="0.0444" fill="currentColor"/>
<path transform="translate(48.5239, 13.0079) scale(0.0040, -0.0040)" d="M217 139c57 0 112 -31 112 -94c0 -72 -55 -121 -102 -149c-35 -21 -74 -35 -115 -35c-57 0 -112 31 -112 94c0 72 55 121 102 149c35 21 74 35 115 35z" fill="currentColor"/>
<path transform="translate(43.8147, 13.5079) scale(0.0040, -0.0040)" d="M217 -311c0 -11 -8 -19 -19 -19s-20 8 -20 19v142l-81 -30v-156c0 -11 -9 -20 -20 -20s-19 9 -19 20v142l-28 -11c-3 -1 -5 -1 -8 -1c-12 0 -22 10 -22 23v57c0 9 6 18 15 21l43 16v157l-28 -10c-3 -1 -5 -1 -8 -1c-12 0 -22 9 -22 22v57c0 9 6 18 15 21l43 16v157
c0 11 8 19 19 19s20 -8 20 -19v-142l81 30v156c0 11 9 20 20 20s19 -9 19 -20v-142l28 11c3 1 5 1 8 1c12 0 22 -10 22 -23v-57c0 -9 -6 -18 -15 -21l-43 -16v-157l28 10c3 1 5 1 8 1c12 0 22 -9 22 -22v-57c0 -9 -6 -18 -15 -21l-43 -16v-157zM97 64v-158l81 30v158z" fill="currentColor"/>
<rect transform="translate(58.8282, 13.5079)" x="-0.0697" y="-1.3189" width="0.1395" height="2.4999" ry="0.0444" fill="currentColor"/>
<path transform="translate(58.7584, 12.0079) scale(0.0040, -0.0040)" d="M217 139c57 0 112 -31 112 -94c0 -72 -55 -121 -102 -149c-35 -21 -74 -35 -115 -35c-57 0 -112 31 -112 94c0 72 55 121 102 149c35 21 74 35 115 35z" fill="currentColor"/>
</svg>
