<svg xmlns="http://www.w3.org/2000/svg" xmlns:xlink="http://www.w3.org/1999/xlink" version="1.2" width="191.54mm" height="90.41mm" viewBox="-0.9665 -0.0245 120.4366 56.8488">
<rect transform="translate(0.0000, 44.7009)" x="93.9400" y="-0.1034" width="2.0171" height="0.2069" ry="0.1034" fill="currentColor"/>
<rect transform="translate(0.0000, 44.7009)" x="105.3436" y="-0.1034" width="2.0171" height="0.2069" ry="0.1034" fill="currentColor"/>
<line transform="translate(9.4319, 49.7009)" stroke-linejoin="round" stroke-linecap="round" stroke-width="0.1069" stroke="currentColor" x1="0.0534" y1="-0.0000" x2="109.9848" y2="-0.0000"/>
<line transform="translate(9.4319, 48.7009)" stroke-linejoin="round" stroke-linecap="round" stroke-width="0.1069" stroke="currentColor" x1="0.0534" y1="-0.0000" x2="109.9848" y2="-0.0000"/>
<line transform="translate(9.4319, 47.7009)" stroke-linejoin="round" stroke-linecap="round" stroke-width="0.1069" stroke="currentColor" x1="0.0534" y1="-0.0000" x2="109.9848" y2="-0.0000"/>
<line transform="translate(9.4319, 46.7009)" stroke-linejoin="round" stroke-linecap="round" stroke-width="0.1069" stroke="currentColor" x1="0.0534" y1="-0.0000" x2="109.9848" y2="-0.0000"/>
<line transform="translate(9.4319, 45.7009)" stroke-linejoin="round" stroke-linecap="round" stroke-width="0.1069" stroke="currentColor" x1="0.0534" y1="-0.0000" x2="109.9848" y2="-0.0000"/>
<rect transform="translate(79.9058, 3.8815)" x="0.0000" y="-2.0000" width="0.2031" height="4.0000" ry="0.0000" fill="currentColor"/>
<rect transform="translate(104.4078, 3.8815)" x="0.0000" y="-2.0000" width="0.2031" height="4.0000" ry="0.0000" fill="currentColor"/>
<rect transform="translate(104.4078, 47.7009)" x="0.0000" y="-2.0000" width="0.2031" height="4.0000" ry="0.0000" fill="currentColor"/>
<rect transform="translate(26.4869, 3.8815)" x="0.0000" y="-2.0000" width="0.2031" height="4.0000" ry="0.0000" fill="currentColor"/>
<rect transform="translate(51.7304, 47.7009)" x="0.0000" y="-2.0000" width="0.2031" height="4.0000" ry="0.0000" fill="currentColor"/>
<path transform="translate(117.5284, 3.3815) scale(0.0041, -0.0041)" d="M0 0c0 31 25 56 56 56s55 -25 55 -56s-24 -56 -55 -56s-56 25 -56 56z" fill="currentColor"/>
<path transform="translate(117.5284, 4.3815) scale(0.0041, -0.0041)" d="M0 0c0 31 25 56 56 56s55 -25 55 -56s-24 -56 -55 -56s-56 25 -56 56z" fill="currentColor"/>
<rect transform="translate(118.8287, 3.8815)" x="0.0000" y="-2.0000" width="0.6414" height="4.0000" ry="0.0000" fill="currentColor"/>
<rect transform="translate(118.3049, 3.8815)" x="0.0000" y="-2.0000" width="0.2031" height="4.0000" ry="0.0000" fill="currentColor"/>
<rect transform="translate(26.4869, 47.7009)" x="0.0000" y="-2.0000" width="0.2031" height="4.0000" ry="0.0000" fill="currentColor"/>
<rect transform="translate(51.7304, 3.8815)" x="0.0000" y="-2.0000" width="0.2031" height="4.0000" ry="0.0000" fill="currentColor"/>
<rect transform="translate(79.9058, 18.1019)" x="0.0000" y="-2.0000" width="0.2031" height="4.0000" ry="0.0000" fill="currentColor"/>
<path transform="translate(117.5284, 17.6019) scale(0.0041, -0.0041)" d="M0 0c0 31 25 56 56 56s55 -25 55 -56s-24 -56 -55 -56s-56 25 -56 56z" fill="currentColor"/>
<path transform="translate(117.5284, 18.6019) scale(0.0041, -0.0041)" d="M0 0c0 31 25 56 56 56s55 -25 55 -56s-24 -56 -55 -56s-56 25 -56 56z" fill="currentColor"/>
<rect transform="translate(118.8287, 18.1019)" x="0.0000" y="-2.0000" width="0.6414" height="4.0000" ry="0.0000" fill="currentColor"/>
<rect transform="translate(118.3049, 18.1019)" x="0.0000" y="-2.0000" width="0.2031" height="4.0000" ry="0.0000" fill="currentColor"/>
<rect transform="translate(51.7304, 33.0018)" x="0.0000" y="-2.0000" width="0.2031" height="4.0000" ry="0.0000" fill="currentColor"/>
<path transform="translate(117.5284, 32.5018) scale(0.0041, -0.0041)" d="M0 0c0 31 25 56 56 56s55 -25 55 -56s-24 -56 -55 -56s-56 25 -56 56z" fill="currentColor"/>
<path transform="translate(117.5284, 33.5018) scale(0.0041, -0.0041)" d="M0 0c0 31 25 56 56 56s55 -25 55 -56s-24 -56 -55 -56s-56 25 -56 56z" fill="currentColor"/>
<rect transform="translate(118.8287, 33.0018)" x="0.0000" y="-2.0000" width="0.6414" height="4.0000" ry="0.0000" fill="currentColor"/>
<rect transform="translate(118.3049, 33.0018)" x="0.0000" y="-2.0000" width="0.2031" height="4.0000" ry="0.0000" fill="currentColor"/>
<rect transform="translate(79.9058, 47.7009)" x="0.0000" y="-2.0000" width="0.2031" height="4.0000" ry="0.0000" fill="currentColor"/>
<rect transform="translate(79.9058, 33.0018)" x="0.0000" y="-2.0000" width="0.2031" height="4.0000" ry="0.0000" fill="currentColor"/>
<rect transform="translate(51.7304, 18.1019)" x="0.0000" y="-2.0000" width="0.2031" height="4.0000" ry="0.0000" fill="currentColor"/>
<path transform="translate(117.5284, 47.2009) scale(0.0041, -0.0041)" d="M0 0c0 31 25 56 56 56s55 -25 55 -56s-24 -56 -55 -56s-56 25 -56 56z" fill="currentColor"/>
<path transform="translate(117.5284, 48.2009) scale(0.0041, -0.0041)" d="M0 0c0 31 25 56 56 56s55 -25 55 -56s-24 -56 -55 -56s-56 25 -56 56z" fill="currentColor"/>
<rect transform="translate(118.8287, 47.7009)" x="0.0000" y="-2.0000" width="0.6414" height="4.0000" ry="0.0000" fill="currentColor"/>
<rect transform="translate(118.3049, 47.7009)" x="0.0000" y="-2.0000" width="0.2031" height="4.0000" ry="0.0000" fill="currentColor"/>
<rect transform="translate(26.4869, 18.1019)" x="0.0000" y="-2.0000" width="0.2031" height="4.0000" ry="0.0000" fill="currentColor"/>
<line transform="translate(9.4319, 20.1019)" stroke-linejoin="round" stroke-linecap="round" stroke-width="0.1069" stroke="currentColor" x1="0.0534" y1="-0.0000" x2="109.9848" y2="-0.0000"/>
<line transform="translate(9.4319, 19.1019)" stroke-linejoin="round" stroke-linecap="round" stroke-width="0.1069" stroke="currentColor" x1="0.0534" y1="-0.0000" x2="109.9848" y2="-0.0000"/>
<line transform="translate(9.4319, 18.1019)" stroke-linejoin="round" stroke-linecap="round" stroke-width="0.1069" stroke="currentColor" x1="0.0534" y1="-0.0000" x2="109.9848" y2="-0.0000"/>
<line transform="translate(9.4319, 17.1019)" stroke-linejoin="round" stroke-linecap="round" stroke-width="0.1069" stroke="currentColor" x1="0.0534" y1="-0.0000" x2="109.9848" y2="-0.0000"/>
<line transform="translate(9.4319, 16.1019)" stroke-linejoin="round" stroke-linecap="round" stroke-width="0.1069" stroke="currentColor" x1="0.0534" y1="-0.0000" x2="109.9848" y2="-0.0000"/>
<rect transform="translate(104.4078, 33.0018)" x="0.0000" y="-2.0000" width="0.2031" height="4.0000" ry="0.0000" fill="currentColor"/>
<rect transform="translate(104.4078, 18.1019)" x="0.0000" y="-2.0000" width="0.2031" height="4.0000" ry="0.0000" fill="currentColor"/>
<rect transform="translate(26.4869, 33.0018)" x="0.0000" y="-2.0000" width="0.2031" height="4.0000" ry="0.0000" fill="currentColor"/>
<line transform="translate(9.4319, 35.0018)" stroke-linejoin="round" stroke-linecap="round" stroke-width="0.1069" stroke="currentColor" x1="0.0534" y1="-0.0000" x2="109.9848" y2="-0.0000"/>
<line transform="translate(9.4319, 34.0018)" stroke-linejoin="round" stroke-linecap="round" stroke-width="0.1069" stroke="currentColor" x1="0.0534" y1="-0.0000" x2="109.9848" y2="-0.0000"/>
<line transform="translate(9.4319, 33.0018)" stroke-linejoin="round" stroke-linecap="round" stroke-width="0.1069" stroke="currentColor" x1="0.0534" y1="-0.0000" x2="109.9848" y2="-0.0000"/>
<line transform="translate(9.4319, 32.0018)" stroke-linejoin="round" stroke-linecap="round" stroke-width="0.1069" stroke="currentColor" x1="0.0534" y1="-0.0000" x2="109.9848" y2="-0.0000"/>
<line transform="translate(9.4319, 31.0018)" stroke-linejoin="round" stroke-linecap="round" stroke-width="0.1069" stroke="currentColor" x1="0.0534" y1="-0.0000" x2="109.9848" y2="-0.0000"/>
<line transform="translate(9.4319, 5.8815)" stroke-linejoin="round" stroke-linecap="round" stroke-width="0.1069" stroke="currentColor" x1="0.0534" y1="-0.0000" x2="109.9848" y2="-0.0000"/>
<line transform="translate(9.4319, 4.8815)" stroke-linejoin="round" stroke-linecap="round" stroke-width="0.1069" stroke="currentColor" x1="0.0534" y1="-0.0000" x2="109.9848" y2="-0.0000"/>
<line transform="translate(9.4319, 3.8815)" stroke-linejoin="round" stroke-linecap="round" stroke-width="0.1069" stroke="currentColor" x1="0.0534" y1="-0.0000" x2="109.9848" y2="-0.0000"/>
<line transform="translate(9.4319, 2.8815)" stroke-linejoin="round" stroke-linecap="round" stroke-width="0.1069" stroke="currentColor" x1="0.0534" y1="-0.0000" x2="109.9848" y2="-0.0000"/>
<line transform="translate(9.4319, 1.8815)" stroke-linejoin="round" stroke-linecap="round" stroke-width="0.1069" stroke="currentColor" x1="0.0534" y1="-0.0000" x2="109.9848" y2="-0.0000"/>
<text transform="translate(98.2228, 41.5969)" font-family="Linux Libertine O" font-size="2.5244" text-anchor="start" fill="currentColor">
<tspan>
gel</tspan>
</text>
<text transform="translate(97.8078, 38.7969)" font-family="Linux Libertine O" font-size="2.5244" text-anchor="start" fill="currentColor">
<tspan>
mel</tspan>
</text>
<path transform="translate(99.5123, 32.0018) scale(0.0041, -0.0041)" d="M217 139c57 0 112 -31 112 -94c0 -72 -55 -121 -102 -149c-35 -21 -74 -35 -115 -35c-57 0 -112 31 -112 94c0 72 55 121 102 149c35 21 74 35 115 35z" fill="currentColor"/>
<path transform="translate(96.8942, 45.2009) scale(0.0041, -0.0041)" d="M217 139c57 0 112 -31 112 -94c0 -72 -55 -121 -102 -149c-35 -21 -74 -35 -115 -35c-57 0 -112 31 -112 94c0 72 55 121 102 149c35 21 74 35 115 35z" fill="currentColor"/>
<rect transform="translate(96.9637, 47.7009)" x="-0.0695" y="-2.3149" width="0.1390" height="2.4967" ry="0.0442" fill="currentColor"/>
<text transform="translate(98.2228, 26.4300)" font-family="Linux Libertine O" font-size="2.5244" text-anchor="start" fill="currentColor">
<tspan>
gel</tspan>
</text>
<text transform="translate(97.8078, 23.6300)" font-family="Linux Libertine O" font-size="2.5244" text-anchor="start" fill="currentColor">
<tspan>
mel</tspan>
</text>
<path transform="translate(99.5123, 19.1019) scale(0.0041, -0.0041)" d="M217 139c57 0 112 -31 112 -94c0 -72 -55 -121 -102 -149c-35 -21 -74 -35 -115 -35c-57 0 -112 31 -112 94c0 72 55 121 102 149c35 21 74 35 115 35z" fill="currentColor"/>
<path transform="translate(99.5123, 3.8815) scale(0.0041, -0.0041)" d="M217 139c57 0 112 -31 112 -94c0 -72 -55 -121 -102 -149c-35 -21 -74 -35 -115 -35c-57 0 -112 31 -112 94c0 72 55 121 102 149c35 21 74 35 115 35z" fill="currentColor"/>
<text transform="translate(98.2228, 12.4767)" font-family="Linux Libertine O" font-size="2.5244" text-anchor="start" fill="currentColor">
<tspan>
gel</tspan>
</text>
<text transform="translate(97.8078, 9.6767)" font-family="Linux Libertine O" font-size="2.5244" text-anchor="start" fill="currentColor">
<tspan>
mel</tspan>
</text>
<text transform="translate(93.3262, 12.4767)" font-family="Linux Libertine O" font-size="2.5244" text-anchor="start" fill="currentColor">
<tspan>
En</tspan>
</text>
<path transform="translate(94.2762, 19.6019) scale(0.0041, -0.0041)" d="M217 139c57 0 112 -31 112 -94c0 -72 -55 -121 -102 -149c-35 -21 -74 -35 -115 -35c-57 0 -112 31 -112 94c0 72 55 121 102 149c35 21 74 35 115 35z" fill="currentColor"/>
<text transform="translate(92.4019, 23.6300)" font-family="Linux Libertine O" font-size="2.5244" text-anchor="start" fill="currentColor">
<tspan>
Him</tspan>
</text>
<text transform="translate(93.3262, 26.4300)" font-family="Linux Libertine O" font-size="2.5244" text-anchor="start" fill="currentColor">
<tspan>
En</tspan>
</text>
<path transform="translate(94.2762, 32.0018) scale(0.0041, -0.0041)" d="M217 139c57 0 112 -31 112 -94c0 -72 -55 -121 -102 -149c-35 -21 -74 -35 -115 -35c-57 0 -112 31 -112 94c0 72 55 121 102 149c35 21 74 35 115 35z" fill="currentColor"/>
<text transform="translate(92.4019, 38.7969)" font-family="Linux Libertine O" font-size="2.5244" text-anchor="start" fill="currentColor">
<tspan>
Him</tspan>
</text>
<text transform="translate(93.3262, 41.5969)" font-family="Linux Libertine O" font-size="2.5244" text-anchor="start" fill="currentColor">
<tspan>
En</tspan>
</text>
<path transform="translate(94.2762, 44.7009) scale(0.0041, -0.0041)" d="M217 139c57 0 112 -31 112 -94c0 -72 -55 -121 -102 -149c-35 -21 -74 -35 -115 -35c-57 0 -112 31 -112 94c0 72 55 121 102 149c35 21 74 35 115 35z" fill="currentColor"/>
<text transform="translate(94.2762, 53.4961)" font-family="Linux Libertine O" font-size="2.5244" text-anchor="start" fill="currentColor">
<tspan>
Him</tspan>
</text>
<text transform="translate(94.2762, 56.2961)" font-family="Linux Libertine O" font-size="2.5244" text-anchor="start" fill="currentColor">
<tspan>
En</tspan>
</text>
<rect transform="translate(95.5514, 3.8815)" x="-0.0695" y="-3.0000" width="0.1390" height="3.3149" ry="0.0442" fill="currentColor"/>
<rect transform="translate(95.5514, 18.1019)" x="-0.0695" y="-2.0000" width="0.1390" height="3.3149" ry="0.0442" fill="currentColor"/>
<rect transform="translate(94.3456, 33.0018)" x="-0.0695" y="-0.8149" width="0.1390" height="3.3149" ry="0.0442" fill="currentColor"/>
<rect transform="translate(94.3456, 47.7009)" x="-0.0695" y="-2.8149" width="0.1390" height="2.8196" ry="0.0442" fill="currentColor"/>
<text transform="translate(105.1096, 9.6767)" font-family="Linux Libertine O" font-size="2.5244" text-anchor="start" fill="currentColor">
<tspan>
ta</tspan>
</text>
<text transform="translate(104.9587, 12.4767)" font-family="Linux Libertine O" font-size="2.5244" text-anchor="start" fill="currentColor">
<tspan>
sa</tspan>
</text>
<path transform="translate(105.6798, 19.1019) scale(0.0041, -0.0041)" d="M217 139c57 0 112 -31 112 -94c0 -72 -55 -121 -102 -149c-35 -21 -74 -35 -115 -35c-57 0 -112 31 -112 94c0 72 55 121 102 149c35 21 74 35 115 35z" fill="currentColor"/>
<text transform="translate(105.6798, 23.6300)" font-family="Linux Libertine O" font-size="2.5244" text-anchor="start" fill="currentColor">
<tspan>
ta</tspan>
</text>
<text transform="translate(105.6798, 26.4300)" font-family="Linux Libertine O" font-size="2.5244" text-anchor="start" fill="currentColor">
<tspan>
sa</tspan>
</text>
<path transform="translate(105.6798, 32.0018) scale(0.0041, -0.0041)" d="M217 139c57 0 112 -31 112 -94c0 -72 -55 -121 -102 -149c-35 -21 -74 -35 -115 -35c-57 0 -112 31 -112 94c0 72 55 121 102 149c35 21 74 35 115 35z" fill="currentColor"/>
<text transform="translate(105.6798, 38.7969)" font-family="Linux Libertine O" font-size="2.5244" text-anchor="start" fill="currentColor">
<tspan>
ta</tspan>
</text>
<text transform="translate(105.6798, 41.5969)" font-family="Linux Libertine O" font-size="2.5244" text-anchor="start" fill="currentColor">
<tspan>
sa</tspan>
</text>
<path transform="translate(105.6798, 44.2009) scale(0.0041, -0.0041)" d="M217 139c57 0 112 -31 112 -94c0 -72 -55 -121 -102 -149c-35 -21 -74 -35 -115 -35c-57 0 -112 31 -112 94c0 72 55 121 102 149c35 21 74 35 115 35z" fill="currentColor"/>
<text transform="translate(105.6798, 53.4961)" font-family="Linux Libertine O" font-size="2.5244" text-anchor="start" fill="currentColor">
<tspan>
ta</tspan>
</text>
<text transform="translate(105.6798, 56.2961)" font-family="Linux Libertine O" font-size="2.5244" text-anchor="start" fill="currentColor">
<tspan>
sa</tspan>
</text>
<rect transform="translate(107.0353, 3.8815)" x="-0.0695" y="-3.0000" width="0.1390" height="3.2389" ry="0.0442" fill="currentColor"/>
<rect transform="translate(106.9551, 18.1019)" x="-0.0695" y="-2.5000" width="0.1390" height="3.3149" ry="0.0442" fill="currentColor"/>
<path transform="translate(107.4804, 31.5018) scale(0.0041, -0.0041)" d="M0 0c0 31 25 56 56 56s55 -25 55 -56s-24 -56 -55 -56s-56 25 -56 56z" fill="currentColor"/>
<path transform="translate(99.5123, 45.7009) scale(0.0041, -0.0041)" d="M217 139c57 0 112 -31 112 -94c0 -72 -55 -121 -102 -149c-35 -21 -74 -35 -115 -35c-57 0 -112 31 -112 94c0 72 55 121 102 149c35 21 74 35 115 35z" fill="currentColor"/>
<text transform="translate(99.5123, 53.4961)" font-family="Linux Libertine O" font-size="2.5244" text-anchor="start" fill="currentColor">
<tspan>
mel</tspan>
</text>
<text transform="translate(99.5123, 56.2961)" font-family="Linux Libertine O" font-size="2.5244" text-anchor="start" fill="currentColor">
<tspan>
gel</tspan>
</text>
<rect transform="translate(99.5817, 3.8815)" x="-0.0695" y="0.1851" width="0.1390" height="3.1482" ry="0.0442" fill="currentColor"/>
<rect transform="translate(100.7875, 18.1019)" x="-0.0695" y="-2.5000" width="0.1390" height="3.3149" ry="0.0442" fill="currentColor"/>
<rect transform="translate(99.5817, 33.0018)" x="-0.0695" y="-0.8149" width="0.1390" height="3.3149" ry="0.0442" fill="currentColor"/>
<rect transform="translate(99.5817, 47.7009)" x="-0.0695" y="-1.8149" width="0.1390" height="2.8197" ry="0.0442" fill="currentColor"/>
<path transform="translate(102.0784, 46.2009) scale(0.0041, -0.0041)" d="M217 139c57 0 112 -31 112 -94c0 -72 -55 -121 -102 -149c-35 -21 -74 -35 -115 -35c-57 0 -112 31 -112 94c0 72 55 121 102 149c35 21 74 35 115 35z" fill="currentColor"/>
<rect transform="translate(102.1479, 47.7009)" x="-0.0695" y="-1.3149" width="0.1390" height="2.4966" ry="0.0442" fill="currentColor"/>
<path transform="translate(105.6798, 4.3815) scale(0.0041, -0.0041)" d="M314 64c0 24 -21 41 -42 41c-4 0 -8 -1 -12 -2c-30 -9 -76 -38 -112 -62s-83 -54 -103 -78c-7 -8 -10 -17 -10 -27c0 -24 20 -41 41 -41c4 0 8 1 12 2c30 9 77 38 113 62s82 54 102 78c7 8 11 17 11 27zM262 139c48 0 87 -22 87 -75c0 -19 -5 -39 -11 -57
c-12 -38 -31 -74 -64 -96c-54 -36 -113 -50 -187 -50c-48 0 -87 22 -87 75c0 19 4 39 10 57c12 38 31 74 64 96c54 36 114 50 188 50z" fill="currentColor"/>
<rect transform="translate(81.7519, 47.7009)" x="-0.0695" y="-0.3149" width="0.1390" height="2.4968" ry="0.0442" fill="currentColor"/>
<path transform="translate(84.3765, 33.5018) scale(0.0041, -0.0041)" d="M217 139c57 0 112 -31 112 -94c0 -72 -55 -121 -102 -149c-35 -21 -74 -35 -115 -35c-57 0 -112 31 -112 94c0 72 55 121 102 149c35 21 74 35 115 35z" fill="currentColor"/>
<path transform="translate(84.3765, 46.7009) scale(0.0041, -0.0041)" d="M217 139c57 0 112 -31 112 -94c0 -72 -55 -121 -102 -149c-35 -21 -74 -35 -115 -35c-57 0 -112 31 -112 94c0 72 55 121 102 149c35 21 74 35 115 35z" fill="currentColor"/>
<rect transform="translate(85.6517, 33.0018)" x="-0.0695" y="-2.1820" width="0.1390" height="2.4968" ry="0.0442" fill="currentColor"/>
<text transform="translate(79.9025, 23.6300)" font-family="Linux Libertine O" font-size="2.5244" text-anchor="start" fill="currentColor">
<tspan>
lass</tspan>
</text>
<text transform="translate(80.6570, 26.4300)" font-family="Linux Libertine O" font-size="2.5244" text-anchor="start" fill="currentColor">
<tspan>
dir</tspan>
</text>
<path transform="translate(81.6824, 34.0018) scale(0.0041, -0.0041)" d="M217 139c57 0 112 -31 112 -94c0 -72 -55 -121 -102 -149c-35 -21 -74 -35 -115 -35c-57 0 -112 31 -112 94c0 72 55 121 102 149c35 21 74 35 115 35z" fill="currentColor"/>
<text transform="translate(81.6824, 38.7969)" font-family="Linux Libertine O" font-size="2.5244" text-anchor="start" fill="currentColor">
<tspan>
lass</tspan>
</text>
<text transform="translate(81.6824, 41.5969)" font-family="Linux Libertine O" font-size="2.5244" text-anchor="start" fill="currentColor">
<tspan>
dir</tspan>
</text>
<path transform="translate(81.6824, 47.2009) scale(0.0041, -0.0041)" d="M217 139c57 0 112 -31 112 -94c0 -72 -55 -121 -102 -149c-35 -21 -74 -35 -115 -35c-57 0 -112 31 -112 94c0 72 55 121 102 149c35 21 74 35 115 35z" fill="currentColor"/>
<text transform="translate(81.6824, 53.4961)" font-family="Linux Libertine O" font-size="2.5244" text-anchor="start" fill="currentColor">
<tspan>
lass</tspan>
</text>
<text transform="translate(81.6824, 56.2961)" font-family="Linux Libertine O" font-size="2.5244" text-anchor="start" fill="currentColor">
<tspan>
dir</tspan>
</text>
<rect transform="translate(81.7519, 3.8815)" x="-0.0695" y="-0.3149" width="0.1390" height="3.3149" ry="0.0442" fill="currentColor"/>
<path transform="translate(80.6169, 3.3815) scale(0.0041, -0.0041)" d="M-8 375c8 5 17 7 26 7s18 -2 26 -7l-3 -187l104 21h4c10 0 18 -8 18 -18l8 -566c-8 -5 -17 -7 -26 -7s-18 2 -26 7l2 187l-103 -21h-4c-10 0 -18 8 -18 18zM130 111l-90 -18l-3 -204l90 18z" fill="currentColor"/>
<rect transform="translate(82.9576, 18.1019)" x="-0.0695" y="-1.5000" width="0.1390" height="3.3149" ry="0.0442" fill="currentColor"/>
<rect transform="translate(82.9576, 33.0018)" x="-0.0695" y="-2.0046" width="0.1390" height="2.8194" ry="0.0442" fill="currentColor"/>
<rect transform="translate(87.1494, 47.7009)" x="-0.0695" y="-1.3149" width="0.1390" height="3.1509" ry="0.0442" fill="currentColor"/>
<path transform="translate(90.5947, 20.1019) scale(0.0041, -0.0041)" d="M217 139c57 0 112 -31 112 -94c0 -72 -55 -121 -102 -149c-35 -21 -74 -35 -115 -35c-57 0 -112 31 -112 94c0 72 55 121 102 149c35 21 74 35 115 35z" fill="currentColor"/>
<path transform="translate(90.5947, 32.5018) scale(0.0041, -0.0041)" d="M217 139c57 0 112 -31 112 -94c0 -72 -55 -121 -102 -149c-35 -21 -74 -35 -115 -35c-57 0 -112 31 -112 94c0 72 55 121 102 149c35 21 74 35 115 35z" fill="currentColor"/>
<path transform="translate(90.5947, 48.2009) scale(0.0041, -0.0041)" d="M217 139c57 0 112 -31 112 -94c0 -72 -55 -121 -102 -149c-35 -21 -74 -35 -115 -35c-57 0 -112 31 -112 94c0 72 55 121 102 149c35 21 74 35 115 35z" fill="currentColor"/>
<rect transform="translate(91.8699, 18.1019)" x="-0.0695" y="-0.9965" width="0.1390" height="2.8113" ry="0.0442" fill="currentColor"/>
<rect transform="translate(90.6642, 33.0018)" x="-0.0695" y="-0.3149" width="0.1390" height="3.1319" ry="0.0442" fill="currentColor"/>
<rect transform="translate(90.6642, 47.7009)" x="-0.0695" y="0.6851" width="0.1390" height="2.2923" ry="0.0442" fill="currentColor"/>
<path transform="translate(94.2762, 4.3815) scale(0.0041, -0.0041)" d="M217 139c57 0 112 -31 112 -94c0 -72 -55 -121 -102 -149c-35 -21 -74 -35 -115 -35c-57 0 -112 31 -112 94c0 72 55 121 102 149c35 21 74 35 115 35z" fill="currentColor"/>
<text transform="translate(92.4019, 9.6767)" font-family="Linux Libertine O" font-size="2.5244" text-anchor="start" fill="currentColor">
<tspan>
Him</tspan>
</text>
<rect transform="translate(84.4460, 47.7009)" x="-0.0695" y="-0.8149" width="0.1390" height="2.8194" ry="0.0442" fill="currentColor"/>
<path transform="translate(87.0799, 3.8815) scale(0.0041, -0.0041)" d="M217 139c57 0 112 -31 112 -94c0 -72 -55 -121 -102 -149c-35 -21 -74 -35 -115 -35c-57 0 -112 31 -112 94c0 72 55 121 102 149c35 21 74 35 115 35z" fill="currentColor"/>
<text transform="translate(85.3377, 9.6767)" font-family="Linux Libertine O" font-size="2.5244" text-anchor="start" fill="currentColor">
<tspan>
den</tspan>
</text>
<text transform="translate(85.7904, 12.4767)" font-family="Linux Libertine O" font-size="2.5244" text-anchor="start" fill="currentColor">
<tspan>
die</tspan>
</text>
<path transform="translate(87.0799, 20.6019) scale(0.0041, -0.0041)" d="M217 139c57 0 112 -31 112 -94c0 -72 -55 -121 -102 -149c-35 -21 -74 -35 -115 -35c-57 0 -112 31 -112 94c0 72 55 121 102 149c35 21 74 35 115 35z" fill="currentColor"/>
<text transform="translate(87.0799, 23.6300)" font-family="Linux Libertine O" font-size="2.5244" text-anchor="start" fill="currentColor">
<tspan>
den</tspan>
</text>
<text transform="translate(87.0799, 26.4300)" font-family="Linux Libertine O" font-size="2.5244" text-anchor="start" fill="currentColor">
<tspan>
die</tspan>
</text>
<path transform="translate(87.0799, 33.0018) scale(0.0041, -0.0041)" d="M217 139c57 0 112 -31 112 -94c0 -72 -55 -121 -102 -149c-35 -21 -74 -35 -115 -35c-57 0 -112 31 -112 94c0 72 55 121 102 149c35 21 74 35 115 35z" fill="currentColor"/>
<text transform="translate(87.0799, 38.7969)" font-family="Linux Libertine O" font-size="2.5244" text-anchor="start" fill="currentColor">
<tspan>
den</tspan>
</text>
<text transform="translate(87.0799, 41.5969)" font-family="Linux Libertine O" font-size="2.5244" text-anchor="start" fill="currentColor">
<tspan>
die</tspan>
</text>
<path transform="translate(87.0799, 46.2009) scale(0.0041, -0.0041)" d="M217 139c57 0 112 -31 112 -94c0 -72 -55 -121 -102 -149c-35 -21 -74 -35 -115 -35c-57 0 -112 31 -112 94c0 72 55 121 102 149c35 21 74 35 115 35z" fill="currentColor"/>
<text transform="translate(87.0799, 53.4961)" font-family="Linux Libertine O" font-size="2.5244" text-anchor="start" fill="currentColor">
<tspan>
den</tspan>
</text>
<text transform="translate(87.0799, 56.2961)" font-family="Linux Libertine O" font-size="2.5244" text-anchor="start" fill="currentColor">
<tspan>
die</tspan>
</text>
<rect transform="translate(87.1494, 3.8815)" x="-0.0695" y="0.1851" width="0.1390" height="3.1482" ry="0.0442" fill="currentColor"/>
<rect transform="translate(88.3551, 18.1019)" x="-0.0695" y="-0.8170" width="0.1390" height="3.1319" ry="0.0442" fill="currentColor"/>
<rect transform="translate(87.1494, 33.0018)" x="-0.0695" y="0.1851" width="0.1390" height="2.8113" ry="0.0442" fill="currentColor"/>
<polygon transform="translate(75.8139, 29.8152)" stroke-linejoin="round" stroke-linecap="round" stroke-width="0.0884" fill="currentColor" stroke="currentColor" points="2.6609 0.1773 2.6609 0.5689 0.0442 0.1958 0.0442 -0.1958"/>
<rect transform="translate(64.8762, 53.4961)" x="0.0000" y="-0.5590" width="0.5793" height="0.1390" ry="0.0428" fill="currentColor"/>
<rect transform="translate(64.8762, 38.7969)" x="0.0000" y="-0.5590" width="0.5793" height="0.1390" ry="0.0428" fill="currentColor"/>
<rect transform="translate(64.8762, 23.6300)" x="0.0000" y="-0.5590" width="0.5793" height="0.1390" ry="0.0428" fill="currentColor"/>
<rect transform="translate(64.8762, 9.6767)" x="0.0000" y="-0.5590" width="0.5793" height="0.1390" ry="0.0428" fill="currentColor"/>
<rect transform="translate(58.4027, 56.2961)" x="0.0000" y="-0.5590" width="0.6600" height="0.1390" ry="0.0428" fill="currentColor"/>
<rect transform="translate(57.7519, 53.4961)" x="0.0000" y="-0.5590" width="0.6600" height="0.1390" ry="0.0428" fill="currentColor"/>
<rect transform="translate(58.4027, 41.5969)" x="0.0000" y="-0.5590" width="0.6600" height="0.1390" ry="0.0428" fill="currentColor"/>
<rect transform="translate(97.5015, 38.7969)" x="0.0000" y="-0.5590" width="0.3000" height="0.1390" ry="0.0428" fill="currentColor"/>
<rect transform="translate(97.0668, 26.4300)" x="0.0000" y="-0.5590" width="0.6600" height="0.1390" ry="0.0428" fill="currentColor"/>
<rect transform="translate(97.5015, 23.6300)" x="0.0000" y="-0.5590" width="0.3000" height="0.1390" ry="0.0428" fill="currentColor"/>
<rect transform="translate(97.0668, 12.4767)" x="0.0000" y="-0.5590" width="0.6600" height="0.1390" ry="0.0428" fill="currentColor"/>
<rect transform="translate(97.5015, 9.6767)" x="0.0000" y="-0.5590" width="0.3000" height="0.1390" ry="0.0428" fill="currentColor"/>
<polygon transform="translate(87.0799, 49.5144)" stroke-linejoin="round" stroke-linecap="round" stroke-width="0.0884" fill="currentColor" stroke="currentColor" points="3.6096 0.9907 3.6096 1.3824 0.0442 0.1958 0.0442 -0.1958"/>
<polygon transform="translate(87.0799, 36.0018)" stroke-linejoin="round" stroke-linecap="round" stroke-width="0.0884" fill="currentColor" stroke="currentColor" points="3.6096 -0.3824 3.6096 0.0093 0.0442 0.1958 0.0442 -0.1958"/>
<polygon transform="translate(88.2856, 17.2885)" stroke-linejoin="round" stroke-linecap="round" stroke-width="0.0884" fill="currentColor" stroke="currentColor" points="3.6096 -0.3824 3.6096 0.0093 0.0442 0.1958 0.0442 -0.1958"/>
<polygon transform="translate(81.6824, 49.8875)" stroke-linejoin="round" stroke-linecap="round" stroke-width="0.0884" fill="currentColor" stroke="currentColor" points="2.7889 -0.3824 2.7889 0.0093 0.0442 0.1958 0.0442 -0.1958"/>
<polygon transform="translate(82.8882, 31.0018)" stroke-linejoin="round" stroke-linecap="round" stroke-width="0.0884" fill="currentColor" stroke="currentColor" points="2.7889 -0.3824 2.7889 0.0093 0.0442 0.1958 0.0442 -0.1958"/>
<rect transform="translate(36.0453, 56.2961)" x="0.0000" y="-0.5590" width="0.3000" height="0.1390" ry="0.0428" fill="currentColor"/>
<rect transform="translate(37.0383, 26.4300)" x="0.0000" y="-0.5590" width="0.6600" height="0.1390" ry="0.0428" fill="currentColor"/>
<rect transform="translate(37.0383, 12.4767)" x="0.0000" y="-0.5590" width="0.6600" height="0.1390" ry="0.0428" fill="currentColor"/>
<path transform="translate(30.6378, 33.0018)" stroke-width="0.0855" stroke-linejoin="round" stroke-linecap="round" stroke="currentColor" fill="currentColor" d="M0.872355600200901 -1.225C1.39019528959943 -1.82880199284474 2.52068245250929 -1.82880199284474 3.03852214190781 -1.225C2.52068245250929 -1.70052417121885 1.39019528959943 -1.70052417121885 0.872355600200901 -1.225z"/>
<rect transform="translate(30.8481, 56.2961)" x="0.0000" y="-0.5590" width="0.6600" height="0.1390" ry="0.0428" fill="currentColor"/>
<rect transform="translate(32.7547, 41.5969)" x="0.0000" y="-0.5590" width="0.6600" height="0.1390" ry="0.0428" fill="currentColor"/>
<polygon transform="translate(28.0716, 36.1883)" stroke-linejoin="round" stroke-linecap="round" stroke-width="0.0884" fill="currentColor" stroke="currentColor" points="2.6609 -0.5689 2.6609 -0.1773 0.0442 0.1958 0.0442 -0.1958"/>
<rect transform="translate(30.8481, 26.4300)" x="0.0000" y="-0.5590" width="0.6600" height="0.1390" ry="0.0428" fill="currentColor"/>
<rect transform="translate(30.8481, 12.4767)" x="0.0000" y="-0.5590" width="0.6600" height="0.1390" ry="0.0428" fill="currentColor"/>
<polygon transform="translate(19.7355, 49.5144)" stroke-linejoin="round" stroke-linecap="round" stroke-width="0.0884" fill="currentColor" stroke="currentColor" points="3.5710 -0.0093 3.5710 0.3824 0.0442 0.1958 0.0442 -0.1958"/>
<rect transform="translate(57.7519, 38.7969)" x="0.0000" y="-0.5590" width="0.6600" height="0.1390" ry="0.0428" fill="currentColor"/>
<rect transform="translate(58.6136, 23.6300)" x="0.0000" y="-0.5590" width="0.6600" height="0.1390" ry="0.0428" fill="currentColor"/>
<polygon transform="translate(54.3244, 17.1019)" stroke-linejoin="round" stroke-linecap="round" stroke-width="0.0884" fill="currentColor" stroke="currentColor" points="4.3951 -0.3824 4.3951 0.0093 0.0442 0.1958 0.0442 -0.1958"/>
<rect transform="translate(58.4027, 12.4767)" x="0.0000" y="-0.5590" width="0.6600" height="0.1390" ry="0.0428" fill="currentColor"/>
<rect transform="translate(57.7519, 9.6767)" x="0.0000" y="-0.5590" width="0.6600" height="0.1390" ry="0.0428" fill="currentColor"/>
<rect transform="translate(49.3341, 56.2961)" x="0.0000" y="-0.5590" width="0.6600" height="0.1390" ry="0.0428" fill="currentColor"/>
<polygon transform="translate(46.3671, 49.8875)" stroke-linejoin="round" stroke-linecap="round" stroke-width="0.0884" fill="currentColor" stroke="currentColor" points="2.8948 -0.5689 2.8948 -0.1773 0.0442 0.1958 0.0442 -0.1958"/>
<rect transform="translate(49.0100, 41.5969)" x="0.0000" y="-0.5590" width="0.6600" height="0.1390" ry="0.0428" fill="currentColor"/>
<rect transform="translate(50.4093, 26.4300)" x="0.0000" y="-0.5590" width="0.6600" height="0.1390" ry="0.0428" fill="currentColor"/>
<rect transform="translate(49.0100, 12.4767)" x="0.0000" y="-0.5590" width="0.6600" height="0.1390" ry="0.0428" fill="currentColor"/>
<rect transform="translate(44.0348, 53.4961)" x="0.0000" y="-0.5590" width="0.6600" height="0.1390" ry="0.0428" fill="currentColor"/>
<polygon transform="translate(39.9532, 30.0018)" stroke-linejoin="round" stroke-linecap="round" stroke-width="0.0884" fill="currentColor" stroke="currentColor" points="4.2918 -0.0093 4.2918 0.3824 0.0442 0.1958 0.0442 -0.1958"/>
<polygon transform="translate(39.9532, 17.2885)" stroke-linejoin="round" stroke-linecap="round" stroke-width="0.0884" fill="currentColor" stroke="currentColor" points="4.2918 -0.3824 4.2918 0.0093 0.0442 0.1958 0.0442 -0.1958"/>
<polygon transform="translate(38.7474, 6.8815)" stroke-linejoin="round" stroke-linecap="round" stroke-width="0.0884" fill="currentColor" stroke="currentColor" points="4.2918 -0.3824 4.2918 0.0093 0.0442 0.1958 0.0442 -0.1958"/>
<rect transform="translate(109.4119, 47.7009)" x="-0.0695" y="0.1851" width="0.1390" height="3.1482" ry="0.0442" fill="currentColor"/>
<path transform="translate(111.1746, 32.5018) scale(0.0041, -0.0041)" d="M217 139c57 0 112 -31 112 -94c0 -72 -55 -121 -102 -149c-35 -21 -74 -35 -115 -35c-57 0 -112 31 -112 94c0 72 55 121 102 149c35 21 74 35 115 35z" fill="currentColor"/>
<rect transform="translate(111.2441, 33.0018)" x="-0.0695" y="-0.3149" width="0.1390" height="3.3149" ry="0.0442" fill="currentColor"/>
<path transform="translate(111.3136, 35.9576) scale(0.0041, -0.0041)" d="M0 0h-18v250h18c97 59 225 148 225 259c0 57 -16 111 -41 162c-3 17 11 29 25 29c8 0 15 -4 20 -12c25 -56 40 -117 40 -179c0 -204 -269 -305 -269 -509z" fill="currentColor"/>
<path transform="translate(113.7408, 4.8815) scale(0.0041, -0.0041)" d="M217 139c57 0 112 -31 112 -94c0 -72 -55 -121 -102 -149c-35 -21 -74 -35 -115 -35c-57 0 -112 31 -112 94c0 72 55 121 102 149c35 21 74 35 115 35z" fill="currentColor"/>
<text transform="translate(111.5081, 9.6767)" font-family="Linux Libertine O" font-size="2.5244" text-anchor="start" fill="currentColor">
<tspan>
gen!</tspan>
</text>
<text transform="translate(111.5836, 12.4767)" font-family="Linux Libertine O" font-size="2.5244" text-anchor="start" fill="currentColor">
<tspan>
gen:</tspan>
</text>
<path transform="translate(113.7408, 20.6019) scale(0.0041, -0.0041)" d="M217 139c57 0 112 -31 112 -94c0 -72 -55 -121 -102 -149c-35 -21 -74 -35 -115 -35c-57 0 -112 31 -112 94c0 72 55 121 102 149c35 21 74 35 115 35z" fill="currentColor"/>
<text transform="translate(111.5081, 23.6300)" font-family="Linux Libertine O" font-size="2.5244" text-anchor="start" fill="currentColor">
<tspan>
gen!</tspan>
</text>
<text transform="translate(111.5836, 26.4300)" font-family="Linux Libertine O" font-size="2.5244" text-anchor="start" fill="currentColor">
<tspan>
gen:</tspan>
</text>
<path transform="translate(113.7408, 33.0018) scale(0.0041, -0.0041)" d="M217 139c57 0 112 -31 112 -94c0 -72 -55 -121 -102 -149c-35 -21 -74 -35 -115 -35c-57 0 -112 31 -112 94c0 72 55 121 102 149c35 21 74 35 115 35z" fill="currentColor"/>
<text transform="translate(111.5081, 38.7969)" font-family="Linux Libertine O" font-size="2.5244" text-anchor="start" fill="currentColor">
<tspan>
gen!</tspan>
</text>
<text transform="translate(111.5836, 41.5969)" font-family="Linux Libertine O" font-size="2.5244" text-anchor="start" fill="currentColor">
<tspan>
gen:</tspan>
</text>
<path transform="translate(113.7408, 46.2009) scale(0.0041, -0.0041)" d="M217 139c57 0 112 -31 112 -94c0 -72 -55 -121 -102 -149c-35 -21 -74 -35 -115 -35c-57 0 -112 31 -112 94c0 72 55 121 102 149c35 21 74 35 115 35z" fill="currentColor"/>
<text transform="translate(111.5081, 53.4961)" font-family="Linux Libertine O" font-size="2.5244" text-anchor="start" fill="currentColor">
<tspan>
gen!</tspan>
</text>
<text transform="translate(111.5836, 56.2961)" font-family="Linux Libertine O" font-size="2.5244" text-anchor="start" fill="currentColor">
<tspan>
gen:</tspan>
</text>
<rect transform="translate(115.0160, 3.8815)" x="-0.0695" y="-2.5000" width="0.1390" height="3.3149" ry="0.0442" fill="currentColor"/>
<rect transform="translate(105.7493, 33.0018)" x="-0.0695" y="-0.8149" width="0.1390" height="3.3149" ry="0.0442" fill="currentColor"/>
<rect transform="translate(105.7493, 47.7009)" x="-0.0695" y="-3.3149" width="0.1390" height="3.3149" ry="0.0442" fill="currentColor"/>
<path transform="translate(109.3424, 19.6019) scale(0.0041, -0.0041)" d="M217 139c57 0 112 -31 112 -94c0 -72 -55 -121 -102 -149c-35 -21 -74 -35 -115 -35c-57 0 -112 31 -112 94c0 72 55 121 102 149c35 21 74 35 115 35z" fill="currentColor"/>
<path transform="translate(109.3424, 47.7009) scale(0.0041, -0.0041)" d="M217 139c57 0 112 -31 112 -94c0 -72 -55 -121 -102 -149c-35 -21 -74 -35 -115 -35c-57 0 -112 31 -112 94c0 72 55 121 102 149c35 21 74 35 115 35z" fill="currentColor"/>
<rect transform="translate(110.6177, 18.1019)" x="-0.0695" y="-2.0000" width="0.1390" height="3.3149" ry="0.0442" fill="currentColor"/>
<rect transform="translate(109.7354, 56.2961)" x="0.0000" y="-0.5590" width="0.6600" height="0.1390" ry="0.0428" fill="currentColor"/>
<rect transform="translate(109.5467, 53.4961)" x="0.0000" y="-0.5590" width="0.6600" height="0.1390" ry="0.0428" fill="currentColor"/>
<path transform="translate(105.6798, 47.7009)" stroke-width="0.0855" stroke-linejoin="round" stroke-linecap="round" stroke="currentColor" fill="currentColor" d="M0.974876948239 -4.56626603667119C2.52577295781944 -4.56767641399749 4.50090034273696 -2.76113537568741 4.63749883125101 -1.21626603667119C4.41432388042285 -2.66647960093354 2.43919649550532 -4.47302063924362 0.974876948239 -4.56626603667119z"/>
<rect transform="translate(109.7354, 41.5969)" x="0.0000" y="-0.5590" width="0.6600" height="0.1390" ry="0.0428" fill="currentColor"/>
<rect transform="translate(109.5467, 38.7969)" x="0.0000" y="-0.5590" width="0.6600" height="0.1390" ry="0.0428" fill="currentColor"/>
<path transform="translate(105.6798, 33.0018)" stroke-width="0.0855" stroke-linejoin="round" stroke-linecap="round" stroke="currentColor" fill="currentColor" d="M0.725012015604463 -2.21626603667119C2.08183517468455 -3.18039923597939 5.12539638443493 -2.82036556341918 6.21981691057412 -1.56626603667119C5.11032701431163 -2.69297595000753 2.06676580456125 -3.05300962256774 0.725012015604463 -2.21626603667119z"/>
<rect transform="translate(109.7354, 26.4300)" x="0.0000" y="-0.5590" width="0.6600" height="0.1390" ry="0.0428" fill="currentColor"/>
<rect transform="translate(109.5467, 23.6300)" x="0.0000" y="-0.5590" width="0.6600" height="0.1390" ry="0.0428" fill="currentColor"/>
<path transform="translate(105.6798, 18.1019)" stroke-width="0.0855" stroke-linejoin="round" stroke-linecap="round" stroke="currentColor" fill="currentColor" d="M0.62971632632663 2.21626603667119C1.45897959928625 3.16013654880599 3.29932299122562 3.33599968940653 4.29233820933864 2.56626603667119C3.31152562588799 3.20830358442138 1.47118223394862 3.03244044382083 0.62971632632663 2.21626603667119z"/>
<rect transform="translate(109.3748, 12.4767)" x="0.0000" y="-0.5590" width="0.6600" height="0.1390" ry="0.0428" fill="currentColor"/>
<rect transform="translate(109.2616, 9.6767)" x="0.0000" y="-0.5590" width="0.6600" height="0.1390" ry="0.0428" fill="currentColor"/>
<polygon transform="translate(99.5123, 48.7009)" stroke-linejoin="round" stroke-linecap="round" stroke-width="0.0884" fill="currentColor" stroke="currentColor" points="2.6609 -0.0093 2.6609 0.3824 0.0442 0.1958 0.0442 -0.1958"/>
<rect transform="translate(98.1865, 56.2961)" x="0.0000" y="-0.5590" width="0.6600" height="0.1390" ry="0.0428" fill="currentColor"/>
<polygon transform="translate(94.2762, 47.7009)" stroke-linejoin="round" stroke-linecap="round" stroke-width="0.0884" fill="currentColor" stroke="currentColor" points="2.7128 -0.0093 2.7128 0.3824 0.0442 0.1958 0.0442 -0.1958"/>
<rect transform="translate(97.0668, 41.5969)" x="0.0000" y="-0.5590" width="0.6600" height="0.1390" ry="0.0428" fill="currentColor"/>
<rect transform="translate(115.0160, 18.1019)" x="-0.0695" y="-1.0000" width="0.1390" height="3.3149" ry="0.0442" fill="currentColor"/>
<rect transform="translate(113.8103, 33.0018)" x="-0.0695" y="0.1851" width="0.1390" height="3.1482" ry="0.0442" fill="currentColor"/>
<rect transform="translate(113.8103, 47.7009)" x="-0.0695" y="-1.3149" width="0.1390" height="3.3149" ry="0.0442" fill="currentColor"/>
<path transform="translate(33.2040, 4.3815) scale(0.0041, -0.0041)" d="M217 139c57 0 112 -31 112 -94c0 -72 -55 -121 -102 -149c-35 -21 -74 -35 -115 -35c-57 0 -112 31 -112 94c0 72 55 121 102 149c35 21 74 35 115 35z" fill="currentColor"/>
<text transform="translate(33.1029, 9.6767)" font-family="Linux Libertine O" font-size="2.5244" text-anchor="start" fill="currentColor">
<tspan>
o</tspan>
</text>
<text transform="translate(31.7636, 12.4767)" font-family="Linux Libertine O" font-size="2.5244" text-anchor="start" fill="currentColor">
<tspan>
ten</tspan>
</text>
<path transform="translate(33.2040, 19.6019) scale(0.0041, -0.0041)" d="M217 139c57 0 112 -31 112 -94c0 -72 -55 -121 -102 -149c-35 -21 -74 -35 -115 -35c-57 0 -112 31 -112 94c0 72 55 121 102 149c35 21 74 35 115 35z" fill="currentColor"/>
<text transform="translate(33.1029, 23.6300)" font-family="Linux Libertine O" font-size="2.5244" text-anchor="start" fill="currentColor">
<tspan>
o</tspan>
</text>
<text transform="translate(31.7636, 26.4300)" font-family="Linux Libertine O" font-size="2.5244" text-anchor="start" fill="currentColor">
<tspan>
ten</tspan>
</text>
<path transform="translate(33.2040, 32.5018) scale(0.0041, -0.0041)" d="M217 139c57 0 112 -31 112 -94c0 -72 -55 -121 -102 -149c-35 -21 -74 -35 -115 -35c-57 0 -112 31 -112 94c0 72 55 121 102 149c35 21 74 35 115 35z" fill="currentColor"/>
<path transform="translate(33.2040, 47.7009) scale(0.0041, -0.0041)" d="M217 139c57 0 112 -31 112 -94c0 -72 -55 -121 -102 -149c-35 -21 -74 -35 -115 -35c-57 0 -112 31 -112 94c0 72 55 121 102 149c35 21 74 35 115 35z" fill="currentColor"/>
<text transform="translate(33.1029, 53.4961)" font-family="Linux Libertine O" font-size="2.5244" text-anchor="start" fill="currentColor">
<tspan>
o</tspan>
</text>
<text transform="translate(31.7636, 56.2961)" font-family="Linux Libertine O" font-size="2.5244" text-anchor="start" fill="currentColor">
<tspan>
ten</tspan>
</text>
<rect transform="translate(34.4792, 3.8815)" x="-0.0695" y="-3.0000" width="0.1390" height="3.3149" ry="0.0442" fill="currentColor"/>
<rect transform="translate(34.4792, 18.1019)" x="-0.0695" y="-2.0000" width="0.1390" height="3.3149" ry="0.0442" fill="currentColor"/>
<rect transform="translate(33.2735, 33.0018)" x="-0.0695" y="-0.3149" width="0.1390" height="3.3149" ry="0.0442" fill="currentColor"/>
<path transform="translate(33.3430, 35.9576) scale(0.0041, -0.0041)" d="M0 0h-18v250h18c97 59 225 148 225 259c0 57 -16 111 -41 162c-3 17 11 29 25 29c8 0 15 -4 20 -12c25 -56 40 -117 40 -179c0 -204 -269 -305 -269 -509z" fill="currentColor"/>
<rect transform="translate(33.2735, 47.7009)" x="-0.0695" y="0.1851" width="0.1390" height="3.1482" ry="0.0442" fill="currentColor"/>
<rect transform="translate(28.1411, 33.0018)" x="-0.0695" y="0.1851" width="0.1390" height="2.9918" ry="0.0442" fill="currentColor"/>
<rect transform="translate(28.1411, 47.7009)" x="-0.0695" y="-0.3149" width="0.1390" height="3.3149" ry="0.0442" fill="currentColor"/>
<path transform="translate(30.6378, 32.5018) scale(0.0041, -0.0041)" d="M217 139c57 0 112 -31 112 -94c0 -72 -55 -121 -102 -149c-35 -21 -74 -35 -115 -35c-57 0 -112 31 -112 94c0 72 55 121 102 149c35 21 74 35 115 35z" fill="currentColor"/>
<rect transform="translate(30.7073, 33.0018)" x="-0.0695" y="-0.3149" width="0.1390" height="3.1379" ry="0.0442" fill="currentColor"/>
<rect transform="translate(40.0227, 33.0018)" x="-0.0695" y="-2.9970" width="0.1390" height="2.8119" ry="0.0442" fill="currentColor"/>
<rect transform="translate(38.8169, 47.7009)" x="-0.0695" y="-1.3149" width="0.1390" height="3.3149" ry="0.0442" fill="currentColor"/>
<path transform="translate(42.9444, 3.3815) scale(0.0041, -0.0041)" d="M217 139c57 0 112 -31 112 -94c0 -72 -55 -121 -102 -149c-35 -21 -74 -35 -115 -35c-57 0 -112 31 -112 94c0 72 55 121 102 149c35 21 74 35 115 35z" fill="currentColor"/>
<path transform="translate(42.9444, 20.1019) scale(0.0041, -0.0041)" d="M217 139c57 0 112 -31 112 -94c0 -72 -55 -121 -102 -149c-35 -21 -74 -35 -115 -35c-57 0 -112 31 -112 94c0 72 55 121 102 149c35 21 74 35 115 35z" fill="currentColor"/>
<path transform="translate(42.9444, 33.5018) scale(0.0041, -0.0041)" d="M217 139c57 0 112 -31 112 -94c0 -72 -55 -121 -102 -149c-35 -21 -74 -35 -115 -35c-57 0 -112 31 -112 94c0 72 55 121 102 149c35 21 74 35 115 35z" fill="currentColor"/>
<rect transform="translate(43.0139, 3.8815)" x="-0.0695" y="-0.3149" width="0.1390" height="3.1313" ry="0.0442" fill="currentColor"/>
<path transform="translate(41.4701, 3.3815) scale(0.0041, -0.0041)" d="M217 -311c0 -11 -8 -19 -19 -19s-20 8 -20 19v142l-81 -30v-156c0 -11 -9 -20 -20 -20s-19 9 -19 20v142l-28 -11c-3 -1 -5 -1 -8 -1c-12 0 -22 10 -22 23v57c0 9 6 18 15 21l43 16v157l-28 -10c-3 -1 -5 -1 -8 -1c-12 0 -22 9 -22 22v57c0 9 6 18 15 21l43 16v157
c0 11 8 19 19 19s20 -8 20 -19v-142l81 30v156c0 11 9 20 20 20s19 -9 19 -20v-142l28 11c3 1 5 1 8 1c12 0 22 -10 22 -23v-57c0 -9 -6 -18 -15 -21l-43 -16v-157l28 10c3 1 5 1 8 1c12 0 22 -9 22 -22v-57c0 -9 -6 -18 -15 -21l-43 -16v-157zM97 64v-158l81 30v158z" fill="currentColor"/>
<rect transform="translate(44.2197, 18.1019)" x="-0.0695" y="-0.9970" width="0.1390" height="2.8119" ry="0.0442" fill="currentColor"/>
<path transform="translate(35.8409, 32.0018) scale(0.0041, -0.0041)" d="M217 139c57 0 112 -31 112 -94c0 -72 -55 -121 -102 -149c-35 -21 -74 -35 -115 -35c-57 0 -112 31 -112 94c0 72 55 121 102 149c35 21 74 35 115 35z" fill="currentColor"/>
<text transform="translate(35.7398, 38.7969)" font-family="Linux Libertine O" font-size="2.5244" text-anchor="start" fill="currentColor">
<tspan>
o</tspan>
</text>
<text transform="translate(34.4005, 41.5969)" font-family="Linux Libertine O" font-size="2.5244" text-anchor="start" fill="currentColor">
<tspan>
ten</tspan>
</text>
<rect transform="translate(35.9104, 33.0018)" x="-0.0695" y="-0.8149" width="0.1390" height="3.3149" ry="0.0442" fill="currentColor"/>
<path transform="translate(35.9799, 35.4576) scale(0.0041, -0.0041)" d="M0 0h-18v250h18c97 59 225 148 225 259c0 57 -16 111 -41 162c-3 17 11 29 25 29c8 0 15 -4 20 -12c25 -56 40 -117 40 -179c0 -204 -269 -305 -269 -509z" fill="currentColor"/>
<path transform="translate(38.7474, 3.8815) scale(0.0041, -0.0041)" d="M217 139c57 0 112 -31 112 -94c0 -72 -55 -121 -102 -149c-35 -21 -74 -35 -115 -35c-57 0 -112 31 -112 94c0 72 55 121 102 149c35 21 74 35 115 35z" fill="currentColor"/>
<text transform="translate(38.7474, 9.6767)" font-family="Linux Libertine O" font-size="2.5244" text-anchor="start" fill="currentColor">
<tspan>
schö</tspan>
</text>
<text transform="translate(38.7474, 12.4767)" font-family="Linux Libertine O" font-size="2.5244" text-anchor="start" fill="currentColor">
<tspan>
volk,</tspan>
</text>
<path transform="translate(38.7474, 20.6019) scale(0.0041, -0.0041)" d="M217 139c57 0 112 -31 112 -94c0 -72 -55 -121 -102 -149c-35 -21 -74 -35 -115 -35c-57 0 -112 31 -112 94c0 72 55 121 102 149c35 21 74 35 115 35z" fill="currentColor"/>
<text transform="translate(38.7474, 23.6300)" font-family="Linux Libertine O" font-size="2.5244" text-anchor="start" fill="currentColor">
<tspan>
schö</tspan>
</text>
<text transform="translate(38.7474, 26.4300)" font-family="Linux Libertine O" font-size="2.5244" text-anchor="start" fill="currentColor">
<tspan>
volk,</tspan>
</text>
<path transform="translate(38.7474, 33.0018) scale(0.0041, -0.0041)" d="M217 139c57 0 112 -31 112 -94c0 -72 -55 -121 -102 -149c-35 -21 -74 -35 -115 -35c-57 0 -112 31 -112 94c0 72 55 121 102 149c35 21 74 35 115 35z" fill="currentColor"/>
<text transform="translate(38.7474, 38.7969)" font-family="Linux Libertine O" font-size="2.5244" text-anchor="start" fill="currentColor">
<tspan>
schö</tspan>
</text>
<text transform="translate(38.7474, 41.5969)" font-family="Linux Libertine O" font-size="2.5244" text-anchor="start" fill="currentColor">
<tspan>
volk,</tspan>
</text>
<path transform="translate(38.7474, 46.2009) scale(0.0041, -0.0041)" d="M217 139c57 0 112 -31 112 -94c0 -72 -55 -121 -102 -149c-35 -21 -74 -35 -115 -35c-57 0 -112 31 -112 94c0 72 55 121 102 149c35 21 74 35 115 35z" fill="currentColor"/>
<text transform="translate(36.4771, 53.4961)" font-family="Linux Libertine O" font-size="2.5244" text-anchor="start" fill="currentColor">
<tspan>
schö</tspan>
</text>
<text transform="translate(36.4016, 56.2961)" font-family="Linux Libertine O" font-size="2.5244" text-anchor="start" fill="currentColor">
<tspan>
volk,</tspan>
</text>
<rect transform="translate(38.8169, 3.8815)" x="-0.0695" y="0.1851" width="0.1390" height="2.8119" ry="0.0442" fill="currentColor"/>
<rect transform="translate(40.0227, 18.1019)" x="-0.0695" y="-0.8164" width="0.1390" height="3.1313" ry="0.0442" fill="currentColor"/>
<path transform="translate(13.7319, 1.8815) scale(0.0041, -0.0041)" d="M217 -311c0 -11 -8 -19 -19 -19s-20 8 -20 19v142l-81 -30v-156c0 -11 -9 -20 -20 -20s-19 9 -19 20v142l-28 -11c-3 -1 -5 -1 -8 -1c-12 0 -22 10 -22 23v57c0 9 6 18 15 21l43 16v157l-28 -10c-3 -1 -5 -1 -8 -1c-12 0 -22 9 -22 22v57c0 9 6 18 15 21l43 16v157
c0 11 8 19 19 19s20 -8 20 -19v-142l81 30v156c0 11 9 20 20 20s19 -9 19 -20v-142l28 11c3 1 5 1 8 1c12 0 22 -10 22 -23v-57c0 -9 -6 -18 -15 -21l-43 -16v-157l28 10c3 1 5 1 8 1c12 0 22 -9 22 -22v-57c0 -9 -6 -18 -15 -21l-43 -16v-157zM97 64v-158l81 30v158z" fill="currentColor"/>
<path transform="translate(16.0062, 3.8815) scale(0.0041, -0.0041)" d="M358 29c-49 0 -74 41 -74 73c0 38 27 76 71 76c4 0 7 0 11 -1c-27 36 -69 59 -116 59c-106 0 -113 -74 -113 -188c0 -15 1 -31 1 -48s-1 -33 -1 -48c0 -114 7 -188 113 -188c79 0 136 70 155 150c2 7 7 10 13 10c7 0 14 -5 14 -13c0 -95 -105 -175 -182 -175
c-68 0 -137 20 -184 70c-49 51 -66 123 -66 194s17 143 66 194c47 50 116 70 184 70c86 0 158 -66 173 -152c1 -4 1 -9 1 -13c0 -39 -30 -70 -66 -70z" fill="currentColor"/>
<text transform="translate(17.1445, 9.6767)" font-family="Linux Libertine O" font-size="2.5244" text-anchor="start" fill="currentColor">
<tspan>
Brich</tspan>
</text>
<text transform="translate(18.6158, 12.4767)" font-family="Linux Libertine O" font-size="2.5244" text-anchor="start" fill="currentColor">
<tspan>
Du</tspan>
</text>
<path transform="translate(19.7355, 20.6019) scale(0.0041, -0.0041)" d="M217 139c57 0 112 -31 112 -94c0 -72 -55 -121 -102 -149c-35 -21 -74 -35 -115 -35c-57 0 -112 31 -112 94c0 72 55 121 102 149c35 21 74 35 115 35z" fill="currentColor"/>
<path transform="translate(10.2319, 19.1019) scale(0.0041, -0.0041)" d="M378 263c4 0 7 1 11 1c156 0 257 -129 257 -262c0 -76 -34 -154 -108 -210c-22 -17 -46 -29 -72 -37c3 -34 4 -68 4 -102c0 -20 0 -40 -1 -60c-7 -121 -90 -228 -209 -228c-108 0 -196 87 -196 196c0 58 53 104 112 104c54 0 95 -48 95 -104c0 -52 -43 -95 -95 -95
c-10 0 -20 2 -29 6c26 -38 68 -63 116 -63c96 0 156 91 162 190c1 19 2 37 2 56c0 30 -2 60 -4 90c-29 -5 -58 -8 -88 -8c-188 0 -333 173 -333 375c0 177 130 307 246 442c-20 62 -38 125 -46 190c-6 52 -7 104 -7 157c0 115 55 223 148 290c3 2 7 3 11 3s8 -1 11 -4
c71 -83 134 -244 134 -357c0 -143 -85 -255 -178 -364c21 -68 40 -137 57 -206zM462 -202c67 24 111 94 111 162c0 89 -65 178 -170 190c24 -115 46 -230 59 -352zM75 26c0 -134 129 -245 263 -245c28 0 55 2 81 6c-14 126 -36 244 -61 363c-79 -8 -124 -61 -124 -119
c0 -43 25 -89 80 -121c5 -5 7 -11 7 -16c0 -12 -10 -23 -22 -23c-3 0 -6 1 -9 2c-81 43 -118 116 -118 186c0 89 58 175 161 198c-14 58 -29 116 -46 173c-106 -122 -212 -244 -212 -404zM406 1042c-99 -47 -162 -148 -162 -257c0 -73 20 -132 38 -191
c79 97 144 199 144 324c0 53 -4 76 -20 124z" fill="currentColor"/>
<path transform="translate(13.7319, 16.1019) scale(0.0041, -0.0041)" d="M217 -311c0 -11 -8 -19 -19 -19s-20 8 -20 19v142l-81 -30v-156c0 -11 -9 -20 -20 -20s-19 9 -19 20v142l-28 -11c-3 -1 -5 -1 -8 -1c-12 0 -22 10 -22 23v57c0 9 6 18 15 21l43 16v157l-28 -10c-3 -1 -5 -1 -8 -1c-12 0 -22 9 -22 22v57c0 9 6 18 15 21l43 16v157
c0 11 8 19 19 19s20 -8 20 -19v-142l81 30v156c0 11 9 20 20 20s19 -9 19 -20v-142l28 11c3 1 5 1 8 1c12 0 22 -10 22 -23v-57c0 -9 -6 -18 -15 -21l-43 -16v-157l28 10c3 1 5 1 8 1c12 0 22 -9 22 -22v-57c0 -9 -6 -18 -15 -21l-43 -16v-157zM97 64v-158l81 30v158z" fill="currentColor"/>
<path transform="translate(16.0062, 18.1019) scale(0.0041, -0.0041)" d="M358 29c-49 0 -74 41 -74 73c0 38 27 76 71 76c4 0 7 0 11 -1c-27 36 -69 59 -116 59c-106 0 -113 -74 -113 -188c0 -15 1 -31 1 -48s-1 -33 -1 -48c0 -114 7 -188 113 -188c79 0 136 70 155 150c2 7 7 10 13 10c7 0 14 -5 14 -13c0 -95 -105 -175 -182 -175
c-68 0 -137 20 -184 70c-49 51 -66 123 -66 194s17 143 66 194c47 50 116 70 184 70c86 0 158 -66 173 -152c1 -4 1 -9 1 -13c0 -39 -30 -70 -66 -70z" fill="currentColor"/>
<text transform="translate(17.1445, 23.6300)" font-family="Linux Libertine O" font-size="2.5244" text-anchor="start" fill="currentColor">
<tspan>
Brich</tspan>
</text>
<text transform="translate(18.6158, 26.4300)" font-family="Linux Libertine O" font-size="2.5244" text-anchor="start" fill="currentColor">
<tspan>
Du</tspan>
</text>
<path transform="translate(19.7355, 33.0018) scale(0.0041, -0.0041)" d="M217 139c57 0 112 -31 112 -94c0 -72 -55 -121 -102 -149c-35 -21 -74 -35 -115 -35c-57 0 -112 31 -112 94c0 72 55 121 102 149c35 21 74 35 115 35z" fill="currentColor"/>
<path transform="translate(10.2319, 34.0018) scale(0.0041, -0.0041)" d="M378 263c4 0 7 1 11 1c156 0 257 -129 257 -262c0 -76 -34 -154 -108 -210c-22 -17 -46 -29 -72 -37c3 -34 4 -68 4 -102c0 -20 0 -40 -1 -60c-7 -121 -90 -228 -209 -228c-108 0 -196 87 -196 196c0 58 53 104 112 104c54 0 95 -48 95 -104c0 -52 -43 -95 -95 -95
c-10 0 -20 2 -29 6c26 -38 68 -63 116 -63c96 0 156 91 162 190c1 19 2 37 2 56c0 30 -2 60 -4 90c-29 -5 -58 -8 -88 -8c-188 0 -333 173 -333 375c0 177 130 307 246 442c-20 62 -38 125 -46 190c-6 52 -7 104 -7 157c0 115 55 223 148 290c3 2 7 3 11 3s8 -1 11 -4
c71 -83 134 -244 134 -357c0 -143 -85 -255 -178 -364c21 -68 40 -137 57 -206zM462 -202c67 24 111 94 111 162c0 89 -65 178 -170 190c24 -115 46 -230 59 -352zM75 26c0 -134 129 -245 263 -245c28 0 55 2 81 6c-14 126 -36 244 -61 363c-79 -8 -124 -61 -124 -119
c0 -43 25 -89 80 -121c5 -5 7 -11 7 -16c0 -12 -10 -23 -22 -23c-3 0 -6 1 -9 2c-81 43 -118 116 -118 186c0 89 58 175 161 198c-14 58 -29 116 -46 173c-106 -122 -212 -244 -212 -404zM406 1042c-99 -47 -162 -148 -162 -257c0 -73 20 -132 38 -191
c79 97 144 199 144 324c0 53 -4 76 -20 124z" fill="currentColor"/>
<text transform="translate(10.8466, 37.4711)" font-family="Century Schoolbook L" font-weight="bold" font-style="italic" font-size="1.3859" text-anchor="start" fill="currentColor">
<tspan>
8</tspan>
</text>
<path transform="translate(13.7319, 31.0018) scale(0.0041, -0.0041)" d="M217 -311c0 -11 -8 -19 -19 -19s-20 8 -20 19v142l-81 -30v-156c0 -11 -9 -20 -20 -20s-19 9 -19 20v142l-28 -11c-3 -1 -5 -1 -8 -1c-12 0 -22 10 -22 23v57c0 9 6 18 15 21l43 16v157l-28 -10c-3 -1 -5 -1 -8 -1c-12 0 -22 9 -22 22v57c0 9 6 18 15 21l43 16v157
c0 11 8 19 19 19s20 -8 20 -19v-142l81 30v156c0 11 9 20 20 20s19 -9 19 -20v-142l28 11c3 1 5 1 8 1c12 0 22 -10 22 -23v-57c0 -9 -6 -18 -15 -21l-43 -16v-157l28 10c3 1 5 1 8 1c12 0 22 -9 22 -22v-57c0 -9 -6 -18 -15 -21l-43 -16v-157zM97 64v-158l81 30v158z" fill="currentColor"/>
<path transform="translate(16.0062, 33.0018) scale(0.0041, -0.0041)" d="M358 29c-49 0 -74 41 -74 73c0 38 27 76 71 76c4 0 7 0 11 -1c-27 36 -69 59 -116 59c-106 0 -113 -74 -113 -188c0 -15 1 -31 1 -48s-1 -33 -1 -48c0 -114 7 -188 113 -188c79 0 136 70 155 150c2 7 7 10 13 10c7 0 14 -5 14 -13c0 -95 -105 -175 -182 -175
c-68 0 -137 20 -184 70c-49 51 -66 123 -66 194s17 143 66 194c47 50 116 70 184 70c86 0 158 -66 173 -152c1 -4 1 -9 1 -13c0 -39 -30 -70 -66 -70z" fill="currentColor"/>
<text transform="translate(17.1445, 38.7969)" font-family="Linux Libertine O" font-size="2.5244" text-anchor="start" fill="currentColor">
<tspan>
Brich</tspan>
</text>
<text transform="translate(18.6158, 41.5969)" font-family="Linux Libertine O" font-size="2.5244" text-anchor="start" fill="currentColor">
<tspan>
Du</tspan>
</text>
<path transform="translate(19.7355, 46.2009) scale(0.0041, -0.0041)" d="M217 139c57 0 112 -31 112 -94c0 -72 -55 -121 -102 -149c-35 -21 -74 -35 -115 -35c-57 0 -112 31 -112 94c0 72 55 121 102 149c35 21 74 35 115 35z" fill="currentColor"/>
<path transform="translate(10.2319, 46.7009) scale(0.0041, -0.0041)" d="M558 -125c0 28 22 51 50 51s51 -23 51 -51s-23 -51 -51 -51s-50 23 -50 51zM558 125c0 28 22 51 50 51s51 -23 51 -51s-23 -51 -51 -51s-50 23 -50 51zM231 264c172 0 294 -88 294 -251c0 -263 -262 -416 -515 -523c-3 -3 -7 -4 -10 -4c-7 0 -14 7 -14 14c0 3 1 7 4 10
c201 118 410 265 410 492c0 119 -61 234 -169 234c-72 0 -124 -53 -148 -123c10 4 19 6 29 6c55 0 100 -45 100 -100c0 -58 -44 -106 -100 -106c-60 0 -112 47 -112 106c0 133 101 245 231 245z" fill="currentColor"/>
<path transform="translate(13.7319, 46.7009) scale(0.0041, -0.0041)" d="M217 -311c0 -11 -8 -19 -19 -19s-20 8 -20 19v142l-81 -30v-156c0 -11 -9 -20 -20 -20s-19 9 -19 20v142l-28 -11c-3 -1 -5 -1 -8 -1c-12 0 -22 10 -22 23v57c0 9 6 18 15 21l43 16v157l-28 -10c-3 -1 -5 -1 -8 -1c-12 0 -22 9 -22 22v57c0 9 6 18 15 21l43 16v157
c0 11 8 19 19 19s20 -8 20 -19v-142l81 30v156c0 11 9 20 20 20s19 -9 19 -20v-142l28 11c3 1 5 1 8 1c12 0 22 -10 22 -23v-57c0 -9 -6 -18 -15 -21l-43 -16v-157l28 10c3 1 5 1 8 1c12 0 22 -9 22 -22v-57c0 -9 -6 -18 -15 -21l-43 -16v-157zM97 64v-158l81 30v158z" fill="currentColor"/>
<path transform="translate(16.0062, 47.7009) scale(0.0041, -0.0041)" d="M358 29c-49 0 -74 41 -74 73c0 38 27 76 71 76c4 0 7 0 11 -1c-27 36 -69 59 -116 59c-106 0 -113 -74 -113 -188c0 -15 1 -31 1 -48s-1 -33 -1 -48c0 -114 7 -188 113 -188c79 0 136 70 155 150c2 7 7 10 13 10c7 0 14 -5 14 -13c0 -95 -105 -175 -182 -175
c-68 0 -137 20 -184 70c-49 51 -66 123 -66 194s17 143 66 194c47 50 116 70 184 70c86 0 158 -66 173 -152c1 -4 1 -9 1 -13c0 -39 -30 -70 -66 -70z" fill="currentColor"/>
<text transform="translate(19.7355, 53.4961)" font-family="Linux Libertine O" font-size="2.5244" text-anchor="start" fill="currentColor">
<tspan>
Brich</tspan>
</text>
<text transform="translate(19.7355, 56.2961)" font-family="Linux Libertine O" font-size="2.5244" text-anchor="start" fill="currentColor">
<tspan>
Du</tspan>
</text>
<rect transform="translate(21.0107, 3.8815)" x="-0.0695" y="-2.5000" width="0.1390" height="3.3149" ry="0.0442" fill="currentColor"/>
<text transform="translate(-0.9665, 4.4852)" font-family="Linux Libertine O" font-size="2.2487" text-anchor="start" fill="currentColor">
<tspan>
Sopran</tspan>
</text>
<text transform="translate(1.4669, 18.9508)" font-family="Linux Libertine O" font-size="2.2487" text-anchor="start" fill="currentColor">
<tspan>
Alt</tspan>
</text>
<text transform="translate(-0.0799, 33.8129)" font-family="Linux Libertine O" font-size="2.2487" text-anchor="start" fill="currentColor">
<tspan>
Tenor</tspan>
</text>
<text transform="translate(0.3540, 48.5121)" font-family="Linux Libertine O" font-size="2.2487" text-anchor="start" fill="currentColor">
<tspan>
Bass</tspan>
</text>
<path transform="translate(8.1108, 1.5981) scale(0.0041, -0.0041)" d="M448 332c10 0 17 -8 17 -17c0 -3 -1 -6 -3 -9c-96 -144 -210 -362 -381 -362h-81v85c0 15 12 27 27 27h54c157 0 265 136 353 268c3 5 9 8 14 8z" fill="currentColor"/>
<path transform="translate(8.1108, 49.9843) scale(0.0041, -0.0041)" d="M465 -315c0 -9 -7 -17 -17 -17c-5 0 -11 3 -14 8c-88 132 -196 268 -353 268h-54c-15 0 -27 12 -27 27v85h81c171 0 285 -218 381 -362c2 -3 3 -6 3 -9z" fill="currentColor"/>
<rect transform="translate(8.1108, 25.7912)" x="0.0000" y="-24.0081" width="0.4500" height="48.0163" ry="0.0000" fill="currentColor"/>
<rect transform="translate(9.3608, 25.7912)" x="0.0000" y="-23.9631" width="0.1710" height="47.9263" ry="0.0534" fill="currentColor"/>
<path transform="translate(19.7355, 4.8815) scale(0.0041, -0.0041)" d="M217 139c57 0 112 -31 112 -94c0 -72 -55 -121 -102 -149c-35 -21 -74 -35 -115 -35c-57 0 -112 31 -112 94c0 72 55 121 102 149c35 21 74 35 115 35z" fill="currentColor"/>
<path transform="translate(10.2319, 4.8815) scale(0.0041, -0.0041)" d="M378 263c4 0 7 1 11 1c156 0 257 -129 257 -262c0 -76 -34 -154 -108 -210c-22 -17 -46 -29 -72 -37c3 -34 4 -68 4 -102c0 -20 0 -40 -1 -60c-7 -121 -90 -228 -209 -228c-108 0 -196 87 -196 196c0 58 53 104 112 104c54 0 95 -48 95 -104c0 -52 -43 -95 -95 -95
c-10 0 -20 2 -29 6c26 -38 68 -63 116 -63c96 0 156 91 162 190c1 19 2 37 2 56c0 30 -2 60 -4 90c-29 -5 -58 -8 -88 -8c-188 0 -333 173 -333 375c0 177 130 307 246 442c-20 62 -38 125 -46 190c-6 52 -7 104 -7 157c0 115 55 223 148 290c3 2 7 3 11 3s8 -1 11 -4
c71 -83 134 -244 134 -357c0 -143 -85 -255 -178 -364c21 -68 40 -137 57 -206zM462 -202c67 24 111 94 111 162c0 89 -65 178 -170 190c24 -115 46 -230 59 -352zM75 26c0 -134 129 -245 263 -245c28 0 55 2 81 6c-14 126 -36 244 -61 363c-79 -8 -124 -61 -124 -119
c0 -43 25 -89 80 -121c5 -5 7 -11 7 -16c0 -12 -10 -23 -22 -23c-3 0 -6 1 -9 2c-81 43 -118 116 -118 186c0 89 58 175 161 198c-14 58 -29 116 -46 173c-106 -122 -212 -244 -212 -404zM406 1042c-99 -47 -162 -148 -162 -257c0 -73 20 -132 38 -191
c79 97 144 199 144 324c0 53 -4 76 -20 124z" fill="currentColor"/>
<path transform="translate(28.0716, 4.8815) scale(0.0041, -0.0041)" d="M217 139c57 0 112 -31 112 -94c0 -72 -55 -121 -102 -149c-35 -21 -74 -35 -115 -35c-57 0 -112 31 -112 94c0 72 55 121 102 149c35 21 74 35 115 35z" fill="currentColor"/>
<text transform="translate(26.7633, 9.6767)" font-family="Linux Libertine O" font-size="2.5244" text-anchor="start" fill="currentColor">
<tspan>
an,</tspan>
</text>
<text transform="translate(26.8954, 12.4767)" font-family="Linux Libertine O" font-size="2.5244" text-anchor="start" fill="currentColor">
<tspan>
Hir</tspan>
</text>
<path transform="translate(28.0716, 20.1019) scale(0.0041, -0.0041)" d="M217 139c57 0 112 -31 112 -94c0 -72 -55 -121 -102 -149c-35 -21 -74 -35 -115 -35c-57 0 -112 31 -112 94c0 72 55 121 102 149c35 21 74 35 115 35z" fill="currentColor"/>
<text transform="translate(26.7633, 23.6300)" font-family="Linux Libertine O" font-size="2.5244" text-anchor="start" fill="currentColor">
<tspan>
an,</tspan>
</text>
<text transform="translate(26.8954, 26.4300)" font-family="Linux Libertine O" font-size="2.5244" text-anchor="start" fill="currentColor">
<tspan>
Hir</tspan>
</text>
<path transform="translate(28.0716, 33.0018) scale(0.0041, -0.0041)" d="M217 139c57 0 112 -31 112 -94c0 -72 -55 -121 -102 -149c-35 -21 -74 -35 -115 -35c-57 0 -112 31 -112 94c0 72 55 121 102 149c35 21 74 35 115 35z" fill="currentColor"/>
<text transform="translate(28.0716, 38.7969)" font-family="Linux Libertine O" font-size="2.5244" text-anchor="start" fill="currentColor">
<tspan>
an,</tspan>
</text>
<text transform="translate(28.0716, 41.5969)" font-family="Linux Libertine O" font-size="2.5244" text-anchor="start" fill="currentColor">
<tspan>
Hir</tspan>
</text>
<path transform="translate(28.0716, 47.2009) scale(0.0041, -0.0041)" d="M217 139c57 0 112 -31 112 -94c0 -72 -55 -121 -102 -149c-35 -21 -74 -35 -115 -35c-57 0 -112 31 -112 94c0 72 55 121 102 149c35 21 74 35 115 35z" fill="currentColor"/>
<text transform="translate(26.7633, 53.4961)" font-family="Linux Libertine O" font-size="2.5244" text-anchor="start" fill="currentColor">
<tspan>
an,</tspan>
</text>
<text transform="translate(26.8954, 56.2961)" font-family="Linux Libertine O" font-size="2.5244" text-anchor="start" fill="currentColor">
<tspan>
Hir</tspan>
</text>
<rect transform="translate(29.3469, 3.8815)" x="-0.0695" y="-2.5000" width="0.1390" height="3.3149" ry="0.0442" fill="currentColor"/>
<rect transform="translate(29.3469, 18.1019)" x="-0.0695" y="-1.5000" width="0.1390" height="3.3149" ry="0.0442" fill="currentColor"/>
<rect transform="translate(21.0107, 18.1019)" x="-0.0695" y="-1.0000" width="0.1390" height="3.3149" ry="0.0442" fill="currentColor"/>
<rect transform="translate(19.8050, 33.0018)" x="-0.0695" y="0.1851" width="0.1390" height="3.1482" ry="0.0442" fill="currentColor"/>
<rect transform="translate(19.8050, 47.7009)" x="-0.0695" y="-1.3149" width="0.1390" height="3.1319" ry="0.0442" fill="currentColor"/>
<path transform="translate(23.2118, 46.7009) scale(0.0041, -0.0041)" d="M217 139c57 0 112 -31 112 -94c0 -72 -55 -121 -102 -149c-35 -21 -74 -35 -115 -35c-57 0 -112 31 -112 94c0 72 55 121 102 149c35 21 74 35 115 35z" fill="currentColor"/>
<rect transform="translate(23.2812, 47.7009)" x="-0.0695" y="-0.8149" width="0.1390" height="2.8113" ry="0.0442" fill="currentColor"/>
<rect transform="translate(62.9945, 33.0018)" x="-0.0695" y="-3.0000" width="0.1390" height="3.3149" ry="0.0442" fill="currentColor"/>
<rect transform="translate(62.9945, 47.7009)" x="-0.0695" y="-2.0000" width="0.1390" height="3.3149" ry="0.0442" fill="currentColor"/>
<path transform="translate(67.9845, 2.8815) scale(0.0041, -0.0041)" d="M217 139c57 0 112 -31 112 -94c0 -72 -55 -121 -102 -149c-35 -21 -74 -35 -115 -35c-57 0 -112 31 -112 94c0 72 55 121 102 149c35 21 74 35 115 35z" fill="currentColor"/>
<path transform="translate(68.6569, 1.5463) scale(0.0041, -0.0041)" d="M-69 48c0 38 31 69 69 69s69 -31 69 -69s-31 -68 -69 -68s-69 30 -69 68zM0 364c158 0 333 -176 333 -367c0 -10 -10 -17 -20 -17c-9 0 -19 6 -21 20c-26 147 -145 261 -292 261s-266 -114 -292 -261c-2 -14 -12 -20 -21 -20c-10 0 -20 7 -20 17c0 191 176 367 333 367z
" fill="currentColor"/>
<text transform="translate(65.5255, 9.6767)" font-family="Linux Libertine O" font-size="2.5244" text-anchor="start" fill="currentColor">
<tspan>
licht,</tspan>
</text>
<text transform="translate(65.0727, 12.4767)" font-family="Linux Libertine O" font-size="2.5244" text-anchor="start" fill="currentColor">
<tspan>
nicht,</tspan>
</text>
<path transform="translate(67.9845, 19.6019) scale(0.0041, -0.0041)" d="M217 139c57 0 112 -31 112 -94c0 -72 -55 -121 -102 -149c-35 -21 -74 -35 -115 -35c-57 0 -112 31 -112 94c0 72 55 121 102 149c35 21 74 35 115 35z" fill="currentColor"/>
<path transform="translate(68.6569, 15.7667) scale(0.0041, -0.0041)" d="M-69 48c0 38 31 69 69 69s69 -31 69 -69s-31 -68 -69 -68s-69 30 -69 68zM0 364c158 0 333 -176 333 -367c0 -10 -10 -17 -20 -17c-9 0 -19 6 -21 20c-26 147 -145 261 -292 261s-266 -114 -292 -261c-2 -14 -12 -20 -21 -20c-10 0 -20 7 -20 17c0 191 176 367 333 367z
" fill="currentColor"/>
<text transform="translate(65.5255, 23.6300)" font-family="Linux Libertine O" font-size="2.5244" text-anchor="start" fill="currentColor">
<tspan>
licht,</tspan>
</text>
<text transform="translate(65.0727, 26.4300)" font-family="Linux Libertine O" font-size="2.5244" text-anchor="start" fill="currentColor">
<tspan>
nicht,</tspan>
</text>
<path transform="translate(67.9845, 33.5018) scale(0.0041, -0.0041)" d="M217 139c57 0 112 -31 112 -94c0 -72 -55 -121 -102 -149c-35 -21 -74 -35 -115 -35c-57 0 -112 31 -112 94c0 72 55 121 102 149c35 21 74 35 115 35z" fill="currentColor"/>
<path transform="translate(68.6569, 29.7200) scale(0.0041, -0.0041)" d="M-69 48c0 38 31 69 69 69s69 -31 69 -69s-31 -68 -69 -68s-69 30 -69 68zM0 364c158 0 333 -176 333 -367c0 -10 -10 -17 -20 -17c-9 0 -19 6 -21 20c-26 147 -145 261 -292 261s-266 -114 -292 -261c-2 -14 -12 -20 -21 -20c-10 0 -20 7 -20 17c0 191 176 367 333 367z
" fill="currentColor"/>
<text transform="translate(65.5255, 38.7969)" font-family="Linux Libertine O" font-size="2.5244" text-anchor="start" fill="currentColor">
<tspan>
licht,</tspan>
</text>
<text transform="translate(65.0727, 41.5969)" font-family="Linux Libertine O" font-size="2.5244" text-anchor="start" fill="currentColor">
<tspan>
nicht,</tspan>
</text>
<path transform="translate(67.9845, 47.7009) scale(0.0041, -0.0041)" d="M217 139c57 0 112 -31 112 -94c0 -72 -55 -121 -102 -149c-35 -21 -74 -35 -115 -35c-57 0 -112 31 -112 94c0 72 55 121 102 149c35 21 74 35 115 35z" fill="currentColor"/>
<path transform="translate(68.6569, 45.3657) scale(0.0041, -0.0041)" d="M-69 48c0 38 31 69 69 69s69 -31 69 -69s-31 -68 -69 -68s-69 30 -69 68zM0 364c158 0 333 -176 333 -367c0 -10 -10 -17 -20 -17c-9 0 -19 6 -21 20c-26 147 -145 261 -292 261s-266 -114 -292 -261c-2 -14 -12 -20 -21 -20c-10 0 -20 7 -20 17c0 191 176 367 333 367z
" fill="currentColor"/>
<text transform="translate(65.5255, 53.4961)" font-family="Linux Libertine O" font-size="2.5244" text-anchor="start" fill="currentColor">
<tspan>
licht,</tspan>
</text>
<text transform="translate(65.0727, 56.2961)" font-family="Linux Libertine O" font-size="2.5244" text-anchor="start" fill="currentColor">
<tspan>
nicht,</tspan>
</text>
<rect transform="translate(68.0540, 3.8815)" x="-0.0695" y="-0.8149" width="0.1390" height="3.3149" ry="0.0442" fill="currentColor"/>
<rect transform="translate(58.6942, 18.1019)" x="-0.0695" y="-1.1836" width="0.1390" height="2.4985" ry="0.0442" fill="currentColor"/>
<path transform="translate(61.7193, 3.3815) scale(0.0041, -0.0041)" d="M217 139c57 0 112 -31 112 -94c0 -72 -55 -121 -102 -149c-35 -21 -74 -35 -115 -35c-57 0 -112 31 -112 94c0 72 55 121 102 149c35 21 74 35 115 35z" fill="currentColor"/>
<text transform="translate(59.9771, 9.6767)" font-family="Linux Libertine O" font-size="2.5244" text-anchor="start" fill="currentColor">
<tspan>
gen</tspan>
</text>
<text transform="translate(60.2035, 12.4767)" font-family="Linux Libertine O" font-size="2.5244" text-anchor="start" fill="currentColor">
<tspan>
cke</tspan>
</text>
<path transform="translate(61.7193, 19.1019) scale(0.0041, -0.0041)" d="M217 139c57 0 112 -31 112 -94c0 -72 -55 -121 -102 -149c-35 -21 -74 -35 -115 -35c-57 0 -112 31 -112 94c0 72 55 121 102 149c35 21 74 35 115 35z" fill="currentColor"/>
<text transform="translate(59.9771, 23.6300)" font-family="Linux Libertine O" font-size="2.5244" text-anchor="start" fill="currentColor">
<tspan>
gen</tspan>
</text>
<text transform="translate(60.2035, 26.4300)" font-family="Linux Libertine O" font-size="2.5244" text-anchor="start" fill="currentColor">
<tspan>
cke</tspan>
</text>
<path transform="translate(61.7193, 33.5018) scale(0.0041, -0.0041)" d="M217 139c57 0 112 -31 112 -94c0 -72 -55 -121 -102 -149c-35 -21 -74 -35 -115 -35c-57 0 -112 31 -112 94c0 72 55 121 102 149c35 21 74 35 115 35z" fill="currentColor"/>
<text transform="translate(59.9771, 38.7969)" font-family="Linux Libertine O" font-size="2.5244" text-anchor="start" fill="currentColor">
<tspan>
gen</tspan>
</text>
<text transform="translate(60.2035, 41.5969)" font-family="Linux Libertine O" font-size="2.5244" text-anchor="start" fill="currentColor">
<tspan>
cke</tspan>
</text>
<path transform="translate(61.7193, 49.2009) scale(0.0041, -0.0041)" d="M217 139c57 0 112 -31 112 -94c0 -72 -55 -121 -102 -149c-35 -21 -74 -35 -115 -35c-57 0 -112 31 -112 94c0 72 55 121 102 149c35 21 74 35 115 35z" fill="currentColor"/>
<text transform="translate(59.9771, 53.4961)" font-family="Linux Libertine O" font-size="2.5244" text-anchor="start" fill="currentColor">
<tspan>
gen</tspan>
</text>
<text transform="translate(60.2035, 56.2961)" font-family="Linux Libertine O" font-size="2.5244" text-anchor="start" fill="currentColor">
<tspan>
cke</tspan>
</text>
<rect transform="translate(61.7888, 3.8815)" x="-0.0695" y="-0.3149" width="0.1390" height="3.3149" ry="0.0442" fill="currentColor"/>
<path transform="translate(60.2450, 3.3815) scale(0.0041, -0.0041)" d="M217 -311c0 -11 -8 -19 -19 -19s-20 8 -20 19v142l-81 -30v-156c0 -11 -9 -20 -20 -20s-19 9 -19 20v142l-28 -11c-3 -1 -5 -1 -8 -1c-12 0 -22 10 -22 23v57c0 9 6 18 15 21l43 16v157l-28 -10c-3 -1 -5 -1 -8 -1c-12 0 -22 9 -22 22v57c0 9 6 18 15 21l43 16v157
c0 11 8 19 19 19s20 -8 20 -19v-142l81 30v156c0 11 9 20 20 20s19 -9 19 -20v-142l28 11c3 1 5 1 8 1c12 0 22 -10 22 -23v-57c0 -9 -6 -18 -15 -21l-43 -16v-157l28 10c3 1 5 1 8 1c12 0 22 -9 22 -22v-57c0 -9 -6 -18 -15 -21l-43 -16v-157zM97 64v-158l81 30v158z" fill="currentColor"/>
<rect transform="translate(62.9945, 18.1019)" x="-0.0695" y="-2.5000" width="0.1390" height="3.3149" ry="0.0442" fill="currentColor"/>
<rect transform="translate(75.8833, 18.1019)" x="-0.0695" y="-2.0000" width="0.1390" height="3.3149" ry="0.0442" fill="currentColor"/>
<rect transform="translate(75.8833, 33.0018)" x="-0.0695" y="-3.1770" width="0.1390" height="2.9918" ry="0.0442" fill="currentColor"/>
<rect transform="translate(74.6776, 47.7009)" x="-0.0695" y="0.1851" width="0.1390" height="3.1482" ry="0.0442" fill="currentColor"/>
<path transform="translate(73.1338, 47.7009) scale(0.0041, -0.0041)" d="M217 -311c0 -11 -8 -19 -19 -19s-20 8 -20 19v142l-81 -30v-156c0 -11 -9 -20 -20 -20s-19 9 -19 20v142l-28 -11c-3 -1 -5 -1 -8 -1c-12 0 -22 10 -22 23v57c0 9 6 18 15 21l43 16v157l-28 -10c-3 -1 -5 -1 -8 -1c-12 0 -22 9 -22 22v57c0 9 6 18 15 21l43 16v157
c0 11 8 19 19 19s20 -8 20 -19v-142l81 30v156c0 11 9 20 20 20s19 -9 19 -20v-142l28 11c3 1 5 1 8 1c12 0 22 -10 22 -23v-57c0 -9 -6 -18 -15 -21l-43 -16v-157l28 10c3 1 5 1 8 1c12 0 22 -9 22 -22v-57c0 -9 -6 -18 -15 -21l-43 -16v-157zM97 64v-158l81 30v158z" fill="currentColor"/>
<path transform="translate(77.1743, 33.5018) scale(0.0041, -0.0041)" d="M217 139c57 0 112 -31 112 -94c0 -72 -55 -121 -102 -149c-35 -21 -74 -35 -115 -35c-57 0 -112 31 -112 94c0 72 55 121 102 149c35 21 74 35 115 35z" fill="currentColor"/>
<rect transform="translate(78.4495, 33.0018)" x="-0.0695" y="-2.8230" width="0.1390" height="3.1379" ry="0.0442" fill="currentColor"/>
<path transform="translate(81.6824, 3.3815) scale(0.0041, -0.0041)" d="M217 139c57 0 112 -31 112 -94c0 -72 -55 -121 -102 -149c-35 -21 -74 -35 -115 -35c-57 0 -112 31 -112 94c0 72 55 121 102 149c35 21 74 35 115 35z" fill="currentColor"/>
<text transform="translate(79.9025, 9.6767)" font-family="Linux Libertine O" font-size="2.5244" text-anchor="start" fill="currentColor">
<tspan>
lass</tspan>
</text>
<text transform="translate(80.6570, 12.4767)" font-family="Linux Libertine O" font-size="2.5244" text-anchor="start" fill="currentColor">
<tspan>
dir</tspan>
</text>
<path transform="translate(81.6824, 20.1019) scale(0.0041, -0.0041)" d="M217 139c57 0 112 -31 112 -94c0 -72 -55 -121 -102 -149c-35 -21 -74 -35 -115 -35c-57 0 -112 31 -112 94c0 72 55 121 102 149c35 21 74 35 115 35z" fill="currentColor"/>
<rect transform="translate(69.2597, 18.1019)" x="-0.0695" y="-2.0000" width="0.1390" height="3.3149" ry="0.0442" fill="currentColor"/>
<rect transform="translate(69.2597, 33.0018)" x="-0.0695" y="-3.0000" width="0.1390" height="3.3149" ry="0.0442" fill="currentColor"/>
<rect transform="translate(68.0540, 47.7009)" x="-0.0695" y="0.1851" width="0.1390" height="3.1482" ry="0.0442" fill="currentColor"/>
<path transform="translate(74.6081, 3.8815) scale(0.0041, -0.0041)" d="M217 139c57 0 112 -31 112 -94c0 -72 -55 -121 -102 -149c-35 -21 -74 -35 -115 -35c-57 0 -112 31 -112 94c0 72 55 121 102 149c35 21 74 35 115 35z" fill="currentColor"/>
<text transform="translate(72.8471, 9.6767)" font-family="Linux Libertine O" font-size="2.5244" text-anchor="start" fill="currentColor">
<tspan>
und</tspan>
</text>
<text transform="translate(72.7339, 12.4767)" font-family="Linux Libertine O" font-size="2.5244" text-anchor="start" fill="currentColor">
<tspan>
weil</tspan>
</text>
<path transform="translate(74.6081, 19.6019) scale(0.0041, -0.0041)" d="M217 139c57 0 112 -31 112 -94c0 -72 -55 -121 -102 -149c-35 -21 -74 -35 -115 -35c-57 0 -112 31 -112 94c0 72 55 121 102 149c35 21 74 35 115 35z" fill="currentColor"/>
<text transform="translate(72.8471, 23.6300)" font-family="Linux Libertine O" font-size="2.5244" text-anchor="start" fill="currentColor">
<tspan>
und</tspan>
</text>
<text transform="translate(72.7339, 26.4300)" font-family="Linux Libertine O" font-size="2.5244" text-anchor="start" fill="currentColor">
<tspan>
weil</tspan>
</text>
<path transform="translate(74.6081, 33.0018) scale(0.0041, -0.0041)" d="M217 139c57 0 112 -31 112 -94c0 -72 -55 -121 -102 -149c-35 -21 -74 -35 -115 -35c-57 0 -112 31 -112 94c0 72 55 121 102 149c35 21 74 35 115 35z" fill="currentColor"/>
<text transform="translate(74.6081, 38.7969)" font-family="Linux Libertine O" font-size="2.5244" text-anchor="start" fill="currentColor">
<tspan>
und</tspan>
</text>
<text transform="translate(74.6081, 41.5969)" font-family="Linux Libertine O" font-size="2.5244" text-anchor="start" fill="currentColor">
<tspan>
weil</tspan>
</text>
<path transform="translate(74.6081, 47.7009) scale(0.0041, -0.0041)" d="M217 139c57 0 112 -31 112 -94c0 -72 -55 -121 -102 -149c-35 -21 -74 -35 -115 -35c-57 0 -112 31 -112 94c0 72 55 121 102 149c35 21 74 35 115 35z" fill="currentColor"/>
<text transform="translate(72.8471, 53.4961)" font-family="Linux Libertine O" font-size="2.5244" text-anchor="start" fill="currentColor">
<tspan>
und</tspan>
</text>
<text transform="translate(72.7339, 56.2961)" font-family="Linux Libertine O" font-size="2.5244" text-anchor="start" fill="currentColor">
<tspan>
weil</tspan>
</text>
<rect transform="translate(74.6776, 3.8815)" x="-0.0695" y="0.1851" width="0.1390" height="3.1482" ry="0.0442" fill="currentColor"/>
<rect transform="translate(46.4366, 47.7009)" x="-0.0695" y="-0.8149" width="0.1390" height="2.9926" ry="0.0442" fill="currentColor"/>
<path transform="translate(49.1672, 46.2009) scale(0.0041, -0.0041)" d="M217 139c57 0 112 -31 112 -94c0 -72 -55 -121 -102 -149c-35 -21 -74 -35 -115 -35c-57 0 -112 31 -112 94c0 72 55 121 102 149c35 21 74 35 115 35z" fill="currentColor"/>
<rect transform="translate(49.2366, 47.7009)" x="-0.0695" y="-1.3149" width="0.1390" height="3.1371" ry="0.0442" fill="currentColor"/>
<path transform="translate(53.1187, 2.8815) scale(0.0041, -0.0041)" d="M217 139c57 0 112 -31 112 -94c0 -72 -55 -121 -102 -149c-35 -21 -74 -35 -115 -35c-57 0 -112 31 -112 94c0 72 55 121 102 149c35 21 74 35 115 35z" fill="currentColor"/>
<text transform="translate(51.3954, 9.6767)" font-family="Linux Libertine O" font-size="2.5244" text-anchor="start" fill="currentColor">
<tspan>
Mor</tspan>
</text>
<text transform="translate(50.3201, 12.4767)" font-family="Linux Libertine O" font-size="2.5244" text-anchor="start" fill="currentColor">
<tspan>
schre</tspan>
</text>
<path transform="translate(53.1187, 20.1019) scale(0.0041, -0.0041)" d="M217 139c57 0 112 -31 112 -94c0 -72 -55 -121 -102 -149c-35 -21 -74 -35 -115 -35c-57 0 -112 31 -112 94c0 72 55 121 102 149c35 21 74 35 115 35z" fill="currentColor"/>
<text transform="translate(53.1187, 23.6300)" font-family="Linux Libertine O" font-size="2.5244" text-anchor="start" fill="currentColor">
<tspan>
Mor</tspan>
</text>
<text transform="translate(53.1187, 26.4300)" font-family="Linux Libertine O" font-size="2.5244" text-anchor="start" fill="currentColor">
<tspan>
schre</tspan>
</text>
<path transform="translate(53.1187, 33.5018) scale(0.0041, -0.0041)" d="M217 139c57 0 112 -31 112 -94c0 -72 -55 -121 -102 -149c-35 -21 -74 -35 -115 -35c-57 0 -112 31 -112 94c0 72 55 121 102 149c35 21 74 35 115 35z" fill="currentColor"/>
<text transform="translate(51.3954, 38.7969)" font-family="Linux Libertine O" font-size="2.5244" text-anchor="start" fill="currentColor">
<tspan>
Mor</tspan>
</text>
<text transform="translate(50.3201, 41.5969)" font-family="Linux Libertine O" font-size="2.5244" text-anchor="start" fill="currentColor">
<tspan>
schre</tspan>
</text>
<path transform="translate(53.1187, 45.7009) scale(0.0041, -0.0041)" d="M217 139c57 0 112 -31 112 -94c0 -72 -55 -121 -102 -149c-35 -21 -74 -35 -115 -35c-57 0 -112 31 -112 94c0 72 55 121 102 149c35 21 74 35 115 35z" fill="currentColor"/>
<text transform="translate(51.3954, 53.4961)" font-family="Linux Libertine O" font-size="2.5244" text-anchor="start" fill="currentColor">
<tspan>
Mor</tspan>
</text>
<rect transform="translate(44.2197, 33.0018)" x="-0.0695" y="-2.8164" width="0.1390" height="3.1313" ry="0.0442" fill="currentColor"/>
<path transform="translate(46.3671, 2.8815) scale(0.0041, -0.0041)" d="M217 139c57 0 112 -31 112 -94c0 -72 -55 -121 -102 -149c-35 -21 -74 -35 -115 -35c-57 0 -112 31 -112 94c0 72 55 121 102 149c35 21 74 35 115 35z" fill="currentColor"/>
<text transform="translate(44.7758, 9.6767)" font-family="Linux Libertine O" font-size="2.5244" text-anchor="start" fill="currentColor">
<tspan>
nes</tspan>
</text>
<text transform="translate(45.7190, 12.4767)" font-family="Linux Libertine O" font-size="2.5244" text-anchor="start" fill="currentColor">
<tspan>
er</tspan>
</text>
<path transform="translate(46.3671, 19.6019) scale(0.0041, -0.0041)" d="M217 139c57 0 112 -31 112 -94c0 -72 -55 -121 -102 -149c-35 -21 -74 -35 -115 -35c-57 0 -112 31 -112 94c0 72 55 121 102 149c35 21 74 35 115 35z" fill="currentColor"/>
<text transform="translate(44.7758, 23.6300)" font-family="Linux Libertine O" font-size="2.5244" text-anchor="start" fill="currentColor">
<tspan>
nes</tspan>
</text>
<text transform="translate(45.7190, 26.4300)" font-family="Linux Libertine O" font-size="2.5244" text-anchor="start" fill="currentColor">
<tspan>
er</tspan>
</text>
<path transform="translate(46.3671, 33.5018) scale(0.0041, -0.0041)" d="M217 139c57 0 112 -31 112 -94c0 -72 -55 -121 -102 -149c-35 -21 -74 -35 -115 -35c-57 0 -112 31 -112 94c0 72 55 121 102 149c35 21 74 35 115 35z" fill="currentColor"/>
<text transform="translate(44.7758, 38.7969)" font-family="Linux Libertine O" font-size="2.5244" text-anchor="start" fill="currentColor">
<tspan>
nes</tspan>
</text>
<text transform="translate(45.7190, 41.5969)" font-family="Linux Libertine O" font-size="2.5244" text-anchor="start" fill="currentColor">
<tspan>
er</tspan>
</text>
<path transform="translate(46.3671, 46.7009) scale(0.0041, -0.0041)" d="M217 139c57 0 112 -31 112 -94c0 -72 -55 -121 -102 -149c-35 -21 -74 -35 -115 -35c-57 0 -112 31 -112 94c0 72 55 121 102 149c35 21 74 35 115 35z" fill="currentColor"/>
<text transform="translate(46.3671, 53.4961)" font-family="Linux Libertine O" font-size="2.5244" text-anchor="start" fill="currentColor">
<tspan>
nes</tspan>
</text>
<text transform="translate(46.3671, 56.2961)" font-family="Linux Libertine O" font-size="2.5244" text-anchor="start" fill="currentColor">
<tspan>
er</tspan>
</text>
<rect transform="translate(46.4366, 3.8815)" x="-0.0695" y="-0.8149" width="0.1390" height="3.3149" ry="0.0442" fill="currentColor"/>
<rect transform="translate(47.6424, 18.1019)" x="-0.0695" y="-2.0000" width="0.1390" height="3.3149" ry="0.0442" fill="currentColor"/>
<rect transform="translate(47.6424, 33.0018)" x="-0.0695" y="-3.0000" width="0.1390" height="3.3149" ry="0.0442" fill="currentColor"/>
<rect transform="translate(54.3939, 33.0018)" x="-0.0695" y="-3.0000" width="0.1390" height="3.3149" ry="0.0442" fill="currentColor"/>
<rect transform="translate(53.1882, 47.7009)" x="-0.0695" y="-1.8149" width="0.1390" height="3.3149" ry="0.0442" fill="currentColor"/>
<path transform="translate(57.4190, 19.6019) scale(0.0041, -0.0041)" d="M217 139c57 0 112 -31 112 -94c0 -72 -55 -121 -102 -149c-35 -21 -74 -35 -115 -35c-57 0 -112 31 -112 94c0 72 55 121 102 149c35 21 74 35 115 35z" fill="currentColor"/>
<text transform="translate(50.3201, 56.2961)" font-family="Linux Libertine O" font-size="2.5244" text-anchor="start" fill="currentColor">
<tspan>
schre</tspan>
</text>
<rect transform="translate(53.1882, 3.8815)" x="-0.0695" y="-0.8149" width="0.1390" height="3.3149" ry="0.0442" fill="currentColor"/>
<rect transform="translate(54.3939, 18.1019)" x="-0.0695" y="-1.0029" width="0.1390" height="2.8178" ry="0.0442" fill="currentColor"/>
</svg>
