<svg xmlns="http://www.w3.org/2000/svg" xmlns:xlink="http://www.w3.org/1999/xlink" version="1.2" width="190.00mm" height="52.55mm" viewBox="0.0000 -0.0000 108.1205 29.9063">
<text transform="translate(77.3915, 1.6389)" font-family="Century Schoolbook L" font-size="2.2001" text-anchor="start" fill="currentColor">
<tspan>
Schmellis Gesangbuch, No. 16</tspan>
</text>
<rect transform="translate(63.6336, 5.8607)" x="0.0000" y="-2.0000" width="0.1900" height="4.0500" ry="0.0000" fill="currentColor"/>
<rect transform="translate(91.9819, 5.8607)" x="0.0000" y="-2.0000" width="0.1900" height="4.0500" ry="0.0000" fill="currentColor"/>
<rect transform="translate(42.8085, 5.8607)" x="0.0000" y="-2.0000" width="0.1900" height="4.0500" ry="0.0000" fill="currentColor"/>
<rect transform="translate(42.8085, 20.8731)" x="0.0000" y="-2.0500" width="0.1900" height="4.0500" ry="0.0000" fill="currentColor"/>
<rect transform="translate(42.8085, 2.0827)" x="0.0000" y="5.8280" width="0.1900" height="10.9624" ry="0.0000" fill="currentColor"/>
<rect transform="translate(55.5245, 2.0827)" x="0.0000" y="5.8280" width="0.1900" height="10.9624" ry="0.0000" fill="currentColor"/>
<rect transform="translate(100.6643, 5.8607)" x="0.0000" y="-2.0000" width="0.1900" height="4.0500" ry="0.0000" fill="currentColor"/>
<rect transform="translate(55.5245, 20.8731)" x="0.0000" y="-2.0500" width="0.1900" height="4.0500" ry="0.0000" fill="currentColor"/>
<rect transform="translate(78.6945, 5.8607)" x="0.0000" y="-2.0000" width="0.1900" height="4.0500" ry="0.0000" fill="currentColor"/>
<rect transform="translate(100.6643, 20.8731)" x="0.0000" y="-2.0500" width="0.1900" height="4.0500" ry="0.0000" fill="currentColor"/>
<rect transform="translate(55.5245, 5.8607)" x="0.0000" y="-2.0000" width="0.1900" height="4.0500" ry="0.0000" fill="currentColor"/>
<rect transform="translate(78.6945, 20.8731)" x="0.0000" y="-2.0500" width="0.1900" height="4.0500" ry="0.0000" fill="currentColor"/>
<rect transform="translate(29.9739, 2.0827)" x="0.0000" y="5.8280" width="0.1900" height="10.9624" ry="0.0000" fill="currentColor"/>
<rect transform="translate(78.6945, 2.0827)" x="0.0000" y="5.8280" width="0.1900" height="10.9624" ry="0.0000" fill="currentColor"/>
<rect transform="translate(100.6643, 2.0827)" x="0.0000" y="5.8280" width="0.1900" height="10.9624" ry="0.0000" fill="currentColor"/>
<rect transform="translate(29.9739, 20.8731)" x="0.0000" y="-2.0500" width="0.1900" height="4.0500" ry="0.0000" fill="currentColor"/>
<rect transform="translate(107.5205, 2.0827)" x="0.0000" y="5.8280" width="0.6000" height="10.9624" ry="0.0000" fill="currentColor"/>
<rect transform="translate(107.0305, 2.0827)" x="0.0000" y="5.8280" width="0.1900" height="10.9624" ry="0.0000" fill="currentColor"/>
<rect transform="translate(29.9739, 5.8607)" x="0.0000" y="-2.0000" width="0.1900" height="4.0500" ry="0.0000" fill="currentColor"/>
<path transform="translate(106.2805, 5.3607) scale(0.0040, -0.0040)" d="M0 0c0 31 25 56 56 56s56 -25 56 -56s-25 -56 -56 -56s-56 25 -56 56z" fill="currentColor"/>
<path transform="translate(106.2805, 6.3607) scale(0.0040, -0.0040)" d="M0 0c0 31 25 56 56 56s56 -25 56 -56s-25 -56 -56 -56s-56 25 -56 56z" fill="currentColor"/>
<rect transform="translate(107.5205, 5.8607)" x="0.0000" y="-2.0000" width="0.6000" height="4.0500" ry="0.0000" fill="currentColor"/>
<rect transform="translate(107.0305, 5.8607)" x="0.0000" y="-2.0000" width="0.1900" height="4.0500" ry="0.0000" fill="currentColor"/>
<path transform="translate(106.2805, 20.3731) scale(0.0040, -0.0040)" d="M0 0c0 31 25 56 56 56s56 -25 56 -56s-25 -56 -56 -56s-56 25 -56 56z" fill="currentColor"/>
<path transform="translate(106.2805, 21.3731) scale(0.0040, -0.0040)" d="M0 0c0 31 25 56 56 56s56 -25 56 -56s-25 -56 -56 -56s-56 25 -56 56z" fill="currentColor"/>
<rect transform="translate(107.5205, 20.8731)" x="0.0000" y="-2.0500" width="0.6000" height="4.0500" ry="0.0000" fill="currentColor"/>
<rect transform="translate(107.0305, 20.8731)" x="0.0000" y="-2.0500" width="0.1900" height="4.0500" ry="0.0000" fill="currentColor"/>
<line transform="translate(8.5358, 22.8731)" stroke-linejoin="round" stroke-linecap="round" stroke-width="0.1000" stroke="currentColor" x1="0.0500" y1="-0.0000" x2="99.5346" y2="-0.0000"/>
<line transform="translate(8.5358, 21.8731)" stroke-linejoin="round" stroke-linecap="round" stroke-width="0.1000" stroke="currentColor" x1="0.0500" y1="-0.0000" x2="99.5346" y2="-0.0000"/>
<line transform="translate(8.5358, 20.8731)" stroke-linejoin="round" stroke-linecap="round" stroke-width="0.1000" stroke="currentColor" x1="0.0500" y1="-0.0000" x2="99.5346" y2="-0.0000"/>
<line transform="translate(8.5358, 19.8731)" stroke-linejoin="round" stroke-linecap="round" stroke-width="0.1000" stroke="currentColor" x1="0.0500" y1="-0.0000" x2="99.5346" y2="-0.0000"/>
<line transform="translate(8.5358, 18.8731)" stroke-linejoin="round" stroke-linecap="round" stroke-width="0.1000" stroke="currentColor" x1="0.0500" y1="-0.0000" x2="99.5346" y2="-0.0000"/>
<line transform="translate(8.5358, 7.8607)" stroke-linejoin="round" stroke-linecap="round" stroke-width="0.1000" stroke="currentColor" x1="0.0500" y1="-0.0000" x2="99.5346" y2="-0.0000"/>
<line transform="translate(8.5358, 6.8607)" stroke-linejoin="round" stroke-linecap="round" stroke-width="0.1000" stroke="currentColor" x1="0.0500" y1="-0.0000" x2="99.5346" y2="-0.0000"/>
<line transform="translate(8.5358, 5.8607)" stroke-linejoin="round" stroke-linecap="round" stroke-width="0.1000" stroke="currentColor" x1="0.0500" y1="-0.0000" x2="99.5346" y2="-0.0000"/>
<line transform="translate(8.5358, 4.8607)" stroke-linejoin="round" stroke-linecap="round" stroke-width="0.1000" stroke="currentColor" x1="0.0500" y1="-0.0000" x2="99.5346" y2="-0.0000"/>
<line transform="translate(8.5358, 3.8607)" stroke-linejoin="round" stroke-linecap="round" stroke-width="0.1000" stroke="currentColor" x1="0.0500" y1="-0.0000" x2="99.5346" y2="-0.0000"/>
<rect transform="translate(91.9819, 20.8731)" x="0.0000" y="-2.0500" width="0.1900" height="4.0500" ry="0.0000" fill="currentColor"/>
<rect transform="translate(63.6336, 20.8731)" x="0.0000" y="-2.0500" width="0.1900" height="4.0500" ry="0.0000" fill="currentColor"/>
<rect transform="translate(91.9819, 2.0827)" x="0.0000" y="5.8280" width="0.1900" height="10.9624" ry="0.0000" fill="currentColor"/>
<rect transform="translate(63.6336, 2.0827)" x="0.0000" y="5.8280" width="0.1900" height="10.9624" ry="0.0000" fill="currentColor"/>
<path transform="translate(87.9005, 26.2178) scale(0.0032, -0.0032)" d="M173 256c-47 0 -50 -37 -50 -88v-27v-27c0 -51 3 -88 50 -88c56 0 58 50 58 115s-2 115 -58 115zM123 269c16 7 32 13 50 13c103 0 173 -45 173 -141s-70 -141 -173 -141c-113 0 -173 124 -173 250c0 129 75 250 194 250c72 0 139 -40 139 -106c0 -35 -29 -64 -64 -64
s-64 29 -64 64c0 23 38 25 38 48c0 22 -24 32 -49 32c-63 0 -73 -59 -73 -130c0 -24 2 -50 2 -75z" fill="currentColor"/>
<rect transform="translate(89.1517, 5.8607)" x="-0.0650" y="-3.0000" width="0.1300" height="3.3122" ry="0.0400" fill="currentColor"/>
<rect transform="translate(89.1517, 20.8731)" x="-0.0650" y="-2.0619" width="0.1300" height="3.3741" ry="0.0400" fill="currentColor"/>
<path transform="translate(87.9005, 22.3731) scale(0.0040, -0.0040)" d="M220 138c56 0 109 -29 109 -91c0 -72 -56 -121 -103 -149c-36 -21 -76 -36 -117 -36c-56 0 -109 29 -109 91c0 72 56 121 103 149c36 21 76 36 117 36z" fill="currentColor"/>
<text transform="translate(86.8514, 14.1671)" font-family="Century Schoolbook L" font-size="2.4696" text-anchor="start" fill="currentColor">
<tspan>
em</tspan>
</text>
<text transform="translate(86.5100, 11.3671)" font-family="Century Schoolbook L" font-size="2.4696" text-anchor="start" fill="currentColor">
<tspan>
Ver</tspan>
</text>
<path transform="translate(87.9005, 6.3607) scale(0.0040, -0.0040)" d="M220 138c56 0 109 -29 109 -91c0 -72 -56 -121 -103 -149c-36 -21 -76 -36 -117 -36c-56 0 -109 29 -109 91c0 72 56 121 103 149c36 21 76 36 117 36z" fill="currentColor"/>
<rect transform="translate(87.2132, 20.8731)" x="-0.0650" y="-1.9381" width="0.1300" height="3.7502" ry="0.0400" fill="currentColor"/>
<path transform="translate(85.9620, 22.8731) scale(0.0040, -0.0040)" d="M220 138c56 0 109 -29 109 -91c0 -72 -56 -121 -103 -149c-36 -21 -76 -36 -117 -36c-56 0 -109 29 -109 91c0 72 56 121 103 149c36 21 76 36 117 36z" fill="currentColor"/>
<rect transform="translate(92.9997, 5.8607)" x="-0.0650" y="-0.2386" width="0.1300" height="3.2386" ry="0.0400" fill="currentColor"/>
<path transform="translate(92.9347, 28.0226) scale(0.0032, -0.0032)" d="M201 296c23 15 46 29 62 51c12 16 20 35 28 52c2 4 6 6 10 6c7 0 14 -5 14 -15v-233h76c11 0 16 -8 16 -16s-5 -16 -16 -16h-76v-2c0 -50 30 -97 77 -97c9 0 12 -7 12 -13s-3 -13 -12 -13c-46 0 -92 13 -138 13s-93 -13 -139 -13c-9 0 -12 7 -12 13s3 13 12 13
c47 0 77 47 77 97v2h-160c-26 0 -34 15 -34 25c0 3 1 6 2 7c79 91 131 205 131 325c0 10 7 18 15 18h3c24 -7 49 -13 74 -13s50 6 74 13c2 1 3 1 5 1c9 0 15 -7 15 -13c0 -2 0 -4 -2 -6l-283 -325h160v115c0 9 1 19 9 24z" fill="currentColor"/>
<path transform="translate(92.9347, 26.2178) scale(0.0032, -0.0032)" d="M173 256c-47 0 -50 -37 -50 -88v-27v-27c0 -51 3 -88 50 -88c56 0 58 50 58 115s-2 115 -58 115zM123 269c16 7 32 13 50 13c103 0 173 -45 173 -141s-70 -141 -173 -141c-113 0 -173 124 -173 250c0 129 75 250 194 250c72 0 139 -40 139 -106c0 -35 -29 -64 -64 -64
s-64 29 -64 64c0 23 38 25 38 48c0 22 -24 32 -49 32c-63 0 -73 -59 -73 -130c0 -24 2 -50 2 -75z" fill="currentColor"/>
<path transform="translate(92.9347, 21.3731) scale(0.0040, -0.0040)" d="M220 138c56 0 109 -29 109 -91c0 -72 -56 -121 -103 -149c-36 -21 -76 -36 -117 -36c-56 0 -109 29 -109 91c0 72 56 121 103 149c36 21 76 36 117 36z" fill="currentColor"/>
<text transform="translate(92.9347, 14.1671)" font-family="Century Schoolbook L" font-size="2.4696" text-anchor="start" fill="currentColor">
<tspan>
pfan</tspan>
</text>
<text transform="translate(92.9347, 11.3671)" font-family="Century Schoolbook L" font-size="2.4696" text-anchor="start" fill="currentColor">
<tspan>
lan</tspan>
</text>
<path transform="translate(92.9347, 5.3607) scale(0.0040, -0.0040)" d="M315 65c0 24 -21 41 -42 41c-4 0 -8 0 -12 -1c-31 -9 -77 -40 -114 -64s-84 -53 -104 -78c-7 -8 -11 -18 -11 -28c0 -24 21 -41 42 -41c4 0 8 0 12 1c31 9 78 40 115 64s84 53 104 78c7 8 10 18 10 28zM264 137c47 0 83 -21 83 -72c0 -19 -4 -37 -10 -56
c-12 -38 -32 -74 -65 -96c-54 -36 -113 -51 -188 -51c-47 0 -84 22 -84 73c0 19 5 37 11 56c12 38 31 74 64 96c54 36 114 50 189 50z" fill="currentColor"/>
<rect transform="translate(94.1859, 20.8731)" x="-0.0650" y="-3.0000" width="0.1300" height="3.3122" ry="0.0400" fill="currentColor"/>
<rect transform="translate(91.0902, 20.8731)" x="-0.0650" y="-2.1858" width="0.1300" height="2.9980" ry="0.0400" fill="currentColor"/>
<path transform="translate(89.8390, 21.8731) scale(0.0040, -0.0040)" d="M220 138c56 0 109 -29 109 -91c0 -72 -56 -121 -103 -149c-36 -21 -76 -36 -117 -36c-56 0 -109 29 -109 91c0 72 56 121 103 149c36 21 76 36 117 36z" fill="currentColor"/>
<text transform="translate(80.7993, 14.1671)" font-family="Century Schoolbook L" font-size="2.4696" text-anchor="start" fill="currentColor">
<tspan>
zu</tspan>
</text>
<text transform="translate(79.1945, 11.3671)" font-family="Century Schoolbook L" font-size="2.4696" text-anchor="start" fill="currentColor">
<tspan>
gross</tspan>
</text>
<path transform="translate(81.4529, 5.8607) scale(0.0040, -0.0040)" d="M315 65c0 24 -21 41 -42 41c-4 0 -8 0 -12 -1c-31 -9 -77 -40 -114 -64s-84 -53 -104 -78c-7 -8 -11 -18 -11 -28c0 -24 21 -41 42 -41c4 0 8 0 12 1c31 9 78 40 115 64s84 53 104 78c7 8 10 18 10 28zM264 137c47 0 83 -21 83 -72c0 -19 -4 -37 -10 -56
c-12 -38 -32 -74 -65 -96c-54 -36 -113 -51 -188 -51c-47 0 -84 22 -84 73c0 19 5 37 11 56c12 38 31 74 64 96c54 36 114 50 189 50z" fill="currentColor"/>
<rect transform="translate(75.8187, 20.8731)" x="-0.0650" y="-0.8122" width="0.1300" height="3.3122" ry="0.0400" fill="currentColor"/>
<rect transform="translate(75.8187, 5.8607)" x="-0.0650" y="-0.3122" width="0.1300" height="3.3122" ry="0.0400" fill="currentColor"/>
<path transform="translate(75.7537, 19.8731) scale(0.0040, -0.0040)" d="M220 138c56 0 109 -29 109 -91c0 -72 -56 -121 -103 -149c-36 -21 -76 -36 -117 -36c-56 0 -109 29 -109 91c0 72 56 121 103 149c36 21 76 36 117 36z" fill="currentColor"/>
<text transform="translate(74.3291, 14.1671)" font-family="Century Schoolbook L" font-size="2.4696" text-anchor="start" fill="currentColor">
<tspan>
den</tspan>
</text>
<text transform="translate(75.1314, 11.3671)" font-family="Century Schoolbook L" font-size="2.4696" text-anchor="start" fill="currentColor">
<tspan>
ge</tspan>
</text>
<path transform="translate(75.7537, 5.3607) scale(0.0040, -0.0040)" d="M220 138c56 0 109 -29 109 -91c0 -72 -56 -121 -103 -149c-36 -21 -76 -36 -117 -36c-56 0 -109 29 -109 91c0 72 56 121 103 149c36 21 76 36 117 36z" fill="currentColor"/>
<rect transform="translate(70.9045, 20.8731)" x="-0.0650" y="-0.3122" width="0.1300" height="3.3122" ry="0.0400" fill="currentColor"/>
<rect transform="translate(70.9045, 5.8607)" x="-0.0650" y="-0.8122" width="0.1300" height="3.3122" ry="0.0400" fill="currentColor"/>
<path transform="translate(70.8395, 28.0226) scale(0.0032, -0.0032)" d="M50 500c45 -8 91 -13 137 -13s92 5 137 13h4c10 0 17 -7 17 -13c0 -2 0 -3 -2 -5c-68 -68 -165 -97 -261 -97c-10 0 -18 -8 -18 -18v-86c28 28 66 40 105 40c116 0 187 -51 187 -161c0 -95 -92 -160 -193 -160c-83 0 -163 42 -163 116c0 35 29 64 64 64s64 -29 64 -64
c0 -24 -39 -29 -39 -53c0 -31 38 -37 74 -37c56 0 71 69 71 134c0 61 -12 129 -65 129c-42 0 -84 -9 -108 -42c-3 -5 -8 -7 -13 -7c-8 0 -17 6 -17 16v226c0 10 7 18 16 18h3z" fill="currentColor"/>
<path transform="translate(70.8395, 26.2178) scale(0.0032, -0.0032)" d="M173 256c-47 0 -50 -37 -50 -88v-27v-27c0 -51 3 -88 50 -88c56 0 58 50 58 115s-2 115 -58 115zM123 269c16 7 32 13 50 13c103 0 173 -45 173 -141s-70 -141 -173 -141c-113 0 -173 124 -173 250c0 129 75 250 194 250c72 0 139 -40 139 -106c0 -35 -29 -64 -64 -64
s-64 29 -64 64c0 23 38 25 38 48c0 22 -24 32 -49 32c-63 0 -73 -59 -73 -130c0 -24 2 -50 2 -75z" fill="currentColor"/>
<path transform="translate(70.8395, 20.3731) scale(0.0040, -0.0040)" d="M220 138c56 0 109 -29 109 -91c0 -72 -56 -121 -103 -149c-36 -21 -76 -36 -117 -36c-56 0 -109 29 -109 91c0 72 56 121 103 149c36 21 76 36 117 36z" fill="currentColor"/>
<text transform="translate(68.7661, 14.1671)" font-family="Century Schoolbook L" font-size="2.4696" text-anchor="start" fill="currentColor">
<tspan>
Freu</tspan>
</text>
<text transform="translate(69.7904, 11.3671)" font-family="Century Schoolbook L" font-size="2.4696" text-anchor="start" fill="currentColor">
<tspan>
tra</tspan>
</text>
<path transform="translate(70.8395, 4.8607) scale(0.0040, -0.0040)" d="M220 138c56 0 109 -29 109 -91c0 -72 -56 -121 -103 -149c-36 -21 -76 -36 -117 -36c-56 0 -109 29 -109 91c0 72 56 121 103 149c36 21 76 36 117 36z" fill="currentColor"/>
<rect transform="translate(85.2747, 20.8731)" x="-0.0650" y="-1.8142" width="0.1300" height="3.1263" ry="0.0400" fill="currentColor"/>
<path transform="translate(84.0235, 28.0226) scale(0.0032, -0.0032)" d="M50 500c45 -8 91 -13 137 -13s92 5 137 13h4c10 0 17 -7 17 -13c0 -2 0 -3 -2 -5c-68 -68 -165 -97 -261 -97c-10 0 -18 -8 -18 -18v-86c28 28 66 40 105 40c116 0 187 -51 187 -161c0 -95 -92 -160 -193 -160c-83 0 -163 42 -163 116c0 35 29 64 64 64s64 -29 64 -64
c0 -24 -39 -29 -39 -53c0 -31 38 -37 74 -37c56 0 71 69 71 134c0 61 -12 129 -65 129c-42 0 -84 -9 -108 -42c-3 -5 -8 -7 -13 -7c-8 0 -17 6 -17 16v226c0 10 7 18 16 18h3z" fill="currentColor"/>
<path transform="translate(84.0235, 26.2178) scale(0.0032, -0.0032)" d="M71 404c-31 0 -39 -46 -39 -73v-65c0 -11 -8 -16 -16 -16s-16 5 -16 16v218c0 11 8 16 16 16s16 -5 16 -16v-15c0 -10 13 -20 16 -16c22 31 51 47 81 47c28 0 58 -13 83 -39c12 -12 26 -18 41 -18c29 0 62 20 83 50c4 5 7 7 12 7c9 0 17 -7 17 -16c0 -3 -1 -6 -3 -9
c-81 -115 -151 -246 -151 -381c0 -26 2 -52 8 -78c2 -10 -5 -19 -14 -19h-4c-25 7 -51 16 -77 16s-51 -9 -76 -16h-5c-8 0 -14 7 -14 14c0 2 0 3 1 5c53 125 131 236 211 346c-19 -9 -37 -14 -55 -14c-22 0 -44 8 -62 27c-16 16 -36 29 -53 29z" fill="currentColor"/>
<path transform="translate(84.0235, 22.3731) scale(0.0040, -0.0040)" d="M220 138c56 0 109 -29 109 -91c0 -72 -56 -121 -103 -149c-36 -21 -76 -36 -117 -36c-56 0 -109 29 -109 91c0 72 56 121 103 149c36 21 76 36 117 36z" fill="currentColor"/>
<rect transform="translate(82.7041, 20.8731)" x="-0.0650" y="-2.5000" width="0.1300" height="3.3122" ry="0.0400" fill="currentColor"/>
<rect transform="translate(81.5179, 5.8607)" x="-0.0650" y="0.2614" width="0.1300" height="3.0719" ry="0.0400" fill="currentColor"/>
<path transform="translate(81.4529, 26.2178) scale(0.0032, -0.0032)" d="M173 256c-47 0 -50 -37 -50 -88v-27v-27c0 -51 3 -88 50 -88c56 0 58 50 58 115s-2 115 -58 115zM123 269c16 7 32 13 50 13c103 0 173 -45 173 -141s-70 -141 -173 -141c-113 0 -173 124 -173 250c0 129 75 250 194 250c72 0 139 -40 139 -106c0 -35 -29 -64 -64 -64
s-64 29 -64 64c0 23 38 25 38 48c0 22 -24 32 -49 32c-63 0 -73 -59 -73 -130c0 -24 2 -50 2 -75z" fill="currentColor"/>
<path transform="translate(81.4529, 21.8731) scale(0.0040, -0.0040)" d="M220 138c56 0 109 -29 109 -91c0 -72 -56 -121 -103 -149c-36 -21 -76 -36 -117 -36c-56 0 -109 29 -109 91c0 72 56 121 103 149c36 21 76 36 117 36z" fill="currentColor"/>
<rect transform="translate(73.8381, 11.3671)" x="0.0000" y="-0.5500" width="0.6600" height="0.1300" ry="0.0400" fill="currentColor"/>
<rect transform="translate(91.4410, 11.3671)" x="0.0000" y="-0.5500" width="0.6600" height="0.1300" ry="0.0400" fill="currentColor"/>
<rect transform="translate(91.2703, 14.1671)" x="0.0000" y="-0.5500" width="0.6600" height="0.1300" ry="0.0400" fill="currentColor"/>
<path transform="translate(92.9347, 5.8607)" stroke-width="0.0800" stroke-linejoin="round" stroke-linecap="round" stroke="currentColor" fill="currentColor" d="M0.726688075380309 -1.550006C1.96474320754597 -2.69140819827576 4.73665122737136 -2.50127515990571 5.82926159577335 -1.200006C4.72843938238777 -2.38155646628619 1.95653136256238 -2.57168950465624 0.726688075380309 -1.550006z"/>
<rect transform="translate(98.5462, 11.3671)" x="0.0000" y="-0.5500" width="0.6600" height="0.1300" ry="0.0400" fill="currentColor"/>
<rect transform="translate(99.2803, 14.1671)" x="0.0000" y="-0.5500" width="0.6600" height="0.1300" ry="0.0400" fill="currentColor"/>
<polygon transform="translate(85.2097, 19.0631)" stroke-linejoin="round" stroke-linecap="round" stroke-width="0.0800" fill="currentColor" stroke="currentColor" points="5.9055 -0.5800 5.9055 -0.1800 0.0400 0.2000 0.0400 -0.2000"/>
<rect transform="translate(20.6094, 11.3671)" x="0.0000" y="-0.5500" width="0.3000" height="0.1300" ry="0.0400" fill="currentColor"/>
<path transform="translate(30.9595, 5.8607)" stroke-width="0.0800" stroke-linejoin="round" stroke-linecap="round" stroke="currentColor" fill="currentColor" d="M0.639164388576013 -2.050006C1.47892582252403 -2.90980514165503 3.20260894490834 -2.9842261313673 4.11335183699996 -2.200006C3.20778519015224 -2.86433782299165 1.48410206776794 -2.78991683327938 0.639164388576013 -2.050006z"/>
<rect transform="translate(49.4730, 14.1671)" x="0.0000" y="-0.5500" width="0.6600" height="0.1300" ry="0.0400" fill="currentColor"/>
<polygon transform="translate(34.4336, 23.8731)" stroke-linejoin="round" stroke-linecap="round" stroke-width="0.0800" fill="currentColor" stroke="currentColor" points="6.7107 -0.3900 6.7107 0.0100 0.0400 0.2000 0.0400 -0.2000"/>
<rect transform="translate(104.1673, 5.8607)" x="-0.0650" y="-3.0000" width="0.1300" height="3.2386" ry="0.0400" fill="currentColor"/>
<path transform="translate(104.6823, 6.3607) scale(0.0040, -0.0040)" d="M0 0c0 31 25 56 56 56s56 -25 56 -56s-25 -56 -56 -56s-56 25 -56 56z" fill="currentColor"/>
<path transform="translate(102.8423, 23.3731) scale(0.0040, -0.0040)" d="M315 65c0 24 -21 41 -42 41c-4 0 -8 0 -12 -1c-31 -9 -77 -40 -114 -64s-84 -53 -104 -78c-7 -8 -11 -18 -11 -28c0 -24 21 -41 42 -41c4 0 8 0 12 1c31 9 78 40 115 64s84 53 104 78c7 8 10 18 10 28zM264 137c47 0 83 -21 83 -72c0 -19 -4 -37 -10 -56
c-12 -38 -32 -74 -65 -96c-54 -36 -113 -51 -188 -51c-47 0 -84 22 -84 73c0 19 5 37 11 56c12 38 31 74 64 96c54 36 114 50 189 50z" fill="currentColor"/>
<text transform="translate(101.1643, 14.1671)" font-family="Century Schoolbook L" font-size="2.4696" text-anchor="start" fill="currentColor">
<tspan>
gen.</tspan>
</text>
<text transform="translate(101.1643, 11.3671)" font-family="Century Schoolbook L" font-size="2.4696" text-anchor="start" fill="currentColor">
<tspan>
gen,</tspan>
</text>
<path transform="translate(102.8423, 6.3607) scale(0.0040, -0.0040)" d="M315 65c0 24 -21 41 -42 41c-4 0 -8 0 -12 -1c-31 -9 -77 -40 -114 -64s-84 -53 -104 -78c-7 -8 -11 -18 -11 -28c0 -24 21 -41 42 -41c4 0 8 0 12 1c31 9 78 40 115 64s84 53 104 78c7 8 10 18 10 28zM264 137c47 0 83 -21 83 -72c0 -19 -4 -37 -10 -56
c-12 -38 -32 -74 -65 -96c-54 -36 -113 -51 -188 -51c-47 0 -84 22 -84 73c0 19 5 37 11 56c12 38 31 74 64 96c54 36 114 50 189 50z" fill="currentColor"/>
<rect transform="translate(99.3271, 20.8731)" x="-0.0650" y="-3.0000" width="0.1300" height="3.3122" ry="0.0400" fill="currentColor"/>
<rect transform="translate(98.1409, 5.8607)" x="-0.0650" y="0.1878" width="0.1300" height="3.1455" ry="0.0400" fill="currentColor"/>
<path transform="translate(98.0759, 28.0226) scale(0.0032, -0.0032)" d="M153 474c-30 0 -63 -8 -63 -34c0 -21 35 -25 35 -46c0 -31 -25 -56 -56 -56s-56 25 -56 56c0 66 68 106 140 106c92 0 171 -32 171 -114c0 -42 -6 -79 -43 -96c-10 -5 -15 -15 -15 -25s5 -19 15 -24c41 -19 58 -56 58 -101c0 -93 -81 -140 -182 -140
c-80 0 -157 43 -157 116c0 35 29 64 64 64s64 -29 64 -64c0 -24 -39 -29 -39 -53c0 -29 35 -37 68 -37c47 0 59 59 59 114v28c0 47 -2 81 -46 81h-77c-11 0 -16 8 -16 16s5 16 16 16h77c44 0 46 37 46 86v19c0 53 -15 88 -63 88z" fill="currentColor"/>
<path transform="translate(98.0759, 26.2178) scale(0.0032, -0.0032)" d="M50 500c45 -8 91 -13 137 -13s92 5 137 13h4c10 0 17 -7 17 -13c0 -2 0 -3 -2 -5c-68 -68 -165 -97 -261 -97c-10 0 -18 -8 -18 -18v-86c28 28 66 40 105 40c116 0 187 -51 187 -161c0 -95 -92 -160 -193 -160c-83 0 -163 42 -163 116c0 35 29 64 64 64s64 -29 64 -64
c0 -24 -39 -29 -39 -53c0 -31 38 -37 74 -37c56 0 71 69 71 134c0 61 -12 129 -65 129c-42 0 -84 -9 -108 -42c-3 -5 -8 -7 -13 -7c-8 0 -17 6 -17 16v226c0 10 7 18 16 18h3z" fill="currentColor"/>
<path transform="translate(98.0759, 21.3731) scale(0.0040, -0.0040)" d="M220 138c56 0 109 -29 109 -91c0 -72 -56 -121 -103 -149c-36 -21 -76 -36 -117 -36c-56 0 -109 29 -109 91c0 72 56 121 103 149c36 21 76 36 117 36z" fill="currentColor"/>
<path transform="translate(98.0759, 5.8607) scale(0.0040, -0.0040)" d="M220 138c56 0 109 -29 109 -91c0 -72 -56 -121 -103 -149c-36 -21 -76 -36 -117 -36c-56 0 -109 29 -109 91c0 72 56 121 103 149c36 21 76 36 117 36z" fill="currentColor"/>
<rect transform="translate(96.7565, 20.8731)" x="-0.0650" y="-2.5000" width="0.1300" height="3.3122" ry="0.0400" fill="currentColor"/>
<path transform="translate(95.5053, 21.8731) scale(0.0040, -0.0040)" d="M220 138c56 0 109 -29 109 -91c0 -72 -56 -121 -103 -149c-36 -21 -76 -36 -117 -36c-56 0 -109 29 -109 91c0 72 56 121 103 149c36 21 76 36 117 36z" fill="currentColor"/>
<path transform="translate(104.6823, 23.3731) scale(0.0040, -0.0040)" d="M0 0c0 31 25 56 56 56s56 -25 56 -56s-25 -56 -56 -56s-56 25 -56 56z" fill="currentColor"/>
<rect transform="translate(104.1673, 20.8731)" x="-0.0650" y="-1.0000" width="0.1300" height="3.2386" ry="0.0400" fill="currentColor"/>
<rect transform="translate(34.4986, 5.8607)" x="-0.0650" y="-0.8122" width="0.1300" height="3.3122" ry="0.0400" fill="currentColor"/>
<path transform="translate(34.4336, 29.9063) scale(0.0032, -0.0032)" d="M26 12c-1 -8 -7 -12 -13 -12c-7 0 -13 5 -13 13c0 174 234 164 234 342c0 58 -16 119 -66 119c-28 0 -55 -13 -55 -38c0 -27 35 -40 35 -67c0 -37 -31 -67 -68 -67s-67 30 -67 67c0 77 73 131 155 131c97 0 189 -56 189 -145c0 -148 -144 -158 -242 -213c6 1 11 1 17 1
c34 0 72 -12 108 -38c20 -14 43 -22 63 -22c22 0 40 10 45 30c2 7 7 10 12 10c7 0 13 -5 13 -13v-4c-18 -67 -81 -106 -142 -106c-37 0 -73 14 -98 45c-12 15 -29 23 -46 23c-29 0 -58 -21 -61 -56z" fill="currentColor"/>
<path transform="translate(33.8595, 27.2597) scale(0.0022, -0.0022)" d="M-11 375c10 6 21 8 32 8s21 -2 31 -8l-4 -210l92 27c2 1 4 1 6 1c11 0 21 -9 21 -20l10 -548c-10 -6 -20 -8 -31 -8s-21 2 -31 8l4 210l-92 -27c-2 -1 -4 -1 -6 -1c-11 0 -21 9 -21 20zM124 106l-78 -23l-3 -189l77 23z" fill="currentColor"/>
<path transform="translate(34.4336, 28.1015) scale(0.0032, -0.0032)" d="M50 500c45 -8 91 -13 137 -13s92 5 137 13h4c10 0 17 -7 17 -13c0 -2 0 -3 -2 -5c-68 -68 -165 -97 -261 -97c-10 0 -18 -8 -18 -18v-86c28 28 66 40 105 40c116 0 187 -51 187 -161c0 -95 -92 -160 -193 -160c-83 0 -163 42 -163 116c0 35 29 64 64 64s64 -29 64 -64
c0 -24 -39 -29 -39 -53c0 -31 38 -37 74 -37c56 0 71 69 71 134c0 61 -12 129 -65 129c-42 0 -84 -9 -108 -42c-3 -5 -8 -7 -13 -7c-8 0 -17 6 -17 16v226c0 10 7 18 16 18h3z" fill="currentColor"/>
<path transform="translate(34.4336, 26.2178) scale(0.0032, -0.0032)" d="M71 404c-31 0 -39 -46 -39 -73v-65c0 -11 -8 -16 -16 -16s-16 5 -16 16v218c0 11 8 16 16 16s16 -5 16 -16v-15c0 -10 13 -20 16 -16c22 31 51 47 81 47c28 0 58 -13 83 -39c12 -12 26 -18 41 -18c29 0 62 20 83 50c4 5 7 7 12 7c9 0 17 -7 17 -16c0 -3 -1 -6 -3 -9
c-81 -115 -151 -246 -151 -381c0 -26 2 -52 8 -78c2 -10 -5 -19 -14 -19h-4c-25 7 -51 16 -77 16s-51 -9 -76 -16h-5c-8 0 -14 7 -14 14c0 2 0 3 1 5c53 125 131 236 211 346c-19 -9 -37 -14 -55 -14c-22 0 -44 8 -62 27c-16 16 -36 29 -53 29z" fill="currentColor"/>
<path transform="translate(34.4336, 20.3731) scale(0.0040, -0.0040)" d="M220 138c56 0 109 -29 109 -91c0 -72 -56 -121 -103 -149c-36 -21 -76 -36 -117 -36c-56 0 -109 29 -109 91c0 72 56 121 103 149c36 21 76 36 117 36z" fill="currentColor"/>
<path transform="translate(34.4336, 4.8607) scale(0.0040, -0.0040)" d="M220 138c56 0 109 -29 109 -91c0 -72 -56 -121 -103 -149c-36 -21 -76 -36 -117 -36c-56 0 -109 29 -109 91c0 72 56 121 103 149c36 21 76 36 117 36z" fill="currentColor"/>
<rect transform="translate(31.0245, 20.8731)" x="-0.0650" y="-0.8122" width="0.1300" height="3.3122" ry="0.0400" fill="currentColor"/>
<rect transform="translate(31.0245, 5.8607)" x="-0.0650" y="-0.3122" width="0.1300" height="3.3122" ry="0.0400" fill="currentColor"/>
<path transform="translate(30.9595, 19.8731) scale(0.0040, -0.0040)" d="M220 138c56 0 109 -29 109 -91c0 -72 -56 -121 -103 -149c-36 -21 -76 -36 -117 -36c-56 0 -109 29 -109 91c0 72 56 121 103 149c36 21 76 36 117 36z" fill="currentColor"/>
<text transform="translate(30.9595, 14.1671)" font-family="Century Schoolbook L" font-size="2.4696" text-anchor="start" fill="currentColor">
<tspan>
Kind,</tspan>
</text>
<text transform="translate(30.9595, 11.3671)" font-family="Century Schoolbook L" font-size="2.4696" text-anchor="start" fill="currentColor">
<tspan>
dich,</tspan>
</text>
<rect transform="translate(41.1194, 20.8731)" x="-0.0650" y="-0.8122" width="0.1300" height="3.6240" ry="0.0400" fill="currentColor"/>
<path transform="translate(41.0544, 19.8731) scale(0.0040, -0.0040)" d="M220 138c56 0 109 -29 109 -91c0 -72 -56 -121 -103 -149c-36 -21 -76 -36 -117 -36c-56 0 -109 29 -109 91c0 72 56 121 103 149c36 21 76 36 117 36z" fill="currentColor"/>
<rect transform="translate(39.1644, 20.8731)" x="-0.0650" y="-0.3122" width="0.1300" height="3.1790" ry="0.0400" fill="currentColor"/>
<rect transform="translate(39.1644, 5.8607)" x="-0.0650" y="-1.3122" width="0.1300" height="3.3122" ry="0.0400" fill="currentColor"/>
<path transform="translate(39.0994, 26.2178) scale(0.0032, -0.0032)" d="M173 256c-47 0 -50 -37 -50 -88v-27v-27c0 -51 3 -88 50 -88c56 0 58 50 58 115s-2 115 -58 115zM123 269c16 7 32 13 50 13c103 0 173 -45 173 -141s-70 -141 -173 -141c-113 0 -173 124 -173 250c0 129 75 250 194 250c72 0 139 -40 139 -106c0 -35 -29 -64 -64 -64
s-64 29 -64 64c0 23 38 25 38 48c0 22 -24 32 -49 32c-63 0 -73 -59 -73 -130c0 -24 2 -50 2 -75z" fill="currentColor"/>
<path transform="translate(39.0994, 20.3731) scale(0.0040, -0.0040)" d="M220 138c56 0 109 -29 109 -91c0 -72 -56 -121 -103 -149c-36 -21 -76 -36 -117 -36c-56 0 -109 29 -109 91c0 72 56 121 103 149c36 21 76 36 117 36z" fill="currentColor"/>
<text transform="translate(37.7943, 14.1671)" font-family="Century Schoolbook L" font-size="2.4696" text-anchor="start" fill="currentColor">
<tspan>
das</tspan>
</text>
<text transform="translate(36.9065, 11.3671)" font-family="Century Schoolbook L" font-size="2.4696" text-anchor="start" fill="currentColor">
<tspan>
mein</tspan>
</text>
<path transform="translate(39.0994, 4.3607) scale(0.0040, -0.0040)" d="M220 138c56 0 109 -29 109 -91c0 -72 -56 -121 -103 -149c-36 -21 -76 -36 -117 -36c-56 0 -109 29 -109 91c0 72 56 121 103 149c36 21 76 36 117 36z" fill="currentColor"/>
<rect transform="translate(36.8315, 20.8731)" x="-0.0650" y="0.1878" width="0.1300" height="2.7447" ry="0.0400" fill="currentColor"/>
<path transform="translate(36.7665, 20.8731) scale(0.0040, -0.0040)" d="M220 138c56 0 109 -29 109 -91c0 -72 -56 -121 -103 -149c-36 -21 -76 -36 -117 -36c-56 0 -109 29 -109 91c0 72 56 121 103 149c36 21 76 36 117 36z" fill="currentColor"/>
<rect transform="translate(34.4986, 20.8731)" x="-0.0650" y="-0.3122" width="0.1300" height="3.3104" ry="0.0400" fill="currentColor"/>
<path transform="translate(33.3876, 4.8607) scale(0.0040, -0.0040)" d="M-8 375c8 4 17 7 26 7s17 -3 25 -7l-3 -183l106 20h3c10 0 18 -7 18 -17l7 -570c-8 -4 -16 -7 -25 -7s-17 3 -25 7l3 183l-106 -20h-3c-10 0 -18 7 -18 17zM131 112l-92 -17l-3 -207l92 17z" fill="currentColor"/>
<rect transform="translate(19.7618, 20.8731)" x="-0.0650" y="-1.0000" width="0.1300" height="3.3122" ry="0.0400" fill="currentColor"/>
<rect transform="translate(18.5756, 5.8607)" x="-0.0650" y="-0.3122" width="0.1300" height="3.3122" ry="0.0400" fill="currentColor"/>
<path transform="translate(14.9058, 22.8876) scale(0.0040, -0.0040)" d="M204 307c22 14 44 29 60 50c11 15 19 33 27 50c2 4 5 6 9 6c6 0 13 -5 13 -14v-245h72c10 0 15 -7 15 -14s-5 -15 -15 -15h-72v-8c0 -48 27 -94 72 -94c8 0 12 -5 12 -11s-4 -12 -12 -12c-44 0 -87 13 -131 13s-87 -13 -131 -13c-8 0 -12 6 -12 12s4 11 12 11
c45 0 73 46 73 94v8h-167c-23 0 -31 14 -31 23c0 3 1 5 2 6c80 93 138 207 138 330c0 9 6 16 13 16h3c23 -7 47 -13 71 -13s48 6 71 13c2 1 3 1 5 1c11 0 18 -10 12 -17l-284 -330h167v131c0 8 1 17 8 22z" fill="currentColor"/>
<path transform="translate(15.0424, 20.8731) scale(0.0040, -0.0040)" d="M150 477c-29 0 -59 -8 -59 -33c0 -22 36 -25 36 -47c0 -32 -26 -58 -58 -58s-57 26 -57 58c0 65 67 103 138 103c91 0 169 -33 169 -114c0 -43 -4 -82 -42 -100c-9 -4 -14 -12 -14 -21s5 -18 14 -22c41 -19 56 -57 56 -103c0 -92 -79 -140 -179 -140
c-79 0 -154 42 -154 113c0 36 30 66 66 66s65 -30 65 -66c0 -25 -40 -28 -40 -53c0 -27 32 -37 63 -37c49 0 63 61 63 117v16c0 54 -2 94 -50 94h-80c-10 0 -14 8 -14 15s4 14 14 14h80c49 0 50 43 50 99v8c0 54 -18 91 -67 91z" fill="currentColor"/>
<path transform="translate(12.9558, 21.8731) scale(0.0040, -0.0040)" d="M27 41l-1 -66v-11c0 -22 1 -44 4 -66c45 38 93 80 93 139c0 33 -14 67 -43 67c-31 0 -52 -30 -53 -63zM-15 -138l-12 595c8 5 18 8 27 8s19 -3 27 -8l-7 -345c25 21 58 34 91 34c52 0 89 -48 89 -102c0 -80 -86 -117 -147 -169c-15 -13 -24 -38 -45 -38
c-13 0 -23 11 -23 25z" fill="currentColor"/>
<path transform="translate(9.3358, 19.8731) scale(0.0040, -0.0040)" d="M557 -125c0 28 23 51 51 51s51 -23 51 -51s-23 -51 -51 -51s-51 23 -51 51zM557 125c0 28 23 51 51 51s51 -23 51 -51s-23 -51 -51 -51s-51 23 -51 51zM232 263c172 0 293 -88 293 -251c0 -263 -263 -414 -516 -521c-3 -3 -6 -4 -9 -4c-7 0 -13 6 -13 13c0 3 1 6 4 9
c202 118 412 265 412 493c0 120 -63 235 -171 235c-74 0 -129 -54 -154 -126c11 5 22 8 34 8c55 0 100 -45 100 -100c0 -58 -44 -106 -100 -106c-60 0 -112 47 -112 106c0 133 102 244 232 244z" fill="currentColor"/>
<path transform="translate(18.5106, 23.3731) scale(0.0040, -0.0040)" d="M220 138c56 0 109 -29 109 -91c0 -72 -56 -121 -103 -149c-36 -21 -76 -36 -117 -36c-56 0 -109 29 -109 91c0 72 56 121 103 149c36 21 76 36 117 36z" fill="currentColor"/>
<text transform="translate(17.4103, 14.1671)" font-family="Century Schoolbook L" font-size="2.4696" text-anchor="start" fill="currentColor">
<tspan>
ein</tspan>
</text>
<text transform="translate(17.7346, 11.3671)" font-family="Century Schoolbook L" font-size="2.4696" text-anchor="start" fill="currentColor">
<tspan>
Er</tspan>
</text>
<path transform="translate(14.9058, 7.8752) scale(0.0040, -0.0040)" d="M204 307c22 14 44 29 60 50c11 15 19 33 27 50c2 4 5 6 9 6c6 0 13 -5 13 -14v-245h72c10 0 15 -7 15 -14s-5 -15 -15 -15h-72v-8c0 -48 27 -94 72 -94c8 0 12 -5 12 -11s-4 -12 -12 -12c-44 0 -87 13 -131 13s-87 -13 -131 -13c-8 0 -12 6 -12 12s4 11 12 11
c45 0 73 46 73 94v8h-167c-23 0 -31 14 -31 23c0 3 1 5 2 6c80 93 138 207 138 330c0 9 6 16 13 16h3c23 -7 47 -13 71 -13s48 6 71 13c2 1 3 1 5 1c11 0 18 -10 12 -17l-284 -330h167v131c0 8 1 17 8 22z" fill="currentColor"/>
<path transform="translate(15.0424, 5.8607) scale(0.0040, -0.0040)" d="M150 477c-29 0 -59 -8 -59 -33c0 -22 36 -25 36 -47c0 -32 -26 -58 -58 -58s-57 26 -57 58c0 65 67 103 138 103c91 0 169 -33 169 -114c0 -43 -4 -82 -42 -100c-9 -4 -14 -12 -14 -21s5 -18 14 -22c41 -19 56 -57 56 -103c0 -92 -79 -140 -179 -140
c-79 0 -154 42 -154 113c0 36 30 66 66 66s65 -30 65 -66c0 -25 -40 -28 -40 -53c0 -27 32 -37 63 -37c49 0 63 61 63 117v16c0 54 -2 94 -50 94h-80c-10 0 -14 8 -14 15s4 14 14 14h80c49 0 50 43 50 99v8c0 54 -18 91 -67 91z" fill="currentColor"/>
<path transform="translate(12.9558, 4.8607) scale(0.0040, -0.0040)" d="M27 41l-1 -66v-11c0 -22 1 -44 4 -66c45 38 93 80 93 139c0 33 -14 67 -43 67c-31 0 -52 -30 -53 -63zM-15 -138l-12 595c8 5 18 8 27 8s19 -3 27 -8l-7 -345c25 21 58 34 91 34c52 0 89 -48 89 -102c0 -80 -86 -117 -147 -169c-15 -13 -24 -38 -45 -38
c-13 0 -23 11 -23 25z" fill="currentColor"/>
<path transform="translate(9.3358, 7.8607) scale(0.0040, -0.0040)" d="M318 0c0 -33 7 -73 45 -73c29 0 57 31 88 31c123 0 229 -89 229 -208c0 -169 -93 -250 -265 -250c-83 0 -152 61 -152 142c0 42 34 77 76 77s76 -35 76 -77c0 -39 -49 -37 -49 -76c0 -23 24 -38 49 -38c116 0 140 90 140 222c0 106 -12 180 -104 180
c-72 0 -119 -71 -119 -149c0 -9 -7 -14 -14 -14s-13 5 -13 14c0 76 -31 147 -84 200v-471c0 -6 -4 -10 -10 -10h-21c-6 0 -10 4 -10 10v980c0 6 4 10 10 10h21c6 0 10 -4 10 -10v-471c53 53 84 124 84 200c0 9 6 14 13 14s14 -5 14 -14c0 -78 47 -149 119 -149
c92 0 104 74 104 180c0 132 -24 222 -140 222c-25 0 -49 -15 -49 -38c0 -39 49 -37 49 -76c0 -42 -34 -77 -76 -77s-76 35 -76 77c0 81 69 142 152 142c172 0 265 -81 265 -250c0 -119 -106 -208 -229 -208c-31 0 -59 31 -88 31c-38 0 -45 -40 -45 -73zM129 -500h-119
c-6 0 -10 4 -10 10v980c0 6 4 10 10 10h119c6 0 10 -4 10 -10v-980c0 -6 -4 -10 -10 -10z" fill="currentColor"/>
<path transform="translate(18.5106, 5.3607) scale(0.0040, -0.0040)" d="M220 138c56 0 109 -29 109 -91c0 -72 -56 -121 -103 -149c-36 -21 -76 -36 -117 -36c-56 0 -109 29 -109 91c0 72 56 121 103 149c36 21 76 36 117 36z" fill="currentColor"/>
<rect transform="translate(8.4758, 13.3669)" x="0.0000" y="-9.5562" width="0.1600" height="19.1124" ry="0.0500" fill="currentColor"/>
<path transform="translate(8.1758, 13.3669) scale(0.0040, -0.0040)" d="M-12 -712c0 -384 -144 -760 -144 -1128c0 -192 44 -372 172 -524c4 -4 4 -8 4 -12c0 -12 -8 -20 -20 -20c-4 0 -12 4 -16 8c-168 200 -224 452 -224 712c0 392 148 772 148 1144c0 192 -40 372 -168 524c0 4 -4 4 -4 8s4 4 4 8c128 152 168 332 168 524
c0 372 -148 752 -148 1144c0 260 56 512 224 712c4 4 12 8 16 8c12 0 20 -8 20 -20c0 -4 0 -8 -4 -12c-128 -152 -172 -332 -172 -524c0 -368 144 -744 144 -1128c0 -260 -56 -512 -220 -712c164 -200 220 -452 220 -712z" fill="currentColor"/>
<path transform="translate(30.9595, 5.3607) scale(0.0040, -0.0040)" d="M220 138c56 0 109 -29 109 -91c0 -72 -56 -121 -103 -149c-36 -21 -76 -36 -117 -36c-56 0 -109 29 -109 91c0 72 56 121 103 149c36 21 76 36 117 36z" fill="currentColor"/>
<rect transform="translate(28.4379, 20.8731)" x="-0.0650" y="-3.0000" width="0.1300" height="3.3122" ry="0.0400" fill="currentColor"/>
<rect transform="translate(27.2517, 5.8607)" x="-0.0650" y="0.1878" width="0.1300" height="3.1455" ry="0.0400" fill="currentColor"/>
<path transform="translate(27.1867, 21.3731) scale(0.0040, -0.0040)" d="M220 138c56 0 109 -29 109 -91c0 -72 -56 -121 -103 -149c-36 -21 -76 -36 -117 -36c-56 0 -109 29 -109 91c0 72 56 121 103 149c36 21 76 36 117 36z" fill="currentColor"/>
<text transform="translate(25.9157, 14.1671)" font-family="Century Schoolbook L" font-size="2.4696" text-anchor="start" fill="currentColor">
<tspan>
nes</tspan>
</text>
<text transform="translate(26.2059, 11.3671)" font-family="Century Schoolbook L" font-size="2.4696" text-anchor="start" fill="currentColor">
<tspan>
tre</tspan>
</text>
<path transform="translate(27.1867, 5.8607) scale(0.0040, -0.0040)" d="M220 138c56 0 109 -29 109 -91c0 -72 -56 -121 -103 -149c-36 -21 -76 -36 -117 -36c-56 0 -109 29 -109 91c0 72 56 121 103 149c36 21 76 36 117 36z" fill="currentColor"/>
<rect transform="translate(24.1041, 20.8731)" x="-0.0650" y="-2.0000" width="0.1300" height="3.3122" ry="0.0400" fill="currentColor"/>
<rect transform="translate(24.1041, 5.8607)" x="-0.0650" y="-3.0000" width="0.1300" height="3.3122" ry="0.0400" fill="currentColor"/>
<path transform="translate(22.8529, 26.2178) scale(0.0032, -0.0032)" d="M173 256c-47 0 -50 -37 -50 -88v-27v-27c0 -51 3 -88 50 -88c56 0 58 50 58 115s-2 115 -58 115zM123 269c16 7 32 13 50 13c103 0 173 -45 173 -141s-70 -141 -173 -141c-113 0 -173 124 -173 250c0 129 75 250 194 250c72 0 139 -40 139 -106c0 -35 -29 -64 -64 -64
s-64 29 -64 64c0 23 38 25 38 48c0 22 -24 32 -49 32c-63 0 -73 -59 -73 -130c0 -24 2 -50 2 -75z" fill="currentColor"/>
<path transform="translate(22.8529, 22.3731) scale(0.0040, -0.0040)" d="M220 138c56 0 109 -29 109 -91c0 -72 -56 -121 -103 -149c-36 -21 -76 -36 -117 -36c-56 0 -109 29 -109 91c0 72 56 121 103 149c36 21 76 36 117 36z" fill="currentColor"/>
<text transform="translate(21.3770, 14.1671)" font-family="Century Schoolbook L" font-size="2.4696" text-anchor="start" fill="currentColor">
<tspan>
klei</tspan>
</text>
<text transform="translate(20.9161, 11.3671)" font-family="Century Schoolbook L" font-size="2.4696" text-anchor="start" fill="currentColor">
<tspan>
mun</tspan>
</text>
<path transform="translate(22.8529, 6.3607) scale(0.0040, -0.0040)" d="M220 138c56 0 109 -29 109 -91c0 -72 -56 -121 -103 -149c-36 -21 -76 -36 -117 -36c-56 0 -109 29 -109 91c0 72 56 121 103 149c36 21 76 36 117 36z" fill="currentColor"/>
<rect transform="translate(60.3590, 20.8731)" x="-0.0650" y="-3.0000" width="0.1300" height="3.2386" ry="0.0400" fill="currentColor"/>
<path transform="translate(60.8740, 21.3731) scale(0.0040, -0.0040)" d="M0 0c0 31 25 56 56 56s56 -25 56 -56s-25 -56 -56 -56s-56 25 -56 56z" fill="currentColor"/>
<rect transform="translate(59.0990, 5.8607)" x="-0.0650" y="-1.2386" width="0.1300" height="3.2386" ry="0.0400" fill="currentColor"/>
<path transform="translate(60.8740, 4.3607) scale(0.0040, -0.0040)" d="M0 0c0 31 25 56 56 56s56 -25 56 -56s-25 -56 -56 -56s-56 25 -56 56z" fill="currentColor"/>
<path transform="translate(59.7290, 17.5971) scale(0.0040, -0.0040)" d="M-67 48c0 37 30 67 67 67s67 -30 67 -67s-30 -67 -67 -67s-67 30 -67 67zM0 363c157 0 332 -176 332 -366c0 -9 -10 -15 -19 -15s-17 5 -19 18c-26 148 -146 262 -294 262s-268 -114 -294 -262c-2 -13 -10 -18 -19 -18s-19 6 -19 15c0 190 175 366 332 366z" fill="currentColor"/>
<path transform="translate(59.0340, 21.3731) scale(0.0040, -0.0040)" d="M315 65c0 24 -21 41 -42 41c-4 0 -8 0 -12 -1c-31 -9 -77 -40 -114 -64s-84 -53 -104 -78c-7 -8 -11 -18 -11 -28c0 -24 21 -41 42 -41c4 0 8 0 12 1c31 9 78 40 115 64s84 53 104 78c7 8 10 18 10 28zM264 137c47 0 83 -21 83 -72c0 -19 -4 -37 -10 -56
c-12 -38 -32 -74 -65 -96c-54 -36 -113 -51 -188 -51c-47 0 -84 22 -84 73c0 19 5 37 11 56c12 38 31 74 64 96c54 36 114 50 189 50z" fill="currentColor"/>
<text transform="translate(56.0245, 14.1671)" font-family="Century Schoolbook L" font-size="2.4696" text-anchor="start" fill="currentColor">
<tspan>
heisst,</tspan>
</text>
<text transform="translate(56.3830, 11.3671)" font-family="Century Schoolbook L" font-size="2.4696" text-anchor="start" fill="currentColor">
<tspan>
Geist,</tspan>
</text>
<path transform="translate(59.7290, 3.5347) scale(0.0040, -0.0040)" d="M-67 48c0 37 30 67 67 67s67 -30 67 -67s-30 -67 -67 -67s-67 30 -67 67zM0 363c157 0 332 -176 332 -366c0 -9 -10 -15 -19 -15s-17 5 -19 18c-26 148 -146 262 -294 262s-268 -114 -294 -262c-2 -13 -10 -18 -19 -18s-19 6 -19 15c0 190 175 366 332 366z" fill="currentColor"/>
<path transform="translate(59.0340, 4.3607) scale(0.0040, -0.0040)" d="M315 65c0 24 -21 41 -42 41c-4 0 -8 0 -12 -1c-31 -9 -77 -40 -114 -64s-84 -53 -104 -78c-7 -8 -11 -18 -11 -28c0 -24 21 -41 42 -41c4 0 8 0 12 1c31 9 78 40 115 64s84 53 104 78c7 8 10 18 10 28zM264 137c47 0 83 -21 83 -72c0 -19 -4 -37 -10 -56
c-12 -38 -32 -74 -65 -96c-54 -36 -113 -51 -188 -51c-47 0 -84 22 -84 73c0 19 5 37 11 56c12 38 31 74 64 96c54 36 114 50 189 50z" fill="currentColor"/>
<rect transform="translate(52.2731, 20.8731)" x="-0.0650" y="-1.3122" width="0.1300" height="3.3122" ry="0.0400" fill="currentColor"/>
<path transform="translate(51.1621, 4.8607) scale(0.0040, -0.0040)" d="M-8 375c8 4 17 7 26 7s17 -3 25 -7l-3 -183l106 20h3c10 0 18 -7 18 -17l7 -570c-8 -4 -16 -7 -25 -7s-17 3 -25 7l3 183l-106 -20h-3c-10 0 -18 7 -18 17zM131 112l-92 -17l-3 -207l92 17z" fill="currentColor"/>
<rect transform="translate(65.7598, 20.8731)" x="-0.0650" y="-0.8122" width="0.1300" height="3.3122" ry="0.0400" fill="currentColor"/>
<rect transform="translate(65.7598, 5.8607)" x="-0.0650" y="-0.3122" width="0.1300" height="3.3122" ry="0.0400" fill="currentColor"/>
<path transform="translate(65.6948, 19.8731) scale(0.0040, -0.0040)" d="M220 138c56 0 109 -29 109 -91c0 -72 -56 -121 -103 -149c-36 -21 -76 -36 -117 -36c-56 0 -109 29 -109 91c0 72 56 121 103 149c36 21 76 36 117 36z" fill="currentColor"/>
<text transform="translate(64.3897, 14.1671)" font-family="Century Schoolbook L" font-size="2.4696" text-anchor="start" fill="currentColor">
<tspan>
mit</tspan>
</text>
<text transform="translate(64.1336, 11.3671)" font-family="Century Schoolbook L" font-size="2.4696" text-anchor="start" fill="currentColor">
<tspan>
und</tspan>
</text>
<path transform="translate(65.6948, 5.3607) scale(0.0040, -0.0040)" d="M220 138c56 0 109 -29 109 -91c0 -72 -56 -121 -103 -149c-36 -21 -76 -36 -117 -36c-56 0 -109 29 -109 91c0 72 56 121 103 149c36 21 76 36 117 36z" fill="currentColor"/>
<rect transform="translate(46.1782, 20.8731)" x="-0.0650" y="-1.3122" width="0.1300" height="3.3122" ry="0.0400" fill="currentColor"/>
<rect transform="translate(46.1782, 5.8607)" x="-0.0650" y="-1.2386" width="0.1300" height="3.2386" ry="0.0400" fill="currentColor"/>
<path transform="translate(46.1132, 28.0226) scale(0.0032, -0.0032)" d="M201 296c23 15 46 29 62 51c12 16 20 35 28 52c2 4 6 6 10 6c7 0 14 -5 14 -15v-233h76c11 0 16 -8 16 -16s-5 -16 -16 -16h-76v-2c0 -50 30 -97 77 -97c9 0 12 -7 12 -13s-3 -13 -12 -13c-46 0 -92 13 -138 13s-93 -13 -139 -13c-9 0 -12 7 -12 13s3 13 12 13
c47 0 77 47 77 97v2h-160c-26 0 -34 15 -34 25c0 3 1 6 2 7c79 91 131 205 131 325c0 10 7 18 15 18h3c24 -7 49 -13 74 -13s50 6 74 13c2 1 3 1 5 1c9 0 15 -7 15 -13c0 -2 0 -4 -2 -6l-283 -325h160v115c0 9 1 19 9 24z" fill="currentColor"/>
<path transform="translate(46.1132, 26.2178) scale(0.0032, -0.0032)" d="M173 256c-47 0 -50 -37 -50 -88v-27v-27c0 -51 3 -88 50 -88c56 0 58 50 58 115s-2 115 -58 115zM123 269c16 7 32 13 50 13c103 0 173 -45 173 -141s-70 -141 -173 -141c-113 0 -173 124 -173 250c0 129 75 250 194 250c72 0 139 -40 139 -106c0 -35 -29 -64 -64 -64
s-64 29 -64 64c0 23 38 25 38 48c0 22 -24 32 -49 32c-63 0 -73 -59 -73 -130c0 -24 2 -50 2 -75z" fill="currentColor"/>
<path transform="translate(46.1132, 19.3731) scale(0.0040, -0.0040)" d="M220 138c56 0 109 -29 109 -91c0 -72 -56 -121 -103 -149c-36 -21 -76 -36 -117 -36c-56 0 -109 29 -109 91c0 72 56 121 103 149c36 21 76 36 117 36z" fill="currentColor"/>
<text transform="translate(45.2376, 14.1671)" font-family="Century Schoolbook L" font-size="2.4696" text-anchor="start" fill="currentColor">
<tspan>
Va</tspan>
</text>
<text transform="translate(43.3085, 11.3671)" font-family="Century Schoolbook L" font-size="2.4696" text-anchor="start" fill="currentColor">
<tspan>
schwa</tspan>
</text>
<path transform="translate(46.1132, 4.3607) scale(0.0040, -0.0040)" d="M315 65c0 24 -21 41 -42 41c-4 0 -8 0 -12 -1c-31 -9 -77 -40 -114 -64s-84 -53 -104 -78c-7 -8 -11 -18 -11 -28c0 -24 21 -41 42 -41c4 0 8 0 12 1c31 9 78 40 115 64s84 53 104 78c7 8 10 18 10 28zM264 137c47 0 83 -21 83 -72c0 -19 -4 -37 -10 -56
c-12 -38 -32 -74 -65 -96c-54 -36 -113 -51 -188 -51c-47 0 -84 22 -84 73c0 19 5 37 11 56c12 38 31 74 64 96c54 36 114 50 189 50z" fill="currentColor"/>
<rect transform="translate(52.2731, 5.8607)" x="-0.0650" y="-0.8122" width="0.1300" height="3.3122" ry="0.0400" fill="currentColor"/>
<path transform="translate(52.2081, 26.2178) scale(0.0032, -0.0032)" d="M50 500c45 -8 91 -13 137 -13s92 5 137 13h4c10 0 17 -7 17 -13c0 -2 0 -3 -2 -5c-68 -68 -165 -97 -261 -97c-10 0 -18 -8 -18 -18v-86c28 28 66 40 105 40c116 0 187 -51 187 -161c0 -95 -92 -160 -193 -160c-83 0 -163 42 -163 116c0 35 29 64 64 64s64 -29 64 -64
c0 -24 -39 -29 -39 -53c0 -31 38 -37 74 -37c56 0 71 69 71 134c0 61 -12 129 -65 129c-42 0 -84 -9 -108 -42c-3 -5 -8 -7 -13 -7c-8 0 -17 6 -17 16v226c0 10 7 18 16 18h3z" fill="currentColor"/>
<path transform="translate(52.2081, 19.3731) scale(0.0040, -0.0040)" d="M220 138c56 0 109 -29 109 -91c0 -72 -56 -121 -103 -149c-36 -21 -76 -36 -117 -36c-56 0 -109 29 -109 91c0 72 56 121 103 149c36 21 76 36 117 36z" fill="currentColor"/>
<text transform="translate(51.2273, 14.1671)" font-family="Century Schoolbook L" font-size="2.4696" text-anchor="start" fill="currentColor">
<tspan>
ter</tspan>
</text>
<text transform="translate(50.4078, 11.3671)" font-family="Century Schoolbook L" font-size="2.4696" text-anchor="start" fill="currentColor">
<tspan>
cher</tspan>
</text>
<path transform="translate(52.2081, 4.8607) scale(0.0040, -0.0040)" d="M220 138c56 0 109 -29 109 -91c0 -72 -56 -121 -103 -149c-36 -21 -76 -36 -117 -36c-56 0 -109 29 -109 91c0 72 56 121 103 149c36 21 76 36 117 36z" fill="currentColor"/>
<rect transform="translate(49.2256, 20.8731)" x="-0.0650" y="-0.8122" width="0.1300" height="3.3122" ry="0.0400" fill="currentColor"/>
<path transform="translate(49.1606, 19.8731) scale(0.0040, -0.0040)" d="M220 138c56 0 109 -29 109 -91c0 -72 -56 -121 -103 -149c-36 -21 -76 -36 -117 -36c-56 0 -109 29 -109 91c0 72 56 121 103 149c36 21 76 36 117 36z" fill="currentColor"/>
</svg>
