<svg xmlns="http://www.w3.org/2000/svg" xmlns:xlink="http://www.w3.org/1999/xlink" version="1.2" width="279.66mm" height="46.86mm" viewBox="-1.6831 -0.0000 176.8256 29.6274">
<text transform="translate(165.5445, 1.5934)" font-family="Century Schoolbook L" font-size="2.2000" text-anchor="start" fill="currentColor">
<tspan>
BWV 600</tspan>
</text>
<rect transform="translate(49.8044, 1.6313)" x="0.0000" y="6.6538" width="0.2039" height="5.7397" ry="0.0000" fill="currentColor"/>
<rect transform="translate(49.8044, 16.0248)" x="0.0000" y="-2.0537" width="0.2039" height="4.0537" ry="0.0000" fill="currentColor"/>
<rect transform="translate(174.9386, 27.1274)" x="0.0000" y="-2.0000" width="0.2039" height="4.0000" ry="0.0000" fill="currentColor"/>
<rect transform="translate(174.9386, 1.6313)" x="0.0000" y="6.6538" width="0.2039" height="5.7397" ry="0.0000" fill="currentColor"/>
<rect transform="translate(174.9386, 16.0248)" x="0.0000" y="-2.0537" width="0.2039" height="4.0537" ry="0.0000" fill="currentColor"/>
<rect transform="translate(49.8044, 6.2315)" x="0.0000" y="-2.0000" width="0.2039" height="4.0537" ry="0.0000" fill="currentColor"/>
<rect transform="translate(174.9386, 6.2315)" x="0.0000" y="-2.0000" width="0.2039" height="4.0537" ry="0.0000" fill="currentColor"/>
<rect transform="translate(143.3464, 6.2315)" x="0.0000" y="-2.0000" width="0.2039" height="4.0537" ry="0.0000" fill="currentColor"/>
<rect transform="translate(81.1493, 27.1274)" x="0.0000" y="-2.0000" width="0.2039" height="4.0000" ry="0.0000" fill="currentColor"/>
<rect transform="translate(143.3464, 16.0248)" x="0.0000" y="-2.0537" width="0.2039" height="4.0537" ry="0.0000" fill="currentColor"/>
<rect transform="translate(81.1493, 1.6313)" x="0.0000" y="6.6538" width="0.2039" height="5.7397" ry="0.0000" fill="currentColor"/>
<rect transform="translate(81.1493, 16.0248)" x="0.0000" y="-2.0537" width="0.2039" height="4.0537" ry="0.0000" fill="currentColor"/>
<rect transform="translate(143.3464, 1.6313)" x="0.0000" y="6.6538" width="0.2039" height="5.7397" ry="0.0000" fill="currentColor"/>
<rect transform="translate(143.3464, 27.1274)" x="0.0000" y="-2.0000" width="0.2039" height="4.0000" ry="0.0000" fill="currentColor"/>
<rect transform="translate(81.1493, 6.2315)" x="0.0000" y="-2.0000" width="0.2039" height="4.0537" ry="0.0000" fill="currentColor"/>
<rect transform="translate(112.6144, 6.2315)" x="0.0000" y="-2.0000" width="0.2039" height="4.0537" ry="0.0000" fill="currentColor"/>
<rect transform="translate(112.6144, 16.0248)" x="0.0000" y="-2.0537" width="0.2039" height="4.0537" ry="0.0000" fill="currentColor"/>
<rect transform="translate(112.6144, 27.1274)" x="0.0000" y="-2.0000" width="0.2039" height="4.0000" ry="0.0000" fill="currentColor"/>
<rect transform="translate(112.6144, 1.6313)" x="0.0000" y="6.6538" width="0.2039" height="5.7397" ry="0.0000" fill="currentColor"/>
<rect transform="translate(0.0000, 9.2315)" x="27.4074" y="-0.1037" width="1.9735" height="0.2073" ry="0.1037" fill="currentColor"/>
<rect transform="translate(0.0000, 9.2315)" x="37.1044" y="-0.1037" width="1.9735" height="0.2073" ry="0.1037" fill="currentColor"/>
<rect transform="translate(0.0000, 9.2315)" x="39.5286" y="-0.1037" width="1.9735" height="0.2073" ry="0.1037" fill="currentColor"/>
<rect transform="translate(0.0000, 9.2315)" x="44.6270" y="-0.1037" width="1.9735" height="0.2073" ry="0.1037" fill="currentColor"/>
<rect transform="translate(0.0000, 9.2315)" x="47.0513" y="-0.1037" width="1.9735" height="0.2073" ry="0.1037" fill="currentColor"/>
<rect transform="translate(0.0000, 9.2315)" x="50.6592" y="-0.1037" width="1.9735" height="0.2073" ry="0.1037" fill="currentColor"/>
<rect transform="translate(0.0000, 10.2315)" x="50.6592" y="-0.1037" width="1.9735" height="0.2073" ry="0.1037" fill="currentColor"/>
<rect transform="translate(0.0000, 9.2315)" x="63.4717" y="-0.1037" width="1.9735" height="0.2073" ry="0.1037" fill="currentColor"/>
<line transform="translate(9.4843, 8.2315)" stroke-linejoin="round" stroke-linecap="round" stroke-width="0.1073" stroke="currentColor" x1="0.0537" y1="-0.0000" x2="165.6046" y2="-0.0000"/>
<line transform="translate(9.4843, 7.2315)" stroke-linejoin="round" stroke-linecap="round" stroke-width="0.1073" stroke="currentColor" x1="0.0537" y1="-0.0000" x2="165.6046" y2="-0.0000"/>
<line transform="translate(9.4843, 6.2315)" stroke-linejoin="round" stroke-linecap="round" stroke-width="0.1073" stroke="currentColor" x1="0.0537" y1="-0.0000" x2="165.6046" y2="-0.0000"/>
<line transform="translate(9.4843, 5.2315)" stroke-linejoin="round" stroke-linecap="round" stroke-width="0.1073" stroke="currentColor" x1="0.0537" y1="-0.0000" x2="165.6046" y2="-0.0000"/>
<line transform="translate(9.4843, 4.2315)" stroke-linejoin="round" stroke-linecap="round" stroke-width="0.1073" stroke="currentColor" x1="0.0537" y1="-0.0000" x2="165.6046" y2="-0.0000"/>
<rect transform="translate(0.0000, 24.1274)" x="113.3268" y="-0.1037" width="2.9472" height="0.2073" ry="0.1037" fill="currentColor"/>
<rect transform="translate(0.0000, 24.1274)" x="133.3633" y="-0.1037" width="2.0913" height="0.2073" ry="0.1037" fill="currentColor"/>
<rect transform="translate(0.0000, 24.1274)" x="145.1518" y="-0.1037" width="2.0913" height="0.2073" ry="0.1037" fill="currentColor"/>
<line transform="translate(9.4843, 18.0248)" stroke-linejoin="round" stroke-linecap="round" stroke-width="0.1073" stroke="currentColor" x1="0.0537" y1="-0.0000" x2="165.6046" y2="-0.0000"/>
<line transform="translate(9.4843, 17.0248)" stroke-linejoin="round" stroke-linecap="round" stroke-width="0.1073" stroke="currentColor" x1="0.0537" y1="-0.0000" x2="165.6046" y2="-0.0000"/>
<line transform="translate(9.4843, 16.0248)" stroke-linejoin="round" stroke-linecap="round" stroke-width="0.1073" stroke="currentColor" x1="0.0537" y1="-0.0000" x2="165.6046" y2="-0.0000"/>
<line transform="translate(9.4843, 15.0248)" stroke-linejoin="round" stroke-linecap="round" stroke-width="0.1073" stroke="currentColor" x1="0.0537" y1="-0.0000" x2="165.6046" y2="-0.0000"/>
<line transform="translate(9.4843, 14.0248)" stroke-linejoin="round" stroke-linecap="round" stroke-width="0.1073" stroke="currentColor" x1="0.0537" y1="-0.0000" x2="165.6046" y2="-0.0000"/>
<line transform="translate(9.4843, 29.1274)" stroke-linejoin="round" stroke-linecap="round" stroke-width="0.1073" stroke="currentColor" x1="0.0537" y1="-0.0000" x2="165.6046" y2="-0.0000"/>
<line transform="translate(9.4843, 28.1274)" stroke-linejoin="round" stroke-linecap="round" stroke-width="0.1073" stroke="currentColor" x1="0.0537" y1="-0.0000" x2="165.6046" y2="-0.0000"/>
<line transform="translate(9.4843, 27.1274)" stroke-linejoin="round" stroke-linecap="round" stroke-width="0.1073" stroke="currentColor" x1="0.0537" y1="-0.0000" x2="165.6046" y2="-0.0000"/>
<line transform="translate(9.4843, 26.1274)" stroke-linejoin="round" stroke-linecap="round" stroke-width="0.1073" stroke="currentColor" x1="0.0537" y1="-0.0000" x2="165.6046" y2="-0.0000"/>
<line transform="translate(9.4843, 25.1274)" stroke-linejoin="round" stroke-linecap="round" stroke-width="0.1073" stroke="currentColor" x1="0.0537" y1="-0.0000" x2="165.6046" y2="-0.0000"/>
<rect transform="translate(49.8044, 27.1274)" x="0.0000" y="-2.0000" width="0.2039" height="4.0000" ry="0.0000" fill="currentColor"/>
<rect transform="translate(118.7362, 16.0248)" x="-0.0697" y="-1.8189" width="0.1395" height="3.3189" ry="0.0444" fill="currentColor"/>
<path transform="translate(121.0907, 7.7315) scale(0.0040, -0.0040)" d="M217 139c57 0 112 -31 112 -94c0 -72 -55 -121 -102 -149c-35 -21 -74 -35 -115 -35c-57 0 -112 31 -112 94c0 72 55 121 102 149c35 21 74 35 115 35z" fill="currentColor"/>
<rect transform="translate(121.1605, 6.2315)" x="-0.0697" y="1.6811" width="0.1395" height="2.1296" ry="0.0444" fill="currentColor"/>
<path transform="translate(123.5149, 8.2315) scale(0.0040, -0.0040)" d="M217 139c57 0 112 -31 112 -94c0 -72 -55 -121 -102 -149c-35 -21 -74 -35 -115 -35c-57 0 -112 31 -112 94c0 72 55 121 102 149c35 21 74 35 115 35z" fill="currentColor"/>
<path transform="translate(123.5149, 14.5248) scale(0.0040, -0.0040)" d="M217 139c57 0 112 -31 112 -94c0 -72 -55 -121 -102 -149c-35 -21 -74 -35 -115 -35c-57 0 -112 31 -112 94c0 72 55 121 102 149c35 21 74 35 115 35z" fill="currentColor"/>
<rect transform="translate(123.5847, 6.2315)" x="-0.0697" y="2.1811" width="0.1395" height="2.3189" ry="0.0444" fill="currentColor"/>
<path transform="translate(136.1361, 7.2315) scale(0.0040, -0.0040)" d="M217 139c57 0 112 -31 112 -94c0 -72 -55 -121 -102 -149c-35 -21 -74 -35 -115 -35c-57 0 -112 31 -112 94c0 72 55 121 102 149c35 21 74 35 115 35z" fill="currentColor"/>
<rect transform="translate(123.5847, 16.0248)" x="-0.0697" y="-1.3189" width="0.1395" height="3.3189" ry="0.0444" fill="currentColor"/>
<rect transform="translate(136.2058, 6.2315)" x="-0.0697" y="1.1811" width="0.1395" height="2.6952" ry="0.0444" fill="currentColor"/>
<path transform="translate(116.2422, 6.7315) scale(0.0040, -0.0040)" d="M217 139c57 0 112 -31 112 -94c0 -72 -55 -121 -102 -149c-35 -21 -74 -35 -115 -35c-57 0 -112 31 -112 94c0 72 55 121 102 149c35 21 74 35 115 35z" fill="currentColor"/>
<rect transform="translate(116.3120, 6.2315)" x="-0.0697" y="0.6811" width="0.1395" height="2.9244" ry="0.0444" fill="currentColor"/>
<path transform="translate(118.6665, 7.2315) scale(0.0040, -0.0040)" d="M217 139c57 0 112 -31 112 -94c0 -72 -55 -121 -102 -149c-35 -21 -74 -35 -115 -35c-57 0 -112 31 -112 94c0 72 55 121 102 149c35 21 74 35 115 35z" fill="currentColor"/>
<path transform="translate(118.6665, 14.0248) scale(0.0040, -0.0040)" d="M217 139c57 0 112 -31 112 -94c0 -72 -55 -121 -102 -149c-35 -21 -74 -35 -115 -35c-57 0 -112 31 -112 94c0 72 55 121 102 149c35 21 74 35 115 35z" fill="currentColor"/>
<rect transform="translate(118.7362, 6.2315)" x="-0.0697" y="1.1811" width="0.1395" height="2.5270" ry="0.0444" fill="currentColor"/>
<path transform="translate(131.0376, 8.2315) scale(0.0040, -0.0040)" d="M217 139c57 0 112 -31 112 -94c0 -72 -55 -121 -102 -149c-35 -21 -74 -35 -115 -35c-57 0 -112 31 -112 94c0 72 55 121 102 149c35 21 74 35 115 35z" fill="currentColor"/>
<rect transform="translate(131.1074, 6.2315)" x="-0.0697" y="2.1811" width="0.1395" height="2.3189" ry="0.0444" fill="currentColor"/>
<path transform="translate(133.7118, 6.7315) scale(0.0040, -0.0040)" d="M217 139c57 0 112 -31 112 -94c0 -72 -55 -121 -102 -149c-35 -21 -74 -35 -115 -35c-57 0 -112 31 -112 94c0 72 55 121 102 149c35 21 74 35 115 35z" fill="currentColor"/>
<path transform="translate(133.7118, 5.2315) scale(0.0040, -0.0040)" d="M364 0h-353c-6 0 -11 5 -11 11v134c0 6 5 11 11 11h353c6 0 11 -5 11 -11v-134c0 -6 -5 -11 -11 -11z" fill="currentColor"/>
<path transform="translate(133.7118, 15.0248) scale(0.0040, -0.0040)" d="M217 139c57 0 112 -31 112 -94c0 -72 -55 -121 -102 -149c-35 -21 -74 -35 -115 -35c-57 0 -112 31 -112 94c0 72 55 121 102 149c35 21 74 35 115 35z" fill="currentColor"/>
<rect transform="translate(133.7816, 16.0248)" x="-0.0697" y="-0.8189" width="0.1395" height="3.3189" ry="0.0444" fill="currentColor"/>
<path transform="translate(133.7118, 23.6274) scale(0.0040, -0.0040)" d="M314 64c0 24 -21 41 -42 41c-4 0 -8 -1 -12 -2c-30 -9 -76 -38 -112 -62s-83 -54 -103 -78c-7 -8 -10 -17 -10 -27c0 -24 20 -41 41 -41c4 0 8 1 12 2c30 9 77 38 113 62s82 54 102 78c7 8 11 17 11 27zM262 139c48 0 87 -22 87 -75c0 -19 -5 -39 -11 -57
c-12 -38 -31 -74 -64 -96c-54 -36 -113 -50 -187 -50c-48 0 -87 22 -87 75c0 19 4 39 10 57c12 38 31 74 64 96c54 36 114 50 188 50z" fill="currentColor"/>
<rect transform="translate(133.7816, 6.2315)" x="-0.0697" y="0.6811" width="0.1395" height="3.1343" ry="0.0444" fill="currentColor"/>
<path transform="translate(126.1892, 7.2315) scale(0.0040, -0.0040)" d="M217 139c57 0 112 -31 112 -94c0 -72 -55 -121 -102 -149c-35 -21 -74 -35 -115 -35c-57 0 -112 31 -112 94c0 72 55 121 102 149c35 21 74 35 115 35z" fill="currentColor"/>
<rect transform="translate(126.2589, 6.2315)" x="-0.0697" y="1.1811" width="0.1395" height="3.3189" ry="0.0444" fill="currentColor"/>
<rect transform="translate(133.7816, 27.1274)" x="-0.0697" y="-3.2445" width="0.1395" height="3.2445" ry="0.0444" fill="currentColor"/>
<path transform="translate(128.6134, 7.7315) scale(0.0040, -0.0040)" d="M217 139c57 0 112 -31 112 -94c0 -72 -55 -121 -102 -149c-35 -21 -74 -35 -115 -35c-57 0 -112 31 -112 94c0 72 55 121 102 149c35 21 74 35 115 35z" fill="currentColor"/>
<path transform="translate(128.6134, 14.0248) scale(0.0040, -0.0040)" d="M217 139c57 0 112 -31 112 -94c0 -72 -55 -121 -102 -149c-35 -21 -74 -35 -115 -35c-57 0 -112 31 -112 94c0 72 55 121 102 149c35 21 74 35 115 35z" fill="currentColor"/>
<rect transform="translate(128.6831, 6.2315)" x="-0.0697" y="1.6811" width="0.1395" height="2.8189" ry="0.0444" fill="currentColor"/>
<rect transform="translate(128.6831, 16.0248)" x="-0.0697" y="-1.8189" width="0.1395" height="3.3189" ry="0.0444" fill="currentColor"/>
<path transform="translate(102.6941, 7.7315) scale(0.0040, -0.0040)" d="M217 139c57 0 112 -31 112 -94c0 -72 -55 -121 -102 -149c-35 -21 -74 -35 -115 -35c-57 0 -112 31 -112 94c0 72 55 121 102 149c35 21 74 35 115 35z" fill="currentColor"/>
<path transform="translate(102.6941, 5.2315) scale(0.0040, -0.0040)" d="M314 64c0 24 -21 41 -42 41c-4 0 -8 -1 -12 -2c-30 -9 -76 -38 -112 -62s-83 -54 -103 -78c-7 -8 -10 -17 -10 -27c0 -24 20 -41 41 -41c4 0 8 1 12 2c30 9 77 38 113 62s82 54 102 78c7 8 11 17 11 27zM262 139c48 0 87 -22 87 -75c0 -19 -5 -39 -11 -57
c-12 -38 -31 -74 -64 -96c-54 -36 -113 -50 -187 -50c-48 0 -87 22 -87 75c0 19 4 39 10 57c12 38 31 74 64 96c54 36 114 50 188 50z" fill="currentColor"/>
<path transform="translate(102.6941, 16.0248) scale(0.0040, -0.0040)" d="M217 139c57 0 112 -31 112 -94c0 -72 -55 -121 -102 -149c-35 -21 -74 -35 -115 -35c-57 0 -112 31 -112 94c0 72 55 121 102 149c35 21 74 35 115 35z" fill="currentColor"/>
<path transform="translate(102.6941, 24.6274) scale(0.0040, -0.0040)" d="M314 64c0 24 -21 41 -42 41c-4 0 -8 -1 -12 -2c-30 -9 -76 -38 -112 -62s-83 -54 -103 -78c-7 -8 -10 -17 -10 -27c0 -24 20 -41 41 -41c4 0 8 1 12 2c30 9 77 38 113 62s82 54 102 78c7 8 11 17 11 27zM262 139c48 0 87 -22 87 -75c0 -19 -5 -39 -11 -57
c-12 -38 -31 -74 -64 -96c-54 -36 -113 -50 -187 -50c-48 0 -87 22 -87 75c0 19 4 39 10 57c12 38 31 74 64 96c54 36 114 50 188 50z" fill="currentColor"/>
<rect transform="translate(102.7639, 6.2315)" x="-0.0697" y="1.6811" width="0.1395" height="2.1325" ry="0.0444" fill="currentColor"/>
<rect transform="translate(104.0185, 6.2315)" x="-0.0697" y="-4.0000" width="0.1395" height="2.7445" ry="0.0444" fill="currentColor"/>
<rect transform="translate(102.7639, 16.0248)" x="-0.0697" y="0.1811" width="0.1395" height="3.1522" ry="0.0444" fill="currentColor"/>
<rect transform="translate(102.7639, 27.1274)" x="-0.0697" y="-2.2445" width="0.1395" height="3.2445" ry="0.0444" fill="currentColor"/>
<path transform="translate(101.6441, 24.6274) scale(0.0040, -0.0040)" d="M-8 375c8 5 17 7 26 7s18 -2 26 -7l-3 -187l104 21h4c10 0 18 -8 18 -18l8 -566c-8 -5 -17 -7 -26 -7s-18 2 -26 7l2 187l-103 -21h-4c-10 0 -18 8 -18 18zM130 111l-90 -18l-3 -204l90 18z" fill="currentColor"/>
<path transform="translate(95.4214, 6.2315) scale(0.0040, -0.0040)" d="M217 139c57 0 112 -31 112 -94c0 -72 -55 -121 -102 -149c-35 -21 -74 -35 -115 -35c-57 0 -112 31 -112 94c0 72 55 121 102 149c35 21 74 35 115 35z" fill="currentColor"/>
<rect transform="translate(95.4912, 6.2315)" x="-0.0697" y="0.1811" width="0.1395" height="3.1108" ry="0.0444" fill="currentColor"/>
<path transform="translate(97.8457, 6.7315) scale(0.0040, -0.0040)" d="M217 139c57 0 112 -31 112 -94c0 -72 -55 -121 -102 -149c-35 -21 -74 -35 -115 -35c-57 0 -112 31 -112 94c0 72 55 121 102 149c35 21 74 35 115 35z" fill="currentColor"/>
<path transform="translate(97.8457, 15.0248) scale(0.0040, -0.0040)" d="M217 139c57 0 112 -31 112 -94c0 -72 -55 -121 -102 -149c-35 -21 -74 -35 -115 -35c-57 0 -112 31 -112 94c0 72 55 121 102 149c35 21 74 35 115 35z" fill="currentColor"/>
<rect transform="translate(97.9154, 6.2315)" x="-0.0697" y="0.6811" width="0.1395" height="2.7133" ry="0.0444" fill="currentColor"/>
<rect transform="translate(97.9154, 16.0248)" x="-0.0697" y="-0.8189" width="0.1395" height="3.3189" ry="0.0444" fill="currentColor"/>
<path transform="translate(100.2699, 7.2315) scale(0.0040, -0.0040)" d="M217 139c57 0 112 -31 112 -94c0 -72 -55 -121 -102 -149c-35 -21 -74 -35 -115 -35c-57 0 -112 31 -112 94c0 72 55 121 102 149c35 21 74 35 115 35z" fill="currentColor"/>
<rect transform="translate(100.3396, 6.2315)" x="-0.0697" y="1.1811" width="0.1395" height="2.3159" ry="0.0444" fill="currentColor"/>
<path transform="translate(113.8180, 15.5248) scale(0.0040, -0.0040)" d="M217 139c57 0 112 -31 112 -94c0 -72 -55 -121 -102 -149c-35 -21 -74 -35 -115 -35c-57 0 -112 31 -112 94c0 72 55 121 102 149c35 21 74 35 115 35z" fill="currentColor"/>
<path transform="translate(113.8180, 24.1274) scale(0.0040, -0.0040)" d="M214 111c-49 0 -68 -43 -68 -88c0 -75 57 -134 132 -134c49 0 67 43 67 88c0 75 -56 134 -131 134zM491 0c0 -43 -34 -76 -72 -98c-53 -30 -113 -41 -173 -41s-121 11 -174 41c-38 22 -72 55 -72 98s34 76 72 98c53 30 114 41 174 41s120 -11 173 -41
c38 -22 72 -55 72 -98z" fill="currentColor"/>
<rect transform="translate(113.8878, 6.2315)" x="-0.0697" y="1.1811" width="0.1395" height="2.3218" ry="0.0444" fill="currentColor"/>
<rect transform="translate(113.8878, 16.0248)" x="-0.0697" y="-0.3189" width="0.1395" height="3.3189" ry="0.0444" fill="currentColor"/>
<path transform="translate(105.3683, 6.7315) scale(0.0040, -0.0040)" d="M217 139c57 0 112 -31 112 -94c0 -72 -55 -121 -102 -149c-35 -21 -74 -35 -115 -35c-57 0 -112 31 -112 94c0 72 55 121 102 149c35 21 74 35 115 35z" fill="currentColor"/>
<rect transform="translate(105.4381, 6.2315)" x="-0.0697" y="0.6811" width="0.1395" height="3.1325" ry="0.0444" fill="currentColor"/>
<path transform="translate(107.7926, 7.2315) scale(0.0040, -0.0040)" d="M217 139c57 0 112 -31 112 -94c0 -72 -55 -121 -102 -149c-35 -21 -74 -35 -115 -35c-57 0 -112 31 -112 94c0 72 55 121 102 149c35 21 74 35 115 35z" fill="currentColor"/>
<path transform="translate(107.7926, 14.5248) scale(0.0040, -0.0040)" d="M217 139c57 0 112 -31 112 -94c0 -72 -55 -121 -102 -149c-35 -21 -74 -35 -115 -35c-57 0 -112 31 -112 94c0 72 55 121 102 149c35 21 74 35 115 35z" fill="currentColor"/>
<rect transform="translate(107.8623, 6.2315)" x="-0.0697" y="1.1811" width="0.1395" height="2.6325" ry="0.0444" fill="currentColor"/>
<rect transform="translate(107.8623, 16.0248)" x="-0.0697" y="-1.3189" width="0.1395" height="3.3189" ry="0.0444" fill="currentColor"/>
<path transform="translate(110.2168, 7.7315) scale(0.0040, -0.0040)" d="M217 139c57 0 112 -31 112 -94c0 -72 -55 -121 -102 -149c-35 -21 -74 -35 -115 -35c-57 0 -112 31 -112 94c0 72 55 121 102 149c35 21 74 35 115 35z" fill="currentColor"/>
<rect transform="translate(110.2865, 6.2315)" x="-0.0697" y="1.6811" width="0.1395" height="2.1325" ry="0.0444" fill="currentColor"/>
<path transform="translate(113.8180, 7.2315) scale(0.0040, -0.0040)" d="M217 139c57 0 112 -31 112 -94c0 -72 -55 -121 -102 -149c-35 -21 -74 -35 -115 -35c-57 0 -112 31 -112 94c0 72 55 121 102 149c35 21 74 35 115 35z" fill="currentColor"/>
<path transform="translate(113.8180, 5.7315) scale(0.0040, -0.0040)" d="M214 111c-49 0 -68 -43 -68 -88c0 -75 57 -134 132 -134c49 0 67 43 67 88c0 75 -56 134 -131 134zM491 0c0 -43 -34 -76 -72 -98c-53 -30 -113 -41 -173 -41s-121 11 -174 41c-38 22 -72 55 -72 98s34 76 72 98c53 30 114 41 174 41s120 -11 173 -41
c38 -22 72 -55 72 -98z" fill="currentColor"/>
<path transform="translate(114.8004, 3.8978) scale(0.0040, -0.0040)" d="M-69 48c0 38 31 69 69 69s69 -31 69 -69s-31 -68 -69 -68s-69 30 -69 68zM0 364c158 0 333 -176 333 -367c0 -10 -10 -17 -20 -17c-9 0 -19 6 -21 20c-26 147 -145 261 -292 261s-266 -114 -292 -261c-2 -14 -12 -20 -21 -20c-10 0 -20 7 -20 17c0 191 176 367 333 367z
" fill="currentColor"/>
<path transform="translate(165.1441, 4.7315) scale(0.0040, -0.0040)" d="M314 64c0 24 -21 41 -42 41c-4 0 -8 -1 -12 -2c-30 -9 -76 -38 -112 -62s-83 -54 -103 -78c-7 -8 -10 -17 -10 -27c0 -24 20 -41 41 -41c4 0 8 1 12 2c30 9 77 38 113 62s82 54 102 78c7 8 11 17 11 27zM262 139c48 0 87 -22 87 -75c0 -19 -5 -39 -11 -57
c-12 -38 -31 -74 -64 -96c-54 -36 -113 -50 -187 -50c-48 0 -87 22 -87 75c0 19 4 39 10 57c12 38 31 74 64 96c54 36 114 50 188 50z" fill="currentColor"/>
<path transform="translate(165.1441, 14.5248) scale(0.0040, -0.0040)" d="M217 139c57 0 112 -31 112 -94c0 -72 -55 -121 -102 -149c-35 -21 -74 -35 -115 -35c-57 0 -112 31 -112 94c0 72 55 121 102 149c35 21 74 35 115 35z" fill="currentColor"/>
<path transform="translate(165.1441, 27.1274) scale(0.0040, -0.0040)" d="M364 0h-353c-6 0 -11 5 -11 11v134c0 6 5 11 11 11h353c6 0 11 -5 11 -11v-134c0 -6 -5 -11 -11 -11z" fill="currentColor"/>
<rect transform="translate(165.2139, 6.2315)" x="-0.0697" y="0.1811" width="0.1395" height="2.8189" ry="0.0444" fill="currentColor"/>
<rect transform="translate(166.4686, 6.2315)" x="-0.0697" y="-4.3333" width="0.1395" height="2.5779" ry="0.0444" fill="currentColor"/>
<rect transform="translate(165.2139, 16.0248)" x="-0.0697" y="-1.3189" width="0.1395" height="3.3189" ry="0.0444" fill="currentColor"/>
<path transform="translate(167.8184, 5.2315) scale(0.0040, -0.0040)" d="M217 139c57 0 112 -31 112 -94c0 -72 -55 -121 -102 -149c-35 -21 -74 -35 -115 -35c-57 0 -112 31 -112 94c0 72 55 121 102 149c35 21 74 35 115 35z" fill="currentColor"/>
<rect transform="translate(167.8881, 6.2315)" x="-0.0697" y="-0.8189" width="0.1395" height="3.8189" ry="0.0444" fill="currentColor"/>
<rect transform="translate(157.9412, 6.2315)" x="-0.0697" y="-0.3189" width="0.1395" height="3.2579" ry="0.0444" fill="currentColor"/>
<path transform="translate(160.2957, 6.2315) scale(0.0040, -0.0040)" d="M217 139c57 0 112 -31 112 -94c0 -72 -55 -121 -102 -149c-35 -21 -74 -35 -115 -35c-57 0 -112 31 -112 94c0 72 55 121 102 149c35 21 74 35 115 35z" fill="currentColor"/>
<path transform="translate(160.2957, 15.0248) scale(0.0040, -0.0040)" d="M217 139c57 0 112 -31 112 -94c0 -72 -55 -121 -102 -149c-35 -21 -74 -35 -115 -35c-57 0 -112 31 -112 94c0 72 55 121 102 149c35 21 74 35 115 35z" fill="currentColor"/>
<rect transform="translate(160.3654, 6.2315)" x="-0.0697" y="0.1811" width="0.1395" height="2.8798" ry="0.0444" fill="currentColor"/>
<rect transform="translate(160.3654, 16.0248)" x="-0.0697" y="-0.8189" width="0.1395" height="3.3189" ry="0.0444" fill="currentColor"/>
<path transform="translate(159.2457, 15.0248) scale(0.0040, -0.0040)" d="M-8 375c8 5 17 7 26 7s18 -2 26 -7l-3 -187l104 21h4c10 0 18 -8 18 -18l8 -566c-8 -5 -17 -7 -26 -7s-18 2 -26 7l2 187l-103 -21h-4c-10 0 -18 8 -18 18zM130 111l-90 -18l-3 -204l90 18z" fill="currentColor"/>
<path transform="translate(162.7199, 6.7315) scale(0.0040, -0.0040)" d="M217 139c57 0 112 -31 112 -94c0 -72 -55 -121 -102 -149c-35 -21 -74 -35 -115 -35c-57 0 -112 31 -112 94c0 72 55 121 102 149c35 21 74 35 115 35z" fill="currentColor"/>
<rect transform="translate(162.7896, 6.2315)" x="-0.0697" y="0.6811" width="0.1395" height="2.5017" ry="0.0444" fill="currentColor"/>
<path transform="translate(165.1441, 6.2315) scale(0.0040, -0.0040)" d="M217 139c57 0 112 -31 112 -94c0 -72 -55 -121 -102 -149c-35 -21 -74 -35 -115 -35c-57 0 -112 31 -112 94c0 72 55 121 102 149c35 21 74 35 115 35z" fill="currentColor"/>
<polygon transform="translate(165.1441, 9.2315)" stroke-linejoin="round" stroke-linecap="round" stroke-width="0.0889" fill="currentColor" stroke="currentColor" points="7.6177 -0.1956 7.6177 0.1956 0.0444 0.1956 0.0444 -0.1956"/>
<polygon transform="translate(155.4472, 9.0451)" stroke-linejoin="round" stroke-linecap="round" stroke-width="0.0889" fill="currentColor" stroke="currentColor" points="7.3677 0.1771 7.3677 0.5683 0.0444 0.1956 0.0444 -0.1956"/>
<polygon transform="translate(145.5003, 9.2315)" stroke-linejoin="round" stroke-linecap="round" stroke-width="0.0889" fill="currentColor" stroke="currentColor" points="7.6177 -0.1956 7.6177 0.1956 0.0444 0.1956 0.0444 -0.1956"/>
<polygon transform="translate(133.7118, 10.0451)" stroke-linejoin="round" stroke-linecap="round" stroke-width="0.0889" fill="currentColor" stroke="currentColor" points="7.3677 -0.0092 7.3677 0.3819 0.0444 0.1956 0.0444 -0.1956"/>
<polygon transform="translate(123.5149, 10.7315)" stroke-linejoin="round" stroke-linecap="round" stroke-width="0.0889" fill="currentColor" stroke="currentColor" points="7.6177 -0.1956 7.6177 0.1956 0.0444 0.1956 0.0444 -0.1956"/>
<polygon transform="translate(113.8180, 9.7315)" stroke-linejoin="round" stroke-linecap="round" stroke-width="0.0889" fill="currentColor" stroke="currentColor" points="7.3677 0.1181 7.3677 0.5092 0.0444 0.1956 0.0444 -0.1956"/>
<polygon transform="translate(102.6941, 10.0451)" stroke-linejoin="round" stroke-linecap="round" stroke-width="0.0889" fill="currentColor" stroke="currentColor" points="7.6177 -0.1956 7.6177 0.1956 0.0444 0.1956 0.0444 -0.1956"/>
<polygon transform="translate(92.9972, 9.4178)" stroke-linejoin="round" stroke-linecap="round" stroke-width="0.0889" fill="currentColor" stroke="currentColor" points="7.3677 0.1181 7.3677 0.5092 0.0444 0.1956 0.0444 -0.1956"/>
<polygon transform="translate(82.1801, 10.7315)" stroke-linejoin="round" stroke-linecap="round" stroke-width="0.0889" fill="currentColor" stroke="currentColor" points="8.4879 -0.6956 8.4879 -0.3044 0.0444 0.1956 0.0444 -0.1956"/>
<polygon transform="translate(71.5147, 10.7315)" stroke-linejoin="round" stroke-linecap="round" stroke-width="0.0889" fill="currentColor" stroke="currentColor" points="7.3677 -0.5092 7.3677 -0.1181 0.0444 0.1956 0.0444 -0.1956"/>
<polygon transform="translate(61.3764, 11.7315)" stroke-linejoin="round" stroke-linecap="round" stroke-width="0.0889" fill="currentColor" stroke="currentColor" points="7.3677 -0.5092 7.3677 -0.1181 0.0444 0.1956 0.0444 -0.1956"/>
<polygon transform="translate(50.9881, 12.7315)" stroke-linejoin="round" stroke-linecap="round" stroke-width="0.0889" fill="currentColor" stroke="currentColor" points="8.0591 -1.1956 8.0591 -0.8044 0.0444 0.1956 0.0444 -0.1956"/>
<polygon transform="translate(39.8575, 12.0451)" stroke-linejoin="round" stroke-linecap="round" stroke-width="0.0889" fill="currentColor" stroke="currentColor" points="7.6177 -0.1956 7.6177 0.1956 0.0444 0.1956 0.0444 -0.1956"/>
<polygon transform="translate(30.1606, 11.4178)" stroke-linejoin="round" stroke-linecap="round" stroke-width="0.0889" fill="currentColor" stroke="currentColor" points="7.3677 0.1181 7.3677 0.5092 0.0444 0.1956 0.0444 -0.1956"/>
<polygon transform="translate(22.8879, 11.0451)" stroke-linejoin="round" stroke-linecap="round" stroke-width="0.0889" fill="currentColor" stroke="currentColor" points="4.9435 0.4908 4.9435 0.8819 0.0444 0.1956 0.0444 -0.1956"/>
<path transform="translate(170.2426, 5.7315) scale(0.0040, -0.0040)" d="M217 139c57 0 112 -31 112 -94c0 -72 -55 -121 -102 -149c-35 -21 -74 -35 -115 -35c-57 0 -112 31 -112 94c0 72 55 121 102 149c35 21 74 35 115 35z" fill="currentColor"/>
<path transform="translate(170.2426, 16.5248) scale(0.0040, -0.0040)" d="M217 139c57 0 112 -31 112 -94c0 -72 -55 -121 -102 -149c-35 -21 -74 -35 -115 -35c-57 0 -112 31 -112 94c0 72 55 121 102 149c35 21 74 35 115 35z" fill="currentColor"/>
<rect transform="translate(170.3123, 6.2315)" x="-0.0697" y="-0.3189" width="0.1395" height="3.3189" ry="0.0444" fill="currentColor"/>
<rect transform="translate(171.4885, 16.0248)" x="-0.0697" y="-3.0000" width="0.1395" height="3.3189" ry="0.0444" fill="currentColor"/>
<path transform="translate(172.6668, 6.2315) scale(0.0040, -0.0040)" d="M217 139c57 0 112 -31 112 -94c0 -72 -55 -121 -102 -149c-35 -21 -74 -35 -115 -35c-57 0 -112 31 -112 94c0 72 55 121 102 149c35 21 74 35 115 35z" fill="currentColor"/>
<rect transform="translate(172.7366, 6.2315)" x="-0.0697" y="0.1811" width="0.1395" height="2.8189" ry="0.0444" fill="currentColor"/>
<rect transform="translate(145.5700, 6.2315)" x="-0.0697" y="0.6811" width="0.1395" height="2.3189" ry="0.0444" fill="currentColor"/>
<rect transform="translate(145.5700, 16.0248)" x="-0.0697" y="-0.8189" width="0.1395" height="3.3189" ry="0.0444" fill="currentColor"/>
<path transform="translate(144.0503, 15.0248) scale(0.0040, -0.0040)" d="M217 -311c0 -11 -8 -19 -19 -19s-20 8 -20 19v142l-81 -30v-156c0 -11 -9 -20 -20 -20s-19 9 -19 20v142l-28 -11c-3 -1 -5 -1 -8 -1c-12 0 -22 10 -22 23v57c0 9 6 18 15 21l43 16v157l-28 -10c-3 -1 -5 -1 -8 -1c-12 0 -22 9 -22 22v57c0 9 6 18 15 21l43 16v157
c0 11 8 19 19 19s20 -8 20 -19v-142l81 30v156c0 11 9 20 20 20s19 -9 19 -20v-142l28 11c3 1 5 1 8 1c12 0 22 -10 22 -23v-57c0 -9 -6 -18 -15 -21l-43 -16v-157l28 10c3 1 5 1 8 1c12 0 22 -9 22 -22v-57c0 -9 -6 -18 -15 -21l-43 -16v-157zM97 64v-158l81 30v158z" fill="currentColor"/>
<rect transform="translate(145.5700, 27.1274)" x="-0.0697" y="-2.7445" width="0.1395" height="3.2445" ry="0.0444" fill="currentColor"/>
<path transform="translate(138.5603, 7.7315) scale(0.0040, -0.0040)" d="M217 139c57 0 112 -31 112 -94c0 -72 -55 -121 -102 -149c-35 -21 -74 -35 -115 -35c-57 0 -112 31 -112 94c0 72 55 121 102 149c35 21 74 35 115 35z" fill="currentColor"/>
<path transform="translate(138.5603, 13.5248) scale(0.0040, -0.0040)" d="M217 139c57 0 112 -31 112 -94c0 -72 -55 -121 -102 -149c-35 -21 -74 -35 -115 -35c-57 0 -112 31 -112 94c0 72 55 121 102 149c35 21 74 35 115 35z" fill="currentColor"/>
<rect transform="translate(138.6300, 6.2315)" x="-0.0697" y="1.6811" width="0.1395" height="2.2562" ry="0.0444" fill="currentColor"/>
<rect transform="translate(138.6300, 16.0248)" x="-0.0697" y="-2.3189" width="0.1395" height="3.3189" ry="0.0444" fill="currentColor"/>
<path transform="translate(140.9845, 7.2315) scale(0.0040, -0.0040)" d="M217 139c57 0 112 -31 112 -94c0 -72 -55 -121 -102 -149c-35 -21 -74 -35 -115 -35c-57 0 -112 31 -112 94c0 72 55 121 102 149c35 21 74 35 115 35z" fill="currentColor"/>
<rect transform="translate(141.0543, 6.2315)" x="-0.0697" y="1.1811" width="0.1395" height="2.8171" ry="0.0444" fill="currentColor"/>
<path transform="translate(145.5003, 6.7315) scale(0.0040, -0.0040)" d="M217 139c57 0 112 -31 112 -94c0 -72 -55 -121 -102 -149c-35 -21 -74 -35 -115 -35c-57 0 -112 31 -112 94c0 72 55 121 102 149c35 21 74 35 115 35z" fill="currentColor"/>
<path transform="translate(145.5003, 5.2315) scale(0.0040, -0.0040)" d="M214 111c-49 0 -68 -43 -68 -88c0 -75 57 -134 132 -134c49 0 67 43 67 88c0 75 -56 134 -131 134zM491 0c0 -43 -34 -76 -72 -98c-53 -30 -113 -41 -173 -41s-121 11 -174 41c-38 22 -72 55 -72 98s34 76 72 98c53 30 114 41 174 41s120 -11 173 -41
c38 -22 72 -55 72 -98z" fill="currentColor"/>
<path transform="translate(145.5003, 15.0248) scale(0.0040, -0.0040)" d="M217 139c57 0 112 -31 112 -94c0 -72 -55 -121 -102 -149c-35 -21 -74 -35 -115 -35c-57 0 -112 31 -112 94c0 72 55 121 102 149c35 21 74 35 115 35z" fill="currentColor"/>
<path transform="translate(145.5003, 24.1274) scale(0.0040, -0.0040)" d="M314 64c0 24 -21 41 -42 41c-4 0 -8 -1 -12 -2c-30 -9 -76 -38 -112 -62s-83 -54 -103 -78c-7 -8 -10 -17 -10 -27c0 -24 20 -41 41 -41c4 0 8 1 12 2c30 9 77 38 113 62s82 54 102 78c7 8 11 17 11 27zM262 139c48 0 87 -22 87 -75c0 -19 -5 -39 -11 -57
c-12 -38 -31 -74 -64 -96c-54 -36 -113 -50 -187 -50c-48 0 -87 22 -87 75c0 19 4 39 10 57c12 38 31 74 64 96c54 36 114 50 188 50z" fill="currentColor"/>
<path transform="translate(153.0230, 6.7315) scale(0.0040, -0.0040)" d="M217 139c57 0 112 -31 112 -94c0 -72 -55 -121 -102 -149c-35 -21 -74 -35 -115 -35c-57 0 -112 31 -112 94c0 72 55 121 102 149c35 21 74 35 115 35z" fill="currentColor"/>
<rect transform="translate(153.0927, 6.2315)" x="-0.0697" y="0.6811" width="0.1395" height="2.3189" ry="0.0444" fill="currentColor"/>
<path transform="translate(155.4472, 6.2315) scale(0.0040, -0.0040)" d="M217 139c57 0 112 -31 112 -94c0 -72 -55 -121 -102 -149c-35 -21 -74 -35 -115 -35c-57 0 -112 31 -112 94c0 72 55 121 102 149c35 21 74 35 115 35z" fill="currentColor"/>
<path transform="translate(155.4472, 14.5248) scale(0.0040, -0.0040)" d="M217 139c57 0 112 -31 112 -94c0 -72 -55 -121 -102 -149c-35 -21 -74 -35 -115 -35c-57 0 -112 31 -112 94c0 72 55 121 102 149c35 21 74 35 115 35z" fill="currentColor"/>
<path transform="translate(155.4472, 27.1274) scale(0.0040, -0.0040)" d="M364 0h-353c-6 0 -11 5 -11 11v134c0 6 5 11 11 11h353c6 0 11 -5 11 -11v-134c0 -6 -5 -11 -11 -11z" fill="currentColor"/>
<rect transform="translate(155.5170, 6.2315)" x="-0.0697" y="0.1811" width="0.1395" height="2.6360" ry="0.0444" fill="currentColor"/>
<rect transform="translate(155.5170, 16.0248)" x="-0.0697" y="-1.3189" width="0.1395" height="3.3189" ry="0.0444" fill="currentColor"/>
<path transform="translate(157.8714, 5.7315) scale(0.0040, -0.0040)" d="M217 139c57 0 112 -31 112 -94c0 -72 -55 -121 -102 -149c-35 -21 -74 -35 -115 -35c-57 0 -112 31 -112 94c0 72 55 121 102 149c35 21 74 35 115 35z" fill="currentColor"/>
<path transform="translate(148.1745, 5.7315) scale(0.0040, -0.0040)" d="M217 139c57 0 112 -31 112 -94c0 -72 -55 -121 -102 -149c-35 -21 -74 -35 -115 -35c-57 0 -112 31 -112 94c0 72 55 121 102 149c35 21 74 35 115 35z" fill="currentColor"/>
<rect transform="translate(148.2443, 6.2315)" x="-0.0697" y="-0.3189" width="0.1395" height="3.3189" ry="0.0444" fill="currentColor"/>
<path transform="translate(150.5988, 6.2315) scale(0.0040, -0.0040)" d="M217 139c57 0 112 -31 112 -94c0 -72 -55 -121 -102 -149c-35 -21 -74 -35 -115 -35c-57 0 -112 31 -112 94c0 72 55 121 102 149c35 21 74 35 115 35z" fill="currentColor"/>
<path transform="translate(150.5988, 16.0248) scale(0.0040, -0.0040)" d="M217 139c57 0 112 -31 112 -94c0 -72 -55 -121 -102 -149c-35 -21 -74 -35 -115 -35c-57 0 -112 31 -112 94c0 72 55 121 102 149c35 21 74 35 115 35z" fill="currentColor"/>
<rect transform="translate(150.6685, 6.2315)" x="-0.0697" y="0.1811" width="0.1395" height="2.8189" ry="0.0444" fill="currentColor"/>
<rect transform="translate(150.6685, 16.0248)" x="-0.0697" y="0.1811" width="0.1395" height="3.1522" ry="0.0444" fill="currentColor"/>
<path transform="translate(44.9559, 9.2315) scale(0.0040, -0.0040)" d="M217 139c57 0 112 -31 112 -94c0 -72 -55 -121 -102 -149c-35 -21 -74 -35 -115 -35c-57 0 -112 31 -112 94c0 72 55 121 102 149c35 21 74 35 115 35z" fill="currentColor"/>
<path transform="translate(44.9559, 7.2315) scale(0.0040, -0.0040)" d="M217 139c57 0 112 -31 112 -94c0 -72 -55 -121 -102 -149c-35 -21 -74 -35 -115 -35c-57 0 -112 31 -112 94c0 72 55 121 102 149c35 21 74 35 115 35z" fill="currentColor"/>
<path transform="translate(44.9559, 15.5248) scale(0.0040, -0.0040)" d="M217 139c57 0 112 -31 112 -94c0 -72 -55 -121 -102 -149c-35 -21 -74 -35 -115 -35c-57 0 -112 31 -112 94c0 72 55 121 102 149c35 21 74 35 115 35z" fill="currentColor"/>
<rect transform="translate(45.0257, 6.2315)" x="-0.0697" y="3.1811" width="0.1395" height="2.6325" ry="0.0444" fill="currentColor"/>
<rect transform="translate(46.2018, 6.2315)" x="-0.0697" y="-2.5000" width="0.1395" height="3.3189" ry="0.0444" fill="currentColor"/>
<rect transform="translate(45.0257, 16.0248)" x="-0.0697" y="-0.3189" width="0.1395" height="3.3189" ry="0.0444" fill="currentColor"/>
<path transform="translate(43.9059, 15.5248) scale(0.0040, -0.0040)" d="M-8 375c8 5 17 7 26 7s18 -2 26 -7l-3 -187l104 21h4c10 0 18 -8 18 -18l8 -566c-8 -5 -17 -7 -26 -7s-18 2 -26 7l2 187l-103 -21h-4c-10 0 -18 8 -18 18zM130 111l-90 -18l-3 -204l90 18z" fill="currentColor"/>
<path transform="translate(47.3802, 9.7315) scale(0.0040, -0.0040)" d="M217 139c57 0 112 -31 112 -94c0 -72 -55 -121 -102 -149c-35 -21 -74 -35 -115 -35c-57 0 -112 31 -112 94c0 72 55 121 102 149c35 21 74 35 115 35z" fill="currentColor"/>
<rect transform="translate(47.4499, 6.2315)" x="-0.0697" y="3.6811" width="0.1395" height="2.1325" ry="0.0444" fill="currentColor"/>
<path transform="translate(39.8575, 9.7315) scale(0.0040, -0.0040)" d="M217 139c57 0 112 -31 112 -94c0 -72 -55 -121 -102 -149c-35 -21 -74 -35 -115 -35c-57 0 -112 31 -112 94c0 72 55 121 102 149c35 21 74 35 115 35z" fill="currentColor"/>
<path transform="translate(39.8575, 7.7315) scale(0.0040, -0.0040)" d="M217 139c57 0 112 -31 112 -94c0 -72 -55 -121 -102 -149c-35 -21 -74 -35 -115 -35c-57 0 -112 31 -112 94c0 72 55 121 102 149c35 21 74 35 115 35z" fill="currentColor"/>
<path transform="translate(39.8575, 16.0248) scale(0.0040, -0.0040)" d="M217 139c57 0 112 -31 112 -94c0 -72 -55 -121 -102 -149c-35 -21 -74 -35 -115 -35c-57 0 -112 31 -112 94c0 72 55 121 102 149c35 21 74 35 115 35z" fill="currentColor"/>
<rect transform="translate(39.9272, 6.2315)" x="-0.0697" y="3.6811" width="0.1395" height="2.1325" ry="0.0444" fill="currentColor"/>
<rect transform="translate(41.1034, 6.2315)" x="-0.0697" y="-2.0000" width="0.1395" height="3.3189" ry="0.0444" fill="currentColor"/>
<rect transform="translate(39.9272, 16.0248)" x="-0.0697" y="0.1811" width="0.1395" height="3.1522" ry="0.0444" fill="currentColor"/>
<path transform="translate(42.5317, 8.7315) scale(0.0040, -0.0040)" d="M217 139c57 0 112 -31 112 -94c0 -72 -55 -121 -102 -149c-35 -21 -74 -35 -115 -35c-57 0 -112 31 -112 94c0 72 55 121 102 149c35 21 74 35 115 35z" fill="currentColor"/>
<rect transform="translate(42.6015, 6.2315)" x="-0.0697" y="2.6811" width="0.1395" height="3.1325" ry="0.0444" fill="currentColor"/>
<path transform="translate(53.6623, 7.2315) scale(0.0040, -0.0040)" d="M217 139c57 0 112 -31 112 -94c0 -72 -55 -121 -102 -149c-35 -21 -74 -35 -115 -35c-57 0 -112 31 -112 94c0 72 55 121 102 149c35 21 74 35 115 35z" fill="currentColor"/>
<rect transform="translate(53.7321, 6.2315)" x="-0.0697" y="1.1811" width="0.1395" height="4.9803" ry="0.0444" fill="currentColor"/>
<path transform="translate(56.0866, 7.7315) scale(0.0040, -0.0040)" d="M217 139c57 0 112 -31 112 -94c0 -72 -55 -121 -102 -149c-35 -21 -74 -35 -115 -35c-57 0 -112 31 -112 94c0 72 55 121 102 149c35 21 74 35 115 35z" fill="currentColor"/>
<path transform="translate(56.0866, 14.5248) scale(0.0040, -0.0040)" d="M217 139c57 0 112 -31 112 -94c0 -72 -55 -121 -102 -149c-35 -21 -74 -35 -115 -35c-57 0 -112 31 -112 94c0 72 55 121 102 149c35 21 74 35 115 35z" fill="currentColor"/>
<rect transform="translate(56.1563, 6.2315)" x="-0.0697" y="1.6811" width="0.1395" height="4.1811" ry="0.0444" fill="currentColor"/>
<path transform="translate(50.9881, 10.2315) scale(0.0040, -0.0040)" d="M217 139c57 0 112 -31 112 -94c0 -72 -55 -121 -102 -149c-35 -21 -74 -35 -115 -35c-57 0 -112 31 -112 94c0 72 55 121 102 149c35 21 74 35 115 35z" fill="currentColor"/>
<path transform="translate(50.9881, 6.7315) scale(0.0040, -0.0040)" d="M214 111c-49 0 -68 -43 -68 -88c0 -75 57 -134 132 -134c49 0 67 43 67 88c0 75 -56 134 -131 134zM491 0c0 -43 -34 -76 -72 -98c-53 -30 -113 -41 -173 -41s-121 11 -174 41c-38 22 -72 55 -72 98s34 76 72 98c53 30 114 41 174 41s120 -11 173 -41
c38 -22 72 -55 72 -98z" fill="currentColor"/>
<path transform="translate(50.9881, 15.0248) scale(0.0040, -0.0040)" d="M217 139c57 0 112 -31 112 -94c0 -72 -55 -121 -102 -149c-35 -21 -74 -35 -115 -35c-57 0 -112 31 -112 94c0 72 55 121 102 149c35 21 74 35 115 35z" fill="currentColor"/>
<path transform="translate(50.9881, 26.1274) scale(0.0040, -0.0040)" d="M214 111c-49 0 -68 -43 -68 -88c0 -75 57 -134 132 -134c49 0 67 43 67 88c0 75 -56 134 -131 134zM491 0c0 -43 -34 -76 -72 -98c-53 -30 -113 -41 -173 -41s-121 11 -174 41c-38 22 -72 55 -72 98s34 76 72 98c53 30 114 41 174 41s120 -11 173 -41
c38 -22 72 -55 72 -98z" fill="currentColor"/>
<text transform="translate(50.9881, 24.1585)" font-family="Century Schoolbook L" font-size="2.2000" text-anchor="start" fill="currentColor">
<tspan>
ped. Tromp. 8 fs.</tspan>
</text>
<rect transform="translate(51.0579, 6.2315)" x="-0.0697" y="4.1811" width="0.1395" height="2.3103" ry="0.0444" fill="currentColor"/>
<rect transform="translate(51.0579, 16.0248)" x="-0.0697" y="-0.8189" width="0.1395" height="3.3189" ry="0.0444" fill="currentColor"/>
<path transform="translate(22.8879, 8.2315) scale(0.0040, -0.0040)" d="M217 139c57 0 112 -31 112 -94c0 -72 -55 -121 -102 -149c-35 -21 -74 -35 -115 -35c-57 0 -112 31 -112 94c0 72 55 121 102 149c35 21 74 35 115 35z" fill="currentColor"/>
<rect transform="translate(22.9576, 6.2315)" x="-0.0697" y="2.1811" width="0.1395" height="2.6421" ry="0.0444" fill="currentColor"/>
<text transform="translate(-1.6831, 12.0197)" font-family="Century Schoolbook L" font-size="2.4699" text-anchor="start" fill="currentColor">
<tspan>
Manual.</tspan>
</text>
<path transform="translate(9.1126, 11.1281) scale(0.0040, -0.0040)" d="M-15 -525c0 -279 -108 -546 -108 -810c0 -144 33 -276 135 -381c3 -3 6 -9 6 -12c0 -9 -9 -18 -18 -18c-3 0 -9 3 -12 6c-135 141 -183 330 -183 528c0 282 111 558 111 825c0 141 -30 273 -132 378c-3 3 -3 6 -3 9s0 6 3 9c102 105 132 237 132 378
c0 267 -111 543 -111 825c0 198 48 387 183 528c3 3 9 6 12 6c9 0 18 -9 18 -18c0 -3 -3 -9 -6 -12c-102 -105 -135 -237 -135 -381c0 -264 108 -531 108 -810c0 -195 -48 -384 -180 -525c132 -141 180 -330 180 -525z" fill="currentColor"/>
<path transform="translate(32.8239, 26.1274) scale(0.0040, -0.0040)" d="M364 -156h-353c-6 0 -11 5 -11 11v134c0 6 5 11 11 11h353c6 0 11 -5 11 -11v-134c0 -6 -5 -11 -11 -11z" fill="currentColor"/>
<text transform="translate(-1.3312, 28.0190)" font-family="Century Schoolbook L" font-size="2.4699" text-anchor="start" fill="currentColor">
<tspan>
Pedal.</tspan>
</text>
<rect transform="translate(9.4126, 16.6795)" x="0.0000" y="-12.5016" width="0.1717" height="25.0033" ry="0.0537" fill="currentColor"/>
<path transform="translate(19.3434, 10.2315) scale(0.0040, -0.0040)" d="M69 -250l118 326c-33 -12 -68 -22 -103 -22c-46 0 -87 33 -87 79c0 40 33 72 73 72c25 0 49 -14 57 -38c10 -27 4 -59 33 -59c15 0 52 45 59 59c6 13 26 13 31 0l-121 -417c-9 -7 -19 -11 -30 -11s-21 4 -30 11z" fill="currentColor"/>
<path transform="translate(19.3434, 7.7315) scale(0.0040, -0.0040)" d="M214 111c-49 0 -68 -43 -68 -88c0 -75 57 -134 132 -134c49 0 67 43 67 88c0 75 -56 134 -131 134zM491 0c0 -43 -34 -76 -72 -98c-53 -30 -113 -41 -173 -41s-121 11 -174 41c-38 22 -72 55 -72 98s34 76 72 98c53 30 114 41 174 41s120 -11 173 -41
c38 -22 72 -55 72 -98z" fill="currentColor"/>
<text transform="translate(19.3434, 3.2626)" font-family="Century Schoolbook L" font-size="2.2000" text-anchor="start" fill="currentColor">
<tspan>
man. Princip. 8fs.</tspan>
</text>
<path transform="translate(10.2843, 7.2315) scale(0.0040, -0.0040)" d="M378 263c4 0 7 1 11 1c156 0 257 -129 257 -262c0 -76 -34 -154 -108 -210c-22 -17 -46 -29 -72 -37c3 -34 4 -68 4 -102c0 -20 0 -40 -1 -60c-7 -121 -90 -228 -209 -228c-108 0 -196 87 -196 196c0 58 53 104 112 104c54 0 95 -48 95 -104c0 -52 -43 -95 -95 -95
c-10 0 -20 2 -29 6c26 -38 68 -63 116 -63c96 0 156 91 162 190c1 19 2 37 2 56c0 30 -2 60 -4 90c-29 -5 -58 -8 -88 -8c-188 0 -333 173 -333 375c0 177 130 307 246 442c-20 62 -38 125 -46 190c-6 52 -7 104 -7 157c0 115 55 223 148 290c3 2 7 3 11 3s8 -1 11 -4
c71 -83 134 -244 134 -357c0 -143 -85 -255 -178 -364c21 -68 40 -137 57 -206zM462 -202c67 24 111 94 111 162c0 89 -65 178 -170 190c24 -115 46 -230 59 -352zM75 26c0 -134 129 -245 263 -245c28 0 55 2 81 6c-14 126 -36 244 -61 363c-79 -8 -124 -61 -124 -119
c0 -43 25 -89 80 -121c5 -5 7 -11 7 -16c0 -12 -10 -23 -22 -23c-3 0 -6 1 -9 2c-81 43 -118 116 -118 186c0 89 58 175 161 198c-14 58 -29 116 -46 173c-106 -122 -212 -244 -212 -404zM406 1042c-99 -47 -162 -148 -162 -257c0 -73 20 -132 38 -191
c79 97 144 199 144 324c0 53 -4 76 -20 124z" fill="currentColor"/>
<path transform="translate(13.9139, 6.2315) scale(0.0040, -0.0040)" d="M29 39l-2 -64v-11c0 -22 2 -43 5 -65c44 38 91 80 91 138c0 33 -13 66 -42 66c-31 0 -51 -31 -52 -64zM-16 -139l-12 593c9 5 18 8 28 8s19 -3 28 -8l-7 -343c25 23 58 36 92 36c51 0 87 -49 87 -103c0 -79 -84 -117 -144 -169c-16 -14 -25 -41 -47 -41
c-14 0 -25 13 -25 27z" fill="currentColor"/>
<path transform="translate(15.8639, 8.2421) scale(0.0040, -0.0040)" d="M25 11c-1 -8 -7 -11 -13 -11s-12 4 -12 12c0 175 235 164 235 343c0 59 -18 120 -69 120c-27 0 -52 -13 -52 -37c0 -27 35 -41 35 -68c0 -38 -30 -68 -68 -68s-69 30 -69 68c0 76 73 130 154 130c97 0 189 -56 189 -145c0 -150 -148 -158 -246 -216c7 1 15 2 22 2
c34 0 71 -12 106 -37c21 -15 44 -23 64 -23c22 0 40 10 45 30c2 6 6 9 11 9c6 0 13 -5 13 -12v-4c-18 -66 -80 -104 -140 -104c-36 0 -72 14 -97 45c-13 15 -30 22 -47 22c-30 0 -58 -21 -61 -56z" fill="currentColor"/>
<path transform="translate(15.9398, 6.2315) scale(0.0040, -0.0040)" d="M151 475c-29 0 -60 -8 -60 -33c0 -22 35 -25 35 -47c0 -31 -26 -57 -57 -57s-57 26 -57 57c0 65 68 105 139 105c92 0 170 -33 170 -114c0 -42 -5 -81 -42 -98c-10 -5 -15 -14 -15 -23s5 -18 15 -23c41 -19 57 -56 57 -102c0 -92 -80 -140 -180 -140
c-79 0 -156 43 -156 115c0 36 29 65 65 65s65 -29 65 -65c0 -25 -40 -29 -40 -54c0 -28 34 -36 66 -36c48 0 61 59 61 115v22c0 50 -3 88 -49 88h-78c-10 0 -15 7 -15 15s5 15 15 15h78c46 0 49 40 49 92v14c0 53 -18 89 -66 89z" fill="currentColor"/>
<path transform="translate(19.3434, 16.0248) scale(0.0040, -0.0040)" d="M-24 -117c0 29 13 42 43 42c31 0 74 -11 113 -27l-129 154c-7 9 -11 18 -11 26c0 34 51 66 88 100c24 22 37 52 37 82c0 25 -9 49 -26 69l-33 40c-3 4 -4 7 -4 11c0 9 9 17 18 17c4 0 8 -2 12 -6l150 -179c7 -9 11 -18 11 -26c0 -34 -51 -65 -88 -99
c-24 -22 -37 -53 -37 -83c0 -25 8 -49 25 -69l82 -97c3 -4 4 -7 4 -11c0 -9 -8 -17 -17 -17c-4 0 -9 2 -13 6c-17 20 -60 36 -93 36c-41 0 -54 -25 -54 -66c0 -34 10 -73 27 -93c5 -6 0 -14 -6 -14c-2 0 -4 1 -6 3c-45 53 -93 147 -93 201z" fill="currentColor"/>
<path transform="translate(10.2843, 15.0248) scale(0.0040, -0.0040)" d="M558 -125c0 28 22 51 50 51s51 -23 51 -51s-23 -51 -51 -51s-50 23 -50 51zM558 125c0 28 22 51 50 51s51 -23 51 -51s-23 -51 -51 -51s-50 23 -50 51zM231 264c172 0 294 -88 294 -251c0 -263 -262 -416 -515 -523c-3 -3 -7 -4 -10 -4c-7 0 -14 7 -14 14c0 3 1 7 4 10
c201 118 410 265 410 492c0 119 -61 234 -169 234c-72 0 -124 -53 -148 -123c10 4 19 6 29 6c55 0 100 -45 100 -100c0 -58 -44 -106 -100 -106c-60 0 -112 47 -112 106c0 133 101 245 231 245z" fill="currentColor"/>
<path transform="translate(13.9139, 17.0248) scale(0.0040, -0.0040)" d="M29 39l-2 -64v-11c0 -22 2 -43 5 -65c44 38 91 80 91 138c0 33 -13 66 -42 66c-31 0 -51 -31 -52 -64zM-16 -139l-12 593c9 5 18 8 28 8s19 -3 28 -8l-7 -343c25 23 58 36 92 36c51 0 87 -49 87 -103c0 -79 -84 -117 -144 -169c-16 -14 -25 -41 -47 -41
c-14 0 -25 13 -25 27z" fill="currentColor"/>
<path transform="translate(15.8639, 18.0354) scale(0.0040, -0.0040)" d="M25 11c-1 -8 -7 -11 -13 -11s-12 4 -12 12c0 175 235 164 235 343c0 59 -18 120 -69 120c-27 0 -52 -13 -52 -37c0 -27 35 -41 35 -68c0 -38 -30 -68 -68 -68s-69 30 -69 68c0 76 73 130 154 130c97 0 189 -56 189 -145c0 -150 -148 -158 -246 -216c7 1 15 2 22 2
c34 0 71 -12 106 -37c21 -15 44 -23 64 -23c22 0 40 10 45 30c2 6 6 9 11 9c6 0 13 -5 13 -12v-4c-18 -66 -80 -104 -140 -104c-36 0 -72 14 -97 45c-13 15 -30 22 -47 22c-30 0 -58 -21 -61 -56z" fill="currentColor"/>
<path transform="translate(15.9398, 16.0248) scale(0.0040, -0.0040)" d="M151 475c-29 0 -60 -8 -60 -33c0 -22 35 -25 35 -47c0 -31 -26 -57 -57 -57s-57 26 -57 57c0 65 68 105 139 105c92 0 170 -33 170 -114c0 -42 -5 -81 -42 -98c-10 -5 -15 -14 -15 -23s5 -18 15 -23c41 -19 57 -56 57 -102c0 -92 -80 -140 -180 -140
c-79 0 -156 43 -156 115c0 36 29 65 65 65s65 -29 65 -65c0 -25 -40 -29 -40 -54c0 -28 34 -36 66 -36c48 0 61 59 61 115v22c0 50 -3 88 -49 88h-78c-10 0 -15 7 -15 15s5 15 15 15h78c46 0 49 40 49 92v14c0 53 -18 89 -66 89z" fill="currentColor"/>
<path transform="translate(10.2843, 26.1274) scale(0.0040, -0.0040)" d="M558 -125c0 28 22 51 50 51s51 -23 51 -51s-23 -51 -51 -51s-50 23 -50 51zM558 125c0 28 22 51 50 51s51 -23 51 -51s-23 -51 -51 -51s-50 23 -50 51zM231 264c172 0 294 -88 294 -251c0 -263 -262 -416 -515 -523c-3 -3 -7 -4 -10 -4c-7 0 -14 7 -14 14c0 3 1 7 4 10
c201 118 410 265 410 492c0 119 -61 234 -169 234c-72 0 -124 -53 -148 -123c10 4 19 6 29 6c55 0 100 -45 100 -100c0 -58 -44 -106 -100 -106c-60 0 -112 47 -112 106c0 133 101 245 231 245z" fill="currentColor"/>
<path transform="translate(13.9139, 28.1274) scale(0.0040, -0.0040)" d="M29 39l-2 -64v-11c0 -22 2 -43 5 -65c44 38 91 80 91 138c0 33 -13 66 -42 66c-31 0 -51 -31 -52 -64zM-16 -139l-12 593c9 5 18 8 28 8s19 -3 28 -8l-7 -343c25 23 58 36 92 36c51 0 87 -49 87 -103c0 -79 -84 -117 -144 -169c-16 -14 -25 -41 -47 -41
c-14 0 -25 13 -25 27z" fill="currentColor"/>
<path transform="translate(15.8639, 29.1381) scale(0.0040, -0.0040)" d="M25 11c-1 -8 -7 -11 -13 -11s-12 4 -12 12c0 175 235 164 235 343c0 59 -18 120 -69 120c-27 0 -52 -13 -52 -37c0 -27 35 -41 35 -68c0 -38 -30 -68 -68 -68s-69 30 -69 68c0 76 73 130 154 130c97 0 189 -56 189 -145c0 -150 -148 -158 -246 -216c7 1 15 2 22 2
c34 0 71 -12 106 -37c21 -15 44 -23 64 -23c22 0 40 10 45 30c2 6 6 9 11 9c6 0 13 -5 13 -12v-4c-18 -66 -80 -104 -140 -104c-36 0 -72 14 -97 45c-13 15 -30 22 -47 22c-30 0 -58 -21 -61 -56z" fill="currentColor"/>
<path transform="translate(15.9398, 27.1274) scale(0.0040, -0.0040)" d="M151 475c-29 0 -60 -8 -60 -33c0 -22 35 -25 35 -47c0 -31 -26 -57 -57 -57s-57 26 -57 57c0 65 68 105 139 105c92 0 170 -33 170 -114c0 -42 -5 -81 -42 -98c-10 -5 -15 -14 -15 -23s5 -18 15 -23c41 -19 57 -56 57 -102c0 -92 -80 -140 -180 -140
c-79 0 -156 43 -156 115c0 36 29 65 65 65s65 -29 65 -65c0 -25 -40 -29 -40 -54c0 -28 34 -36 66 -36c48 0 61 59 61 115v22c0 50 -3 88 -49 88h-78c-10 0 -15 7 -15 15s5 15 15 15h78c46 0 49 40 49 92v14c0 53 -18 89 -66 89z" fill="currentColor"/>
<rect transform="translate(31.4065, 16.0248)" x="-0.0697" y="-2.5000" width="0.1395" height="3.3189" ry="0.0444" fill="currentColor"/>
<path transform="translate(32.5848, 8.2315) scale(0.0040, -0.0040)" d="M217 139c57 0 112 -31 112 -94c0 -72 -55 -121 -102 -149c-35 -21 -74 -35 -115 -35c-57 0 -112 31 -112 94c0 72 55 121 102 149c35 21 74 35 115 35z" fill="currentColor"/>
<rect transform="translate(32.6546, 6.2315)" x="-0.0697" y="2.1811" width="0.1395" height="3.1108" ry="0.0444" fill="currentColor"/>
<path transform="translate(35.0090, 8.7315) scale(0.0040, -0.0040)" d="M217 139c57 0 112 -31 112 -94c0 -72 -55 -121 -102 -149c-35 -21 -74 -35 -115 -35c-57 0 -112 31 -112 94c0 72 55 121 102 149c35 21 74 35 115 35z" fill="currentColor"/>
<path transform="translate(35.0090, 16.5248) scale(0.0040, -0.0040)" d="M217 139c57 0 112 -31 112 -94c0 -72 -55 -121 -102 -149c-35 -21 -74 -35 -115 -35c-57 0 -112 31 -112 94c0 72 55 121 102 149c35 21 74 35 115 35z" fill="currentColor"/>
<rect transform="translate(35.0788, 6.2315)" x="-0.0697" y="2.6811" width="0.1395" height="2.7133" ry="0.0444" fill="currentColor"/>
<rect transform="translate(36.2549, 16.0248)" x="-0.0697" y="-3.0000" width="0.1395" height="3.3189" ry="0.0444" fill="currentColor"/>
<path transform="translate(37.4333, 9.2315) scale(0.0040, -0.0040)" d="M217 139c57 0 112 -31 112 -94c0 -72 -55 -121 -102 -149c-35 -21 -74 -35 -115 -35c-57 0 -112 31 -112 94c0 72 55 121 102 149c35 21 74 35 115 35z" fill="currentColor"/>
<rect transform="translate(37.5030, 6.2315)" x="-0.0697" y="3.1811" width="0.1395" height="2.3159" ry="0.0444" fill="currentColor"/>
<path transform="translate(21.7379, 8.2315) scale(0.0040, -0.0040)" d="M29 39l-2 -64v-11c0 -22 2 -43 5 -65c44 38 91 80 91 138c0 33 -13 66 -42 66c-31 0 -51 -31 -52 -64zM-16 -139l-12 593c9 5 18 8 28 8s19 -3 28 -8l-7 -343c25 23 58 36 92 36c51 0 87 -49 87 -103c0 -79 -84 -117 -144 -169c-16 -14 -25 -41 -47 -41
c-14 0 -25 13 -25 27z" fill="currentColor"/>
<path transform="translate(25.3121, 8.7315) scale(0.0040, -0.0040)" d="M217 139c57 0 112 -31 112 -94c0 -72 -55 -121 -102 -149c-35 -21 -74 -35 -115 -35c-57 0 -112 31 -112 94c0 72 55 121 102 149c35 21 74 35 115 35z" fill="currentColor"/>
<path transform="translate(25.3121, 18.5248) scale(0.0040, -0.0040)" d="M217 139c57 0 112 -31 112 -94c0 -72 -55 -121 -102 -149c-35 -21 -74 -35 -115 -35c-57 0 -112 31 -112 94c0 72 55 121 102 149c35 21 74 35 115 35z" fill="currentColor"/>
<rect transform="translate(25.3819, 6.2315)" x="-0.0697" y="2.6811" width="0.1395" height="2.4757" ry="0.0444" fill="currentColor"/>
<rect transform="translate(26.5580, 16.0248)" x="-0.0697" y="-1.0000" width="0.1395" height="3.3189" ry="0.0444" fill="currentColor"/>
<path transform="translate(27.7364, 9.2315) scale(0.0040, -0.0040)" d="M217 139c57 0 112 -31 112 -94c0 -72 -55 -121 -102 -149c-35 -21 -74 -35 -115 -35c-57 0 -112 31 -112 94c0 72 55 121 102 149c35 21 74 35 115 35z" fill="currentColor"/>
<rect transform="translate(27.8061, 6.2315)" x="-0.0697" y="3.1811" width="0.1395" height="2.3093" ry="0.0444" fill="currentColor"/>
<path transform="translate(30.1606, 8.7315) scale(0.0040, -0.0040)" d="M217 139c57 0 112 -31 112 -94c0 -72 -55 -121 -102 -149c-35 -21 -74 -35 -115 -35c-57 0 -112 31 -112 94c0 72 55 121 102 149c35 21 74 35 115 35z" fill="currentColor"/>
<path transform="translate(30.1606, 17.0248) scale(0.0040, -0.0040)" d="M217 139c57 0 112 -31 112 -94c0 -72 -55 -121 -102 -149c-35 -21 -74 -35 -115 -35c-57 0 -112 31 -112 94c0 72 55 121 102 149c35 21 74 35 115 35z" fill="currentColor"/>
<rect transform="translate(30.2303, 6.2315)" x="-0.0697" y="2.6811" width="0.1395" height="2.5082" ry="0.0444" fill="currentColor"/>
<path transform="translate(82.1801, 8.2315) scale(0.0040, -0.0040)" d="M217 139c57 0 112 -31 112 -94c0 -72 -55 -121 -102 -149c-35 -21 -74 -35 -115 -35c-57 0 -112 31 -112 94c0 72 55 121 102 149c35 21 74 35 115 35z" fill="currentColor"/>
<path transform="translate(82.1801, 5.7315) scale(0.0040, -0.0040)" d="M214 111c-49 0 -68 -43 -68 -88c0 -75 57 -134 132 -134c49 0 67 43 67 88c0 75 -56 134 -131 134zM491 0c0 -43 -34 -76 -72 -98c-53 -30 -113 -41 -173 -41s-121 11 -174 41c-38 22 -72 55 -72 98s34 76 72 98c53 30 114 41 174 41s120 -11 173 -41
c38 -22 72 -55 72 -98z" fill="currentColor"/>
<path transform="translate(82.1801, 16.5248) scale(0.0040, -0.0040)" d="M217 139c57 0 112 -31 112 -94c0 -72 -55 -121 -102 -149c-35 -21 -74 -35 -115 -35c-57 0 -112 31 -112 94c0 72 55 121 102 149c35 21 74 35 115 35z" fill="currentColor"/>
<path transform="translate(82.1801, 25.1274) scale(0.0040, -0.0040)" d="M214 111c-49 0 -68 -43 -68 -88c0 -75 57 -134 132 -134c49 0 67 43 67 88c0 75 -56 134 -131 134zM491 0c0 -43 -34 -76 -72 -98c-53 -30 -113 -41 -173 -41s-121 11 -174 41c-38 22 -72 55 -72 98s34 76 72 98c53 30 114 41 174 41s120 -11 173 -41
c38 -22 72 -55 72 -98z" fill="currentColor"/>
<rect transform="translate(82.2498, 6.2315)" x="-0.0697" y="2.1811" width="0.1395" height="2.3148" ry="0.0444" fill="currentColor"/>
<rect transform="translate(83.4260, 16.0248)" x="-0.0697" y="-3.0000" width="0.1395" height="3.3189" ry="0.0444" fill="currentColor"/>
<path transform="translate(73.9390, 8.2315) scale(0.0040, -0.0040)" d="M217 139c57 0 112 -31 112 -94c0 -72 -55 -121 -102 -149c-35 -21 -74 -35 -115 -35c-57 0 -112 31 -112 94c0 72 55 121 102 149c35 21 74 35 115 35z" fill="currentColor"/>
<rect transform="translate(74.0087, 6.2315)" x="-0.0697" y="2.1811" width="0.1395" height="2.2133" ry="0.0444" fill="currentColor"/>
<path transform="translate(76.3632, 7.7315) scale(0.0040, -0.0040)" d="M217 139c57 0 112 -31 112 -94c0 -72 -55 -121 -102 -149c-35 -21 -74 -35 -115 -35c-57 0 -112 31 -112 94c0 72 55 121 102 149c35 21 74 35 115 35z" fill="currentColor"/>
<path transform="translate(76.3632, 14.5248) scale(0.0040, -0.0040)" d="M217 139c57 0 112 -31 112 -94c0 -72 -55 -121 -102 -149c-35 -21 -74 -35 -115 -35c-57 0 -112 31 -112 94c0 72 55 121 102 149c35 21 74 35 115 35z" fill="currentColor"/>
<path transform="translate(76.3632, 25.6274) scale(0.0040, -0.0040)" d="M217 139c57 0 112 -31 112 -94c0 -72 -55 -121 -102 -149c-35 -21 -74 -35 -115 -35c-57 0 -112 31 -112 94c0 72 55 121 102 149c35 21 74 35 115 35z" fill="currentColor"/>
<rect transform="translate(76.4329, 6.2315)" x="-0.0697" y="1.6811" width="0.1395" height="2.6108" ry="0.0444" fill="currentColor"/>
<rect transform="translate(76.4329, 16.0248)" x="-0.0697" y="-1.3189" width="0.1395" height="3.3189" ry="0.0444" fill="currentColor"/>
<rect transform="translate(76.4329, 27.1274)" x="-0.0697" y="-1.3189" width="0.1395" height="3.3189" ry="0.0444" fill="currentColor"/>
<path transform="translate(78.7874, 7.2315) scale(0.0040, -0.0040)" d="M217 139c57 0 112 -31 112 -94c0 -72 -55 -121 -102 -149c-35 -21 -74 -35 -115 -35c-57 0 -112 31 -112 94c0 72 55 121 102 149c35 21 74 35 115 35z" fill="currentColor"/>
<rect transform="translate(78.8572, 6.2315)" x="-0.0697" y="1.1811" width="0.1395" height="3.0082" ry="0.0444" fill="currentColor"/>
<path transform="translate(88.1488, 6.7315) scale(0.0040, -0.0040)" d="M217 139c57 0 112 -31 112 -94c0 -72 -55 -121 -102 -149c-35 -21 -74 -35 -115 -35c-57 0 -112 31 -112 94c0 72 55 121 102 149c35 21 74 35 115 35z" fill="currentColor"/>
<path transform="translate(88.1488, 15.0248) scale(0.0040, -0.0040)" d="M217 139c57 0 112 -31 112 -94c0 -72 -55 -121 -102 -149c-35 -21 -74 -35 -115 -35c-57 0 -112 31 -112 94c0 72 55 121 102 149c35 21 74 35 115 35z" fill="currentColor"/>
<rect transform="translate(88.2185, 6.2315)" x="-0.0697" y="0.6811" width="0.1395" height="3.4650" ry="0.0444" fill="currentColor"/>
<rect transform="translate(88.2185, 16.0248)" x="-0.0697" y="-0.8189" width="0.1395" height="3.3189" ry="0.0444" fill="currentColor"/>
<path transform="translate(90.5730, 7.2315) scale(0.0040, -0.0040)" d="M217 139c57 0 112 -31 112 -94c0 -72 -55 -121 -102 -149c-35 -21 -74 -35 -115 -35c-57 0 -112 31 -112 94c0 72 55 121 102 149c35 21 74 35 115 35z" fill="currentColor"/>
<rect transform="translate(90.6427, 6.2315)" x="-0.0697" y="1.1811" width="0.1395" height="2.8230" ry="0.0444" fill="currentColor"/>
<path transform="translate(92.9972, 6.7315) scale(0.0040, -0.0040)" d="M217 139c57 0 112 -31 112 -94c0 -72 -55 -121 -102 -149c-35 -21 -74 -35 -115 -35c-57 0 -112 31 -112 94c0 72 55 121 102 149c35 21 74 35 115 35z" fill="currentColor"/>
<path transform="translate(92.9972, 15.5248) scale(0.0040, -0.0040)" d="M217 139c57 0 112 -31 112 -94c0 -72 -55 -121 -102 -149c-35 -21 -74 -35 -115 -35c-57 0 -112 31 -112 94c0 72 55 121 102 149c35 21 74 35 115 35z" fill="currentColor"/>
<rect transform="translate(93.0670, 6.2315)" x="-0.0697" y="0.6811" width="0.1395" height="2.5082" ry="0.0444" fill="currentColor"/>
<rect transform="translate(93.0670, 16.0248)" x="-0.0697" y="-0.3189" width="0.1395" height="3.3189" ry="0.0444" fill="currentColor"/>
<path transform="translate(85.7245, 6.2315) scale(0.0040, -0.0040)" d="M217 139c57 0 112 -31 112 -94c0 -72 -55 -121 -102 -149c-35 -21 -74 -35 -115 -35c-57 0 -112 31 -112 94c0 72 55 121 102 149c35 21 74 35 115 35z" fill="currentColor"/>
<rect transform="translate(85.7943, 6.2315)" x="-0.0697" y="0.1811" width="0.1395" height="4.1071" ry="0.0444" fill="currentColor"/>
<path transform="translate(84.5745, 6.2315) scale(0.0040, -0.0040)" d="M29 39l-2 -64v-11c0 -22 2 -43 5 -65c44 38 91 80 91 138c0 33 -13 66 -42 66c-31 0 -51 -31 -52 -64zM-16 -139l-12 593c9 5 18 8 28 8s19 -3 28 -8l-7 -343c25 23 58 36 92 36c51 0 87 -49 87 -103c0 -79 -84 -117 -144 -169c-16 -14 -25 -41 -47 -41
c-14 0 -25 13 -25 27z" fill="currentColor"/>
<path transform="translate(63.8007, 9.2315) scale(0.0040, -0.0040)" d="M217 139c57 0 112 -31 112 -94c0 -72 -55 -121 -102 -149c-35 -21 -74 -35 -115 -35c-57 0 -112 31 -112 94c0 72 55 121 102 149c35 21 74 35 115 35z" fill="currentColor"/>
<rect transform="translate(63.8704, 6.2315)" x="-0.0697" y="3.1811" width="0.1395" height="2.2133" ry="0.0444" fill="currentColor"/>
<path transform="translate(66.2249, 8.7315) scale(0.0040, -0.0040)" d="M217 139c57 0 112 -31 112 -94c0 -72 -55 -121 -102 -149c-35 -21 -74 -35 -115 -35c-57 0 -112 31 -112 94c0 72 55 121 102 149c35 21 74 35 115 35z" fill="currentColor"/>
<path transform="translate(66.2249, 15.5248) scale(0.0040, -0.0040)" d="M217 139c57 0 112 -31 112 -94c0 -72 -55 -121 -102 -149c-35 -21 -74 -35 -115 -35c-57 0 -112 31 -112 94c0 72 55 121 102 149c35 21 74 35 115 35z" fill="currentColor"/>
<rect transform="translate(66.2946, 6.2315)" x="-0.0697" y="2.6811" width="0.1395" height="2.6108" ry="0.0444" fill="currentColor"/>
<rect transform="translate(66.2946, 16.0248)" x="-0.0697" y="-0.3189" width="0.1395" height="3.3189" ry="0.0444" fill="currentColor"/>
<path transform="translate(68.6491, 8.2315) scale(0.0040, -0.0040)" d="M217 139c57 0 112 -31 112 -94c0 -72 -55 -121 -102 -149c-35 -21 -74 -35 -115 -35c-57 0 -112 31 -112 94c0 72 55 121 102 149c35 21 74 35 115 35z" fill="currentColor"/>
<rect transform="translate(68.7189, 6.2315)" x="-0.0697" y="2.1811" width="0.1395" height="3.0082" ry="0.0444" fill="currentColor"/>
<rect transform="translate(56.1563, 16.0248)" x="-0.0697" y="-1.3189" width="0.1395" height="3.3189" ry="0.0444" fill="currentColor"/>
<path transform="translate(58.9522, 8.2315) scale(0.0040, -0.0040)" d="M217 139c57 0 112 -31 112 -94c0 -72 -55 -121 -102 -149c-35 -21 -74 -35 -115 -35c-57 0 -112 31 -112 94c0 72 55 121 102 149c35 21 74 35 115 35z" fill="currentColor"/>
<rect transform="translate(59.0219, 6.2315)" x="-0.0697" y="2.1811" width="0.1395" height="3.3275" ry="0.0444" fill="currentColor"/>
<path transform="translate(57.9022, 8.2315) scale(0.0040, -0.0040)" d="M-8 375c8 5 17 7 26 7s18 -2 26 -7l-3 -187l104 21h4c10 0 18 -8 18 -18l8 -566c-8 -5 -17 -7 -26 -7s-18 2 -26 7l2 187l-103 -21h-4c-10 0 -18 8 -18 18zM130 111l-90 -18l-3 -204l90 18z" fill="currentColor"/>
<path transform="translate(61.3764, 8.7315) scale(0.0040, -0.0040)" d="M217 139c57 0 112 -31 112 -94c0 -72 -55 -121 -102 -149c-35 -21 -74 -35 -115 -35c-57 0 -112 31 -112 94c0 72 55 121 102 149c35 21 74 35 115 35z" fill="currentColor"/>
<path transform="translate(61.3764, 15.0248) scale(0.0040, -0.0040)" d="M217 139c57 0 112 -31 112 -94c0 -72 -55 -121 -102 -149c-35 -21 -74 -35 -115 -35c-57 0 -112 31 -112 94c0 72 55 121 102 149c35 21 74 35 115 35z" fill="currentColor"/>
<rect transform="translate(61.4462, 6.2315)" x="-0.0697" y="2.6811" width="0.1395" height="2.8159" ry="0.0444" fill="currentColor"/>
<rect transform="translate(61.4462, 16.0248)" x="-0.0697" y="-0.8189" width="0.1395" height="3.3189" ry="0.0444" fill="currentColor"/>
<path transform="translate(71.5147, 7.7315) scale(0.0040, -0.0040)" d="M217 139c57 0 112 -31 112 -94c0 -72 -55 -121 -102 -149c-35 -21 -74 -35 -115 -35c-57 0 -112 31 -112 94c0 72 55 121 102 149c35 21 74 35 115 35z" fill="currentColor"/>
<path transform="translate(71.5147, 6.2315) scale(0.0040, -0.0040)" d="M314 64c0 24 -21 41 -42 41c-4 0 -8 -1 -12 -2c-30 -9 -76 -38 -112 -62s-83 -54 -103 -78c-7 -8 -10 -17 -10 -27c0 -24 20 -41 41 -41c4 0 8 1 12 2c30 9 77 38 113 62s82 54 102 78c7 8 11 17 11 27zM262 139c48 0 87 -22 87 -75c0 -19 -5 -39 -11 -57
c-12 -38 -31 -74 -64 -96c-54 -36 -113 -50 -187 -50c-48 0 -87 22 -87 75c0 19 4 39 10 57c12 38 31 74 64 96c54 36 114 50 188 50z" fill="currentColor"/>
<path transform="translate(71.5147, 16.0248) scale(0.0040, -0.0040)" d="M217 139c57 0 112 -31 112 -94c0 -72 -55 -121 -102 -149c-35 -21 -74 -35 -115 -35c-57 0 -112 31 -112 94c0 72 55 121 102 149c35 21 74 35 115 35z" fill="currentColor"/>
<path transform="translate(71.5147, 26.1274) scale(0.0040, -0.0040)" d="M217 139c57 0 112 -31 112 -94c0 -72 -55 -121 -102 -149c-35 -21 -74 -35 -115 -35c-57 0 -112 31 -112 94c0 72 55 121 102 149c35 21 74 35 115 35z" fill="currentColor"/>
<rect transform="translate(71.5845, 6.2315)" x="-0.0697" y="1.6811" width="0.1395" height="2.8159" ry="0.0444" fill="currentColor"/>
<rect transform="translate(71.5845, 16.0248)" x="-0.0697" y="0.1811" width="0.1395" height="3.1522" ry="0.0444" fill="currentColor"/>
<path transform="translate(70.4647, 6.2315) scale(0.0040, -0.0040)" d="M-8 375c8 5 17 7 26 7s18 -2 26 -7l-3 -187l104 21h4c10 0 18 -8 18 -18l8 -566c-8 -5 -17 -7 -26 -7s-18 2 -26 7l2 187l-103 -21h-4c-10 0 -18 8 -18 18zM130 111l-90 -18l-3 -204l90 18z" fill="currentColor"/>
<rect transform="translate(72.8392, 6.2315)" x="-0.0697" y="-3.3333" width="0.1395" height="3.0779" ry="0.0444" fill="currentColor"/>
<rect transform="translate(71.5845, 27.1274)" x="-0.0697" y="-0.8189" width="0.1395" height="3.3189" ry="0.0444" fill="currentColor"/>
</svg>
