<svg xmlns="http://www.w3.org/2000/svg" xmlns:xlink="http://www.w3.org/1999/xlink" version="1.2" width="279.70mm" height="49.31mm" viewBox="-1.6190 -0.0000 167.5434 29.5398">
<text transform="translate(155.5737, 1.6533)" font-family="serif" font-size="2.2001" text-anchor="start" fill="currentColor">
<tspan>
BWV 751</tspan>
</text>
<rect transform="translate(95.8787, 1.6892)" x="0.0000" y="6.3851" width="0.1966" height="5.1227" ry="0.0000" fill="currentColor"/>
<rect transform="translate(108.6525, 26.0108)" x="0.0000" y="-2.0000" width="0.1966" height="4.0000" ry="0.0000" fill="currentColor"/>
<rect transform="translate(83.1887, 15.1969)" x="0.0000" y="-2.0517" width="0.1966" height="4.0517" ry="0.0000" fill="currentColor"/>
<rect transform="translate(53.2939, 26.0108)" x="0.0000" y="-2.0000" width="0.1966" height="4.0000" ry="0.0000" fill="currentColor"/>
<rect transform="translate(165.7279, 26.0108)" x="0.0000" y="-2.0000" width="0.1966" height="4.0000" ry="0.0000" fill="currentColor"/>
<rect transform="translate(165.7279, 1.6892)" x="0.0000" y="6.3851" width="0.1966" height="5.1227" ry="0.0000" fill="currentColor"/>
<rect transform="translate(27.8301, 1.6892)" x="0.0000" y="6.3851" width="0.1966" height="5.1227" ry="0.0000" fill="currentColor"/>
<rect transform="translate(165.7279, 15.1969)" x="0.0000" y="-2.0517" width="0.1966" height="4.0517" ry="0.0000" fill="currentColor"/>
<rect transform="translate(95.8787, 6.0225)" x="0.0000" y="-2.0000" width="0.1966" height="4.0517" ry="0.0000" fill="currentColor"/>
<rect transform="translate(83.1887, 6.0225)" x="0.0000" y="-2.0000" width="0.1966" height="4.0517" ry="0.0000" fill="currentColor"/>
<rect transform="translate(165.7279, 6.0225)" x="0.0000" y="-2.0000" width="0.1966" height="4.0517" ry="0.0000" fill="currentColor"/>
<rect transform="translate(27.8301, 15.1969)" x="0.0000" y="-2.0517" width="0.1966" height="4.0517" ry="0.0000" fill="currentColor"/>
<rect transform="translate(95.8787, 15.1969)" x="0.0000" y="-2.0517" width="0.1966" height="4.0517" ry="0.0000" fill="currentColor"/>
<rect transform="translate(152.9984, 6.0225)" x="0.0000" y="-2.0000" width="0.1966" height="4.0517" ry="0.0000" fill="currentColor"/>
<rect transform="translate(122.7372, 6.0225)" x="0.0000" y="-2.0000" width="0.1966" height="4.0517" ry="0.0000" fill="currentColor"/>
<rect transform="translate(40.5201, 26.0108)" x="0.0000" y="-2.0000" width="0.1966" height="4.0000" ry="0.0000" fill="currentColor"/>
<rect transform="translate(27.8301, 6.0225)" x="0.0000" y="-2.0000" width="0.1966" height="4.0517" ry="0.0000" fill="currentColor"/>
<rect transform="translate(95.8787, 26.0108)" x="0.0000" y="-2.0000" width="0.1966" height="4.0000" ry="0.0000" fill="currentColor"/>
<rect transform="translate(152.9984, 15.1969)" x="0.0000" y="-2.0517" width="0.1966" height="4.0517" ry="0.0000" fill="currentColor"/>
<rect transform="translate(40.5201, 1.6892)" x="0.0000" y="6.3851" width="0.1966" height="5.1227" ry="0.0000" fill="currentColor"/>
<rect transform="translate(138.4795, 26.0108)" x="0.0000" y="-2.0000" width="0.1966" height="4.0000" ry="0.0000" fill="currentColor"/>
<rect transform="translate(138.4795, 6.0225)" x="0.0000" y="-2.0000" width="0.1966" height="4.0517" ry="0.0000" fill="currentColor"/>
<rect transform="translate(152.9984, 1.6892)" x="0.0000" y="6.3851" width="0.1966" height="5.1227" ry="0.0000" fill="currentColor"/>
<rect transform="translate(40.5201, 15.1969)" x="0.0000" y="-2.0517" width="0.1966" height="4.0517" ry="0.0000" fill="currentColor"/>
<rect transform="translate(138.4795, 15.1969)" x="0.0000" y="-2.0517" width="0.1966" height="4.0517" ry="0.0000" fill="currentColor"/>
<rect transform="translate(40.5201, 6.0225)" x="0.0000" y="-2.0000" width="0.1966" height="4.0517" ry="0.0000" fill="currentColor"/>
<rect transform="translate(152.9984, 26.0108)" x="0.0000" y="-2.0000" width="0.1966" height="4.0000" ry="0.0000" fill="currentColor"/>
<rect transform="translate(138.4795, 1.6892)" x="0.0000" y="6.3851" width="0.1966" height="5.1227" ry="0.0000" fill="currentColor"/>
<rect transform="translate(27.8301, 26.0108)" x="0.0000" y="-2.0000" width="0.1966" height="4.0000" ry="0.0000" fill="currentColor"/>
<line transform="translate(8.9851, 8.0225)" stroke-linejoin="round" stroke-linecap="round" stroke-width="0.1035" stroke="currentColor" x1="0.0517" y1="-0.0000" x2="156.8877" y2="-0.0000"/>
<line transform="translate(8.9851, 7.0225)" stroke-linejoin="round" stroke-linecap="round" stroke-width="0.1035" stroke="currentColor" x1="0.0517" y1="-0.0000" x2="156.8877" y2="-0.0000"/>
<line transform="translate(8.9851, 6.0225)" stroke-linejoin="round" stroke-linecap="round" stroke-width="0.1035" stroke="currentColor" x1="0.0517" y1="-0.0000" x2="156.8877" y2="-0.0000"/>
<line transform="translate(8.9851, 5.0225)" stroke-linejoin="round" stroke-linecap="round" stroke-width="0.1035" stroke="currentColor" x1="0.0517" y1="-0.0000" x2="156.8877" y2="-0.0000"/>
<line transform="translate(8.9851, 4.0225)" stroke-linejoin="round" stroke-linecap="round" stroke-width="0.1035" stroke="currentColor" x1="0.0517" y1="-0.0000" x2="156.8877" y2="-0.0000"/>
<rect transform="translate(0.0000, 9.0225)" x="157.0243" y="-0.1017" width="1.9563" height="0.2035" ry="0.1017" fill="currentColor"/>
<rect transform="translate(0.0000, 9.0225)" x="153.6269" y="-0.1017" width="2.0660" height="0.2035" ry="0.1017" fill="currentColor"/>
<rect transform="translate(0.0000, 9.0225)" x="149.2664" y="-0.1017" width="2.0660" height="0.2035" ry="0.1017" fill="currentColor"/>
<rect transform="translate(0.0000, 9.0225)" x="139.1263" y="-0.1017" width="1.9563" height="0.2035" ry="0.1017" fill="currentColor"/>
<rect transform="translate(0.0000, 9.0225)" x="135.6764" y="-0.1017" width="1.9563" height="0.2035" ry="0.1017" fill="currentColor"/>
<rect transform="translate(0.0000, 9.0225)" x="99.9046" y="-0.1017" width="1.9563" height="0.2035" ry="0.1017" fill="currentColor"/>
<rect transform="translate(0.0000, 9.0225)" x="92.0574" y="-0.1017" width="2.0660" height="0.2035" ry="0.1017" fill="currentColor"/>
<rect transform="translate(0.0000, 9.0225)" x="44.5460" y="-0.1017" width="1.9563" height="0.2035" ry="0.1017" fill="currentColor"/>
<rect transform="translate(0.0000, 9.0225)" x="36.6988" y="-0.1017" width="2.0660" height="0.2035" ry="0.1017" fill="currentColor"/>
<rect transform="translate(0.0000, 12.1969)" x="119.0963" y="-0.1017" width="2.0660" height="0.2035" ry="0.1017" fill="currentColor"/>
<rect transform="translate(0.0000, 12.1969)" x="80.5678" y="-0.1017" width="1.9563" height="0.2035" ry="0.1017" fill="currentColor"/>
<rect transform="translate(0.0000, 12.1969)" x="70.6595" y="-0.1017" width="1.9563" height="0.2035" ry="0.1017" fill="currentColor"/>
<rect transform="translate(0.0000, 12.1969)" x="63.7377" y="-0.1017" width="2.0660" height="0.2035" ry="0.1017" fill="currentColor"/>
<line transform="translate(8.9851, 17.1969)" stroke-linejoin="round" stroke-linecap="round" stroke-width="0.1035" stroke="currentColor" x1="0.0517" y1="-0.0000" x2="156.8877" y2="-0.0000"/>
<line transform="translate(8.9851, 16.1969)" stroke-linejoin="round" stroke-linecap="round" stroke-width="0.1035" stroke="currentColor" x1="0.0517" y1="-0.0000" x2="156.8877" y2="-0.0000"/>
<line transform="translate(8.9851, 15.1969)" stroke-linejoin="round" stroke-linecap="round" stroke-width="0.1035" stroke="currentColor" x1="0.0517" y1="-0.0000" x2="156.8877" y2="-0.0000"/>
<line transform="translate(8.9851, 14.1969)" stroke-linejoin="round" stroke-linecap="round" stroke-width="0.1035" stroke="currentColor" x1="0.0517" y1="-0.0000" x2="156.8877" y2="-0.0000"/>
<line transform="translate(8.9851, 13.1969)" stroke-linejoin="round" stroke-linecap="round" stroke-width="0.1035" stroke="currentColor" x1="0.0517" y1="-0.0000" x2="156.8877" y2="-0.0000"/>
<rect transform="translate(67.3786, 15.1969)" x="0.0000" y="-2.0517" width="0.1966" height="4.0517" ry="0.0000" fill="currentColor"/>
<rect transform="translate(108.6525, 15.1969)" x="0.0000" y="-2.0517" width="0.1966" height="4.0517" ry="0.0000" fill="currentColor"/>
<rect transform="translate(122.7372, 26.0108)" x="0.0000" y="-2.0000" width="0.1966" height="4.0000" ry="0.0000" fill="currentColor"/>
<rect transform="translate(108.6525, 1.6892)" x="0.0000" y="6.3851" width="0.1966" height="5.1227" ry="0.0000" fill="currentColor"/>
<line transform="translate(8.9851, 28.0108)" stroke-linejoin="round" stroke-linecap="round" stroke-width="0.1035" stroke="currentColor" x1="0.0517" y1="-0.0000" x2="156.8877" y2="-0.0000"/>
<line transform="translate(8.9851, 27.0108)" stroke-linejoin="round" stroke-linecap="round" stroke-width="0.1035" stroke="currentColor" x1="0.0517" y1="-0.0000" x2="156.8877" y2="-0.0000"/>
<line transform="translate(8.9851, 26.0108)" stroke-linejoin="round" stroke-linecap="round" stroke-width="0.1035" stroke="currentColor" x1="0.0517" y1="-0.0000" x2="156.8877" y2="-0.0000"/>
<line transform="translate(8.9851, 25.0108)" stroke-linejoin="round" stroke-linecap="round" stroke-width="0.1035" stroke="currentColor" x1="0.0517" y1="-0.0000" x2="156.8877" y2="-0.0000"/>
<line transform="translate(8.9851, 24.0108)" stroke-linejoin="round" stroke-linecap="round" stroke-width="0.1035" stroke="currentColor" x1="0.0517" y1="-0.0000" x2="156.8877" y2="-0.0000"/>
<rect transform="translate(53.2939, 6.0225)" x="0.0000" y="-2.0000" width="0.1966" height="4.0517" ry="0.0000" fill="currentColor"/>
<rect transform="translate(67.3786, 1.6892)" x="0.0000" y="6.3851" width="0.1966" height="5.1227" ry="0.0000" fill="currentColor"/>
<rect transform="translate(122.7372, 1.6892)" x="0.0000" y="6.3851" width="0.1966" height="5.1227" ry="0.0000" fill="currentColor"/>
<rect transform="translate(67.3786, 6.0225)" x="0.0000" y="-2.0000" width="0.1966" height="4.0517" ry="0.0000" fill="currentColor"/>
<rect transform="translate(83.1887, 1.6892)" x="0.0000" y="6.3851" width="0.1966" height="5.1227" ry="0.0000" fill="currentColor"/>
<rect transform="translate(122.7372, 15.1969)" x="0.0000" y="-2.0517" width="0.1966" height="4.0517" ry="0.0000" fill="currentColor"/>
<rect transform="translate(67.3786, 26.0108)" x="0.0000" y="-2.0000" width="0.1966" height="4.0000" ry="0.0000" fill="currentColor"/>
<rect transform="translate(108.6525, 6.0225)" x="0.0000" y="-2.0000" width="0.1966" height="4.0517" ry="0.0000" fill="currentColor"/>
<rect transform="translate(53.2939, 1.6892)" x="0.0000" y="6.3851" width="0.1966" height="5.1227" ry="0.0000" fill="currentColor"/>
<rect transform="translate(83.1887, 26.0108)" x="0.0000" y="-2.0000" width="0.1966" height="4.0000" ry="0.0000" fill="currentColor"/>
<rect transform="translate(53.2939, 15.1969)" x="0.0000" y="-2.0517" width="0.1966" height="4.0517" ry="0.0000" fill="currentColor"/>
<path transform="translate(114.4865, 13.1969) scale(0.0040, -0.0040)" d="M218 136c55 0 108 -28 108 -89c0 -71 -55 -121 -102 -149c-35 -21 -75 -34 -116 -34c-55 0 -108 28 -108 89c0 71 55 121 102 149c35 21 75 34 116 34z" fill="currentColor"/>
<rect transform="translate(114.5538, 15.1969)" x="-0.0672" y="-1.8139" width="0.1345" height="3.3139" ry="0.0421" fill="currentColor"/>
<path transform="translate(112.1943, 27.5108) scale(0.0040, -0.0040)" d="M0 0c0 31 25 56 56 56s56 -25 56 -56s-25 -56 -56 -56s-56 25 -56 56z" fill="currentColor"/>
<rect transform="translate(112.0767, 15.1969)" x="-0.0672" y="-1.3139" width="0.1345" height="3.3139" ry="0.0421" fill="currentColor"/>
<path transform="translate(112.0094, 13.6969) scale(0.0040, -0.0040)" d="M218 136c55 0 108 -28 108 -89c0 -71 -55 -121 -102 -149c-35 -21 -75 -34 -116 -34c-55 0 -108 28 -108 89c0 71 55 121 102 149c35 21 75 34 116 34z" fill="currentColor"/>
<rect transform="translate(123.9343, 15.1969)" x="-0.0672" y="-2.3139" width="0.1345" height="3.3139" ry="0.0421" fill="currentColor"/>
<path transform="translate(126.2790, 27.5108) scale(0.0040, -0.0040)" d="M0 0c0 31 25 56 56 56s56 -25 56 -56s-25 -56 -56 -56s-56 25 -56 56z" fill="currentColor"/>
<rect transform="translate(119.5079, 15.1969)" x="-0.0672" y="-2.7410" width="0.1345" height="3.2410" ry="0.0421" fill="currentColor"/>
<rect transform="translate(117.0308, 15.1969)" x="-0.0672" y="-2.3139" width="0.1345" height="3.3139" ry="0.0421" fill="currentColor"/>
<path transform="translate(119.4407, 4.5225) scale(0.0040, -0.0040)" d="M314 65c0 24 -21 41 -42 41c-4 0 -8 0 -12 -1c-31 -9 -78 -40 -115 -64s-84 -53 -104 -78c-7 -8 -10 -18 -10 -28c0 -24 21 -41 42 -41c4 0 8 0 12 1c31 9 77 40 114 64s84 53 104 78c7 8 11 18 11 28zM262 136c46 0 82 -21 82 -71c0 -19 -4 -39 -10 -57
c-12 -37 -32 -72 -64 -94c-53 -36 -113 -50 -187 -50c-46 0 -83 21 -83 71c0 19 5 39 11 57c12 37 31 72 63 94c53 36 114 50 188 50z" fill="currentColor"/>
<path transform="translate(119.4407, 12.1969) scale(0.0040, -0.0040)" d="M314 65c0 24 -21 41 -42 41c-4 0 -8 0 -12 -1c-31 -9 -78 -40 -115 -64s-84 -53 -104 -78c-7 -8 -10 -18 -10 -28c0 -24 21 -41 42 -41c4 0 8 0 12 1c31 9 77 40 114 64s84 53 104 78c7 8 11 18 11 28zM262 136c46 0 82 -21 82 -71c0 -19 -4 -39 -10 -57
c-12 -37 -32 -72 -64 -94c-53 -36 -113 -50 -187 -50c-46 0 -83 21 -83 71c0 19 5 39 11 57c12 37 31 72 63 94c53 36 114 50 188 50z" fill="currentColor"/>
<rect transform="translate(120.7508, 6.0225)" x="-0.0672" y="-4.3333" width="0.1345" height="2.5743" ry="0.0421" fill="currentColor"/>
<path transform="translate(116.9636, 12.6969) scale(0.0040, -0.0040)" d="M218 136c55 0 108 -28 108 -89c0 -71 -55 -121 -102 -149c-35 -21 -75 -34 -116 -34c-55 0 -108 28 -108 89c0 71 55 121 102 149c35 21 75 34 116 34z" fill="currentColor"/>
<path transform="translate(123.8670, 5.0225) scale(0.0040, -0.0040)" d="M213 112c-50 0 -69 -43 -69 -88c0 -77 57 -136 134 -136c50 0 69 43 69 88c0 77 -57 136 -134 136zM491 0c0 -43 -34 -75 -72 -96c-53 -29 -114 -40 -174 -40s-120 11 -173 40c-38 21 -72 53 -72 96s34 75 72 96c53 29 113 40 173 40s121 -11 174 -40
c38 -21 72 -53 72 -96z" fill="currentColor"/>
<path transform="translate(123.8670, 12.6969) scale(0.0040, -0.0040)" d="M218 136c55 0 108 -28 108 -89c0 -71 -55 -121 -102 -149c-35 -21 -75 -34 -116 -34c-55 0 -108 28 -108 89c0 71 55 121 102 149c35 21 75 34 116 34z" fill="currentColor"/>
<path transform="translate(123.8670, 28.0108) scale(0.0040, -0.0040)" d="M213 112c-50 0 -69 -43 -69 -88c0 -77 57 -136 134 -136c50 0 69 43 69 88c0 77 -57 136 -134 136zM491 0c0 -43 -34 -75 -72 -96c-53 -29 -114 -40 -174 -40s-120 11 -173 40c-38 21 -72 53 -72 96s34 75 72 96c53 29 113 40 173 40s121 -11 174 -40
c38 -21 72 -53 72 -96z" fill="currentColor"/>
<path transform="translate(126.2790, 4.5225) scale(0.0040, -0.0040)" d="M0 0c0 31 25 56 56 56s56 -25 56 -56s-25 -56 -56 -56s-56 25 -56 56z" fill="currentColor"/>
<rect transform="translate(96.9188, 6.0225)" x="-0.0672" y="2.7590" width="0.1345" height="2.2410" ry="0.0421" fill="currentColor"/>
<path transform="translate(99.2636, 27.5108) scale(0.0040, -0.0040)" d="M0 0c0 31 25 56 56 56s56 -25 56 -56s-25 -56 -56 -56s-56 25 -56 56z" fill="currentColor"/>
<path transform="translate(17.4586, 26.0108)" stroke-width="0.0828" stroke-linejoin="round" stroke-linecap="round" stroke="currentColor" fill="currentColor" d="M1.1810 2.7500C2.4643 3.7035 10.9990 3.7035 12.2823 2.7500L12.2823 2.7500C10.9990 3.5794 2.4643 3.5794 1.1810 2.7500z"/>
<path transform="translate(90.1746, 12.6969) scale(0.0040, -0.0040)" d="M218 136c55 0 108 -28 108 -89c0 -71 -55 -121 -102 -149c-35 -21 -75 -34 -116 -34c-55 0 -108 28 -108 89c0 71 55 121 102 149c35 21 75 34 116 34z" fill="currentColor"/>
<rect transform="translate(90.2419, 15.1969)" x="-0.0672" y="-2.3139" width="0.1345" height="3.3139" ry="0.0421" fill="currentColor"/>
<path transform="translate(92.4017, 7.0225) scale(0.0040, -0.0040)" d="M314 65c0 24 -21 41 -42 41c-4 0 -8 0 -12 -1c-31 -9 -78 -40 -115 -64s-84 -53 -104 -78c-7 -8 -10 -18 -10 -28c0 -24 21 -41 42 -41c4 0 8 0 12 1c31 9 77 40 114 64s84 53 104 78c7 8 11 18 11 28zM262 136c46 0 82 -21 82 -71c0 -19 -4 -39 -10 -57
c-12 -37 -32 -72 -64 -94c-53 -36 -113 -50 -187 -50c-46 0 -83 21 -83 71c0 19 5 39 11 57c12 37 31 72 63 94c53 36 114 50 188 50z" fill="currentColor"/>
<path transform="translate(92.4017, 9.0225) scale(0.0040, -0.0040)" d="M314 65c0 24 -21 41 -42 41c-4 0 -8 0 -12 -1c-31 -9 -78 -40 -115 -64s-84 -53 -104 -78c-7 -8 -10 -18 -10 -28c0 -24 21 -41 42 -41c4 0 8 0 12 1c31 9 77 40 114 64s84 53 104 78c7 8 11 18 11 28zM262 136c46 0 82 -21 82 -71c0 -19 -4 -39 -10 -57
c-12 -37 -32 -72 -64 -94c-53 -36 -113 -50 -187 -50c-46 0 -83 21 -83 71c0 19 5 39 11 57c12 37 31 72 63 94c53 36 114 50 188 50z" fill="currentColor"/>
<rect transform="translate(93.7118, 6.0225)" x="-0.0672" y="-2.5000" width="0.1345" height="3.2410" ry="0.0421" fill="currentColor"/>
<rect transform="translate(92.4690, 6.0225)" x="-0.0672" y="3.2590" width="0.1345" height="2.2410" ry="0.0421" fill="currentColor"/>
<path transform="translate(96.8516, 6.0225) scale(0.0040, -0.0040)" d="M213 112c-50 0 -69 -43 -69 -88c0 -77 57 -136 134 -136c50 0 69 43 69 88c0 77 -57 136 -134 136zM491 0c0 -43 -34 -75 -72 -96c-53 -29 -114 -40 -174 -40s-120 11 -173 40c-38 21 -72 53 -72 96s34 75 72 96c53 29 113 40 173 40s121 -11 174 -40
c38 -21 72 -53 72 -96z" fill="currentColor"/>
<path transform="translate(96.8516, 8.5225) scale(0.0040, -0.0040)" d="M314 65c0 24 -21 41 -42 41c-4 0 -8 0 -12 -1c-31 -9 -78 -40 -115 -64s-84 -53 -104 -78c-7 -8 -10 -18 -10 -28c0 -24 21 -41 42 -41c4 0 8 0 12 1c31 9 77 40 114 64s84 53 104 78c7 8 11 18 11 28zM262 136c46 0 82 -21 82 -71c0 -19 -4 -39 -10 -57
c-12 -37 -32 -72 -64 -94c-53 -36 -113 -50 -187 -50c-46 0 -83 21 -83 71c0 19 5 39 11 57c12 37 31 72 63 94c53 36 114 50 188 50z" fill="currentColor"/>
<path transform="translate(96.8516, 28.0108) scale(0.0040, -0.0040)" d="M213 112c-50 0 -69 -43 -69 -88c0 -77 57 -136 134 -136c50 0 69 43 69 88c0 77 -57 136 -134 136zM491 0c0 -43 -34 -75 -72 -96c-53 -29 -114 -40 -174 -40s-120 11 -173 40c-38 21 -72 53 -72 96s34 75 72 96c53 29 113 40 173 40s121 -11 174 -40
c38 -21 72 -53 72 -96z" fill="currentColor"/>
<rect transform="translate(105.2521, 6.0225)" x="-0.0672" y="2.2590" width="0.1345" height="2.4077" ry="0.0421" fill="currentColor"/>
<path transform="translate(109.7823, 5.0225) scale(0.0040, -0.0040)" d="M213 112c-50 0 -69 -43 -69 -88c0 -77 57 -136 134 -136c50 0 69 43 69 88c0 77 -57 136 -134 136zM491 0c0 -43 -34 -75 -72 -96c-53 -29 -114 -40 -174 -40s-120 11 -173 40c-38 21 -72 53 -72 96s34 75 72 96c53 29 113 40 173 40s121 -11 174 -40
c38 -21 72 -53 72 -96z" fill="currentColor"/>
<path transform="translate(109.7823, 12.6969) scale(0.0040, -0.0040)" d="M218 136c55 0 108 -28 108 -89c0 -71 -55 -121 -102 -149c-35 -21 -75 -34 -116 -34c-55 0 -108 28 -108 89c0 71 55 121 102 149c35 21 75 34 116 34z" fill="currentColor"/>
<path transform="translate(109.7823, 28.0108) scale(0.0040, -0.0040)" d="M213 112c-50 0 -69 -43 -69 -88c0 -77 57 -136 134 -136c50 0 69 43 69 88c0 77 -57 136 -134 136zM491 0c0 -43 -34 -75 -72 -96c-53 -29 -114 -40 -174 -40s-120 11 -173 40c-38 21 -72 53 -72 96s34 75 72 96c53 29 113 40 173 40s121 -11 174 -40
c38 -21 72 -53 72 -96z" fill="currentColor"/>
<rect transform="translate(109.8496, 15.1969)" x="-0.0672" y="-2.3139" width="0.1345" height="3.3139" ry="0.0421" fill="currentColor"/>
<path transform="translate(100.2306, 9.0225) scale(0.0040, -0.0040)" d="M218 136c55 0 108 -28 108 -89c0 -71 -55 -121 -102 -149c-35 -21 -75 -34 -116 -34c-55 0 -108 28 -108 89c0 71 55 121 102 149c35 21 75 34 116 34z" fill="currentColor"/>
<rect transform="translate(100.2979, 6.0225)" x="-0.0672" y="3.1861" width="0.1345" height="2.3139" ry="0.0421" fill="currentColor"/>
<path transform="translate(102.7077, 8.5225) scale(0.0040, -0.0040)" d="M218 136c55 0 108 -28 108 -89c0 -71 -55 -121 -102 -149c-35 -21 -75 -34 -116 -34c-55 0 -108 28 -108 89c0 71 55 121 102 149c35 21 75 34 116 34z" fill="currentColor"/>
<rect transform="translate(102.7750, 6.0225)" x="-0.0672" y="2.6861" width="0.1345" height="2.3139" ry="0.0421" fill="currentColor"/>
<path transform="translate(105.1848, 5.5225) scale(0.0040, -0.0040)" d="M314 65c0 24 -21 41 -42 41c-4 0 -8 0 -12 -1c-31 -9 -78 -40 -115 -64s-84 -53 -104 -78c-7 -8 -10 -18 -10 -28c0 -24 21 -41 42 -41c4 0 8 0 12 1c31 9 77 40 114 64s84 53 104 78c7 8 11 18 11 28zM262 136c46 0 82 -21 82 -71c0 -19 -4 -39 -10 -57
c-12 -37 -32 -72 -64 -94c-53 -36 -113 -50 -187 -50c-46 0 -83 21 -83 71c0 19 5 39 11 57c12 37 31 72 63 94c53 36 114 50 188 50z" fill="currentColor"/>
<path transform="translate(105.1848, 8.0225) scale(0.0040, -0.0040)" d="M314 65c0 24 -21 41 -42 41c-4 0 -8 0 -12 -1c-31 -9 -78 -40 -115 -64s-84 -53 -104 -78c-7 -8 -10 -18 -10 -28c0 -24 21 -41 42 -41c4 0 8 0 12 1c31 9 77 40 114 64s84 53 104 78c7 8 11 18 11 28zM262 136c46 0 82 -21 82 -71c0 -19 -4 -39 -10 -57
c-12 -37 -32 -72 -64 -94c-53 -36 -113 -50 -187 -50c-46 0 -83 21 -83 71c0 19 5 39 11 57c12 37 31 72 63 94c53 36 114 50 188 50z" fill="currentColor"/>
<rect transform="translate(106.4949, 6.0225)" x="-0.0672" y="-3.6667" width="0.1345" height="2.9077" ry="0.0421" fill="currentColor"/>
<path transform="translate(157.3504, 9.0225) scale(0.0040, -0.0040)" d="M218 136c55 0 108 -28 108 -89c0 -71 -55 -121 -102 -149c-35 -21 -75 -34 -116 -34c-55 0 -108 28 -108 89c0 71 55 121 102 149c35 21 75 34 116 34z" fill="currentColor"/>
<rect transform="translate(157.4176, 6.0225)" x="-0.0672" y="3.1861" width="0.1345" height="2.3139" ry="0.0421" fill="currentColor"/>
<path transform="translate(159.8274, 8.5225) scale(0.0040, -0.0040)" d="M218 136c55 0 108 -28 108 -89c0 -71 -55 -121 -102 -149c-35 -21 -75 -34 -116 -34c-55 0 -108 28 -108 89c0 71 55 121 102 149c35 21 75 34 116 34z" fill="currentColor"/>
<rect transform="translate(159.8947, 6.0225)" x="-0.0672" y="2.6861" width="0.1345" height="2.3139" ry="0.0421" fill="currentColor"/>
<path transform="translate(162.3045, 5.5225) scale(0.0040, -0.0040)" d="M314 65c0 24 -21 41 -42 41c-4 0 -8 0 -12 -1c-31 -9 -78 -40 -115 -64s-84 -53 -104 -78c-7 -8 -10 -18 -10 -28c0 -24 21 -41 42 -41c4 0 8 0 12 1c31 9 77 40 114 64s84 53 104 78c7 8 11 18 11 28zM262 136c46 0 82 -21 82 -71c0 -19 -4 -39 -10 -57
c-12 -37 -32 -72 -64 -94c-53 -36 -113 -50 -187 -50c-46 0 -83 21 -83 71c0 19 5 39 11 57c12 37 31 72 63 94c53 36 114 50 188 50z" fill="currentColor"/>
<path transform="translate(153.9713, 5.0225) scale(0.0040, -0.0040)" d="M213 112c-50 0 -69 -43 -69 -88c0 -77 57 -136 134 -136c50 0 69 43 69 88c0 77 -57 136 -134 136zM491 0c0 -43 -34 -75 -72 -96c-53 -29 -114 -40 -174 -40s-120 11 -173 40c-38 21 -72 53 -72 96s34 75 72 96c53 29 113 40 173 40s121 -11 174 -40
c38 -21 72 -53 72 -96z" fill="currentColor"/>
<path transform="translate(153.9713, 9.5225) scale(0.0040, -0.0040)" d="M314 65c0 24 -21 41 -42 41c-4 0 -8 0 -12 -1c-31 -9 -78 -40 -115 -64s-84 -53 -104 -78c-7 -8 -10 -18 -10 -28c0 -24 21 -41 42 -41c4 0 8 0 12 1c31 9 77 40 114 64s84 53 104 78c7 8 11 18 11 28zM262 136c46 0 82 -21 82 -71c0 -19 -4 -39 -10 -57
c-12 -37 -32 -72 -64 -94c-53 -36 -113 -50 -187 -50c-46 0 -83 21 -83 71c0 19 5 39 11 57c12 37 31 72 63 94c53 36 114 50 188 50z" fill="currentColor"/>
<path transform="translate(153.9713, 28.0108) scale(0.0040, -0.0040)" d="M213 112c-50 0 -69 -43 -69 -88c0 -77 57 -136 134 -136c50 0 69 43 69 88c0 77 -57 136 -134 136zM491 0c0 -43 -34 -75 -72 -96c-53 -29 -114 -40 -174 -40s-120 11 -173 40c-38 21 -72 53 -72 96s34 75 72 96c53 29 113 40 173 40s121 -11 174 -40
c38 -21 72 -53 72 -96z" fill="currentColor"/>
<rect transform="translate(154.0385, 6.0225)" x="-0.0672" y="3.7590" width="0.1345" height="2.2410" ry="0.0421" fill="currentColor"/>
<path transform="translate(162.3045, 8.0225) scale(0.0040, -0.0040)" d="M314 65c0 24 -21 41 -42 41c-4 0 -8 0 -12 -1c-31 -9 -78 -40 -115 -64s-84 -53 -104 -78c-7 -8 -10 -18 -10 -28c0 -24 21 -41 42 -41c4 0 8 0 12 1c31 9 77 40 114 64s84 53 104 78c7 8 11 18 11 28zM262 136c46 0 82 -21 82 -71c0 -19 -4 -39 -10 -57
c-12 -37 -32 -72 -64 -94c-53 -36 -113 -50 -187 -50c-46 0 -83 21 -83 71c0 19 5 39 11 57c12 37 31 72 63 94c53 36 114 50 188 50z" fill="currentColor"/>
<path transform="translate(156.3833, 27.5108) scale(0.0040, -0.0040)" d="M0 0c0 31 25 56 56 56s56 -25 56 -56s-25 -56 -56 -56s-56 25 -56 56z" fill="currentColor"/>
<path transform="translate(139.4524, 26.0108)" stroke-width="0.0828" stroke-linejoin="round" stroke-linecap="round" stroke="currentColor" fill="currentColor" d="M1.1810 2.7500C2.5707 3.7264 13.9101 3.7264 15.2999 2.7500L15.2999 2.7500C13.9101 3.6022 2.5707 3.6022 1.1810 2.7500z"/>
<path transform="translate(123.8670, 26.0108)" stroke-width="0.0828" stroke-linejoin="round" stroke-linecap="round" stroke="currentColor" fill="currentColor" d="M1.1810 2.7500C2.6012 3.7323 14.9462 3.7323 16.3664 2.7500L16.3664 2.7500C14.9462 3.6082 2.6012 3.6082 1.1810 2.7500z"/>
<path transform="translate(109.7823, 26.0108)" stroke-width="0.0828" stroke-linejoin="round" stroke-linecap="round" stroke="currentColor" fill="currentColor" d="M1.1810 2.7500C2.5574 3.7237 13.4893 3.7237 14.8657 2.7500L14.8657 2.7500C13.4893 3.5996 2.5574 3.5996 1.1810 2.7500z"/>
<path transform="translate(96.8516, 26.0108)" stroke-width="0.0828" stroke-linejoin="round" stroke-linecap="round" stroke="currentColor" fill="currentColor" d="M1.1810 2.7500C2.5190 3.7157 12.3738 3.7157 13.7118 2.7500L13.7118 2.7500C12.3738 3.5915 2.5190 3.5915 1.1810 2.7500z"/>
<path transform="translate(84.3185, 26.0108)" stroke-width="0.0828" stroke-linejoin="round" stroke-linecap="round" stroke="currentColor" fill="currentColor" d="M1.1810 2.7500C2.5046 3.7126 11.9905 3.7126 13.3141 2.7500L13.3141 2.7500C11.9905 3.5884 2.5046 3.5884 1.1810 2.7500z"/>
<path transform="translate(68.5084, 26.0108)" stroke-width="0.0828" stroke-linejoin="round" stroke-linecap="round" stroke="currentColor" fill="currentColor" d="M1.1810 2.7500C2.6072 3.7335 15.1649 3.7335 16.5910 2.7500L16.5910 2.7500C15.1649 3.6093 2.6072 3.6093 1.1810 2.7500z"/>
<path transform="translate(54.4237, 26.0108)" stroke-width="0.0828" stroke-linejoin="round" stroke-linecap="round" stroke="currentColor" fill="currentColor" d="M1.1810 2.7500C2.5574 3.7237 13.4893 3.7237 14.8657 2.7500L14.8657 2.7500C13.4893 3.5996 2.5574 3.5996 1.1810 2.7500z"/>
<path transform="translate(41.4930, 26.0108)" stroke-width="0.0828" stroke-linejoin="round" stroke-linecap="round" stroke="currentColor" fill="currentColor" d="M1.1810 2.7500C2.5190 3.7157 12.3738 3.7157 13.7118 2.7500L13.7118 2.7500C12.3738 3.5915 2.5190 3.5915 1.1810 2.7500z"/>
<path transform="translate(28.9599, 26.0108)" stroke-width="0.0828" stroke-linejoin="round" stroke-linecap="round" stroke="currentColor" fill="currentColor" d="M1.1810 2.7500C2.5046 3.7126 11.9905 3.7126 13.3141 2.7500L13.3141 2.7500C11.9905 3.5884 2.5046 3.5884 1.1810 2.7500z"/>
<rect transform="translate(163.6146, 6.0225)" x="-0.0672" y="-3.6667" width="0.1345" height="2.9077" ry="0.0421" fill="currentColor"/>
<rect transform="translate(162.3718, 6.0225)" x="-0.0672" y="2.2590" width="0.1345" height="2.4077" ry="0.0421" fill="currentColor"/>
<path transform="translate(136.0025, 9.0225) scale(0.0040, -0.0040)" d="M218 136c55 0 108 -28 108 -89c0 -71 -55 -121 -102 -149c-35 -21 -75 -34 -116 -34c-55 0 -108 28 -108 89c0 71 55 121 102 149c35 21 75 34 116 34z" fill="currentColor"/>
<rect transform="translate(136.0697, 6.0225)" x="-0.0672" y="3.1861" width="0.1345" height="2.3139" ry="0.0421" fill="currentColor"/>
<path transform="translate(139.4524, 5.0225) scale(0.0040, -0.0040)" d="M213 112c-50 0 -69 -43 -69 -88c0 -77 57 -136 134 -136c50 0 69 43 69 88c0 77 -57 136 -134 136zM491 0c0 -43 -34 -75 -72 -96c-53 -29 -114 -40 -174 -40s-120 11 -173 40c-38 21 -72 53 -72 96s34 75 72 96c53 29 113 40 173 40s121 -11 174 -40
c38 -21 72 -53 72 -96z" fill="currentColor"/>
<path transform="translate(139.4524, 9.5225) scale(0.0040, -0.0040)" d="M218 136c55 0 108 -28 108 -89c0 -71 -55 -121 -102 -149c-35 -21 -75 -34 -116 -34c-55 0 -108 28 -108 89c0 71 55 121 102 149c35 21 75 34 116 34z" fill="currentColor"/>
<path transform="translate(139.4524, 28.0108) scale(0.0040, -0.0040)" d="M213 112c-50 0 -69 -43 -69 -88c0 -77 57 -136 134 -136c50 0 69 43 69 88c0 77 -57 136 -134 136zM491 0c0 -43 -34 -75 -72 -96c-53 -29 -114 -40 -174 -40s-120 11 -173 40c-38 21 -72 53 -72 96s34 75 72 96c53 29 113 40 173 40s121 -11 174 -40
c38 -21 72 -53 72 -96z" fill="currentColor"/>
<rect transform="translate(133.5926, 6.0225)" x="-0.0672" y="2.6861" width="0.1345" height="2.3139" ry="0.0421" fill="currentColor"/>
<rect transform="translate(139.5196, 6.0225)" x="-0.0672" y="3.6861" width="0.1345" height="2.3139" ry="0.0421" fill="currentColor"/>
<path transform="translate(128.5712, 7.5225) scale(0.0040, -0.0040)" d="M218 136c55 0 108 -28 108 -89c0 -71 -55 -121 -102 -149c-35 -21 -75 -34 -116 -34c-55 0 -108 28 -108 89c0 71 55 121 102 149c35 21 75 34 116 34z" fill="currentColor"/>
<path transform="translate(126.0941, 7.0225) scale(0.0040, -0.0040)" d="M218 136c55 0 108 -28 108 -89c0 -71 -55 -121 -102 -149c-35 -21 -75 -34 -116 -34c-55 0 -108 28 -108 89c0 71 55 121 102 149c35 21 75 34 116 34z" fill="currentColor"/>
<rect transform="translate(126.1614, 6.0225)" x="-0.0672" y="1.1861" width="0.1345" height="2.8139" ry="0.0421" fill="currentColor"/>
<rect transform="translate(128.6385, 6.0225)" x="-0.0672" y="1.6861" width="0.1345" height="2.6472" ry="0.0421" fill="currentColor"/>
<path transform="translate(131.0483, 8.0225) scale(0.0040, -0.0040)" d="M218 136c55 0 108 -28 108 -89c0 -71 -55 -121 -102 -149c-35 -21 -75 -34 -116 -34c-55 0 -108 28 -108 89c0 71 55 121 102 149c35 21 75 34 116 34z" fill="currentColor"/>
<rect transform="translate(131.1155, 6.0225)" x="-0.0672" y="2.1861" width="0.1345" height="2.4806" ry="0.0421" fill="currentColor"/>
<path transform="translate(133.5254, 8.5225) scale(0.0040, -0.0040)" d="M218 136c55 0 108 -28 108 -89c0 -71 -55 -121 -102 -149c-35 -21 -75 -34 -116 -34c-55 0 -108 28 -108 89c0 71 55 121 102 149c35 21 75 34 116 34z" fill="currentColor"/>
<path transform="translate(144.6566, 8.0225) scale(0.0040, -0.0040)" d="M218 136c55 0 108 -28 108 -89c0 -71 -55 -121 -102 -149c-35 -21 -75 -34 -116 -34c-55 0 -108 28 -108 89c0 71 55 121 102 149c35 21 75 34 116 34z" fill="currentColor"/>
<rect transform="translate(144.7238, 6.0225)" x="-0.0672" y="2.1861" width="0.1345" height="2.4806" ry="0.0421" fill="currentColor"/>
<path transform="translate(147.1336, 8.5225) scale(0.0040, -0.0040)" d="M218 136c55 0 108 -28 108 -89c0 -71 -55 -121 -102 -149c-35 -21 -75 -34 -116 -34c-55 0 -108 28 -108 89c0 71 55 121 102 149c35 21 75 34 116 34z" fill="currentColor"/>
<rect transform="translate(147.2009, 6.0225)" x="-0.0672" y="2.6861" width="0.1345" height="2.3139" ry="0.0421" fill="currentColor"/>
<path transform="translate(149.6107, 4.5225) scale(0.0040, -0.0040)" d="M314 65c0 24 -21 41 -42 41c-4 0 -8 0 -12 -1c-31 -9 -78 -40 -115 -64s-84 -53 -104 -78c-7 -8 -10 -18 -10 -28c0 -24 21 -41 42 -41c4 0 8 0 12 1c31 9 77 40 114 64s84 53 104 78c7 8 11 18 11 28zM262 136c46 0 82 -21 82 -71c0 -19 -4 -39 -10 -57
c-12 -37 -32 -72 -64 -94c-53 -36 -113 -50 -187 -50c-46 0 -83 21 -83 71c0 19 5 39 11 57c12 37 31 72 63 94c53 36 114 50 188 50z" fill="currentColor"/>
<path transform="translate(149.6107, 9.0225) scale(0.0040, -0.0040)" d="M314 65c0 24 -21 41 -42 41c-4 0 -8 0 -12 -1c-31 -9 -78 -40 -115 -64s-84 -53 -104 -78c-7 -8 -10 -18 -10 -28c0 -24 21 -41 42 -41c4 0 8 0 12 1c31 9 77 40 114 64s84 53 104 78c7 8 11 18 11 28zM262 136c46 0 82 -21 82 -71c0 -19 -4 -39 -10 -57
c-12 -37 -32 -72 -64 -94c-53 -36 -113 -50 -187 -50c-46 0 -83 21 -83 71c0 19 5 39 11 57c12 37 31 72 63 94c53 36 114 50 188 50z" fill="currentColor"/>
<rect transform="translate(150.9208, 6.0225)" x="-0.0672" y="-4.3333" width="0.1345" height="2.5743" ry="0.0421" fill="currentColor"/>
<rect transform="translate(149.6780, 6.0225)" x="-0.0672" y="3.2590" width="0.1345" height="2.2410" ry="0.0421" fill="currentColor"/>
<path transform="translate(141.8644, 27.5108) scale(0.0040, -0.0040)" d="M0 0c0 31 25 56 56 56s56 -25 56 -56s-25 -56 -56 -56s-56 25 -56 56z" fill="currentColor"/>
<path transform="translate(142.1795, 7.5225) scale(0.0040, -0.0040)" d="M218 136c55 0 108 -28 108 -89c0 -71 -55 -121 -102 -149c-35 -21 -75 -34 -116 -34c-55 0 -108 28 -108 89c0 71 55 121 102 149c35 21 75 34 116 34z" fill="currentColor"/>
<rect transform="translate(142.2467, 6.0225)" x="-0.0672" y="1.6861" width="0.1345" height="2.6472" ry="0.0421" fill="currentColor"/>
<path transform="translate(19.8706, 27.5108) scale(0.0040, -0.0040)" d="M0 0c0 31 25 56 56 56s56 -25 56 -56s-25 -56 -56 -56s-56 25 -56 56z" fill="currentColor"/>
<path transform="translate(44.8720, 9.0225) scale(0.0040, -0.0040)" d="M218 136c55 0 108 -28 108 -89c0 -71 -55 -121 -102 -149c-35 -21 -75 -34 -116 -34c-55 0 -108 28 -108 89c0 71 55 121 102 149c35 21 75 34 116 34z" fill="currentColor"/>
<rect transform="translate(44.9393, 6.0225)" x="-0.0672" y="3.1861" width="0.1345" height="2.3139" ry="0.0421" fill="currentColor"/>
<path transform="translate(41.4930, 6.0225) scale(0.0040, -0.0040)" d="M213 112c-50 0 -69 -43 -69 -88c0 -77 57 -136 134 -136c50 0 69 43 69 88c0 77 -57 136 -134 136zM491 0c0 -43 -34 -75 -72 -96c-53 -29 -114 -40 -174 -40s-120 11 -173 40c-38 21 -72 53 -72 96s34 75 72 96c53 29 113 40 173 40s121 -11 174 -40
c38 -21 72 -53 72 -96z" fill="currentColor"/>
<path transform="translate(41.4930, 8.5225) scale(0.0040, -0.0040)" d="M314 65c0 24 -21 41 -42 41c-4 0 -8 0 -12 -1c-31 -9 -78 -40 -115 -64s-84 -53 -104 -78c-7 -8 -10 -18 -10 -28c0 -24 21 -41 42 -41c4 0 8 0 12 1c31 9 77 40 114 64s84 53 104 78c7 8 11 18 11 28zM262 136c46 0 82 -21 82 -71c0 -19 -4 -39 -10 -57
c-12 -37 -32 -72 -64 -94c-53 -36 -113 -50 -187 -50c-46 0 -83 21 -83 71c0 19 5 39 11 57c12 37 31 72 63 94c53 36 114 50 188 50z" fill="currentColor"/>
<path transform="translate(41.4930, 28.0108) scale(0.0040, -0.0040)" d="M213 112c-50 0 -69 -43 -69 -88c0 -77 57 -136 134 -136c50 0 69 43 69 88c0 77 -57 136 -134 136zM491 0c0 -43 -34 -75 -72 -96c-53 -29 -114 -40 -174 -40s-120 11 -173 40c-38 21 -72 53 -72 96s34 75 72 96c53 29 113 40 173 40s121 -11 174 -40
c38 -21 72 -53 72 -96z" fill="currentColor"/>
<rect transform="translate(41.5602, 6.0225)" x="-0.0672" y="2.7590" width="0.1345" height="2.2410" ry="0.0421" fill="currentColor"/>
<path transform="translate(43.9050, 27.5108) scale(0.0040, -0.0040)" d="M0 0c0 31 25 56 56 56s56 -25 56 -56s-25 -56 -56 -56s-56 25 -56 56z" fill="currentColor"/>
<path transform="translate(54.4237, 5.0225) scale(0.0040, -0.0040)" d="M213 112c-50 0 -69 -43 -69 -88c0 -77 57 -136 134 -136c50 0 69 43 69 88c0 77 -57 136 -134 136zM491 0c0 -43 -34 -75 -72 -96c-53 -29 -114 -40 -174 -40s-120 11 -173 40c-38 21 -72 53 -72 96s34 75 72 96c53 29 113 40 173 40s121 -11 174 -40
c38 -21 72 -53 72 -96z" fill="currentColor"/>
<path transform="translate(54.4237, 12.6969) scale(0.0040, -0.0040)" d="M218 136c55 0 108 -28 108 -89c0 -71 -55 -121 -102 -149c-35 -21 -75 -34 -116 -34c-55 0 -108 28 -108 89c0 71 55 121 102 149c35 21 75 34 116 34z" fill="currentColor"/>
<path transform="translate(54.4237, 28.0108) scale(0.0040, -0.0040)" d="M213 112c-50 0 -69 -43 -69 -88c0 -77 57 -136 134 -136c50 0 69 43 69 88c0 77 -57 136 -134 136zM491 0c0 -43 -34 -75 -72 -96c-53 -29 -114 -40 -174 -40s-120 11 -173 40c-38 21 -72 53 -72 96s34 75 72 96c53 29 113 40 173 40s121 -11 174 -40
c38 -21 72 -53 72 -96z" fill="currentColor"/>
<rect transform="translate(54.4910, 15.1969)" x="-0.0672" y="-2.3139" width="0.1345" height="3.3139" ry="0.0421" fill="currentColor"/>
<path transform="translate(49.8262, 8.0225) scale(0.0040, -0.0040)" d="M314 65c0 24 -21 41 -42 41c-4 0 -8 0 -12 -1c-31 -9 -78 -40 -115 -64s-84 -53 -104 -78c-7 -8 -10 -18 -10 -28c0 -24 21 -41 42 -41c4 0 8 0 12 1c31 9 77 40 114 64s84 53 104 78c7 8 11 18 11 28zM262 136c46 0 82 -21 82 -71c0 -19 -4 -39 -10 -57
c-12 -37 -32 -72 -64 -94c-53 -36 -113 -50 -187 -50c-46 0 -83 21 -83 71c0 19 5 39 11 57c12 37 31 72 63 94c53 36 114 50 188 50z" fill="currentColor"/>
<path transform="translate(47.3491, 8.5225) scale(0.0040, -0.0040)" d="M218 136c55 0 108 -28 108 -89c0 -71 -55 -121 -102 -149c-35 -21 -75 -34 -116 -34c-55 0 -108 28 -108 89c0 71 55 121 102 149c35 21 75 34 116 34z" fill="currentColor"/>
<rect transform="translate(47.4164, 6.0225)" x="-0.0672" y="2.6861" width="0.1345" height="2.3139" ry="0.0421" fill="currentColor"/>
<path transform="translate(49.8262, 5.5225) scale(0.0040, -0.0040)" d="M314 65c0 24 -21 41 -42 41c-4 0 -8 0 -12 -1c-31 -9 -78 -40 -115 -64s-84 -53 -104 -78c-7 -8 -10 -18 -10 -28c0 -24 21 -41 42 -41c4 0 8 0 12 1c31 9 77 40 114 64s84 53 104 78c7 8 11 18 11 28zM262 136c46 0 82 -21 82 -71c0 -19 -4 -39 -10 -57
c-12 -37 -32 -72 -64 -94c-53 -36 -113 -50 -187 -50c-46 0 -83 21 -83 71c0 19 5 39 11 57c12 37 31 72 63 94c53 36 114 50 188 50z" fill="currentColor"/>
<rect transform="translate(51.1363, 6.0225)" x="-0.0672" y="-3.6667" width="0.1345" height="2.9077" ry="0.0421" fill="currentColor"/>
<rect transform="translate(49.8935, 6.0225)" x="-0.0672" y="2.2590" width="0.1345" height="2.4077" ry="0.0421" fill="currentColor"/>
<rect transform="translate(29.0271, 15.1969)" x="-0.0672" y="-2.2410" width="0.1345" height="3.2410" ry="0.0421" fill="currentColor"/>
<path transform="translate(28.9599, 12.6969) scale(0.0040, -0.0040)" d="M314 65c0 24 -21 41 -42 41c-4 0 -8 0 -12 -1c-31 -9 -78 -40 -115 -64s-84 -53 -104 -78c-7 -8 -10 -18 -10 -28c0 -24 21 -41 42 -41c4 0 8 0 12 1c31 9 77 40 114 64s84 53 104 78c7 8 11 18 11 28zM262 136c46 0 82 -21 82 -71c0 -19 -4 -39 -10 -57
c-12 -37 -32 -72 -64 -94c-53 -36 -113 -50 -187 -50c-46 0 -83 21 -83 71c0 19 5 39 11 57c12 37 31 72 63 94c53 36 114 50 188 50z" fill="currentColor"/>
<path transform="translate(28.9599, 28.0108) scale(0.0040, -0.0040)" d="M213 112c-50 0 -69 -43 -69 -88c0 -77 57 -136 134 -136c50 0 69 43 69 88c0 77 -57 136 -134 136zM491 0c0 -43 -34 -75 -72 -96c-53 -29 -114 -40 -174 -40s-120 11 -173 40c-38 21 -72 53 -72 96s34 75 72 96c53 29 113 40 173 40s121 -11 174 -40
c38 -21 72 -53 72 -96z" fill="currentColor"/>
<path transform="translate(28.9599, 7.0225) scale(0.0040, -0.0040)" d="M213 112c-50 0 -69 -43 -69 -88c0 -77 57 -136 134 -136c50 0 69 43 69 88c0 77 -57 136 -134 136zM491 0c0 -43 -34 -75 -72 -96c-53 -29 -114 -40 -174 -40s-120 11 -173 40c-38 21 -72 53 -72 96s34 75 72 96c53 29 113 40 173 40s121 -11 174 -40
c38 -21 72 -53 72 -96z" fill="currentColor"/>
<path transform="translate(31.3719, 27.5108) scale(0.0040, -0.0040)" d="M0 0c0 31 25 56 56 56s56 -25 56 -56s-25 -56 -56 -56s-56 25 -56 56z" fill="currentColor"/>
<path transform="translate(24.4621, 7.0225) scale(0.0040, -0.0040)" d="M314 65c0 24 -21 41 -42 41c-4 0 -8 0 -12 -1c-31 -9 -78 -40 -115 -64s-84 -53 -104 -78c-7 -8 -10 -18 -10 -28c0 -24 21 -41 42 -41c4 0 8 0 12 1c31 9 77 40 114 64s84 53 104 78c7 8 11 18 11 28zM262 136c46 0 82 -21 82 -71c0 -19 -4 -39 -10 -57
c-12 -37 -32 -72 -64 -94c-53 -36 -113 -50 -187 -50c-46 0 -83 21 -83 71c0 19 5 39 11 57c12 37 31 72 63 94c53 36 114 50 188 50z" fill="currentColor"/>
<path transform="translate(20.9604, 15.1969) scale(0.0040, -0.0040)" d="M365 0h-355c-6 0 -10 4 -10 10v136c0 6 4 10 10 10h355c6 0 10 -4 10 -10v-136c0 -6 -4 -10 -10 -10z" fill="currentColor"/>
<path transform="translate(20.9604, 6.0225) scale(0.0040, -0.0040)" d="M365 0h-355c-6 0 -10 4 -10 10v136c0 6 4 10 10 10h355c6 0 10 -4 10 -10v-136c0 -6 -4 -10 -10 -10z" fill="currentColor"/>
<path transform="translate(24.4621, 12.6969) scale(0.0040, -0.0040)" d="M314 65c0 24 -21 41 -42 41c-4 0 -8 0 -12 -1c-31 -9 -78 -40 -115 -64s-84 -53 -104 -78c-7 -8 -10 -18 -10 -28c0 -24 21 -41 42 -41c4 0 8 0 12 1c31 9 77 40 114 64s84 53 104 78c7 8 11 18 11 28zM262 136c46 0 82 -21 82 -71c0 -19 -4 -39 -10 -57
c-12 -37 -32 -72 -64 -94c-53 -36 -113 -50 -187 -50c-46 0 -83 21 -83 71c0 19 5 39 11 57c12 37 31 72 63 94c53 36 114 50 188 50z" fill="currentColor"/>
<rect transform="translate(25.7722, 6.0225)" x="-0.0672" y="-2.5000" width="0.1345" height="3.2410" ry="0.0421" fill="currentColor"/>
<rect transform="translate(24.5293, 15.1969)" x="-0.0672" y="-2.2410" width="0.1345" height="3.2410" ry="0.0421" fill="currentColor"/>
<rect transform="translate(38.3532, 6.0225)" x="-0.0672" y="-2.5000" width="0.1345" height="3.2410" ry="0.0421" fill="currentColor"/>
<path transform="translate(34.8161, 12.6969) scale(0.0040, -0.0040)" d="M218 136c55 0 108 -28 108 -89c0 -71 -55 -121 -102 -149c-35 -21 -75 -34 -116 -34c-55 0 -108 28 -108 89c0 71 55 121 102 149c35 21 75 34 116 34z" fill="currentColor"/>
<rect transform="translate(34.8833, 15.1969)" x="-0.0672" y="-2.3139" width="0.1345" height="3.3139" ry="0.0421" fill="currentColor"/>
<path transform="translate(37.0431, 7.0225) scale(0.0040, -0.0040)" d="M314 65c0 24 -21 41 -42 41c-4 0 -8 0 -12 -1c-31 -9 -78 -40 -115 -64s-84 -53 -104 -78c-7 -8 -10 -18 -10 -28c0 -24 21 -41 42 -41c4 0 8 0 12 1c31 9 77 40 114 64s84 53 104 78c7 8 11 18 11 28zM262 136c46 0 82 -21 82 -71c0 -19 -4 -39 -10 -57
c-12 -37 -32 -72 -64 -94c-53 -36 -113 -50 -187 -50c-46 0 -83 21 -83 71c0 19 5 39 11 57c12 37 31 72 63 94c53 36 114 50 188 50z" fill="currentColor"/>
<path transform="translate(37.0431, 9.0225) scale(0.0040, -0.0040)" d="M314 65c0 24 -21 41 -42 41c-4 0 -8 0 -12 -1c-31 -9 -78 -40 -115 -64s-84 -53 -104 -78c-7 -8 -10 -18 -10 -28c0 -24 21 -41 42 -41c4 0 8 0 12 1c31 9 77 40 114 64s84 53 104 78c7 8 11 18 11 28zM262 136c46 0 82 -21 82 -71c0 -19 -4 -39 -10 -57
c-12 -37 -32 -72 -64 -94c-53 -36 -113 -50 -187 -50c-46 0 -83 21 -83 71c0 19 5 39 11 57c12 37 31 72 63 94c53 36 114 50 188 50z" fill="currentColor"/>
<rect transform="translate(37.1104, 6.0225)" x="-0.0672" y="3.2590" width="0.1345" height="2.2410" ry="0.0421" fill="currentColor"/>
<path transform="translate(32.3390, 13.1969) scale(0.0040, -0.0040)" d="M218 136c55 0 108 -28 108 -89c0 -71 -55 -121 -102 -149c-35 -21 -75 -34 -116 -34c-55 0 -108 28 -108 89c0 71 55 121 102 149c35 21 75 34 116 34z" fill="currentColor"/>
<rect transform="translate(32.4062, 15.1969)" x="-0.0672" y="-1.8139" width="0.1345" height="3.3139" ry="0.0421" fill="currentColor"/>
<path transform="translate(78.4168, 7.0225) scale(0.0040, -0.0040)" d="M314 65c0 24 -21 41 -42 41c-4 0 -8 0 -12 -1c-31 -9 -78 -40 -115 -64s-84 -53 -104 -78c-7 -8 -10 -18 -10 -28c0 -24 21 -41 42 -41c4 0 8 0 12 1c31 9 77 40 114 64s84 53 104 78c7 8 11 18 11 28zM262 136c46 0 82 -21 82 -71c0 -19 -4 -39 -10 -57
c-12 -37 -32 -72 -64 -94c-53 -36 -113 -50 -187 -50c-46 0 -83 21 -83 71c0 19 5 39 11 57c12 37 31 72 63 94c53 36 114 50 188 50z" fill="currentColor"/>
<rect transform="translate(8.9195, 16.0167)" x="0.0000" y="-12.0459" width="0.1655" height="24.0917" ry="0.0517" fill="currentColor"/>
<path transform="translate(78.4168, 12.6969) scale(0.0040, -0.0040)" d="M218 136c55 0 108 -28 108 -89c0 -71 -55 -121 -102 -149c-35 -21 -75 -34 -116 -34c-55 0 -108 28 -108 89c0 71 55 121 102 149c35 21 75 34 116 34z" fill="currentColor"/>
<rect transform="translate(79.7269, 6.0225)" x="-0.0672" y="-2.5000" width="0.1345" height="3.2410" ry="0.0421" fill="currentColor"/>
<rect transform="translate(78.4840, 15.1969)" x="-0.0672" y="-2.3139" width="0.1345" height="3.3139" ry="0.0421" fill="currentColor"/>
<path transform="translate(80.8939, 12.1969) scale(0.0040, -0.0040)" d="M218 136c55 0 108 -28 108 -89c0 -71 -55 -121 -102 -149c-35 -21 -75 -34 -116 -34c-55 0 -108 28 -108 89c0 71 55 121 102 149c35 21 75 34 116 34z" fill="currentColor"/>
<rect transform="translate(80.9611, 15.1969)" x="-0.0672" y="-2.8139" width="0.1345" height="3.3139" ry="0.0421" fill="currentColor"/>
<text transform="translate(-1.1517, 26.8374)" font-family="serif" font-size="2.2001" text-anchor="start" fill="currentColor">
<tspan>
Pedal   </tspan>
</text>
<rect transform="translate(73.5299, 15.1969)" x="-0.0672" y="-2.3139" width="0.1345" height="3.3139" ry="0.0421" fill="currentColor"/>
<path transform="translate(56.8357, 27.5108) scale(0.0040, -0.0040)" d="M0 0c0 31 25 56 56 56s56 -25 56 -56s-25 -56 -56 -56s-56 25 -56 56z" fill="currentColor"/>
<path transform="translate(17.4586, 6.0225) scale(0.0040, -0.0040)" d="M365 0h-355c-6 0 -10 4 -10 10v136c0 6 4 10 10 10h355c6 0 10 -4 10 -10v-136c0 -6 -4 -10 -10 -10z" fill="currentColor"/>
<path transform="translate(70.9855, 12.1969) scale(0.0040, -0.0040)" d="M218 136c55 0 108 -28 108 -89c0 -71 -55 -121 -102 -149c-35 -21 -75 -34 -116 -34c-55 0 -108 28 -108 89c0 71 55 121 102 149c35 21 75 34 116 34z" fill="currentColor"/>
<rect transform="translate(71.0528, 15.1969)" x="-0.0672" y="-2.8139" width="0.1345" height="3.3139" ry="0.0421" fill="currentColor"/>
<path transform="translate(73.4626, 12.6969) scale(0.0040, -0.0040)" d="M218 136c55 0 108 -28 108 -89c0 -71 -55 -121 -102 -149c-35 -21 -75 -34 -116 -34c-55 0 -108 28 -108 89c0 71 55 121 102 149c35 21 75 34 116 34z" fill="currentColor"/>
<path transform="translate(153.9713, 26.0108)" stroke-width="0.0828" stroke-linejoin="round" stroke-linecap="round" stroke="currentColor" fill="currentColor" d="M2.1620 2.5000C3.3669 3.4343 10.3518 3.4343 11.5566 2.5000L11.5566 2.5000C10.3518 3.3101 3.3669 3.3101 2.1620 2.5000z"/>
<path transform="translate(75.9397, 13.1969) scale(0.0040, -0.0040)" d="M218 136c55 0 108 -28 108 -89c0 -71 -55 -121 -102 -149c-35 -21 -75 -34 -116 -34c-55 0 -108 28 -108 89c0 71 55 121 102 149c35 21 75 34 116 34z" fill="currentColor"/>
<rect transform="translate(76.0069, 15.1969)" x="-0.0672" y="-1.8139" width="0.1345" height="3.3139" ry="0.0421" fill="currentColor"/>
<path transform="translate(8.6195, 10.6097) scale(0.0040, -0.0040)" d="M-15 -504c0 -267 -105 -525 -105 -777c0 -138 33 -261 132 -363c3 -3 3 -9 3 -12c0 -9 -6 -15 -15 -15c-3 0 -9 0 -12 3c-132 135 -180 318 -180 507c0 270 111 537 111 792c0 135 -33 261 -132 360c-3 3 -3 6 -3 9s0 6 3 9c99 99 132 225 132 360
c0 255 -111 522 -111 792c0 189 48 372 180 507c3 3 9 3 12 3c9 0 15 -6 15 -15c0 -3 0 -9 -3 -12c-99 -102 -132 -225 -132 -363c0 -252 105 -510 105 -777c0 -189 -45 -369 -174 -504c129 -135 174 -315 174 -504z" fill="currentColor"/>
<text transform="translate(-1.6190, 11.4363)" font-family="serif" font-size="2.2001" text-anchor="start" fill="currentColor">
<tspan>
Manual </tspan>
</text>
<path transform="translate(87.6976, 13.1969) scale(0.0040, -0.0040)" d="M218 136c55 0 108 -28 108 -89c0 -71 -55 -121 -102 -149c-35 -21 -75 -34 -116 -34c-55 0 -108 28 -108 89c0 71 55 121 102 149c35 21 75 34 116 34z" fill="currentColor"/>
<rect transform="translate(87.7648, 15.1969)" x="-0.0672" y="-1.8139" width="0.1345" height="3.3139" ry="0.0421" fill="currentColor"/>
<path transform="translate(84.3185, 7.0225) scale(0.0040, -0.0040)" d="M213 112c-50 0 -69 -43 -69 -88c0 -77 57 -136 134 -136c50 0 69 43 69 88c0 77 -57 136 -134 136zM491 0c0 -43 -34 -75 -72 -96c-53 -29 -114 -40 -174 -40s-120 11 -173 40c-38 21 -72 53 -72 96s34 75 72 96c53 29 113 40 173 40s121 -11 174 -40
c38 -21 72 -53 72 -96z" fill="currentColor"/>
<path transform="translate(84.3185, 12.6969) scale(0.0040, -0.0040)" d="M314 65c0 24 -21 41 -42 41c-4 0 -8 0 -12 -1c-31 -9 -78 -40 -115 -64s-84 -53 -104 -78c-7 -8 -10 -18 -10 -28c0 -24 21 -41 42 -41c4 0 8 0 12 1c31 9 77 40 114 64s84 53 104 78c7 8 11 18 11 28zM262 136c46 0 82 -21 82 -71c0 -19 -4 -39 -10 -57
c-12 -37 -32 -72 -64 -94c-53 -36 -113 -50 -187 -50c-46 0 -83 21 -83 71c0 19 5 39 11 57c12 37 31 72 63 94c53 36 114 50 188 50z" fill="currentColor"/>
<path transform="translate(84.3185, 28.0108) scale(0.0040, -0.0040)" d="M213 112c-50 0 -69 -43 -69 -88c0 -77 57 -136 134 -136c50 0 69 43 69 88c0 77 -57 136 -134 136zM491 0c0 -43 -34 -75 -72 -96c-53 -29 -114 -40 -174 -40s-120 11 -173 40c-38 21 -72 53 -72 96s34 75 72 96c53 29 113 40 173 40s121 -11 174 -40
c38 -21 72 -53 72 -96z" fill="currentColor"/>
<path transform="translate(9.7851, 7.0225) scale(0.0040, -0.0040)" d="M376 262c4 0 9 1 13 1c155 0 256 -128 256 -261c0 -76 -33 -154 -107 -210c-22 -17 -47 -28 -73 -36c3 -35 5 -70 5 -105c0 -19 -1 -39 -2 -58c-7 -120 -90 -228 -208 -228c-108 0 -195 88 -195 197c0 58 53 103 112 103c54 0 95 -47 95 -103c0 -52 -43 -95 -95 -95
c-11 0 -21 2 -31 6c26 -39 68 -65 117 -65c96 0 157 92 163 191c1 18 2 37 2 55c0 31 -1 61 -4 92c-29 -5 -58 -8 -89 -8c-188 0 -333 172 -333 374c0 177 131 306 248 441c-19 62 -37 125 -45 190c-6 52 -7 104 -7 156c0 115 55 224 149 292c3 2 7 3 10 3c4 0 7 0 10 -3
c71 -84 133 -245 133 -358c0 -143 -86 -255 -180 -364c21 -68 39 -138 56 -207zM461 -203c68 24 113 95 113 164c0 90 -66 179 -173 190c24 -116 46 -231 60 -354zM74 28c0 -135 129 -247 264 -247c28 0 55 2 82 6c-14 127 -37 245 -63 364c-79 -8 -124 -61 -124 -119
c0 -44 25 -91 81 -123c5 -5 7 -10 7 -15c0 -11 -10 -22 -22 -22c-3 0 -6 1 -9 2c-80 43 -117 115 -117 185c0 88 58 174 160 197c-14 58 -29 117 -46 175c-107 -121 -213 -243 -213 -403zM408 1045c-99 -48 -162 -149 -162 -259c0 -74 18 -133 36 -194
c80 97 146 198 146 324c0 55 -4 79 -20 129z" fill="currentColor"/>
<rect transform="translate(84.3857, 15.1969)" x="-0.0672" y="-2.2410" width="0.1345" height="3.2410" ry="0.0421" fill="currentColor"/>
<path transform="translate(86.7305, 27.5108) scale(0.0040, -0.0040)" d="M0 0c0 31 25 56 56 56s56 -25 56 -56s-25 -56 -56 -56s-56 25 -56 56z" fill="currentColor"/>
<path transform="translate(14.0570, 15.1969) scale(0.0040, -0.0040)" d="M150 477c-29 0 -59 -8 -59 -33c0 -22 36 -25 36 -47c0 -32 -26 -58 -58 -58s-57 26 -57 58c0 65 67 103 138 103c91 0 169 -33 169 -114c0 -43 -4 -82 -42 -100c-9 -4 -14 -12 -14 -21s5 -18 14 -22c41 -19 56 -57 56 -103c0 -92 -79 -140 -179 -140
c-79 0 -154 42 -154 113c0 36 30 66 66 66s65 -30 65 -66c0 -25 -40 -28 -40 -53c0 -27 32 -37 63 -37c49 0 63 61 63 117v16c0 54 -2 94 -50 94h-80c-10 0 -14 8 -14 15s4 14 14 14h80c49 0 50 43 50 99v8c0 54 -18 91 -67 91z" fill="currentColor"/>
<path transform="translate(13.9851, 17.2096) scale(0.0040, -0.0040)" d="M23 11c-1 -7 -6 -11 -11 -11c-6 0 -12 4 -12 11c0 175 235 165 235 344c0 60 -18 122 -70 122c-26 0 -51 -14 -51 -37c0 -27 35 -41 35 -68c0 -38 -30 -69 -68 -69s-69 31 -69 69c0 76 72 128 153 128c96 0 187 -56 187 -145c0 -153 -151 -159 -249 -220c9 2 17 3 26 3
c33 0 70 -11 105 -36c21 -15 46 -23 66 -23c21 0 39 9 44 29c2 6 6 9 11 9c6 0 12 -5 12 -12c0 -67 -90 -105 -138 -105c-36 0 -71 14 -96 44c-13 16 -31 22 -48 22c-30 0 -59 -20 -62 -55z" fill="currentColor"/>
<path transform="translate(59.1279, 13.1969) scale(0.0040, -0.0040)" d="M218 136c55 0 108 -28 108 -89c0 -71 -55 -121 -102 -149c-35 -21 -75 -34 -116 -34c-55 0 -108 28 -108 89c0 71 55 121 102 149c35 21 75 34 116 34z" fill="currentColor"/>
<rect transform="translate(59.1952, 15.1969)" x="-0.0672" y="-1.8139" width="0.1345" height="3.3139" ry="0.0421" fill="currentColor"/>
<path transform="translate(9.7851, 25.0108) scale(0.0040, -0.0040)" d="M557 -125c0 28 23 51 51 51s51 -23 51 -51s-23 -51 -51 -51s-51 23 -51 51zM557 125c0 28 23 51 51 51s51 -23 51 -51s-23 -51 -51 -51s-51 23 -51 51zM232 263c172 0 293 -88 293 -251c0 -263 -263 -414 -516 -521c-3 -3 -6 -4 -9 -4c-7 0 -13 6 -13 13c0 3 1 6 4 9
c202 118 412 265 412 493c0 120 -63 235 -171 235c-74 0 -129 -54 -154 -126c11 5 22 8 34 8c55 0 100 -45 100 -100c0 -58 -44 -106 -100 -106c-60 0 -112 47 -112 106c0 133 102 244 232 244z" fill="currentColor"/>
<path transform="translate(17.4586, 28.0108) scale(0.0040, -0.0040)" d="M213 112c-50 0 -69 -43 -69 -88c0 -77 57 -136 134 -136c50 0 69 43 69 88c0 77 -57 136 -134 136zM491 0c0 -43 -34 -75 -72 -96c-53 -29 -114 -40 -174 -40s-120 11 -173 40c-38 21 -72 53 -72 96s34 75 72 96c53 29 113 40 173 40s121 -11 174 -40
c38 -21 72 -53 72 -96z" fill="currentColor"/>
<path transform="translate(61.6050, 12.6969) scale(0.0040, -0.0040)" d="M218 136c55 0 108 -28 108 -89c0 -71 -55 -121 -102 -149c-35 -21 -75 -34 -116 -34c-55 0 -108 28 -108 89c0 71 55 121 102 149c35 21 75 34 116 34z" fill="currentColor"/>
<rect transform="translate(61.6722, 15.1969)" x="-0.0672" y="-2.3139" width="0.1345" height="3.3139" ry="0.0421" fill="currentColor"/>
<path transform="translate(64.0821, 4.5225) scale(0.0040, -0.0040)" d="M314 65c0 24 -21 41 -42 41c-4 0 -8 0 -12 -1c-31 -9 -78 -40 -115 -64s-84 -53 -104 -78c-7 -8 -10 -18 -10 -28c0 -24 21 -41 42 -41c4 0 8 0 12 1c31 9 77 40 114 64s84 53 104 78c7 8 11 18 11 28zM262 136c46 0 82 -21 82 -71c0 -19 -4 -39 -10 -57
c-12 -37 -32 -72 -64 -94c-53 -36 -113 -50 -187 -50c-46 0 -83 21 -83 71c0 19 5 39 11 57c12 37 31 72 63 94c53 36 114 50 188 50z" fill="currentColor"/>
<path transform="translate(64.0821, 12.1969) scale(0.0040, -0.0040)" d="M314 65c0 24 -21 41 -42 41c-4 0 -8 0 -12 -1c-31 -9 -78 -40 -115 -64s-84 -53 -104 -78c-7 -8 -10 -18 -10 -28c0 -24 21 -41 42 -41c4 0 8 0 12 1c31 9 77 40 114 64s84 53 104 78c7 8 11 18 11 28zM262 136c46 0 82 -21 82 -71c0 -19 -4 -39 -10 -57
c-12 -37 -32 -72 -64 -94c-53 -36 -113 -50 -187 -50c-46 0 -83 21 -83 71c0 19 5 39 11 57c12 37 31 72 63 94c53 36 114 50 188 50z" fill="currentColor"/>
<path transform="translate(9.7851, 14.1969) scale(0.0040, -0.0040)" d="M557 -125c0 28 23 51 51 51s51 -23 51 -51s-23 -51 -51 -51s-51 23 -51 51zM557 125c0 28 23 51 51 51s51 -23 51 -51s-23 -51 -51 -51s-51 23 -51 51zM232 263c172 0 293 -88 293 -251c0 -263 -263 -414 -516 -521c-3 -3 -6 -4 -9 -4c-7 0 -13 6 -13 13c0 3 1 6 4 9
c202 118 412 265 412 493c0 120 -63 235 -171 235c-74 0 -129 -54 -154 -126c11 5 22 8 34 8c55 0 100 -45 100 -100c0 -58 -44 -106 -100 -106c-60 0 -112 47 -112 106c0 133 102 244 232 244z" fill="currentColor"/>
<rect transform="translate(65.3922, 6.0225)" x="-0.0672" y="-4.3333" width="0.1345" height="2.5743" ry="0.0421" fill="currentColor"/>
<path transform="translate(14.0570, 26.0108) scale(0.0040, -0.0040)" d="M150 477c-29 0 -59 -8 -59 -33c0 -22 36 -25 36 -47c0 -32 -26 -58 -58 -58s-57 26 -57 58c0 65 67 103 138 103c91 0 169 -33 169 -114c0 -43 -4 -82 -42 -100c-9 -4 -14 -12 -14 -21s5 -18 14 -22c41 -19 56 -57 56 -103c0 -92 -79 -140 -179 -140
c-79 0 -154 42 -154 113c0 36 30 66 66 66s65 -30 65 -66c0 -25 -40 -28 -40 -53c0 -27 32 -37 63 -37c49 0 63 61 63 117v16c0 54 -2 94 -50 94h-80c-10 0 -14 8 -14 15s4 14 14 14h80c49 0 50 43 50 99v8c0 54 -18 91 -67 91z" fill="currentColor"/>
<path transform="translate(13.9851, 28.0235) scale(0.0040, -0.0040)" d="M23 11c-1 -7 -6 -11 -11 -11c-6 0 -12 4 -12 11c0 175 235 165 235 344c0 60 -18 122 -70 122c-26 0 -51 -14 -51 -37c0 -27 35 -41 35 -68c0 -38 -30 -69 -68 -69s-69 31 -69 69c0 76 72 128 153 128c96 0 187 -56 187 -145c0 -153 -151 -159 -249 -220c9 2 17 3 26 3
c33 0 70 -11 105 -36c21 -15 46 -23 66 -23c21 0 39 9 44 29c2 6 6 9 11 9c6 0 12 -5 12 -12c0 -67 -90 -105 -138 -105c-36 0 -71 14 -96 44c-13 16 -31 22 -48 22c-30 0 -59 -20 -62 -55z" fill="currentColor"/>
<path transform="translate(56.6508, 13.6969) scale(0.0040, -0.0040)" d="M218 136c55 0 108 -28 108 -89c0 -71 -55 -121 -102 -149c-35 -21 -75 -34 -116 -34c-55 0 -108 28 -108 89c0 71 55 121 102 149c35 21 75 34 116 34z" fill="currentColor"/>
<rect transform="translate(56.7181, 15.1969)" x="-0.0672" y="-1.3139" width="0.1345" height="3.3139" ry="0.0421" fill="currentColor"/>
<path transform="translate(70.9204, 27.5108) scale(0.0040, -0.0040)" d="M0 0c0 31 25 56 56 56s56 -25 56 -56s-25 -56 -56 -56s-56 25 -56 56z" fill="currentColor"/>
<path transform="translate(68.5084, 28.0108) scale(0.0040, -0.0040)" d="M213 112c-50 0 -69 -43 -69 -88c0 -77 57 -136 134 -136c50 0 69 43 69 88c0 77 -57 136 -134 136zM491 0c0 -43 -34 -75 -72 -96c-53 -29 -114 -40 -174 -40s-120 11 -173 40c-38 21 -72 53 -72 96s34 75 72 96c53 29 113 40 173 40s121 -11 174 -40
c38 -21 72 -53 72 -96z" fill="currentColor"/>
<rect transform="translate(64.1493, 15.1969)" x="-0.0672" y="-2.7410" width="0.1345" height="3.2410" ry="0.0421" fill="currentColor"/>
<path transform="translate(17.4586, 15.1969) scale(0.0040, -0.0040)" d="M365 0h-355c-6 0 -10 4 -10 10v136c0 6 4 10 10 10h355c6 0 10 -4 10 -10v-136c0 -6 -4 -10 -10 -10z" fill="currentColor"/>
<path transform="translate(14.0570, 6.0225) scale(0.0040, -0.0040)" d="M150 477c-29 0 -59 -8 -59 -33c0 -22 36 -25 36 -47c0 -32 -26 -58 -58 -58s-57 26 -57 58c0 65 67 103 138 103c91 0 169 -33 169 -114c0 -43 -4 -82 -42 -100c-9 -4 -14 -12 -14 -21s5 -18 14 -22c41 -19 56 -57 56 -103c0 -92 -79 -140 -179 -140
c-79 0 -154 42 -154 113c0 36 30 66 66 66s65 -30 65 -66c0 -25 -40 -28 -40 -53c0 -27 32 -37 63 -37c49 0 63 61 63 117v16c0 54 -2 94 -50 94h-80c-10 0 -14 8 -14 15s4 14 14 14h80c49 0 50 43 50 99v8c0 54 -18 91 -67 91z" fill="currentColor"/>
<path transform="translate(13.9851, 8.0352) scale(0.0040, -0.0040)" d="M23 11c-1 -7 -6 -11 -11 -11c-6 0 -12 4 -12 11c0 175 235 165 235 344c0 60 -18 122 -70 122c-26 0 -51 -14 -51 -37c0 -27 35 -41 35 -68c0 -38 -30 -69 -68 -69s-69 31 -69 69c0 76 72 128 153 128c96 0 187 -56 187 -145c0 -153 -151 -159 -249 -220c9 2 17 3 26 3
c33 0 70 -11 105 -36c21 -15 46 -23 66 -23c21 0 39 9 44 29c2 6 6 9 11 9c6 0 12 -5 12 -12c0 -67 -90 -105 -138 -105c-36 0 -71 14 -96 44c-13 16 -31 22 -48 22c-30 0 -59 -20 -62 -55z" fill="currentColor"/>
<path transform="translate(68.5084, 5.0225) scale(0.0040, -0.0040)" d="M213 112c-50 0 -69 -43 -69 -88c0 -77 57 -136 134 -136c50 0 69 43 69 88c0 77 -57 136 -134 136zM491 0c0 -43 -34 -75 -72 -96c-53 -29 -114 -40 -174 -40s-120 11 -173 40c-38 21 -72 53 -72 96s34 75 72 96c53 29 113 40 173 40s121 -11 174 -40
c38 -21 72 -53 72 -96z" fill="currentColor"/>
<path transform="translate(68.5084, 12.6969) scale(0.0040, -0.0040)" d="M218 136c55 0 108 -28 108 -89c0 -71 -55 -121 -102 -149c-35 -21 -75 -34 -116 -34c-55 0 -108 28 -108 89c0 71 55 121 102 149c35 21 75 34 116 34z" fill="currentColor"/>
<rect transform="translate(68.5757, 15.1969)" x="-0.0672" y="-2.3139" width="0.1345" height="3.3139" ry="0.0421" fill="currentColor"/>
</svg>
